<svg width="386" height="51" viewBox="0 0 386 51" fill="none"
  xmlns="http://www.w3.org/2000/svg">
  <path d="M4.6 12.12C3.792 12.12 3.148 11.888 2.668 11.424C2.196 10.952 1.96 10.324 1.96 9.54V5.7C1.96 4.916 2.196 4.292 2.668 3.828C3.148 3.356 3.792 3.12 4.6 3.12C5.408 3.12 6.048 3.356 6.52 3.828C7 4.292 7.24 4.916 7.24 5.7V9.54C7.24 10.06 7.132 10.516 6.916 10.908C6.7 11.292 6.392 11.592 5.992 11.808C5.6 12.016 5.136 12.12 4.6 12.12ZM4.6 11.196C5.08 11.196 5.464 11.044 5.752 10.74C6.048 10.428 6.196 10.028 6.196 9.54V5.7C6.196 5.212 6.048 4.816 5.752 4.512C5.464 4.2 5.08 4.044 4.6 4.044C4.12 4.044 3.732 4.2 3.436 4.512C3.148 4.816 3.004 5.212 3.004 5.7V9.54C3.004 10.028 3.148 10.428 3.436 10.74C3.732 11.044 4.12 11.196 4.6 11.196ZM4.6 8.28C4.384 8.28 4.208 8.22 4.072 8.1C3.944 7.98 3.88 7.808 3.88 7.584C3.88 7.368 3.944 7.204 4.072 7.092C4.208 6.972 4.384 6.912 4.6 6.912C4.816 6.912 4.988 6.972 5.116 7.092C5.252 7.204 5.32 7.368 5.32 7.584C5.32 7.808 5.252 7.98 5.116 8.1C4.988 8.22 4.816 8.28 4.6 8.28ZM8.79531 12L11.1353 8.604L8.93931 5.4H10.2113L11.5193 7.44C11.5753 7.528 11.6273 7.624 11.6753 7.728C11.7313 7.832 11.7753 7.916 11.8073 7.98C11.8313 7.916 11.8673 7.832 11.9153 7.728C11.9713 7.624 12.0273 7.528 12.0833 7.44L13.3913 5.4H14.6633L12.4673 8.616L14.7953 12H13.5233L12.1073 9.84C12.0513 9.752 11.9953 9.652 11.9393 9.54C11.8913 9.42 11.8473 9.324 11.8073 9.252C11.7753 9.324 11.7273 9.42 11.6633 9.54C11.6073 9.652 11.5473 9.752 11.4833 9.84L10.0673 12H8.79531ZM18.9906 12.12C18.4386 12.12 17.9506 12.012 17.5266 11.796C17.1026 11.58 16.7706 11.28 16.5306 10.896C16.2986 10.504 16.1826 10.056 16.1826 9.552C16.1826 9 16.3386 8.524 16.6506 8.124C16.9706 7.724 17.3946 7.48 17.9226 7.392V7.356C17.4666 7.252 17.1026 7.024 16.8306 6.672C16.5586 6.312 16.4226 5.9 16.4226 5.436C16.4226 4.98 16.5306 4.58 16.7466 4.236C16.9626 3.884 17.2626 3.612 17.6466 3.42C18.0386 3.22 18.4866 3.12 18.9906 3.12C19.5026 3.12 19.9506 3.22 20.3346 3.42C20.7186 3.612 21.0186 3.884 21.2346 4.236C21.4506 4.58 21.5586 4.98 21.5586 5.436C21.5586 5.9 21.4226 6.312 21.1506 6.672C20.8786 7.024 20.5146 7.252 20.0586 7.356V7.392C20.5866 7.48 21.0066 7.724 21.3186 8.124C21.6386 8.524 21.7986 9 21.7986 9.552C21.7986 10.056 21.6786 10.504 21.4386 10.896C21.2066 11.28 20.8786 11.58 20.4546 11.796C20.0386 12.012 19.5506 12.12 18.9906 12.12ZM18.9906 6.936C19.4386 6.936 19.7986 6.804 20.0706 6.54C20.3426 6.276 20.4786 5.932 20.4786 5.508C20.4786 5.084 20.3426 4.74 20.0706 4.476C19.7986 4.212 19.4386 4.08 18.9906 4.08C18.5506 4.08 18.1906 4.212 17.9106 4.476C17.6386 4.74 17.5026 5.084 17.5026 5.508C17.5026 5.932 17.6386 6.276 17.9106 6.54C18.1906 6.804 18.5506 6.936 18.9906 6.936ZM18.9906 11.148C19.5026 11.148 19.9186 11 20.2386 10.704C20.5586 10.4 20.7186 10.008 20.7186 9.528C20.7186 9.04 20.5586 8.648 20.2386 8.352C19.9186 8.048 19.5026 7.896 18.9906 7.896C18.4786 7.896 18.0626 8.048 17.7426 8.352C17.4226 8.648 17.2626 9.04 17.2626 9.528C17.2626 10.008 17.4226 10.4 17.7426 10.704C18.0626 11 18.4786 11.148 18.9906 11.148ZM23.7859 12V3.24H28.8259V4.224H24.8539V6.936H28.4059V7.896H24.8539V11.016H28.8259V12H23.7859ZM33.3092 12.12C32.5013 12.12 31.8613 11.896 31.3893 11.448C30.9173 10.992 30.6813 10.376 30.6813 9.6H31.7613C31.7613 10.08 31.9013 10.46 32.1813 10.74C32.4613 11.02 32.8413 11.16 33.3213 11.16C33.8013 11.16 34.1813 11.02 34.4613 10.74C34.7413 10.46 34.8813 10.08 34.8813 9.6V9.06C34.8813 8.58 34.7453 8.2 34.4733 7.92C34.2013 7.64 33.8333 7.5 33.3693 7.5H30.9813V3.24H35.6493V4.224H31.9893L32.0133 6.516H33.4293C34.2373 6.516 34.8613 6.74 35.3013 7.188C35.7413 7.628 35.9613 8.252 35.9613 9.06V9.6C35.9613 10.376 35.7213 10.992 35.2413 11.448C34.7693 11.896 34.1253 12.12 33.3092 12.12ZM40.4446 12.12C39.6366 12.12 38.9966 11.896 38.5246 11.448C38.0526 10.992 37.8166 10.376 37.8166 9.6H38.8966C38.8966 10.08 39.0366 10.46 39.3166 10.74C39.5966 11.02 39.9766 11.16 40.4566 11.16C40.9366 11.16 41.3166 11.02 41.5966 10.74C41.8766 10.46 42.0166 10.08 42.0166 9.6V9C42.0166 8.52 41.8766 8.14 41.5966 7.86C41.3166 7.58 40.9366 7.44 40.4566 7.44H39.5086V6.504L41.6566 4.224H38.0566V3.24H42.8806V4.248L40.7686 6.492C41.4886 6.548 42.0566 6.8 42.4726 7.248C42.8886 7.688 43.0966 8.272 43.0966 9V9.6C43.0966 10.376 42.8566 10.992 42.3766 11.448C41.9046 11.896 41.2606 12.12 40.4446 12.12Z" fill="#AAAAAA"/>
  <g clip-path="url(#clip0_253_219)">
    <path d="M1 22C1 19.7909 2.79086 18 5 18H65V50H5C2.79086 50 1 48.2091 1 46V22Z" fill="white"/>
    <rect x="1" y="18" width="32" height="32" fill="white"/>
    <rect x="1" y="18" width="32" height="32" stroke="#AAAAAA" stroke-width="2" stroke-linecap="round" stroke-dasharray="6 6"/>
    <path d="M11.8 39.66C10.7227 39.66 9.864 39.3507 9.224 38.732C8.59467 38.1027 8.28 37.2653 8.28 36.22V31.1C8.28 30.0547 8.59467 29.2227 9.224 28.604C9.864 27.9747 10.7227 27.66 11.8 27.66C12.8773 27.66 13.7307 27.9747 14.36 28.604C15 29.2227 15.32 30.0547 15.32 31.1V36.22C15.32 36.9133 15.176 37.5213 14.888 38.044C14.6 38.556 14.1893 38.956 13.656 39.244C13.1333 39.5213 12.5147 39.66 11.8 39.66ZM11.8 38.428C12.44 38.428 12.952 38.2253 13.336 37.82C13.7307 37.404 13.928 36.8707 13.928 36.22V31.1C13.928 30.4493 13.7307 29.9213 13.336 29.516C12.952 29.1 12.44 28.892 11.8 28.892C11.16 28.892 10.6427 29.1 10.248 29.516C9.864 29.9213 9.672 30.4493 9.672 31.1V36.22C9.672 36.8707 9.864 37.404 10.248 37.82C10.6427 38.2253 11.16 38.428 11.8 38.428ZM11.8 34.54C11.512 34.54 11.2773 34.46 11.096 34.3C10.9253 34.14 10.84 33.9107 10.84 33.612C10.84 33.324 10.9253 33.1053 11.096 32.956C11.2773 32.796 11.512 32.716 11.8 32.716C12.088 32.716 12.3173 32.796 12.488 32.956C12.6693 33.1053 12.76 33.324 12.76 33.612C12.76 33.9107 12.6693 34.14 12.488 34.3C12.3173 34.46 12.088 34.54 11.8 34.54ZM17.9698 39.5V38.172L21.8578 34.012C22.4231 33.4147 22.8231 32.8813 23.0578 32.412C23.2924 31.9427 23.4098 31.484 23.4098 31.036C23.4098 30.396 23.2231 29.8893 22.8498 29.516C22.4871 29.132 21.9911 28.94 21.3618 28.94C20.7111 28.94 20.1938 29.1373 19.8098 29.532C19.4364 29.916 19.2498 30.4387 19.2498 31.1H17.8098C17.8418 30.044 18.1778 29.2067 18.8178 28.588C19.4578 27.9693 20.3058 27.66 21.3618 27.66C22.4391 27.66 23.2924 27.964 23.9218 28.572C24.5618 29.18 24.8818 30.0067 24.8818 31.052C24.8818 31.6067 24.7271 32.1933 24.4178 32.812C24.1191 33.4307 23.6018 34.124 22.8658 34.892L19.7138 38.188H25.0258V39.5H17.9698Z" fill="black"/>
    <rect x="33" y="18" width="32" height="32" fill="white"/>
    <rect x="33" y="18" width="32" height="32" stroke="#AAAAAA" stroke-width="2" stroke-linecap="round" stroke-dasharray="6 6"/>
    <path d="M45.4 39.5V36.94H40.12V34.684L44.376 27.82H46.008L41.56 35.004V35.628H45.4V32.78H46.84V39.5H45.4ZM51.6338 39.5L55.7938 29.132H51.3458V31.02H49.9058V27.82H57.3298V29.164L53.2018 39.5H51.6338Z" fill="black"/>
  </g>
  <path d="M1 22C1 19.7909 2.79086 18 5 18H65V50H5C2.79086 50 1 48.2091 1 46V22Z" stroke="black" stroke-width="2"/>
  <path d="M68.6 12.12C67.792 12.12 67.148 11.888 66.668 11.424C66.196 10.952 65.96 10.324 65.96 9.54V5.7C65.96 4.916 66.196 4.292 66.668 3.828C67.148 3.356 67.792 3.12 68.6 3.12C69.408 3.12 70.048 3.356 70.52 3.828C71 4.292 71.24 4.916 71.24 5.7V9.54C71.24 10.06 71.132 10.516 70.916 10.908C70.7 11.292 70.392 11.592 69.992 11.808C69.6 12.016 69.136 12.12 68.6 12.12ZM68.6 11.196C69.08 11.196 69.464 11.044 69.752 10.74C70.048 10.428 70.196 10.028 70.196 9.54V5.7C70.196 5.212 70.048 4.816 69.752 4.512C69.464 4.2 69.08 4.044 68.6 4.044C68.12 4.044 67.732 4.2 67.436 4.512C67.148 4.816 67.004 5.212 67.004 5.7V9.54C67.004 10.028 67.148 10.428 67.436 10.74C67.732 11.044 68.12 11.196 68.6 11.196ZM68.6 8.28C68.384 8.28 68.208 8.22 68.072 8.1C67.944 7.98 67.88 7.808 67.88 7.584C67.88 7.368 67.944 7.204 68.072 7.092C68.208 6.972 68.384 6.912 68.6 6.912C68.816 6.912 68.988 6.972 69.116 7.092C69.252 7.204 69.32 7.368 69.32 7.584C69.32 7.808 69.252 7.98 69.116 8.1C68.988 8.22 68.816 8.28 68.6 8.28ZM72.7953 12L75.1353 8.604L72.9393 5.4H74.2113L75.5193 7.44C75.5753 7.528 75.6273 7.624 75.6753 7.728C75.7313 7.832 75.7753 7.916 75.8073 7.98C75.8313 7.916 75.8673 7.832 75.9153 7.728C75.9713 7.624 76.0273 7.528 76.0833 7.44L77.3913 5.4H78.6633L76.4673 8.616L78.7953 12H77.5233L76.1073 9.84C76.0513 9.752 75.9953 9.652 75.9393 9.54C75.8913 9.42 75.8473 9.324 75.8073 9.252C75.7753 9.324 75.7273 9.42 75.6633 9.54C75.6073 9.652 75.5473 9.752 75.4833 9.84L74.0673 12H72.7953ZM82.9906 12.12C82.4386 12.12 81.9506 12.012 81.5266 11.796C81.1026 11.58 80.7706 11.28 80.5306 10.896C80.2986 10.504 80.1826 10.056 80.1826 9.552C80.1826 9 80.3386 8.524 80.6506 8.124C80.9706 7.724 81.3946 7.48 81.9226 7.392V7.356C81.4666 7.252 81.1026 7.024 80.8306 6.672C80.5586 6.312 80.4226 5.9 80.4226 5.436C80.4226 4.98 80.5306 4.58 80.7466 4.236C80.9626 3.884 81.2626 3.612 81.6466 3.42C82.0386 3.22 82.4866 3.12 82.9906 3.12C83.5026 3.12 83.9506 3.22 84.3346 3.42C84.7186 3.612 85.0186 3.884 85.2346 4.236C85.4506 4.58 85.5586 4.98 85.5586 5.436C85.5586 5.9 85.4226 6.312 85.1506 6.672C84.8786 7.024 84.5146 7.252 84.0586 7.356V7.392C84.5866 7.48 85.0066 7.724 85.3186 8.124C85.6386 8.524 85.7986 9 85.7986 9.552C85.7986 10.056 85.6786 10.504 85.4386 10.896C85.2066 11.28 84.8786 11.58 84.4546 11.796C84.0386 12.012 83.5506 12.12 82.9906 12.12ZM82.9906 6.936C83.4386 6.936 83.7986 6.804 84.0706 6.54C84.3426 6.276 84.4786 5.932 84.4786 5.508C84.4786 5.084 84.3426 4.74 84.0706 4.476C83.7986 4.212 83.4386 4.08 82.9906 4.08C82.5506 4.08 82.1906 4.212 81.9106 4.476C81.6386 4.74 81.5026 5.084 81.5026 5.508C81.5026 5.932 81.6386 6.276 81.9106 6.54C82.1906 6.804 82.5506 6.936 82.9906 6.936ZM82.9906 11.148C83.5026 11.148 83.9186 11 84.2386 10.704C84.5586 10.4 84.7186 10.008 84.7186 9.528C84.7186 9.04 84.5586 8.648 84.2386 8.352C83.9186 8.048 83.5026 7.896 82.9906 7.896C82.4786 7.896 82.0626 8.048 81.7426 8.352C81.4226 8.648 81.2626 9.04 81.2626 9.528C81.2626 10.008 81.4226 10.4 81.7426 10.704C82.0626 11 82.4786 11.148 82.9906 11.148ZM87.7859 12V3.24H92.8259V4.224H88.8539V6.936H92.4059V7.896H88.8539V11.016H92.8259V12H87.7859ZM97.3092 12.12C96.5013 12.12 95.8613 11.896 95.3893 11.448C94.9173 10.992 94.6813 10.376 94.6813 9.6H95.7613C95.7613 10.08 95.9013 10.46 96.1813 10.74C96.4613 11.02 96.8413 11.16 97.3213 11.16C97.8013 11.16 98.1813 11.02 98.4613 10.74C98.7413 10.46 98.8813 10.08 98.8813 9.6V9.06C98.8813 8.58 98.7453 8.2 98.4733 7.92C98.2013 7.64 97.8333 7.5 97.3693 7.5H94.9813V3.24H99.6493V4.224H95.9893L96.0133 6.516H97.4293C98.2373 6.516 98.8613 6.74 99.3013 7.188C99.7413 7.628 99.9613 8.252 99.9613 9.06V9.6C99.9613 10.376 99.7213 10.992 99.2413 11.448C98.7693 11.896 98.1253 12.12 97.3092 12.12ZM104.505 12.12C103.697 12.12 103.057 11.896 102.585 11.448C102.113 10.992 101.877 10.376 101.877 9.6H102.957C102.957 10.08 103.097 10.46 103.377 10.74C103.657 11.02 104.037 11.16 104.517 11.16C104.997 11.16 105.377 11.02 105.657 10.74C105.937 10.46 106.077 10.08 106.077 9.6V9.06C106.077 8.58 105.941 8.2 105.669 7.92C105.397 7.64 105.029 7.5 104.565 7.5H102.177V3.24H106.845V4.224H103.185L103.209 6.516H104.625C105.433 6.516 106.057 6.74 106.497 7.188C106.937 7.628 107.157 8.252 107.157 9.06V9.6C107.157 10.376 106.917 10.992 106.437 11.448C105.965 11.896 105.321 12.12 104.505 12.12Z" fill="#AAAAAA"/>
  <g clip-path="url(#clip1_253_219)">
    <rect x="65" y="18" width="64" height="32" fill="white"/>
    <rect x="65" y="18" width="32" height="32" fill="white"/>
    <rect x="65" y="18" width="32" height="32" stroke="#AAAAAA" stroke-width="2" stroke-linecap="round" stroke-dasharray="6 6"/>
    <path d="M75.8 39.66C74.7227 39.66 73.864 39.3507 73.224 38.732C72.5947 38.1027 72.28 37.2653 72.28 36.22V31.1C72.28 30.0547 72.5947 29.2227 73.224 28.604C73.864 27.9747 74.7227 27.66 75.8 27.66C76.8773 27.66 77.7307 27.9747 78.36 28.604C79 29.2227 79.32 30.0547 79.32 31.1V36.22C79.32 36.9133 79.176 37.5213 78.888 38.044C78.6 38.556 78.1893 38.956 77.656 39.244C77.1333 39.5213 76.5147 39.66 75.8 39.66ZM75.8 38.428C76.44 38.428 76.952 38.2253 77.336 37.82C77.7307 37.404 77.928 36.8707 77.928 36.22V31.1C77.928 30.4493 77.7307 29.9213 77.336 29.516C76.952 29.1 76.44 28.892 75.8 28.892C75.16 28.892 74.6427 29.1 74.248 29.516C73.864 29.9213 73.672 30.4493 73.672 31.1V36.22C73.672 36.8707 73.864 37.404 74.248 37.82C74.6427 38.2253 75.16 38.428 75.8 38.428ZM75.8 34.54C75.512 34.54 75.2773 34.46 75.096 34.3C74.9253 34.14 74.84 33.9107 74.84 33.612C74.84 33.324 74.9253 33.1053 75.096 32.956C75.2773 32.796 75.512 32.716 75.8 32.716C76.088 32.716 76.3173 32.796 76.488 32.956C76.6693 33.1053 76.76 33.324 76.76 33.612C76.76 33.9107 76.6693 34.14 76.488 34.3C76.3173 34.46 76.088 34.54 75.8 34.54ZM85.3938 39.66C84.3164 39.66 83.4578 39.3507 82.8178 38.732C82.1884 38.1027 81.8738 37.2653 81.8738 36.22V31.1C81.8738 30.0547 82.1884 29.2227 82.8178 28.604C83.4578 27.9747 84.3164 27.66 85.3938 27.66C86.4711 27.66 87.3244 27.9747 87.9538 28.604C88.5938 29.2227 88.9138 30.0547 88.9138 31.1V36.22C88.9138 36.9133 88.7698 37.5213 88.4818 38.044C88.1938 38.556 87.7831 38.956 87.2498 39.244C86.7271 39.5213 86.1084 39.66 85.3938 39.66ZM85.3938 38.428C86.0338 38.428 86.5458 38.2253 86.9298 37.82C87.3244 37.404 87.5218 36.8707 87.5218 36.22V31.1C87.5218 30.4493 87.3244 29.9213 86.9298 29.516C86.5458 29.1 86.0338 28.892 85.3938 28.892C84.7538 28.892 84.2364 29.1 83.8418 29.516C83.4578 29.9213 83.2658 30.4493 83.2658 31.1V36.22C83.2658 36.8707 83.4578 37.404 83.8418 37.82C84.2364 38.2253 84.7538 38.428 85.3938 38.428ZM85.3938 34.54C85.1058 34.54 84.8711 34.46 84.6898 34.3C84.5191 34.14 84.4338 33.9107 84.4338 33.612C84.4338 33.324 84.5191 33.1053 84.6898 32.956C84.8711 32.796 85.1058 32.716 85.3938 32.716C85.6818 32.716 85.9111 32.796 86.0818 32.956C86.2631 33.1053 86.3538 33.324 86.3538 33.612C86.3538 33.9107 86.2631 34.14 86.0818 34.3C85.9111 34.46 85.6818 34.54 85.3938 34.54Z" fill="black"/>
    <rect x="97" y="18" width="32" height="32" fill="white"/>
    <rect x="97" y="18" width="32" height="32" stroke="#AAAAAA" stroke-width="2" stroke-linecap="round" stroke-dasharray="6 6"/>
    <path d="M104.52 39.5V27.82H111.4V29.132H105.928V33.004H110.984V34.316H105.96V39.5H104.52ZM113.394 39.5L116.434 27.82H118.37L121.394 39.5H119.938L119.17 36.396H115.634L114.866 39.5H113.394ZM115.922 35.18H118.866L117.97 31.58C117.799 30.8973 117.666 30.3267 117.57 29.868C117.474 29.4093 117.415 29.1107 117.394 28.972C117.372 29.1107 117.314 29.4093 117.218 29.868C117.122 30.3267 116.988 30.892 116.818 31.564L115.922 35.18Z" fill="black"/>
  </g>
  <rect x="65" y="18" width="64" height="32" stroke="black" stroke-width="2"/>
  <path d="M132.6 12.12C131.792 12.12 131.148 11.888 130.668 11.424C130.196 10.952 129.96 10.324 129.96 9.54V5.7C129.96 4.916 130.196 4.292 130.668 3.828C131.148 3.356 131.792 3.12 132.6 3.12C133.408 3.12 134.048 3.356 134.52 3.828C135 4.292 135.24 4.916 135.24 5.7V9.54C135.24 10.06 135.132 10.516 134.916 10.908C134.7 11.292 134.392 11.592 133.992 11.808C133.6 12.016 133.136 12.12 132.6 12.12ZM132.6 11.196C133.08 11.196 133.464 11.044 133.752 10.74C134.048 10.428 134.196 10.028 134.196 9.54V5.7C134.196 5.212 134.048 4.816 133.752 4.512C133.464 4.2 133.08 4.044 132.6 4.044C132.12 4.044 131.732 4.2 131.436 4.512C131.148 4.816 131.004 5.212 131.004 5.7V9.54C131.004 10.028 131.148 10.428 131.436 10.74C131.732 11.044 132.12 11.196 132.6 11.196ZM132.6 8.28C132.384 8.28 132.208 8.22 132.072 8.1C131.944 7.98 131.88 7.808 131.88 7.584C131.88 7.368 131.944 7.204 132.072 7.092C132.208 6.972 132.384 6.912 132.6 6.912C132.816 6.912 132.988 6.972 133.116 7.092C133.252 7.204 133.32 7.368 133.32 7.584C133.32 7.808 133.252 7.98 133.116 8.1C132.988 8.22 132.816 8.28 132.6 8.28ZM136.795 12L139.135 8.604L136.939 5.4H138.211L139.519 7.44C139.575 7.528 139.627 7.624 139.675 7.728C139.731 7.832 139.775 7.916 139.807 7.98C139.831 7.916 139.867 7.832 139.915 7.728C139.971 7.624 140.027 7.528 140.083 7.44L141.391 5.4H142.663L140.467 8.616L142.795 12H141.523L140.107 9.84C140.051 9.752 139.995 9.652 139.939 9.54C139.891 9.42 139.847 9.324 139.807 9.252C139.775 9.324 139.727 9.42 139.663 9.54C139.607 9.652 139.547 9.752 139.483 9.84L138.067 12H136.795ZM146.991 12.12C146.439 12.12 145.951 12.012 145.527 11.796C145.103 11.58 144.771 11.28 144.531 10.896C144.299 10.504 144.183 10.056 144.183 9.552C144.183 9 144.339 8.524 144.651 8.124C144.971 7.724 145.395 7.48 145.923 7.392V7.356C145.467 7.252 145.103 7.024 144.831 6.672C144.559 6.312 144.423 5.9 144.423 5.436C144.423 4.98 144.531 4.58 144.747 4.236C144.963 3.884 145.263 3.612 145.647 3.42C146.039 3.22 146.487 3.12 146.991 3.12C147.503 3.12 147.951 3.22 148.335 3.42C148.719 3.612 149.019 3.884 149.235 4.236C149.451 4.58 149.559 4.98 149.559 5.436C149.559 5.9 149.423 6.312 149.151 6.672C148.879 7.024 148.515 7.252 148.059 7.356V7.392C148.587 7.48 149.007 7.724 149.319 8.124C149.639 8.524 149.799 9 149.799 9.552C149.799 10.056 149.679 10.504 149.439 10.896C149.207 11.28 148.879 11.58 148.455 11.796C148.039 12.012 147.551 12.12 146.991 12.12ZM146.991 6.936C147.439 6.936 147.799 6.804 148.071 6.54C148.343 6.276 148.479 5.932 148.479 5.508C148.479 5.084 148.343 4.74 148.071 4.476C147.799 4.212 147.439 4.08 146.991 4.08C146.551 4.08 146.191 4.212 145.911 4.476C145.639 4.74 145.503 5.084 145.503 5.508C145.503 5.932 145.639 6.276 145.911 6.54C146.191 6.804 146.551 6.936 146.991 6.936ZM146.991 11.148C147.503 11.148 147.919 11 148.239 10.704C148.559 10.4 148.719 10.008 148.719 9.528C148.719 9.04 148.559 8.648 148.239 8.352C147.919 8.048 147.503 7.896 146.991 7.896C146.479 7.896 146.063 8.048 145.743 8.352C145.423 8.648 145.263 9.04 145.263 9.528C145.263 10.008 145.423 10.4 145.743 10.704C146.063 11 146.479 11.148 146.991 11.148ZM151.786 12V3.24H156.826V4.224H152.854V6.936H156.406V7.896H152.854V11.016H156.826V12H151.786ZM161.309 12.12C160.501 12.12 159.861 11.896 159.389 11.448C158.917 10.992 158.681 10.376 158.681 9.6H159.761C159.761 10.08 159.901 10.46 160.181 10.74C160.461 11.02 160.841 11.16 161.321 11.16C161.801 11.16 162.181 11.02 162.461 10.74C162.741 10.46 162.881 10.08 162.881 9.6V9.06C162.881 8.58 162.745 8.2 162.473 7.92C162.201 7.64 161.833 7.5 161.369 7.5H158.981V3.24H163.649V4.224H159.989L160.013 6.516H161.429C162.237 6.516 162.861 6.74 163.301 7.188C163.741 7.628 163.961 8.252 163.961 9.06V9.6C163.961 10.376 163.721 10.992 163.241 11.448C162.769 11.896 162.125 12.12 161.309 12.12ZM167.257 12L170.377 4.224H167.041V5.64H165.961V3.24H171.529V4.248L168.433 12H167.257Z" fill="#AAAAAA"/>
  <g clip-path="url(#clip2_253_219)">
    <rect x="129" y="18" width="64" height="32" fill="white"/>
    <rect x="129" y="18" width="32" height="32" fill="white"/>
    <rect x="129" y="18" width="32" height="32" stroke="#AAAAAA" stroke-width="2" stroke-linecap="round" stroke-dasharray="6 6"/>
    <path d="M139.8 39.66C138.723 39.66 137.864 39.3507 137.224 38.732C136.595 38.1027 136.28 37.2653 136.28 36.22V31.1C136.28 30.0547 136.595 29.2227 137.224 28.604C137.864 27.9747 138.723 27.66 139.8 27.66C140.877 27.66 141.731 27.9747 142.36 28.604C143 29.2227 143.32 30.0547 143.32 31.1V36.22C143.32 36.9133 143.176 37.5213 142.888 38.044C142.6 38.556 142.189 38.956 141.656 39.244C141.133 39.5213 140.515 39.66 139.8 39.66ZM139.8 38.428C140.44 38.428 140.952 38.2253 141.336 37.82C141.731 37.404 141.928 36.8707 141.928 36.22V31.1C141.928 30.4493 141.731 29.9213 141.336 29.516C140.952 29.1 140.44 28.892 139.8 28.892C139.16 28.892 138.643 29.1 138.248 29.516C137.864 29.9213 137.672 30.4493 137.672 31.1V36.22C137.672 36.8707 137.864 37.404 138.248 37.82C138.643 38.2253 139.16 38.428 139.8 38.428ZM139.8 34.54C139.512 34.54 139.277 34.46 139.096 34.3C138.925 34.14 138.84 33.9107 138.84 33.612C138.84 33.324 138.925 33.1053 139.096 32.956C139.277 32.796 139.512 32.716 139.8 32.716C140.088 32.716 140.317 32.796 140.488 32.956C140.669 33.1053 140.76 33.324 140.76 33.612C140.76 33.9107 140.669 34.14 140.488 34.3C140.317 34.46 140.088 34.54 139.8 34.54ZM149.394 39.66C148.316 39.66 147.458 39.3507 146.818 38.732C146.188 38.1027 145.874 37.2653 145.874 36.22V31.1C145.874 30.0547 146.188 29.2227 146.818 28.604C147.458 27.9747 148.316 27.66 149.394 27.66C150.471 27.66 151.324 27.9747 151.954 28.604C152.594 29.2227 152.914 30.0547 152.914 31.1V36.22C152.914 36.9133 152.77 37.5213 152.482 38.044C152.194 38.556 151.783 38.956 151.25 39.244C150.727 39.5213 150.108 39.66 149.394 39.66ZM149.394 38.428C150.034 38.428 150.546 38.2253 150.93 37.82C151.324 37.404 151.522 36.8707 151.522 36.22V31.1C151.522 30.4493 151.324 29.9213 150.93 29.516C150.546 29.1 150.034 28.892 149.394 28.892C148.754 28.892 148.236 29.1 147.842 29.516C147.458 29.9213 147.266 30.4493 147.266 31.1V36.22C147.266 36.8707 147.458 37.404 147.842 37.82C148.236 38.2253 148.754 38.428 149.394 38.428ZM149.394 34.54C149.106 34.54 148.871 34.46 148.69 34.3C148.519 34.14 148.434 33.9107 148.434 33.612C148.434 33.324 148.519 33.1053 148.69 32.956C148.871 32.796 149.106 32.716 149.394 32.716C149.682 32.716 149.911 32.796 150.082 32.956C150.263 33.1053 150.354 33.324 150.354 33.612C150.354 33.9107 150.263 34.14 150.082 34.3C149.911 34.46 149.682 34.54 149.394 34.54Z" fill="black"/>
    <rect x="161" y="18" width="32" height="32" fill="white"/>
    <rect x="161" y="18" width="32" height="32" stroke="#AAAAAA" stroke-width="2" stroke-linecap="round" stroke-dasharray="6 6"/>
    <path d="M168.44 39.5V38.188H171.608V29.068L168.44 31.436V29.788L171.08 27.82H173.048V38.188H175.64V39.5H168.44ZM177.97 39.5V38.172L181.858 34.012C182.423 33.4147 182.823 32.8813 183.058 32.412C183.292 31.9427 183.41 31.484 183.41 31.036C183.41 30.396 183.223 29.8893 182.85 29.516C182.487 29.132 181.991 28.94 181.362 28.94C180.711 28.94 180.194 29.1373 179.81 29.532C179.436 29.916 179.25 30.4387 179.25 31.1H177.81C177.842 30.044 178.178 29.2067 178.818 28.588C179.458 27.9693 180.306 27.66 181.362 27.66C182.439 27.66 183.292 27.964 183.922 28.572C184.562 29.18 184.882 30.0067 184.882 31.052C184.882 31.6067 184.727 32.1933 184.418 32.812C184.119 33.4307 183.602 34.124 182.866 34.892L179.714 38.188H185.026V39.5H177.97Z" fill="black"/>
  </g>
  <rect x="129" y="18" width="64" height="32" stroke="black" stroke-width="2"/>
  <path d="M196.6 12.12C195.792 12.12 195.148 11.888 194.668 11.424C194.196 10.952 193.96 10.324 193.96 9.54V5.7C193.96 4.916 194.196 4.292 194.668 3.828C195.148 3.356 195.792 3.12 196.6 3.12C197.408 3.12 198.048 3.356 198.52 3.828C199 4.292 199.24 4.916 199.24 5.7V9.54C199.24 10.06 199.132 10.516 198.916 10.908C198.7 11.292 198.392 11.592 197.992 11.808C197.6 12.016 197.136 12.12 196.6 12.12ZM196.6 11.196C197.08 11.196 197.464 11.044 197.752 10.74C198.048 10.428 198.196 10.028 198.196 9.54V5.7C198.196 5.212 198.048 4.816 197.752 4.512C197.464 4.2 197.08 4.044 196.6 4.044C196.12 4.044 195.732 4.2 195.436 4.512C195.148 4.816 195.004 5.212 195.004 5.7V9.54C195.004 10.028 195.148 10.428 195.436 10.74C195.732 11.044 196.12 11.196 196.6 11.196ZM196.6 8.28C196.384 8.28 196.208 8.22 196.072 8.1C195.944 7.98 195.88 7.808 195.88 7.584C195.88 7.368 195.944 7.204 196.072 7.092C196.208 6.972 196.384 6.912 196.6 6.912C196.816 6.912 196.988 6.972 197.116 7.092C197.252 7.204 197.32 7.368 197.32 7.584C197.32 7.808 197.252 7.98 197.116 8.1C196.988 8.22 196.816 8.28 196.6 8.28ZM200.795 12L203.135 8.604L200.939 5.4H202.211L203.519 7.44C203.575 7.528 203.627 7.624 203.675 7.728C203.731 7.832 203.775 7.916 203.807 7.98C203.831 7.916 203.867 7.832 203.915 7.728C203.971 7.624 204.027 7.528 204.083 7.44L205.391 5.4H206.663L204.467 8.616L206.795 12H205.523L204.107 9.84C204.051 9.752 203.995 9.652 203.939 9.54C203.891 9.42 203.847 9.324 203.807 9.252C203.775 9.324 203.727 9.42 203.663 9.54C203.607 9.652 203.547 9.752 203.483 9.84L202.067 12H200.795ZM210.991 12.12C210.439 12.12 209.951 12.012 209.527 11.796C209.103 11.58 208.771 11.28 208.531 10.896C208.299 10.504 208.183 10.056 208.183 9.552C208.183 9 208.339 8.524 208.651 8.124C208.971 7.724 209.395 7.48 209.923 7.392V7.356C209.467 7.252 209.103 7.024 208.831 6.672C208.559 6.312 208.423 5.9 208.423 5.436C208.423 4.98 208.531 4.58 208.747 4.236C208.963 3.884 209.263 3.612 209.647 3.42C210.039 3.22 210.487 3.12 210.991 3.12C211.503 3.12 211.951 3.22 212.335 3.42C212.719 3.612 213.019 3.884 213.235 4.236C213.451 4.58 213.559 4.98 213.559 5.436C213.559 5.9 213.423 6.312 213.151 6.672C212.879 7.024 212.515 7.252 212.059 7.356V7.392C212.587 7.48 213.007 7.724 213.319 8.124C213.639 8.524 213.799 9 213.799 9.552C213.799 10.056 213.679 10.504 213.439 10.896C213.207 11.28 212.879 11.58 212.455 11.796C212.039 12.012 211.551 12.12 210.991 12.12ZM210.991 6.936C211.439 6.936 211.799 6.804 212.071 6.54C212.343 6.276 212.479 5.932 212.479 5.508C212.479 5.084 212.343 4.74 212.071 4.476C211.799 4.212 211.439 4.08 210.991 4.08C210.551 4.08 210.191 4.212 209.911 4.476C209.639 4.74 209.503 5.084 209.503 5.508C209.503 5.932 209.639 6.276 209.911 6.54C210.191 6.804 210.551 6.936 210.991 6.936ZM210.991 11.148C211.503 11.148 211.919 11 212.239 10.704C212.559 10.4 212.719 10.008 212.719 9.528C212.719 9.04 212.559 8.648 212.239 8.352C211.919 8.048 211.503 7.896 210.991 7.896C210.479 7.896 210.063 8.048 209.743 8.352C209.423 8.648 209.263 9.04 209.263 9.528C209.263 10.008 209.423 10.4 209.743 10.704C210.063 11 210.479 11.148 210.991 11.148ZM215.786 12V3.24H220.826V4.224H216.854V6.936H220.406V7.896H216.854V11.016H220.826V12H215.786ZM225.309 12.12C224.501 12.12 223.861 11.896 223.389 11.448C222.917 10.992 222.681 10.376 222.681 9.6H223.761C223.761 10.08 223.901 10.46 224.181 10.74C224.461 11.02 224.841 11.16 225.321 11.16C225.801 11.16 226.181 11.02 226.461 10.74C226.741 10.46 226.881 10.08 226.881 9.6V9.06C226.881 8.58 226.745 8.2 226.473 7.92C226.201 7.64 225.833 7.5 225.369 7.5H222.981V3.24H227.649V4.224H223.989L224.013 6.516H225.429C226.237 6.516 226.861 6.74 227.301 7.188C227.741 7.628 227.961 8.252 227.961 9.06V9.6C227.961 10.376 227.721 10.992 227.241 11.448C226.769 11.896 226.125 12.12 225.309 12.12ZM231.317 12L233.477 8.244L233.441 8.22C233.361 8.348 233.213 8.452 232.997 8.532C232.781 8.604 232.545 8.64 232.289 8.64C231.785 8.64 231.341 8.528 230.957 8.304C230.581 8.072 230.285 7.756 230.069 7.356C229.853 6.956 229.745 6.492 229.745 5.964C229.745 5.396 229.865 4.9 230.105 4.476C230.345 4.052 230.677 3.72 231.101 3.48C231.525 3.24 232.013 3.12 232.565 3.12C233.133 3.12 233.629 3.24 234.053 3.48C234.477 3.712 234.809 4.04 235.049 4.464C235.289 4.88 235.409 5.364 235.409 5.916C235.409 6.3 235.337 6.696 235.193 7.104C235.049 7.504 234.853 7.924 234.605 8.364L232.577 12H231.317ZM232.577 7.8C233.097 7.8 233.517 7.628 233.837 7.284C234.165 6.94 234.329 6.492 234.329 5.94C234.329 5.388 234.165 4.94 233.837 4.596C233.517 4.252 233.097 4.08 232.577 4.08C232.057 4.08 231.633 4.252 231.305 4.596C230.985 4.94 230.825 5.388 230.825 5.94C230.825 6.492 230.985 6.94 231.305 7.284C231.633 7.628 232.057 7.8 232.577 7.8Z" fill="#AAAAAA"/>
  <g clip-path="url(#clip3_253_219)">
    <rect x="193" y="18" width="64" height="32" fill="white"/>
    <rect x="193" y="18" width="32" height="32" fill="white"/>
    <rect x="193" y="18" width="32" height="32" stroke="#AAAAAA" stroke-width="2" stroke-linecap="round" stroke-dasharray="6 6"/>
    <path d="M203.624 39.66C202.547 39.66 201.693 39.3613 201.064 38.764C200.435 38.156 200.12 37.3347 200.12 36.3H201.56C201.56 36.94 201.747 37.4467 202.12 37.82C202.493 38.1933 203 38.38 203.64 38.38C204.28 38.38 204.787 38.1933 205.16 37.82C205.533 37.4467 205.72 36.94 205.72 36.3V35.5C205.72 34.86 205.533 34.3533 205.16 33.98C204.787 33.6067 204.28 33.42 203.64 33.42H202.376V32.172L205.24 29.132H200.44V27.82H206.872V29.164L204.056 32.156C205.016 32.2307 205.773 32.5667 206.328 33.164C206.883 33.7507 207.16 34.5293 207.16 35.5V36.3C207.16 37.3347 206.84 38.156 206.2 38.764C205.571 39.3613 204.712 39.66 203.624 39.66ZM211.634 39.5L215.794 29.132H211.346V31.02H209.906V27.82H217.33V29.164L213.202 39.5H211.634Z" fill="black"/>
    <rect x="225" y="18" width="32" height="32" fill="white"/>
    <rect x="225" y="18" width="32" height="32" stroke="#AAAAAA" stroke-width="2" stroke-linecap="round" stroke-dasharray="6 6"/>
    <path d="M237.4 39.5V36.94H232.12V34.684L236.376 27.82H238.008L233.56 35.004V35.628H237.4V32.78H238.84V39.5H237.4ZM241.97 39.5V38.172L245.858 34.012C246.423 33.4147 246.823 32.8813 247.058 32.412C247.292 31.9427 247.41 31.484 247.41 31.036C247.41 30.396 247.223 29.8893 246.85 29.516C246.487 29.132 245.991 28.94 245.362 28.94C244.711 28.94 244.194 29.1373 243.81 29.532C243.436 29.916 243.25 30.4387 243.25 31.1H241.81C241.842 30.044 242.178 29.2067 242.818 28.588C243.458 27.9693 244.306 27.66 245.362 27.66C246.439 27.66 247.292 27.964 247.922 28.572C248.562 29.18 248.882 30.0067 248.882 31.052C248.882 31.6067 248.727 32.1933 248.418 32.812C248.119 33.4307 247.602 34.124 246.866 34.892L243.714 38.188H249.026V39.5H241.97Z" fill="black"/>
  </g>
  <rect x="193" y="18" width="64" height="32" stroke="black" stroke-width="2"/>
  <path d="M260.6 12.12C259.792 12.12 259.148 11.888 258.668 11.424C258.196 10.952 257.96 10.324 257.96 9.54V5.7C257.96 4.916 258.196 4.292 258.668 3.828C259.148 3.356 259.792 3.12 260.6 3.12C261.408 3.12 262.048 3.356 262.52 3.828C263 4.292 263.24 4.916 263.24 5.7V9.54C263.24 10.06 263.132 10.516 262.916 10.908C262.7 11.292 262.392 11.592 261.992 11.808C261.6 12.016 261.136 12.12 260.6 12.12ZM260.6 11.196C261.08 11.196 261.464 11.044 261.752 10.74C262.048 10.428 262.196 10.028 262.196 9.54V5.7C262.196 5.212 262.048 4.816 261.752 4.512C261.464 4.2 261.08 4.044 260.6 4.044C260.12 4.044 259.732 4.2 259.436 4.512C259.148 4.816 259.004 5.212 259.004 5.7V9.54C259.004 10.028 259.148 10.428 259.436 10.74C259.732 11.044 260.12 11.196 260.6 11.196ZM260.6 8.28C260.384 8.28 260.208 8.22 260.072 8.1C259.944 7.98 259.88 7.808 259.88 7.584C259.88 7.368 259.944 7.204 260.072 7.092C260.208 6.972 260.384 6.912 260.6 6.912C260.816 6.912 260.988 6.972 261.116 7.092C261.252 7.204 261.32 7.368 261.32 7.584C261.32 7.808 261.252 7.98 261.116 8.1C260.988 8.22 260.816 8.28 260.6 8.28ZM264.795 12L267.135 8.604L264.939 5.4H266.211L267.519 7.44C267.575 7.528 267.627 7.624 267.675 7.728C267.731 7.832 267.775 7.916 267.807 7.98C267.831 7.916 267.867 7.832 267.915 7.728C267.971 7.624 268.027 7.528 268.083 7.44L269.391 5.4H270.663L268.467 8.616L270.795 12H269.523L268.107 9.84C268.051 9.752 267.995 9.652 267.939 9.54C267.891 9.42 267.847 9.324 267.807 9.252C267.775 9.324 267.727 9.42 267.663 9.54C267.607 9.652 267.547 9.752 267.483 9.84L266.067 12H264.795ZM274.991 12.12C274.439 12.12 273.951 12.012 273.527 11.796C273.103 11.58 272.771 11.28 272.531 10.896C272.299 10.504 272.183 10.056 272.183 9.552C272.183 9 272.339 8.524 272.651 8.124C272.971 7.724 273.395 7.48 273.923 7.392V7.356C273.467 7.252 273.103 7.024 272.831 6.672C272.559 6.312 272.423 5.9 272.423 5.436C272.423 4.98 272.531 4.58 272.747 4.236C272.963 3.884 273.263 3.612 273.647 3.42C274.039 3.22 274.487 3.12 274.991 3.12C275.503 3.12 275.951 3.22 276.335 3.42C276.719 3.612 277.019 3.884 277.235 4.236C277.451 4.58 277.559 4.98 277.559 5.436C277.559 5.9 277.423 6.312 277.151 6.672C276.879 7.024 276.515 7.252 276.059 7.356V7.392C276.587 7.48 277.007 7.724 277.319 8.124C277.639 8.524 277.799 9 277.799 9.552C277.799 10.056 277.679 10.504 277.439 10.896C277.207 11.28 276.879 11.58 276.455 11.796C276.039 12.012 275.551 12.12 274.991 12.12ZM274.991 6.936C275.439 6.936 275.799 6.804 276.071 6.54C276.343 6.276 276.479 5.932 276.479 5.508C276.479 5.084 276.343 4.74 276.071 4.476C275.799 4.212 275.439 4.08 274.991 4.08C274.551 4.08 274.191 4.212 273.911 4.476C273.639 4.74 273.503 5.084 273.503 5.508C273.503 5.932 273.639 6.276 273.911 6.54C274.191 6.804 274.551 6.936 274.991 6.936ZM274.991 11.148C275.503 11.148 275.919 11 276.239 10.704C276.559 10.4 276.719 10.008 276.719 9.528C276.719 9.04 276.559 8.648 276.239 8.352C275.919 8.048 275.503 7.896 274.991 7.896C274.479 7.896 274.063 8.048 273.743 8.352C273.423 8.648 273.263 9.04 273.263 9.528C273.263 10.008 273.423 10.4 273.743 10.704C274.063 11 274.479 11.148 274.991 11.148ZM279.786 12V3.24H284.826V4.224H280.854V6.936H284.406V7.896H280.854V11.016H284.826V12H279.786ZM289.309 12.12C288.501 12.12 287.861 11.896 287.389 11.448C286.917 10.992 286.681 10.376 286.681 9.6H287.761C287.761 10.08 287.901 10.46 288.181 10.74C288.461 11.02 288.841 11.16 289.321 11.16C289.801 11.16 290.181 11.02 290.461 10.74C290.741 10.46 290.881 10.08 290.881 9.6V9.06C290.881 8.58 290.745 8.2 290.473 7.92C290.201 7.64 289.833 7.5 289.369 7.5H286.981V3.24H291.649V4.224H287.989L288.013 6.516H289.429C290.237 6.516 290.861 6.74 291.301 7.188C291.741 7.628 291.961 8.252 291.961 9.06V9.6C291.961 10.376 291.721 10.992 291.241 11.448C290.769 11.896 290.125 12.12 289.309 12.12ZM294.093 12V3.24H296.577C297.377 3.24 298.001 3.44 298.449 3.84C298.905 4.24 299.133 4.796 299.133 5.508C299.133 5.956 298.989 6.36 298.701 6.72C298.421 7.08 298.053 7.304 297.597 7.392V7.428C297.941 7.468 298.241 7.588 298.497 7.788C298.761 7.988 298.965 8.244 299.109 8.556C299.261 8.86 299.337 9.196 299.337 9.564C299.337 10.316 299.105 10.912 298.641 11.352C298.185 11.784 297.557 12 296.757 12H294.093ZM295.149 6.972H296.565C297.029 6.972 297.393 6.848 297.657 6.6C297.929 6.352 298.065 6.016 298.065 5.592C298.065 5.168 297.933 4.832 297.669 4.584C297.405 4.336 297.041 4.212 296.577 4.212H295.149V6.972ZM295.149 11.028H296.637C297.141 11.028 297.537 10.896 297.825 10.632C298.121 10.36 298.269 9.992 298.269 9.528C298.269 9.048 298.121 8.66 297.825 8.364C297.537 8.06 297.141 7.908 296.637 7.908H295.149V11.028Z" fill="#AAAAAA"/>
  <g clip-path="url(#clip4_253_219)">
    <rect x="257" y="18" width="64" height="32" fill="white"/>
    <rect x="257" y="18" width="32" height="32" fill="white"/>
    <rect x="257" y="18" width="32" height="32" stroke="#AAAAAA" stroke-width="2" stroke-linecap="round" stroke-dasharray="6 6"/>
    <path d="M264.52 39.5V27.82H271.4V29.132H265.928V33.004H270.984V34.316H265.96V39.5H264.52ZM274.114 39.5V27.82H280.994V29.132H275.522V33.004H280.578V34.316H275.554V39.5H274.114Z" fill="black"/>
    <rect x="289" y="18" width="32" height="32" fill="white"/>
    <rect x="289" y="18" width="32" height="32" stroke="#AAAAAA" stroke-width="2" stroke-linecap="round" stroke-dasharray="6 6"/>
    <path d="M296.472 39.5V27.82H299.496C300.253 27.82 300.904 27.964 301.448 28.252C302.003 28.54 302.429 28.9453 302.728 29.468C303.037 29.9907 303.192 30.6093 303.192 31.324V35.98C303.192 36.6947 303.037 37.3187 302.728 37.852C302.429 38.3747 302.003 38.78 301.448 39.068C300.904 39.356 300.253 39.5 299.496 39.5H296.472ZM297.912 38.22H299.496C300.2 38.22 300.749 38.0227 301.144 37.628C301.549 37.2333 301.752 36.684 301.752 35.98V31.324C301.752 30.6307 301.549 30.0867 301.144 29.692C300.749 29.2973 300.2 29.1 299.496 29.1H297.912V38.22ZM309.394 39.66C308.658 39.66 308.007 39.516 307.442 39.228C306.876 38.94 306.434 38.54 306.114 38.028C305.804 37.5053 305.65 36.908 305.65 36.236C305.65 35.5 305.858 34.8653 306.274 34.332C306.7 33.7987 307.266 33.4733 307.97 33.356V33.308C307.362 33.1693 306.876 32.8653 306.514 32.396C306.151 31.916 305.97 31.3667 305.97 30.748C305.97 30.14 306.114 29.6067 306.402 29.148C306.69 28.6787 307.09 28.316 307.602 28.06C308.124 27.7933 308.722 27.66 309.394 27.66C310.076 27.66 310.674 27.7933 311.186 28.06C311.698 28.316 312.098 28.6787 312.386 29.148C312.674 29.6067 312.818 30.14 312.818 30.748C312.818 31.3667 312.636 31.916 312.274 32.396C311.911 32.8653 311.426 33.1693 310.818 33.308V33.356C311.522 33.4733 312.082 33.7987 312.498 34.332C312.924 34.8653 313.138 35.5 313.138 36.236C313.138 36.908 312.978 37.5053 312.658 38.028C312.348 38.54 311.911 38.94 311.346 39.228C310.791 39.516 310.14 39.66 309.394 39.66ZM309.394 32.748C309.991 32.748 310.471 32.572 310.834 32.22C311.196 31.868 311.378 31.4093 311.378 30.844C311.378 30.2787 311.196 29.82 310.834 29.468C310.471 29.116 309.991 28.94 309.394 28.94C308.807 28.94 308.327 29.116 307.954 29.468C307.591 29.82 307.41 30.2787 307.41 30.844C307.41 31.4093 307.591 31.868 307.954 32.22C308.327 32.572 308.807 32.748 309.394 32.748ZM309.394 38.364C310.076 38.364 310.631 38.1667 311.058 37.772C311.484 37.3667 311.698 36.844 311.698 36.204C311.698 35.5533 311.484 35.0307 311.058 34.636C310.631 34.2307 310.076 34.028 309.394 34.028C308.711 34.028 308.156 34.2307 307.73 34.636C307.303 35.0307 307.09 35.5533 307.09 36.204C307.09 36.844 307.303 37.3667 307.73 37.772C308.156 38.1667 308.711 38.364 309.394 38.364Z" fill="black"/>
  </g>
  <rect x="257" y="18" width="64" height="32" stroke="black" stroke-width="2"/>
  <path d="M324.6 12.12C323.792 12.12 323.148 11.888 322.668 11.424C322.196 10.952 321.96 10.324 321.96 9.54V5.7C321.96 4.916 322.196 4.292 322.668 3.828C323.148 3.356 323.792 3.12 324.6 3.12C325.408 3.12 326.048 3.356 326.52 3.828C327 4.292 327.24 4.916 327.24 5.7V9.54C327.24 10.06 327.132 10.516 326.916 10.908C326.7 11.292 326.392 11.592 325.992 11.808C325.6 12.016 325.136 12.12 324.6 12.12ZM324.6 11.196C325.08 11.196 325.464 11.044 325.752 10.74C326.048 10.428 326.196 10.028 326.196 9.54V5.7C326.196 5.212 326.048 4.816 325.752 4.512C325.464 4.2 325.08 4.044 324.6 4.044C324.12 4.044 323.732 4.2 323.436 4.512C323.148 4.816 323.004 5.212 323.004 5.7V9.54C323.004 10.028 323.148 10.428 323.436 10.74C323.732 11.044 324.12 11.196 324.6 11.196ZM324.6 8.28C324.384 8.28 324.208 8.22 324.072 8.1C323.944 7.98 323.88 7.808 323.88 7.584C323.88 7.368 323.944 7.204 324.072 7.092C324.208 6.972 324.384 6.912 324.6 6.912C324.816 6.912 324.988 6.972 325.116 7.092C325.252 7.204 325.32 7.368 325.32 7.584C325.32 7.808 325.252 7.98 325.116 8.1C324.988 8.22 324.816 8.28 324.6 8.28ZM328.795 12L331.135 8.604L328.939 5.4H330.211L331.519 7.44C331.575 7.528 331.627 7.624 331.675 7.728C331.731 7.832 331.775 7.916 331.807 7.98C331.831 7.916 331.867 7.832 331.915 7.728C331.971 7.624 332.027 7.528 332.083 7.44L333.391 5.4H334.663L332.467 8.616L334.795 12H333.523L332.107 9.84C332.051 9.752 331.995 9.652 331.939 9.54C331.891 9.42 331.847 9.324 331.807 9.252C331.775 9.324 331.727 9.42 331.663 9.54C331.607 9.652 331.547 9.752 331.483 9.84L330.067 12H328.795ZM338.991 12.12C338.439 12.12 337.951 12.012 337.527 11.796C337.103 11.58 336.771 11.28 336.531 10.896C336.299 10.504 336.183 10.056 336.183 9.552C336.183 9 336.339 8.524 336.651 8.124C336.971 7.724 337.395 7.48 337.923 7.392V7.356C337.467 7.252 337.103 7.024 336.831 6.672C336.559 6.312 336.423 5.9 336.423 5.436C336.423 4.98 336.531 4.58 336.747 4.236C336.963 3.884 337.263 3.612 337.647 3.42C338.039 3.22 338.487 3.12 338.991 3.12C339.503 3.12 339.951 3.22 340.335 3.42C340.719 3.612 341.019 3.884 341.235 4.236C341.451 4.58 341.559 4.98 341.559 5.436C341.559 5.9 341.423 6.312 341.151 6.672C340.879 7.024 340.515 7.252 340.059 7.356V7.392C340.587 7.48 341.007 7.724 341.319 8.124C341.639 8.524 341.799 9 341.799 9.552C341.799 10.056 341.679 10.504 341.439 10.896C341.207 11.28 340.879 11.58 340.455 11.796C340.039 12.012 339.551 12.12 338.991 12.12ZM338.991 6.936C339.439 6.936 339.799 6.804 340.071 6.54C340.343 6.276 340.479 5.932 340.479 5.508C340.479 5.084 340.343 4.74 340.071 4.476C339.799 4.212 339.439 4.08 338.991 4.08C338.551 4.08 338.191 4.212 337.911 4.476C337.639 4.74 337.503 5.084 337.503 5.508C337.503 5.932 337.639 6.276 337.911 6.54C338.191 6.804 338.551 6.936 338.991 6.936ZM338.991 11.148C339.503 11.148 339.919 11 340.239 10.704C340.559 10.4 340.719 10.008 340.719 9.528C340.719 9.04 340.559 8.648 340.239 8.352C339.919 8.048 339.503 7.896 338.991 7.896C338.479 7.896 338.063 8.048 337.743 8.352C337.423 8.648 337.263 9.04 337.263 9.528C337.263 10.008 337.423 10.4 337.743 10.704C338.063 11 338.479 11.148 338.991 11.148ZM343.786 12V3.24H348.826V4.224H344.854V6.936H348.406V7.896H344.854V11.016H348.826V12H343.786ZM353.309 12.12C352.501 12.12 351.861 11.896 351.389 11.448C350.917 10.992 350.681 10.376 350.681 9.6H351.761C351.761 10.08 351.901 10.46 352.181 10.74C352.461 11.02 352.841 11.16 353.321 11.16C353.801 11.16 354.181 11.02 354.461 10.74C354.741 10.46 354.881 10.08 354.881 9.6V9.06C354.881 8.58 354.745 8.2 354.473 7.92C354.201 7.64 353.833 7.5 353.369 7.5H350.981V3.24H355.649V4.224H351.989L352.013 6.516H353.429C354.237 6.516 354.861 6.74 355.301 7.188C355.741 7.628 355.961 8.252 355.961 9.06V9.6C355.961 10.376 355.721 10.992 355.241 11.448C354.769 11.896 354.125 12.12 353.309 12.12ZM358.081 12V3.24H360.349C360.917 3.24 361.405 3.348 361.813 3.564C362.229 3.78 362.549 4.084 362.773 4.476C363.005 4.868 363.121 5.332 363.121 5.868V9.36C363.121 9.896 363.005 10.364 362.773 10.764C362.549 11.156 362.229 11.46 361.813 11.676C361.405 11.892 360.917 12 360.349 12H358.081ZM359.161 11.04H360.349C360.877 11.04 361.289 10.892 361.585 10.596C361.889 10.3 362.041 9.888 362.041 9.36V5.868C362.041 5.348 361.889 4.94 361.585 4.644C361.289 4.348 360.877 4.2 360.349 4.2H359.161V11.04Z" fill="#AAAAAA"/>
  <g clip-path="url(#clip5_253_219)">
    <path d="M321 18H381C383.209 18 385 19.7909 385 22V46C385 48.2091 383.209 50 381 50H321V18Z" fill="white"/>
    <rect x="321" y="18" width="32" height="32" fill="white"/>
    <rect x="321" y="18" width="32" height="32" stroke="#AAAAAA" stroke-width="2" stroke-linecap="round" stroke-dasharray="6 6"/>
    <path d="M331.8 39.66C330.723 39.66 329.864 39.3507 329.224 38.732C328.595 38.1027 328.28 37.2653 328.28 36.22V31.1C328.28 30.0547 328.595 29.2227 329.224 28.604C329.864 27.9747 330.723 27.66 331.8 27.66C332.877 27.66 333.731 27.9747 334.36 28.604C335 29.2227 335.32 30.0547 335.32 31.1V36.22C335.32 36.9133 335.176 37.5213 334.888 38.044C334.6 38.556 334.189 38.956 333.656 39.244C333.133 39.5213 332.515 39.66 331.8 39.66ZM331.8 38.428C332.44 38.428 332.952 38.2253 333.336 37.82C333.731 37.404 333.928 36.8707 333.928 36.22V31.1C333.928 30.4493 333.731 29.9213 333.336 29.516C332.952 29.1 332.44 28.892 331.8 28.892C331.16 28.892 330.643 29.1 330.248 29.516C329.864 29.9213 329.672 30.4493 329.672 31.1V36.22C329.672 36.8707 329.864 37.404 330.248 37.82C330.643 38.2253 331.16 38.428 331.8 38.428ZM331.8 34.54C331.512 34.54 331.277 34.46 331.096 34.3C330.925 34.14 330.84 33.9107 330.84 33.612C330.84 33.324 330.925 33.1053 331.096 32.956C331.277 32.796 331.512 32.716 331.8 32.716C332.088 32.716 332.317 32.796 332.488 32.956C332.669 33.1053 332.76 33.324 332.76 33.612C332.76 33.9107 332.669 34.14 332.488 34.3C332.317 34.46 332.088 34.54 331.8 34.54ZM341.394 39.66C340.316 39.66 339.458 39.3507 338.818 38.732C338.188 38.1027 337.874 37.2653 337.874 36.22V31.1C337.874 30.0547 338.188 29.2227 338.818 28.604C339.458 27.9747 340.316 27.66 341.394 27.66C342.471 27.66 343.324 27.9747 343.954 28.604C344.594 29.2227 344.914 30.0547 344.914 31.1V36.22C344.914 36.9133 344.77 37.5213 344.482 38.044C344.194 38.556 343.783 38.956 343.25 39.244C342.727 39.5213 342.108 39.66 341.394 39.66ZM341.394 38.428C342.034 38.428 342.546 38.2253 342.93 37.82C343.324 37.404 343.522 36.8707 343.522 36.22V31.1C343.522 30.4493 343.324 29.9213 342.93 29.516C342.546 29.1 342.034 28.892 341.394 28.892C340.754 28.892 340.236 29.1 339.842 29.516C339.458 29.9213 339.266 30.4493 339.266 31.1V36.22C339.266 36.8707 339.458 37.404 339.842 37.82C340.236 38.2253 340.754 38.428 341.394 38.428ZM341.394 34.54C341.106 34.54 340.871 34.46 340.69 34.3C340.519 34.14 340.434 33.9107 340.434 33.612C340.434 33.324 340.519 33.1053 340.69 32.956C340.871 32.796 341.106 32.716 341.394 32.716C341.682 32.716 341.911 32.796 342.082 32.956C342.263 33.1053 342.354 33.324 342.354 33.612C342.354 33.9107 342.263 34.14 342.082 34.3C341.911 34.46 341.682 34.54 341.394 34.54Z" fill="black"/>
    <rect x="353" y="18" width="32" height="32" fill="white"/>
    <rect x="353" y="18" width="32" height="32" stroke="#AAAAAA" stroke-width="2" stroke-linecap="round" stroke-dasharray="6 6"/>
    <path d="M363.8 39.66C362.723 39.66 361.864 39.3507 361.224 38.732C360.595 38.1027 360.28 37.2653 360.28 36.22V31.1C360.28 30.0547 360.595 29.2227 361.224 28.604C361.864 27.9747 362.723 27.66 363.8 27.66C364.877 27.66 365.731 27.9747 366.36 28.604C367 29.2227 367.32 30.0547 367.32 31.1V36.22C367.32 36.9133 367.176 37.5213 366.888 38.044C366.6 38.556 366.189 38.956 365.656 39.244C365.133 39.5213 364.515 39.66 363.8 39.66ZM363.8 38.428C364.44 38.428 364.952 38.2253 365.336 37.82C365.731 37.404 365.928 36.8707 365.928 36.22V31.1C365.928 30.4493 365.731 29.9213 365.336 29.516C364.952 29.1 364.44 28.892 363.8 28.892C363.16 28.892 362.643 29.1 362.248 29.516C361.864 29.9213 361.672 30.4493 361.672 31.1V36.22C361.672 36.8707 361.864 37.404 362.248 37.82C362.643 38.2253 363.16 38.428 363.8 38.428ZM363.8 34.54C363.512 34.54 363.277 34.46 363.096 34.3C362.925 34.14 362.84 33.9107 362.84 33.612C362.84 33.324 362.925 33.1053 363.096 32.956C363.277 32.796 363.512 32.716 363.8 32.716C364.088 32.716 364.317 32.796 364.488 32.956C364.669 33.1053 364.76 33.324 364.76 33.612C364.76 33.9107 364.669 34.14 364.488 34.3C364.317 34.46 364.088 34.54 363.8 34.54ZM373.394 39.66C372.316 39.66 371.458 39.3507 370.818 38.732C370.188 38.1027 369.874 37.2653 369.874 36.22V31.1C369.874 30.0547 370.188 29.2227 370.818 28.604C371.458 27.9747 372.316 27.66 373.394 27.66C374.471 27.66 375.324 27.9747 375.954 28.604C376.594 29.2227 376.914 30.0547 376.914 31.1V36.22C376.914 36.9133 376.77 37.5213 376.482 38.044C376.194 38.556 375.783 38.956 375.25 39.244C374.727 39.5213 374.108 39.66 373.394 39.66ZM373.394 38.428C374.034 38.428 374.546 38.2253 374.93 37.82C375.324 37.404 375.522 36.8707 375.522 36.22V31.1C375.522 30.4493 375.324 29.9213 374.93 29.516C374.546 29.1 374.034 28.892 373.394 28.892C372.754 28.892 372.236 29.1 371.842 29.516C371.458 29.9213 371.266 30.4493 371.266 31.1V36.22C371.266 36.8707 371.458 37.404 371.842 37.82C372.236 38.2253 372.754 38.428 373.394 38.428ZM373.394 34.54C373.106 34.54 372.871 34.46 372.69 34.3C372.519 34.14 372.434 33.9107 372.434 33.612C372.434 33.324 372.519 33.1053 372.69 32.956C372.871 32.796 373.106 32.716 373.394 32.716C373.682 32.716 373.911 32.796 374.082 32.956C374.263 33.1053 374.354 33.324 374.354 33.612C374.354 33.9107 374.263 34.14 374.082 34.3C373.911 34.46 373.682 34.54 373.394 34.54Z" fill="black"/>
  </g>
  <path d="M321 18H381C383.209 18 385 19.7909 385 22V46C385 48.2091 383.209 50 381 50H321V18Z" stroke="black" stroke-width="2"/>
  <defs>
    <clipPath id="clip0_253_219">
      <path d="M1 22C1 19.7909 2.79086 18 5 18H65V50H5C2.79086 50 1 48.2091 1 46V22Z" fill="white"/>
    </clipPath>
    <clipPath id="clip1_253_219">
      <rect x="65" y="18" width="64" height="32" fill="white"/>
    </clipPath>
    <clipPath id="clip2_253_219">
      <rect x="129" y="18" width="64" height="32" fill="white"/>
    </clipPath>
    <clipPath id="clip3_253_219">
      <rect x="193" y="18" width="64" height="32" fill="white"/>
    </clipPath>
    <clipPath id="clip4_253_219">
      <rect x="257" y="18" width="64" height="32" fill="white"/>
    </clipPath>
    <clipPath id="clip5_253_219">
      <path d="M321 18H381C383.209 18 385 19.7909 385 22V46C385 48.2091 383.209 50 381 50H321V18Z" fill="white"/>
    </clipPath>
  </defs>
</svg>
  