<svg width="350" height="176" viewBox="0 0 350 176" fill="none"
  xmlns="http://www.w3.org/2000/svg">
  <g clip-path="url(#clip0_319_60)">
    <path d="M330 88C330 88.5523 330.448 89 331 89C331.553 89 332 88.5523 332 88H330ZM307.024 29.9009C306.472 29.9061 306.028 30.358 306.033 30.9102L306.118 39.9098C306.123 40.4621 306.575 40.9056 307.127 40.9004C307.68 40.8952 308.123 40.4433 308.118 39.891L308.043 31.8913L316.042 31.816C316.594 31.8107 317.038 31.3588 317.033 30.8066C317.028 30.2543 316.576 29.8108 316.023 29.816L307.024 29.9009ZM332 88C332 77.2344 329.854 66.5769 325.688 56.6503L323.844 57.4244C327.907 67.1058 330 77.5002 330 88H332ZM325.688 56.6503C321.521 46.7238 315.417 37.7274 307.734 30.1871L306.333 31.6146C313.827 38.9687 319.78 47.7429 323.844 57.4244L325.688 56.6503Z" fill="black"/>
    <path d="M290.5 156.416C290.022 156.692 289.858 157.304 290.134 157.782C290.41 158.26 291.022 158.424 291.5 158.148L290.5 156.416ZM329.351 107.37C329.07 106.894 328.457 106.737 327.982 107.018L320.236 111.601C319.761 111.883 319.603 112.496 319.884 112.971C320.166 113.446 320.779 113.604 321.254 113.323L328.139 109.249L332.213 116.134C332.494 116.609 333.108 116.767 333.583 116.485C334.058 116.204 334.216 115.591 333.934 115.115L329.351 107.37ZM291.5 158.148C300.838 152.757 309.006 145.555 315.524 136.966L313.931 135.757C307.574 144.134 299.608 151.158 290.5 156.416L291.5 158.148ZM315.524 136.966C322.042 128.376 326.78 118.572 329.459 108.127L327.522 107.63C324.909 117.817 320.288 127.379 313.931 135.757L315.524 136.966Z" fill="black"/>
    <path d="M211.5 156.416C211.022 156.14 210.41 156.304 210.134 156.782C209.858 157.26 210.022 157.872 210.5 158.148L211.5 156.416ZM273.547 165.497C273.817 165.015 273.646 164.406 273.164 164.136L265.314 159.734C264.832 159.464 264.223 159.635 263.953 160.117C263.682 160.599 263.854 161.208 264.336 161.478L271.314 165.391L267.401 172.369C267.131 172.851 267.302 173.46 267.784 173.73C268.266 174 268.875 173.829 269.145 173.347L273.547 165.497ZM210.5 158.148C219.86 163.552 230.208 167.028 240.932 168.372L241.181 166.387C230.721 165.077 220.629 161.687 211.5 156.416L210.5 158.148ZM240.932 168.372C251.657 169.715 262.542 168.899 272.946 165.97L272.404 164.045C262.257 166.901 251.641 167.698 241.181 166.387L240.932 168.372Z" fill="black"/>
    <path d="M172 88C172 87.4477 171.552 87 171 87C170.448 87 170 87.4477 170 88L172 88ZM194.977 146.099C195.529 146.094 195.972 145.642 195.967 145.09L195.882 136.09C195.877 135.538 195.425 135.094 194.873 135.1C194.321 135.105 193.877 135.557 193.882 136.109L193.958 144.109L185.958 144.184C185.406 144.189 184.962 144.641 184.968 145.193C184.973 145.746 185.425 146.189 185.977 146.184L194.977 146.099ZM170 88C170 98.7656 172.146 109.423 176.313 119.35L178.157 118.576C174.093 108.894 172 98.4997 172 88L170 88ZM176.313 119.35C180.479 129.276 186.583 138.273 194.267 145.813L195.668 144.385C188.173 137.031 182.221 128.257 178.157 118.576L176.313 119.35Z" fill="black"/>
    <path d="M211.5 19.584C211.978 19.3078 212.142 18.6962 211.866 18.218C211.59 17.7397 210.978 17.5758 210.5 17.8519L211.5 19.584ZM172.649 68.6302C172.93 69.1056 173.543 69.2629 174.018 68.9817L181.764 64.3987C182.24 64.1174 182.397 63.5041 182.116 63.0288C181.834 62.5535 181.221 62.3962 180.746 62.6774L173.861 66.7512L169.787 59.8661C169.506 59.3908 168.892 59.2334 168.417 59.5147C167.942 59.7959 167.784 60.4092 168.066 60.8845L172.649 68.6302ZM210.5 17.8519C201.162 23.2433 192.994 30.4448 186.476 39.0342L188.069 40.2432C194.427 31.8659 202.393 24.8422 211.5 19.584L210.5 17.8519ZM186.476 39.0342C179.958 47.6236 175.22 57.428 172.541 67.8725L174.478 68.3695C177.091 58.1829 181.712 48.6206 188.069 40.2432L186.476 39.0342Z" fill="black"/>
    <path d="M290.5 19.584C290.978 19.8601 291.59 19.6963 291.866 19.218C292.142 18.7397 291.978 18.1281 291.5 17.8519L290.5 19.584ZM228.453 10.5032C228.183 10.9849 228.354 11.5944 228.836 11.8645L236.686 16.2662C237.168 16.5363 237.777 16.3647 238.048 15.883C238.318 15.4013 238.146 14.7918 237.664 14.5217L230.687 10.6091L234.599 3.63115C234.869 3.14942 234.698 2.53994 234.216 2.26983C233.734 1.99972 233.125 2.17126 232.855 2.65299L228.453 10.5032ZM291.5 17.8519C282.14 12.4477 271.793 8.97154 261.068 7.62813L260.819 9.61262C271.279 10.9229 281.371 14.3132 290.5 19.584L291.5 17.8519ZM261.068 7.62813C250.343 6.28471 239.458 7.10124 229.054 10.0296L229.596 11.9548C239.743 9.09874 250.36 8.30237 260.819 9.61262L261.068 7.62813Z" fill="black"/>
    <rect x="153" y="70" width="36" height="36" rx="18" fill="white"/>
    <rect x="153" y="70" width="36" height="36" rx="18" stroke="black" stroke-width="2"/>
    <path d="M172.619 80.4545V95H170.858V82.3011H170.773L167.222 84.6591V82.8693L170.858 80.4545H172.619Z" fill="black"/>
    <rect x="193" y="1" width="36" height="36" rx="18" fill="white"/>
    <rect x="193" y="1" width="36" height="36" rx="18" stroke="black" stroke-width="2"/>
    <path d="M205.665 23.017V21.5682L212.057 11.4545H213.108V13.6989H212.398L207.568 21.3409V21.4545H216.176V23.017H205.665ZM212.511 26V22.5767V21.902V11.4545H214.188V26H212.511Z" fill="black"/>
    <rect x="273" y="1" width="36" height="36" rx="18" fill="white"/>
    <rect x="273" y="1" width="36" height="36" rx="18" stroke="black" stroke-width="2"/>
    <path d="M286.96 26L293.466 13.1307V13.017H285.966V11.4545H295.284V13.1023L288.807 26H286.96Z" fill="black"/>
    <rect x="193" y="139" width="36" height="36" rx="18" fill="white"/>
    <rect x="193" y="139" width="36" height="36" rx="18" stroke="black" stroke-width="2"/>
    <path d="M210.665 164.199C209.689 164.199 208.828 164.026 208.08 163.68C207.336 163.33 206.756 162.849 206.339 162.239C205.923 161.623 205.717 160.922 205.722 160.136C205.717 159.521 205.838 158.953 206.084 158.432C206.33 157.906 206.666 157.468 207.092 157.118C207.523 156.763 208.004 156.538 208.534 156.443V156.358C207.838 156.178 207.284 155.787 206.872 155.186C206.46 154.58 206.257 153.891 206.261 153.119C206.257 152.381 206.444 151.72 206.822 151.138C207.201 150.555 207.722 150.096 208.385 149.76C209.053 149.424 209.813 149.256 210.665 149.256C211.508 149.256 212.26 149.424 212.923 149.76C213.586 150.096 214.107 150.555 214.486 151.138C214.869 151.72 215.063 152.381 215.068 153.119C215.063 153.891 214.853 154.58 214.436 155.186C214.024 155.787 213.477 156.178 212.795 156.358V156.443C213.321 156.538 213.795 156.763 214.216 157.118C214.637 157.468 214.973 157.906 215.224 158.432C215.475 158.953 215.603 159.521 215.608 160.136C215.603 160.922 215.39 161.623 214.969 162.239C214.552 162.849 213.972 163.33 213.229 163.68C212.49 164.026 211.635 164.199 210.665 164.199ZM210.665 162.636C211.323 162.636 211.891 162.53 212.369 162.317C212.848 162.104 213.217 161.803 213.477 161.415C213.738 161.027 213.87 160.572 213.875 160.051C213.87 159.502 213.728 159.017 213.449 158.595C213.17 158.174 212.788 157.842 212.305 157.601C211.827 157.359 211.28 157.239 210.665 157.239C210.045 157.239 209.491 157.359 209.003 157.601C208.52 157.842 208.139 158.174 207.859 158.595C207.585 159.017 207.45 159.502 207.455 160.051C207.45 160.572 207.575 161.027 207.831 161.415C208.091 161.803 208.463 162.104 208.946 162.317C209.429 162.53 210.002 162.636 210.665 162.636ZM210.665 155.733C211.186 155.733 211.647 155.629 212.05 155.42C212.457 155.212 212.777 154.921 213.009 154.547C213.241 154.173 213.359 153.735 213.364 153.233C213.359 152.741 213.243 152.312 213.016 151.947C212.788 151.578 212.473 151.294 212.071 151.095C211.669 150.892 211.2 150.79 210.665 150.79C210.12 150.79 209.644 150.892 209.237 151.095C208.83 151.294 208.515 151.578 208.293 151.947C208.07 152.312 207.961 152.741 207.966 153.233C207.961 153.735 208.072 154.173 208.3 154.547C208.532 154.921 208.851 155.212 209.259 155.42C209.666 155.629 210.134 155.733 210.665 155.733Z" fill="black"/>
    <rect x="273" y="139" width="36" height="36" rx="18" fill="white"/>
    <rect x="273" y="139" width="36" height="36" rx="18" stroke="black" stroke-width="2"/>
    <path d="M290.92 164.199C289.983 164.199 289.147 164.038 288.413 163.716C287.684 163.394 287.104 162.946 286.673 162.374C286.247 161.796 286.015 161.126 285.977 160.364H287.767C287.805 160.832 287.966 161.237 288.25 161.578C288.534 161.914 288.906 162.175 289.365 162.359C289.824 162.544 290.333 162.636 290.892 162.636C291.517 162.636 292.071 162.527 292.554 162.31C293.037 162.092 293.416 161.789 293.69 161.401C293.965 161.012 294.102 160.562 294.102 160.051C294.102 159.516 293.97 159.045 293.705 158.638C293.439 158.226 293.051 157.904 292.54 157.672C292.028 157.44 291.403 157.324 290.665 157.324H289.5V155.761H290.665C291.242 155.761 291.749 155.657 292.185 155.449C292.625 155.241 292.968 154.947 293.214 154.568C293.465 154.189 293.591 153.744 293.591 153.233C293.591 152.741 293.482 152.312 293.264 151.947C293.046 151.583 292.739 151.299 292.341 151.095C291.948 150.892 291.484 150.79 290.949 150.79C290.447 150.79 289.973 150.882 289.528 151.067C289.088 151.247 288.728 151.509 288.449 151.855C288.17 152.196 288.018 152.608 287.994 153.091H286.29C286.318 152.329 286.548 151.661 286.979 151.088C287.41 150.51 287.973 150.061 288.669 149.739C289.37 149.417 290.139 149.256 290.977 149.256C291.877 149.256 292.649 149.438 293.293 149.803C293.937 150.162 294.431 150.638 294.777 151.23C295.123 151.822 295.295 152.461 295.295 153.148C295.295 153.967 295.08 154.665 294.649 155.243C294.223 155.821 293.643 156.221 292.909 156.443V156.557C293.828 156.708 294.545 157.099 295.061 157.729C295.577 158.354 295.835 159.128 295.835 160.051C295.835 160.842 295.62 161.552 295.189 162.182C294.763 162.807 294.18 163.299 293.442 163.659C292.703 164.019 291.863 164.199 290.92 164.199Z" fill="black"/>
    <rect x="313" y="70" width="36" height="36" rx="18" fill="white"/>
    <rect x="313" y="70" width="36" height="36" rx="18" stroke="black" stroke-width="2"/>
    <path d="M326.006 95V93.7216L330.807 88.4659C331.37 87.8504 331.834 87.3153 332.199 86.8608C332.563 86.4015 332.833 85.9706 333.009 85.5682C333.188 85.161 333.278 84.7348 333.278 84.2898C333.278 83.7784 333.155 83.3357 332.909 82.9616C332.668 82.5876 332.336 82.2988 331.915 82.0952C331.493 81.8916 331.02 81.7898 330.494 81.7898C329.936 81.7898 329.448 81.9058 329.031 82.1378C328.619 82.3651 328.3 82.6847 328.072 83.0966C327.85 83.5085 327.739 83.9915 327.739 84.5455H326.062C326.062 83.6932 326.259 82.9451 326.652 82.3011C327.045 81.6572 327.58 81.1553 328.257 80.7955C328.939 80.4356 329.704 80.2557 330.551 80.2557C331.403 80.2557 332.159 80.4356 332.817 80.7955C333.475 81.1553 333.991 81.6406 334.365 82.2514C334.739 82.8622 334.926 83.5417 334.926 84.2898C334.926 84.8248 334.829 85.348 334.635 85.8594C334.446 86.366 334.114 86.9318 333.641 87.5568C333.172 88.1771 332.521 88.9347 331.688 89.8295L328.42 93.3239V93.4375H335.182V95H326.006Z" fill="black"/>
    <path d="M37 87C36.4477 87 36 87.4477 36 88C36 88.5523 36.4477 89 37 89V87ZM75.7071 88.7071C76.0976 88.3166 76.0976 87.6834 75.7071 87.2929L69.3431 80.9289C68.9526 80.5384 68.3195 80.5384 67.9289 80.9289C67.5384 81.3195 67.5384 81.9526 67.9289 82.3431L73.5858 88L67.9289 93.6569C67.5384 94.0474 67.5384 94.6805 67.9289 95.0711C68.3195 95.4616 68.9526 95.4616 69.3431 95.0711L75.7071 88.7071ZM37 89H75V87H37V89Z" fill="black"/>
    <path d="M113 87C112.448 87 112 87.4477 112 88C112 88.5523 112.448 89 113 89V87ZM151.707 88.7071C152.098 88.3166 152.098 87.6834 151.707 87.2929L145.343 80.9289C144.953 80.5384 144.319 80.5384 143.929 80.9289C143.538 81.3195 143.538 81.9526 143.929 82.3431L149.586 88L143.929 93.6569C143.538 94.0474 143.538 94.6805 143.929 95.0711C144.319 95.4616 144.953 95.4616 145.343 95.0711L151.707 88.7071ZM113 89H151V87H113V89Z" fill="black"/>
    <rect x="1" y="70" width="36" height="36" rx="18" fill="white"/>
    <rect x="1" y="70" width="36" height="36" rx="18" stroke="black" stroke-width="2"/>
    <path d="M18.8352 95.1989C18.2386 95.1894 17.642 95.0758 17.0455 94.858C16.4489 94.6402 15.9044 94.2732 15.4119 93.7571C14.9195 93.2363 14.5241 92.5331 14.2259 91.6477C13.9276 90.7576 13.7784 89.6402 13.7784 88.2955C13.7784 87.0076 13.8991 85.8665 14.1406 84.8722C14.3821 83.8731 14.7325 83.0327 15.1918 82.3509C15.651 81.6643 16.205 81.1435 16.8537 80.7884C17.5071 80.4332 18.2434 80.2557 19.0625 80.2557C19.8769 80.2557 20.6013 80.419 21.2358 80.7457C21.875 81.0677 22.3958 81.5175 22.7983 82.0952C23.2008 82.6728 23.4612 83.3381 23.5795 84.0909H21.8466C21.6856 83.4375 21.3731 82.8954 20.9091 82.4645C20.4451 82.0336 19.8295 81.8182 19.0625 81.8182C17.9356 81.8182 17.0478 82.3082 16.3991 83.2884C15.7552 84.2685 15.4309 85.6439 15.4261 87.4148H15.5398C15.8049 87.0123 16.1198 86.669 16.4844 86.3849C16.8537 86.0961 17.2609 85.8736 17.706 85.7173C18.151 85.5611 18.6222 85.483 19.1193 85.483C19.9527 85.483 20.715 85.6913 21.4062 86.108C22.0975 86.5199 22.6515 87.0904 23.0682 87.8196C23.4848 88.544 23.6932 89.375 23.6932 90.3125C23.6932 91.2121 23.492 92.036 23.0895 92.7841C22.687 93.5275 22.1212 94.1193 21.392 94.5597C20.6676 94.9953 19.8153 95.2083 18.8352 95.1989ZM18.8352 93.6364C19.4318 93.6364 19.9669 93.4872 20.4403 93.1889C20.9186 92.8906 21.295 92.4905 21.5696 91.9886C21.849 91.4867 21.9886 90.928 21.9886 90.3125C21.9886 89.7112 21.8537 89.1643 21.5838 88.6719C21.3187 88.1747 20.9517 87.7794 20.483 87.4858C20.0189 87.1922 19.4886 87.0455 18.892 87.0455C18.4422 87.0455 18.0232 87.1354 17.6349 87.3153C17.2467 87.4905 16.9058 87.732 16.6122 88.0398C16.3234 88.3475 16.0961 88.7003 15.9304 89.098C15.7647 89.491 15.6818 89.9053 15.6818 90.3409C15.6818 90.9186 15.8168 91.4583 16.0866 91.9602C16.3613 92.4621 16.7353 92.867 17.2088 93.1747C17.687 93.4825 18.2292 93.6364 18.8352 93.6364Z" fill="black"/>
    <rect x="77" y="70" width="36" height="36" rx="18" fill="white"/>
    <rect x="77" y="70" width="36" height="36" rx="18" stroke="black" stroke-width="2"/>
    <path d="M94.5511 95.1989C93.7178 95.1989 92.9673 95.0331 92.2997 94.7017C91.6321 94.3703 91.0971 93.9157 90.6946 93.3381C90.2921 92.7604 90.072 92.1023 90.0341 91.3636H91.7386C91.8049 92.0218 92.1032 92.5663 92.6335 92.9972C93.1686 93.4233 93.8078 93.6364 94.5511 93.6364C95.1477 93.6364 95.678 93.4967 96.142 93.2173C96.6108 92.938 96.9777 92.5545 97.2429 92.0668C97.5128 91.5743 97.6477 91.018 97.6477 90.3977C97.6477 89.7633 97.508 89.1974 97.2287 88.7003C96.9541 88.1984 96.5753 87.803 96.0923 87.5142C95.6094 87.2254 95.0578 87.0786 94.4375 87.0739C93.9924 87.0691 93.5355 87.1378 93.0668 87.2798C92.598 87.4171 92.2121 87.5947 91.9091 87.8125L90.2614 87.6136L91.142 80.4545H98.6989V82.017H92.6193L92.108 86.3068H92.1932C92.4915 86.0701 92.8655 85.8736 93.3153 85.7173C93.7652 85.5611 94.2339 85.483 94.7216 85.483C95.6117 85.483 96.4048 85.696 97.1009 86.1222C97.8016 86.5436 98.3509 87.1212 98.7486 87.8551C99.151 88.589 99.3523 89.4271 99.3523 90.3693C99.3523 91.2973 99.1439 92.1259 98.7273 92.8551C98.3153 93.5795 97.7472 94.1525 97.0227 94.5739C96.2983 94.9905 95.4744 95.1989 94.5511 95.1989Z" fill="black"/>
  </g>
  <defs>
    <clipPath id="clip0_319_60">
      <rect width="350" height="176" fill="white"/>
    </clipPath>
  </defs>
</svg>
  