<svg width="450" height="58" viewBox="0 0 450 58" fill="none"
  xmlns="http://www.w3.org/2000/svg">
  <g clip-path="url(#clip0_446_183)">
    <rect width="450" height="58" fill="white"/>
    <path d="M63.2845 16V4.32H64.7245V8.88H64.7405C64.8152 8.29333 65.0552 7.84 65.4605 7.52C65.8658 7.2 66.4045 7.04 67.0765 7.04C67.9618 7.04 68.6658 7.312 69.1885 7.856C69.7112 8.4 69.9725 9.14133 69.9725 10.08V16H68.5325V10.32C68.5325 9.65867 68.3618 9.152 68.0205 8.8C67.6898 8.43733 67.2365 8.256 66.6605 8.256C66.0632 8.256 65.5885 8.44267 65.2365 8.816C64.8952 9.18933 64.7245 9.71733 64.7245 10.4V16H63.2845ZM76.2063 16.16C75.1716 16.16 74.3343 15.8507 73.6943 15.232C73.0649 14.6027 72.7503 13.7387 72.7503 12.64V10.56C72.7503 9.46133 73.0649 8.60267 73.6943 7.984C74.3343 7.35467 75.1716 7.04 76.2063 7.04C76.8996 7.04 77.5023 7.17867 78.0143 7.456C78.5369 7.73333 78.9423 8.12267 79.2303 8.624C79.5183 9.12533 79.6623 9.71733 79.6623 10.4V11.968H74.1583V12.8C74.1583 13.4507 74.3449 13.968 74.7183 14.352C75.0916 14.7253 75.5876 14.912 76.2063 14.912C76.7396 14.912 77.1769 14.8107 77.5183 14.608C77.8703 14.3947 78.0836 14.112 78.1583 13.76H79.5983C79.5023 14.496 79.1449 15.0827 78.5263 15.52C77.9076 15.9467 77.1343 16.16 76.2063 16.16ZM74.1583 10.848H78.2543V10.4C78.2543 9.70667 78.0729 9.17333 77.7103 8.8C77.3583 8.416 76.8569 8.224 76.2063 8.224C75.5556 8.224 75.0489 8.416 74.6863 8.8C74.3343 9.17333 74.1583 9.70667 74.1583 10.4V10.848ZM85.032 16.16C84.1253 16.16 83.4053 15.9093 82.872 15.408C82.3387 14.896 82.072 14.2293 82.072 13.408C82.072 12.864 82.1947 12.3893 82.44 11.984C82.6853 11.5787 83.0267 11.264 83.464 11.04C83.9013 10.8053 84.4027 10.688 84.968 10.688H87.688V10C87.688 8.85867 87.064 8.288 85.816 8.288C85.2613 8.288 84.8133 8.38933 84.472 8.592C84.1307 8.79467 83.9493 9.07733 83.928 9.44H82.488C82.5413 8.74667 82.8613 8.176 83.448 7.728C84.0453 7.26933 84.8347 7.04 85.816 7.04C86.8827 7.04 87.6987 7.296 88.264 7.808C88.84 8.32 89.128 9.03467 89.128 9.952V16H87.704V14.4H87.672C87.5867 14.944 87.3147 15.376 86.856 15.696C86.3973 16.0053 85.7893 16.16 85.032 16.16ZM85.384 14.944C86.088 14.944 86.648 14.7733 87.064 14.432C87.48 14.0907 87.688 13.6267 87.688 13.04V11.808H85.128C84.6587 11.808 84.2747 11.952 83.976 12.24C83.688 12.5173 83.544 12.8907 83.544 13.36C83.544 13.8507 83.704 14.24 84.024 14.528C84.3547 14.8053 84.808 14.944 85.384 14.944ZM94.8818 16.16C94.0071 16.16 93.3031 15.8667 92.7698 15.28C92.2471 14.6933 91.9858 13.8987 91.9858 12.896V10.32C91.9858 9.30667 92.2471 8.50667 92.7698 7.92C93.2924 7.33333 93.9964 7.04 94.8818 7.04C95.5431 7.04 96.0871 7.20533 96.5138 7.536C96.9511 7.86667 97.2124 8.31467 97.2978 8.88H97.3138L97.2818 6.88V4.32H98.7218V16H97.2818V14.32H97.2658C97.1911 14.896 96.9404 15.3493 96.5138 15.68C96.0871 16 95.5431 16.16 94.8818 16.16ZM95.3618 14.912C95.9591 14.912 96.4284 14.7253 96.7698 14.352C97.1111 13.9787 97.2818 13.4613 97.2818 12.8V10.4C97.2818 9.73867 97.1111 9.22133 96.7698 8.848C96.4284 8.47467 95.9591 8.288 95.3618 8.288C94.7538 8.288 94.2791 8.448 93.9378 8.768C93.5964 9.07733 93.4258 9.59467 93.4258 10.32V12.88C93.4258 13.5947 93.5964 14.112 93.9378 14.432C94.2791 14.752 94.7538 14.912 95.3618 14.912Z" fill="black"/>
    <path d="M259.493 16C258.767 16 258.186 15.792 257.749 15.376C257.311 14.9493 257.093 14.384 257.093 13.68V8.512H254.565V7.2H257.093V4.72H258.533V7.2H262.133V8.512H258.533V13.68C258.533 13.9787 258.618 14.224 258.789 14.416C258.97 14.5973 259.205 14.688 259.493 14.688H262.053V16H259.493ZM267.438 16.16C266.532 16.16 265.812 15.9093 265.278 15.408C264.745 14.896 264.478 14.2293 264.478 13.408C264.478 12.864 264.601 12.3893 264.846 11.984C265.092 11.5787 265.433 11.264 265.87 11.04C266.308 10.8053 266.809 10.688 267.374 10.688H270.094V10C270.094 8.85867 269.47 8.288 268.222 8.288C267.668 8.288 267.22 8.38933 266.878 8.592C266.537 8.79467 266.356 9.07733 266.334 9.44H264.894C264.948 8.74667 265.268 8.176 265.854 7.728C266.452 7.26933 267.241 7.04 268.222 7.04C269.289 7.04 270.105 7.296 270.67 7.808C271.246 8.32 271.534 9.03467 271.534 9.952V16H270.11V14.4H270.078C269.993 14.944 269.721 15.376 269.262 15.696C268.804 16.0053 268.196 16.16 267.438 16.16ZM267.79 14.944C268.494 14.944 269.054 14.7733 269.47 14.432C269.886 14.0907 270.094 13.6267 270.094 13.04V11.808H267.534C267.065 11.808 266.681 11.952 266.382 12.24C266.094 12.5173 265.95 12.8907 265.95 13.36C265.95 13.8507 266.11 14.24 266.43 14.528C266.761 14.8053 267.214 14.944 267.79 14.944ZM274.36 16V14.688H277.48V8.512H274.68V7.2H278.92V14.688H281.88V16H274.36ZM278.04 5.616C277.688 5.616 277.411 5.52533 277.208 5.344C277.005 5.16267 276.904 4.91733 276.904 4.608C276.904 4.288 277.005 4.03733 277.208 3.856C277.411 3.664 277.688 3.568 278.04 3.568C278.392 3.568 278.669 3.664 278.872 3.856C279.075 4.03733 279.176 4.288 279.176 4.608C279.176 4.91733 279.075 5.16267 278.872 5.344C278.669 5.52533 278.392 5.616 278.04 5.616ZM288.674 16C287.895 16 287.271 15.776 286.802 15.328C286.343 14.8693 286.114 14.2667 286.114 13.52V5.632H283.074V4.32H287.554V13.52C287.554 13.8827 287.655 14.1707 287.858 14.384C288.06 14.5867 288.332 14.688 288.674 14.688H291.394V16H288.674Z" fill="black"/>
    <path d="M1 29C1 26.7909 2.79086 25 5 25H33V57H5C2.79086 57 1 55.2091 1 53V29Z" fill="white"/>
    <path d="M1 29C1 26.7909 2.79086 25 5 25H33V57H5C2.79086 57 1 55.2091 1 53V29Z" stroke="black" stroke-width="2"/>
    <rect x="65" y="25" width="32" height="32" fill="white"/>
    <rect x="65" y="25" width="32" height="32" stroke="black" stroke-width="2"/>
    <path d="M76.358 48H74.5114L79.8523 33.4545H81.6705L87.0114 48H85.1648L80.8182 35.7557H80.7045L76.358 48ZM77.0398 42.3182H84.483V43.8807H77.0398V42.3182Z" fill="black"/>
    <rect x="33" y="25" width="32" height="32" fill="white"/>
    <rect x="33" y="25" width="32" height="32" stroke="black" stroke-width="2"/>
    <rect x="97" y="25" width="32" height="32" fill="white"/>
    <rect x="97" y="25" width="32" height="32" stroke="black" stroke-width="2"/>
    <path d="M107.761 48V33.4545H112.847C113.86 33.4545 114.696 33.6297 115.354 33.9801C116.012 34.3258 116.502 34.7921 116.824 35.3793C117.146 35.9616 117.307 36.608 117.307 37.3182C117.307 37.9432 117.196 38.4593 116.973 38.8665C116.755 39.2737 116.466 39.5956 116.107 39.8324C115.751 40.0691 115.366 40.2443 114.949 40.358V40.5C115.394 40.5284 115.841 40.6847 116.291 40.9688C116.741 41.2528 117.117 41.66 117.42 42.1903C117.723 42.7206 117.875 43.3693 117.875 44.1364C117.875 44.8655 117.709 45.5213 117.378 46.1037C117.046 46.6861 116.523 47.1477 115.808 47.4886C115.093 47.8295 114.163 48 113.017 48H107.761ZM109.523 46.4375H113.017C114.168 46.4375 114.984 46.215 115.467 45.7699C115.955 45.3201 116.199 44.7756 116.199 44.1364C116.199 43.6439 116.073 43.1894 115.822 42.7727C115.571 42.3513 115.214 42.0152 114.75 41.7642C114.286 41.5085 113.737 41.3807 113.102 41.3807H109.523V46.4375ZM109.523 39.8466H112.79C113.32 39.8466 113.798 39.7424 114.224 39.5341C114.655 39.3258 114.996 39.0322 115.247 38.6534C115.503 38.2746 115.631 37.8295 115.631 37.3182C115.631 36.679 115.408 36.1368 114.963 35.6918C114.518 35.242 113.813 35.017 112.847 35.017H109.523V39.8466Z" fill="black"/>
    <rect x="161" y="25" width="32" height="32" fill="white"/>
    <rect x="161" y="25" width="32" height="32" stroke="black" stroke-width="2"/>
    <path d="M175.75 48H171.261V33.4545H175.949C177.36 33.4545 178.567 33.7457 179.571 34.3281C180.575 34.9058 181.344 35.7367 181.879 36.821C182.414 37.9006 182.682 39.1932 182.682 40.6989C182.682 42.214 182.412 43.5185 181.872 44.6122C181.332 45.7012 180.546 46.5393 179.514 47.1264C178.482 47.7088 177.227 48 175.75 48ZM173.023 46.4375H175.636C176.839 46.4375 177.836 46.2055 178.626 45.7415C179.417 45.2775 180.007 44.617 180.395 43.7599C180.783 42.9029 180.977 41.8826 180.977 40.6989C180.977 39.5246 180.786 38.5137 180.402 37.6662C180.018 36.8139 179.446 36.1605 178.683 35.706C177.921 35.2467 176.972 35.017 175.835 35.017H173.023V46.4375Z" fill="black"/>
    <rect x="129" y="25" width="32" height="32" fill="white"/>
    <rect x="129" y="25" width="32" height="32" stroke="black" stroke-width="2"/>
    <path d="M150.966 38H149.205C149.1 37.4934 148.918 37.0483 148.658 36.6648C148.402 36.2812 148.089 35.9593 147.72 35.6989C147.356 35.4337 146.951 35.2348 146.506 35.1023C146.061 34.9697 145.597 34.9034 145.114 34.9034C144.233 34.9034 143.435 35.1259 142.72 35.571C142.01 36.0161 141.444 36.6719 141.023 37.5384C140.606 38.4048 140.398 39.4678 140.398 40.7273C140.398 41.9867 140.606 43.0497 141.023 43.9162C141.444 44.7827 142.01 45.4384 142.72 45.8835C143.435 46.3286 144.233 46.5511 145.114 46.5511C145.597 46.5511 146.061 46.4848 146.506 46.3523C146.951 46.2197 147.356 46.0232 147.72 45.7628C148.089 45.4976 148.402 45.1733 148.658 44.7898C148.918 44.4015 149.1 43.9564 149.205 43.4545H150.966C150.833 44.1979 150.592 44.8632 150.241 45.4503C149.891 46.0374 149.455 46.5369 148.935 46.9489C148.414 47.3561 147.829 47.6662 147.18 47.8793C146.536 48.0923 145.848 48.1989 145.114 48.1989C143.873 48.1989 142.77 47.8958 141.804 47.2898C140.838 46.6837 140.078 45.822 139.524 44.7045C138.97 43.5871 138.693 42.2614 138.693 40.7273C138.693 39.1932 138.97 37.8674 139.524 36.75C140.078 35.6326 140.838 34.7708 141.804 34.1648C142.77 33.5587 143.873 33.2557 145.114 33.2557C145.848 33.2557 146.536 33.3622 147.18 33.5753C147.829 33.7884 148.414 34.1009 148.935 34.5128C149.455 34.92 149.891 35.4171 150.241 36.0043C150.592 36.5866 150.833 37.2519 150.966 38Z" fill="black"/>
    <rect x="193" y="25" width="32" height="32" fill="white"/>
    <rect x="193" y="25" width="32" height="32" stroke="black" stroke-width="2"/>
    <path d="M204.761 48V33.4545H213.54V35.017H206.523V39.9318H213.085V41.4943H206.523V46.4375H213.653V48H204.761Z" fill="black"/>
    <rect x="225" y="25" width="32" height="32" fill="white"/>
    <rect x="225" y="25" width="32" height="32" stroke="black" stroke-width="2"/>
    <path d="M236.761 48V33.4545H245.483V35.017H238.523V39.9318H244.83V41.4943H238.523V48H236.761Z" fill="black"/>
    <rect x="289" y="25" width="32" height="32" fill="white"/>
    <rect x="289" y="25" width="32" height="32" stroke="black" stroke-width="2"/>
    <rect x="353" y="25" width="32" height="32" fill="white"/>
    <rect x="353" y="25" width="32" height="32" stroke="black" stroke-width="2"/>
    <rect x="321" y="25" width="32" height="32" fill="white"/>
    <rect x="321" y="25" width="32" height="32" stroke="black" stroke-width="2"/>
    <path d="M417 25H445C447.209 25 449 26.7909 449 29V53C449 55.2091 447.209 57 445 57H417V25Z" fill="white"/>
    <path d="M417 25H445C447.209 25 449 26.7909 449 29V53C449 55.2091 447.209 57 445 57H417V25Z" stroke="black" stroke-width="2"/>
    <rect x="385" y="25" width="32" height="32" fill="white"/>
    <rect x="385" y="25" width="32" height="32" stroke="black" stroke-width="2"/>
    <rect x="257" y="25" width="32" height="32" fill="white"/>
    <rect x="257" y="25" width="32" height="32" stroke="#0078FC" stroke-width="2"/>
    <path d="M277.205 38C277.048 37.5218 276.842 37.0933 276.587 36.7145C276.336 36.331 276.035 36.0043 275.685 35.7344C275.339 35.4645 274.946 35.2585 274.506 35.1165C274.065 34.9744 273.582 34.9034 273.057 34.9034C272.195 34.9034 271.411 35.1259 270.706 35.571C270 36.0161 269.439 36.6719 269.023 37.5384C268.606 38.4048 268.398 39.4678 268.398 40.7273C268.398 41.9867 268.608 43.0497 269.03 43.9162C269.451 44.7827 270.022 45.4384 270.741 45.8835C271.461 46.3286 272.271 46.5511 273.17 46.5511C274.004 46.5511 274.738 46.3736 275.372 46.0185C276.011 45.6586 276.509 45.152 276.864 44.4986C277.223 43.8404 277.403 43.0663 277.403 42.1761L277.943 42.2898H273.568V40.7273H279.108V42.2898C279.108 43.4877 278.852 44.5294 278.341 45.4148C277.834 46.3002 277.134 46.9867 276.239 47.4744C275.348 47.9574 274.326 48.1989 273.17 48.1989C271.883 48.1989 270.751 47.8958 269.776 47.2898C268.805 46.6837 268.047 45.822 267.503 44.7045C266.963 43.5871 266.693 42.2614 266.693 40.7273C266.693 39.5767 266.847 38.5421 267.155 37.6236C267.467 36.7003 267.908 35.9143 268.476 35.2656C269.044 34.617 269.716 34.1198 270.493 33.7741C271.269 33.4285 272.124 33.2557 273.057 33.2557C273.824 33.2557 274.539 33.3717 275.202 33.6037C275.869 33.831 276.464 34.1553 276.984 34.5767C277.51 34.9934 277.948 35.4929 278.298 36.0753C278.649 36.6529 278.89 37.2945 279.023 38H277.205Z" fill="#0078FC"/>
  </g>
  <defs>
    <clipPath id="clip0_446_183">
      <rect width="450" height="58" fill="white"/>
    </clipPath>
  </defs>
</svg>
