<svg width="342" height="72" viewBox="0 0 342 72" fill="none"
  xmlns="http://www.w3.org/2000/svg">
  <g clip-path="url(#clip0_300_355)">
    <path d="M37 28C36.4477 28 36 28.4477 36 29C36 29.5523 36.4477 30 37 30V28ZM75.7071 29.7071C76.0976 29.3166 76.0976 28.6834 75.7071 28.2929L69.3431 21.9289C68.9526 21.5384 68.3195 21.5384 67.9289 21.9289C67.5384 22.3195 67.5384 22.9526 67.9289 23.3431L73.5858 29L67.9289 34.6569C67.5384 35.0474 67.5384 35.6805 67.9289 36.0711C68.3195 36.4616 68.9526 36.4616 69.3431 36.0711L75.7071 29.7071ZM37 30H75V28H37V30Z" fill="black"/>
    <path d="M189 28C188.448 28 188 28.4477 188 29C188 29.5523 188.448 30 189 30V28ZM227.707 29.7071C228.098 29.3166 228.098 28.6834 227.707 28.2929L221.343 21.9289C220.953 21.5384 220.319 21.5384 219.929 21.9289C219.538 22.3195 219.538 22.9526 219.929 23.3431L225.586 29L219.929 34.6569C219.538 35.0474 219.538 35.6805 219.929 36.0711C220.319 36.4616 220.953 36.4616 221.343 36.0711L227.707 29.7071ZM189 30H227V28H189V30Z" fill="#AAAAAA"/>
    <path d="M113 28C112.448 28 112 28.4477 112 29C112 29.5523 112.448 30 113 30V28ZM151.707 29.7071C152.098 29.3166 152.098 28.6834 151.707 28.2929L145.343 21.9289C144.953 21.5384 144.319 21.5384 143.929 21.9289C143.538 22.3195 143.538 22.9526 143.929 23.3431L149.586 29L143.929 34.6569C143.538 35.0474 143.538 35.6805 143.929 36.0711C144.319 36.4616 144.953 36.4616 145.343 36.0711L151.707 29.7071ZM113 30H151V28H113V30Z" fill="#AAAAAA"/>
    <path d="M265 28C264.448 28 264 28.4477 264 29C264 29.5523 264.448 30 265 30V28ZM303.707 29.7071C304.098 29.3166 304.098 28.6834 303.707 28.2929L297.343 21.9289C296.953 21.5384 296.319 21.5384 295.929 21.9289C295.538 22.3195 295.538 22.9526 295.929 23.3431L301.586 29L295.929 34.6569C295.538 35.0474 295.538 35.6805 295.929 36.0711C296.319 36.4616 296.953 36.4616 297.343 36.0711L303.707 29.7071ZM265 30H303V28H265V30Z" fill="black"/>
    <rect x="1" y="11" width="36" height="36" rx="18" fill="white"/>
    <rect x="1" y="11" width="36" height="36" rx="18" stroke="black" stroke-width="2"/>
    <path d="M18.8352 36.1989C18.2386 36.1894 17.642 36.0758 17.0455 35.858C16.4489 35.6402 15.9044 35.2732 15.4119 34.7571C14.9195 34.2363 14.5241 33.5331 14.2259 32.6477C13.9276 31.7576 13.7784 30.6402 13.7784 29.2955C13.7784 28.0076 13.8991 26.8665 14.1406 25.8722C14.3821 24.8731 14.7325 24.0327 15.1918 23.3509C15.651 22.6643 16.205 22.1435 16.8537 21.7884C17.5071 21.4332 18.2434 21.2557 19.0625 21.2557C19.8769 21.2557 20.6013 21.419 21.2358 21.7457C21.875 22.0677 22.3958 22.5175 22.7983 23.0952C23.2008 23.6728 23.4612 24.3381 23.5795 25.0909H21.8466C21.6856 24.4375 21.3731 23.8954 20.9091 23.4645C20.4451 23.0336 19.8295 22.8182 19.0625 22.8182C17.9356 22.8182 17.0478 23.3082 16.3991 24.2884C15.7552 25.2685 15.4309 26.6439 15.4261 28.4148H15.5398C15.8049 28.0123 16.1198 27.669 16.4844 27.3849C16.8537 27.0961 17.2609 26.8736 17.706 26.7173C18.151 26.5611 18.6222 26.483 19.1193 26.483C19.9527 26.483 20.715 26.6913 21.4062 27.108C22.0975 27.5199 22.6515 28.0904 23.0682 28.8196C23.4848 29.544 23.6932 30.375 23.6932 31.3125C23.6932 32.2121 23.492 33.036 23.0895 33.7841C22.687 34.5275 22.1212 35.1193 21.392 35.5597C20.6676 35.9953 19.8153 36.2083 18.8352 36.1989ZM18.8352 34.6364C19.4318 34.6364 19.9669 34.4872 20.4403 34.1889C20.9186 33.8906 21.295 33.4905 21.5696 32.9886C21.849 32.4867 21.9886 31.928 21.9886 31.3125C21.9886 30.7112 21.8537 30.1643 21.5838 29.6719C21.3187 29.1747 20.9517 28.7794 20.483 28.4858C20.0189 28.1922 19.4886 28.0455 18.892 28.0455C18.4422 28.0455 18.0232 28.1354 17.6349 28.3153C17.2467 28.4905 16.9058 28.732 16.6122 29.0398C16.3234 29.3475 16.0961 29.7003 15.9304 30.098C15.7647 30.491 15.6818 30.9053 15.6818 31.3409C15.6818 31.9186 15.8168 32.4583 16.0866 32.9602C16.3613 33.4621 16.7353 33.867 17.2088 34.1747C17.687 34.4825 18.2292 34.6364 18.8352 34.6364Z" fill="black"/>
    <rect x="77" y="11" width="36" height="36" rx="18" fill="white"/>
    <rect x="77" y="11" width="36" height="36" rx="18" stroke="black" stroke-width="2"/>
    <path d="M94.5511 36.1989C93.7178 36.1989 92.9673 36.0331 92.2997 35.7017C91.6321 35.3703 91.0971 34.9157 90.6946 34.3381C90.2921 33.7604 90.072 33.1023 90.0341 32.3636H91.7386C91.8049 33.0218 92.1032 33.5663 92.6335 33.9972C93.1686 34.4233 93.8078 34.6364 94.5511 34.6364C95.1477 34.6364 95.678 34.4967 96.142 34.2173C96.6108 33.938 96.9777 33.5545 97.2429 33.0668C97.5128 32.5743 97.6477 32.018 97.6477 31.3977C97.6477 30.7633 97.508 30.1974 97.2287 29.7003C96.9541 29.1984 96.5753 28.803 96.0923 28.5142C95.6094 28.2254 95.0578 28.0786 94.4375 28.0739C93.9924 28.0691 93.5355 28.1378 93.0668 28.2798C92.598 28.4171 92.2121 28.5947 91.9091 28.8125L90.2614 28.6136L91.142 21.4545H98.6989V23.017H92.6193L92.108 27.3068H92.1932C92.4915 27.0701 92.8655 26.8736 93.3153 26.7173C93.7652 26.5611 94.2339 26.483 94.7216 26.483C95.6117 26.483 96.4048 26.696 97.1009 27.1222C97.8016 27.5436 98.3509 28.1212 98.7486 28.8551C99.151 29.589 99.3523 30.4271 99.3523 31.3693C99.3523 32.2973 99.1439 33.1259 98.7273 33.8551C98.3153 34.5795 97.7472 35.1525 97.0227 35.5739C96.2983 35.9905 95.4744 36.1989 94.5511 36.1989Z" fill="black"/>
    <rect x="229" y="11" width="36" height="36" rx="18" fill="white"/>
    <rect x="229" y="11" width="36" height="36" rx="18" stroke="black" stroke-width="2"/>
    <path d="M248.619 21.4545V36H246.858V23.3011H246.773L243.222 25.6591V23.8693L246.858 21.4545H248.619Z" fill="black"/>
    <rect x="153" y="11" width="36" height="36" rx="18" fill="white"/>
    <rect x="153" y="11" width="36" height="36" rx="18" stroke="#AAAAAA" stroke-width="2"/>
    <path d="M170.92 36.1989C169.983 36.1989 169.147 36.0379 168.413 35.7159C167.684 35.3939 167.104 34.9465 166.673 34.3736C166.247 33.7959 166.015 33.1259 165.977 32.3636H167.767C167.805 32.8324 167.966 33.2372 168.25 33.5781C168.534 33.9143 168.906 34.1747 169.365 34.3594C169.824 34.544 170.333 34.6364 170.892 34.6364C171.517 34.6364 172.071 34.5275 172.554 34.3097C173.037 34.0919 173.416 33.7888 173.69 33.4006C173.965 33.0123 174.102 32.5625 174.102 32.0511C174.102 31.5161 173.97 31.045 173.705 30.6378C173.439 30.2259 173.051 29.9039 172.54 29.6719C172.028 29.4399 171.403 29.3239 170.665 29.3239H169.5V27.7614H170.665C171.242 27.7614 171.749 27.6572 172.185 27.4489C172.625 27.2405 172.968 26.947 173.214 26.5682C173.465 26.1894 173.591 25.7443 173.591 25.233C173.591 24.7405 173.482 24.312 173.264 23.9474C173.046 23.5829 172.739 23.2988 172.341 23.0952C171.948 22.8916 171.484 22.7898 170.949 22.7898C170.447 22.7898 169.973 22.8821 169.528 23.0668C169.088 23.2467 168.728 23.5095 168.449 23.8551C168.17 24.196 168.018 24.608 167.994 25.0909H166.29C166.318 24.3286 166.548 23.661 166.979 23.0881C167.41 22.5104 167.973 22.0606 168.669 21.7386C169.37 21.4167 170.139 21.2557 170.977 21.2557C171.877 21.2557 172.649 21.438 173.293 21.8026C173.937 22.1624 174.431 22.6383 174.777 23.2301C175.123 23.822 175.295 24.4612 175.295 25.1477C175.295 25.9669 175.08 26.6652 174.649 27.2429C174.223 27.8205 173.643 28.2206 172.909 28.4432V28.5568C173.828 28.7083 174.545 29.099 175.061 29.7287C175.577 30.3537 175.835 31.1278 175.835 32.0511C175.835 32.8419 175.62 33.5521 175.189 34.1818C174.763 34.8068 174.18 35.2992 173.442 35.6591C172.703 36.0189 171.863 36.1989 170.92 36.1989Z" fill="#AAAAAA"/>
    <rect x="305" y="11" width="36" height="36" rx="18" fill="white"/>
    <rect x="305" y="11" width="36" height="36" rx="18" stroke="black" stroke-width="2"/>
    <path d="M322.665 36.1989C321.689 36.1989 320.828 36.026 320.08 35.6804C319.336 35.33 318.756 34.8494 318.339 34.2386C317.923 33.6231 317.717 32.9223 317.722 32.1364C317.717 31.5208 317.838 30.9527 318.084 30.4318C318.33 29.9062 318.666 29.4683 319.092 29.1179C319.523 28.7628 320.004 28.5379 320.534 28.4432V28.358C319.838 28.178 319.284 27.7874 318.872 27.1861C318.46 26.58 318.257 25.8911 318.261 25.1193C318.257 24.3807 318.444 23.7202 318.822 23.1378C319.201 22.5554 319.722 22.0961 320.385 21.7599C321.053 21.4238 321.813 21.2557 322.665 21.2557C323.508 21.2557 324.26 21.4238 324.923 21.7599C325.586 22.0961 326.107 22.5554 326.486 23.1378C326.869 23.7202 327.063 24.3807 327.068 25.1193C327.063 25.8911 326.853 26.58 326.436 27.1861C326.024 27.7874 325.477 28.178 324.795 28.358V28.4432C325.321 28.5379 325.795 28.7628 326.216 29.1179C326.637 29.4683 326.973 29.9062 327.224 30.4318C327.475 30.9527 327.603 31.5208 327.608 32.1364C327.603 32.9223 327.39 33.6231 326.969 34.2386C326.552 34.8494 325.972 35.33 325.229 35.6804C324.49 36.026 323.635 36.1989 322.665 36.1989ZM322.665 34.6364C323.323 34.6364 323.891 34.5298 324.369 34.3168C324.848 34.1037 325.217 33.803 325.477 33.4148C325.738 33.0265 325.87 32.572 325.875 32.0511C325.87 31.5019 325.728 31.0166 325.449 30.5952C325.17 30.1738 324.788 29.8423 324.305 29.6009C323.827 29.3594 323.28 29.2386 322.665 29.2386C322.045 29.2386 321.491 29.3594 321.003 29.6009C320.52 29.8423 320.139 30.1738 319.859 30.5952C319.585 31.0166 319.45 31.5019 319.455 32.0511C319.45 32.572 319.575 33.0265 319.831 33.4148C320.091 33.803 320.463 34.1037 320.946 34.3168C321.429 34.5298 322.002 34.6364 322.665 34.6364ZM322.665 27.733C323.186 27.733 323.647 27.6288 324.05 27.4205C324.457 27.2121 324.777 26.9209 325.009 26.5469C325.241 26.1728 325.359 25.7348 325.364 25.233C325.359 24.7405 325.243 24.312 325.016 23.9474C324.788 23.5781 324.473 23.294 324.071 23.0952C323.669 22.8916 323.2 22.7898 322.665 22.7898C322.12 22.7898 321.644 22.8916 321.237 23.0952C320.83 23.294 320.515 23.5781 320.293 23.9474C320.07 24.312 319.961 24.7405 319.966 25.233C319.961 25.7348 320.072 26.1728 320.3 26.5469C320.532 26.9209 320.851 27.2121 321.259 27.4205C321.666 27.6288 322.134 27.733 322.665 27.733Z" fill="black"/>
    <path d="M66.3499 67.16C65.2832 67.16 64.4299 66.8613 63.7899 66.264C63.1499 65.6667 62.8299 64.8453 62.8299 63.8V61.4C62.8299 60.3547 63.1499 59.5333 63.7899 58.936C64.4299 58.3387 65.2832 58.04 66.3499 58.04C67.3632 58.04 68.1792 58.312 68.7979 58.856C69.4272 59.4 69.7579 60.1413 69.7899 61.08H68.3499C68.3179 60.5147 68.1259 60.0827 67.7739 59.784C67.4219 59.4747 66.9472 59.32 66.3499 59.32C65.7205 59.32 65.2139 59.5013 64.8299 59.864C64.4565 60.216 64.2699 60.7227 64.2699 61.384V63.8C64.2699 64.4613 64.4565 64.9733 64.8299 65.336C65.2139 65.6987 65.7205 65.88 66.3499 65.88C66.9472 65.88 67.4219 65.7253 67.7739 65.416C68.1259 65.1067 68.3179 64.6747 68.3499 64.12H69.7899C69.7579 65.0587 69.4272 65.8 68.7979 66.344C68.1792 66.888 67.3632 67.16 66.3499 67.16ZM75.7996 67.16C74.7863 67.16 73.9756 66.8613 73.3676 66.264C72.7596 65.656 72.4556 64.8347 72.4556 63.8V58.2H73.8956V63.8C73.8956 64.44 74.0663 64.952 74.4076 65.336C74.749 65.7093 75.213 65.896 75.7996 65.896C76.397 65.896 76.8663 65.7093 77.2076 65.336C77.5596 64.952 77.7356 64.44 77.7356 63.8V58.2H79.1756V63.8C79.1756 64.8347 78.8663 65.656 78.2476 66.264C77.629 66.8613 76.813 67.16 75.7996 67.16ZM82.4014 67V58.2H83.8414V59.88H83.8734C83.948 59.3147 84.188 58.8667 84.5934 58.536C84.9987 58.2053 85.5427 58.04 86.2254 58.04C87.1427 58.04 87.8467 58.3173 88.3374 58.872C88.8387 59.416 89.0894 60.1947 89.0894 61.208V61.96H87.6494V61.208C87.6494 59.928 87.0254 59.288 85.7774 59.288C85.148 59.288 84.668 59.4693 84.3374 59.832C84.0067 60.1947 83.8414 60.7173 83.8414 61.4V67H82.4014ZM91.9951 67V58.2H93.4351V59.88H93.4671C93.5418 59.3147 93.7818 58.8667 94.1871 58.536C94.5925 58.2053 95.1365 58.04 95.8191 58.04C96.7365 58.04 97.4405 58.3173 97.9311 58.872C98.4325 59.416 98.6831 60.1947 98.6831 61.208V61.96H97.2431V61.208C97.2431 59.928 96.6191 59.288 95.3711 59.288C94.7418 59.288 94.2618 59.4693 93.9311 59.832C93.6005 60.1947 93.4351 60.7173 93.4351 61.4V67H91.9951ZM104.597 67.16C103.562 67.16 102.725 66.8507 102.085 66.232C101.456 65.6027 101.141 64.7387 101.141 63.64V61.56C101.141 60.4613 101.456 59.6027 102.085 58.984C102.725 58.3547 103.562 58.04 104.597 58.04C105.29 58.04 105.893 58.1787 106.405 58.456C106.928 58.7333 107.333 59.1227 107.621 59.624C107.909 60.1253 108.053 60.7173 108.053 61.4V62.968H102.549V63.8C102.549 64.4507 102.736 64.968 103.109 65.352C103.482 65.7253 103.978 65.912 104.597 65.912C105.13 65.912 105.568 65.8107 105.909 65.608C106.261 65.3947 106.474 65.112 106.549 64.76H107.989C107.893 65.496 107.536 66.0827 106.917 66.52C106.298 66.9467 105.525 67.16 104.597 67.16ZM102.549 61.848H106.645V61.4C106.645 60.7067 106.464 60.1733 106.101 59.8C105.749 59.416 105.248 59.224 104.597 59.224C103.946 59.224 103.44 59.416 103.077 59.8C102.725 60.1733 102.549 60.7067 102.549 61.4V61.848ZM110.863 67V58.2H112.303V59.88H112.319C112.393 59.2933 112.633 58.84 113.039 58.52C113.444 58.2 113.983 58.04 114.655 58.04C115.54 58.04 116.244 58.312 116.767 58.856C117.289 59.4 117.551 60.1413 117.551 61.08V67H116.111V61.336C116.111 60.664 115.94 60.152 115.599 59.8C115.268 59.4373 114.815 59.256 114.239 59.256C113.641 59.256 113.167 59.4427 112.815 59.816C112.473 60.1893 112.303 60.7173 112.303 61.4V67H110.863ZM124.664 67C123.939 67 123.358 66.792 122.92 66.376C122.483 65.9493 122.264 65.384 122.264 64.68V59.512H119.736V58.2H122.264V55.72H123.704V58.2H127.304V59.512H123.704V64.68C123.704 64.9787 123.79 65.224 123.96 65.416C124.142 65.5973 124.376 65.688 124.664 65.688H127.224V67H124.664Z" fill="black"/>
    <path d="M107.185 14.1475C106.684 14.3809 106.468 14.9759 106.701 15.4764C106.935 15.977 107.53 16.1935 108.03 15.9601L107.185 14.1475ZM233.554 15.4425C234.072 15.2491 234.334 14.6729 234.141 14.1556L230.989 5.72555C230.796 5.20824 230.219 4.94567 229.702 5.13909C229.185 5.3325 228.922 5.90866 229.116 6.42597L231.917 13.9193L224.424 16.721C223.907 16.9144 223.644 17.4906 223.837 18.0079C224.031 18.5252 224.607 18.7878 225.124 18.5943L233.554 15.4425ZM108.03 15.9601C127.55 6.85768 148.812 2.0954 170.35 2.00142L170.341 0.00143757C148.514 0.0966763 126.967 4.92288 107.185 14.1475L108.03 15.9601ZM170.35 2.00142C191.888 1.90744 213.19 6.484 232.789 15.4158L233.619 13.5958C213.757 4.54419 192.168 -0.0938011 170.341 0.00143757L170.35 2.00142Z" fill="black"/>
  </g>
  <defs>
    <clipPath id="clip0_300_355">
      <rect width="342" height="72" fill="white"/>
    </clipPath>
  </defs>
</svg>
  