<svg width="320" height="190" viewBox="0 0 320 190" fill="none" xmlns="http://www.w3.org/2000/svg">
<path d="M32 5C32 2.79086 33.7909 1 36 1H64V33H36C33.7909 33 32 31.2091 32 29V5Z" fill="white"/>
<path d="M32 5C32 2.79086 33.7909 1 36 1H64V33H36C33.7909 33 32 31.2091 32 29V5Z" stroke="#AAAAAA" stroke-width="2"/>
<path d="M47.8352 24.1989C47.2386 24.1894 46.642 24.0758 46.0455 23.858C45.4489 23.6402 44.9044 23.2732 44.4119 22.7571C43.9195 22.2363 43.5241 21.5331 43.2259 20.6477C42.9276 19.7576 42.7784 18.6402 42.7784 17.2955C42.7784 16.0076 42.8991 14.8665 43.1406 13.8722C43.3821 12.8731 43.7325 12.0327 44.1918 11.3509C44.651 10.6643 45.205 10.1435 45.8537 9.78835C46.5071 9.43324 47.2434 9.25568 48.0625 9.25568C48.8769 9.25568 49.6013 9.41903 50.2358 9.74574C50.875 10.0677 51.3958 10.5175 51.7983 11.0952C52.2008 11.6728 52.4612 12.3381 52.5795 13.0909H50.8466C50.6856 12.4375 50.3731 11.8954 49.9091 11.4645C49.4451 11.0336 48.8295 10.8182 48.0625 10.8182C46.9356 10.8182 46.0478 11.3082 45.3991 12.2884C44.7552 13.2685 44.4309 14.6439 44.4261 16.4148H44.5398C44.8049 16.0123 45.1198 15.669 45.4844 15.3849C45.8537 15.0961 46.2609 14.8736 46.706 14.7173C47.151 14.5611 47.6222 14.483 48.1193 14.483C48.9527 14.483 49.715 14.6913 50.4062 15.108C51.0975 15.5199 51.6515 16.0904 52.0682 16.8196C52.4848 17.544 52.6932 18.375 52.6932 19.3125C52.6932 20.2121 52.492 21.036 52.0895 21.7841C51.687 22.5275 51.1212 23.1193 50.392 23.5597C49.6676 23.9953 48.8153 24.2083 47.8352 24.1989ZM47.8352 22.6364C48.4318 22.6364 48.9669 22.4872 49.4403 22.1889C49.9186 21.8906 50.295 21.4905 50.5696 20.9886C50.849 20.4867 50.9886 19.928 50.9886 19.3125C50.9886 18.7112 50.8537 18.1643 50.5838 17.6719C50.3187 17.1747 49.9517 16.7794 49.483 16.4858C49.0189 16.1922 48.4886 16.0455 47.892 16.0455C47.4422 16.0455 47.0232 16.1354 46.6349 16.3153C46.2467 16.4905 45.9058 16.732 45.6122 17.0398C45.3234 17.3475 45.0961 17.7003 44.9304 18.098C44.7647 18.491 44.6818 18.9053 44.6818 19.3409C44.6818 19.9186 44.8168 20.4583 45.0866 20.9602C45.3613 21.4621 45.7353 21.867 46.2088 22.1747C46.687 22.4825 47.2292 22.6364 47.8352 22.6364Z" fill="#AAAAAA"/>
<rect x="64" y="1" width="32" height="32" fill="white"/>
<rect x="64" y="1" width="32" height="32" stroke="#AAAAAA" stroke-width="2"/>
<path d="M79.5511 24.1989C78.7178 24.1989 77.9673 24.0331 77.2997 23.7017C76.6321 23.3703 76.0971 22.9157 75.6946 22.3381C75.2921 21.7604 75.072 21.1023 75.0341 20.3636H76.7386C76.8049 21.0218 77.1032 21.5663 77.6335 21.9972C78.1686 22.4233 78.8078 22.6364 79.5511 22.6364C80.1477 22.6364 80.678 22.4967 81.142 22.2173C81.6108 21.938 81.9777 21.5545 82.2429 21.0668C82.5128 20.5743 82.6477 20.018 82.6477 19.3977C82.6477 18.7633 82.508 18.1974 82.2287 17.7003C81.9541 17.1984 81.5753 16.803 81.0923 16.5142C80.6094 16.2254 80.0578 16.0786 79.4375 16.0739C78.9924 16.0691 78.5355 16.1378 78.0668 16.2798C77.598 16.4171 77.2121 16.5947 76.9091 16.8125L75.2614 16.6136L76.142 9.45455H83.6989V11.017H77.6193L77.108 15.3068H77.1932C77.4915 15.0701 77.8655 14.8736 78.3153 14.7173C78.7652 14.5611 79.2339 14.483 79.7216 14.483C80.6117 14.483 81.4048 14.696 82.1009 15.1222C82.8016 15.5436 83.3509 16.1212 83.7486 16.8551C84.151 17.589 84.3523 18.4271 84.3523 19.3693C84.3523 20.2973 84.1439 21.1259 83.7273 21.8551C83.3153 22.5795 82.7472 23.1525 82.0227 23.5739C81.2983 23.9905 80.4744 24.1989 79.5511 24.1989Z" fill="#AAAAAA"/>
<rect x="96" y="1" width="32" height="32" fill="white"/>
<rect x="96" y="1" width="32" height="32" stroke="#AAAAAA" stroke-width="2"/>
<path d="M111.92 24.1989C110.983 24.1989 110.147 24.0379 109.413 23.7159C108.684 23.3939 108.104 22.9465 107.673 22.3736C107.247 21.7959 107.015 21.1259 106.977 20.3636H108.767C108.805 20.8324 108.966 21.2372 109.25 21.5781C109.534 21.9143 109.906 22.1747 110.365 22.3594C110.824 22.544 111.333 22.6364 111.892 22.6364C112.517 22.6364 113.071 22.5275 113.554 22.3097C114.037 22.0919 114.416 21.7888 114.69 21.4006C114.965 21.0123 115.102 20.5625 115.102 20.0511C115.102 19.5161 114.97 19.045 114.705 18.6378C114.439 18.2259 114.051 17.9039 113.54 17.6719C113.028 17.4399 112.403 17.3239 111.665 17.3239H110.5V15.7614H111.665C112.242 15.7614 112.749 15.6572 113.185 15.4489C113.625 15.2405 113.968 14.947 114.214 14.5682C114.465 14.1894 114.591 13.7443 114.591 13.233C114.591 12.7405 114.482 12.312 114.264 11.9474C114.046 11.5829 113.739 11.2988 113.341 11.0952C112.948 10.8916 112.484 10.7898 111.949 10.7898C111.447 10.7898 110.973 10.8821 110.528 11.0668C110.088 11.2467 109.728 11.5095 109.449 11.8551C109.17 12.196 109.018 12.608 108.994 13.0909H107.29C107.318 12.3286 107.548 11.661 107.979 11.0881C108.41 10.5104 108.973 10.0606 109.669 9.73864C110.37 9.41667 111.139 9.25568 111.977 9.25568C112.877 9.25568 113.649 9.43797 114.293 9.80256C114.937 10.1624 115.431 10.6383 115.777 11.2301C116.123 11.822 116.295 12.4612 116.295 13.1477C116.295 13.9669 116.08 14.6652 115.649 15.2429C115.223 15.8205 114.643 16.2206 113.909 16.4432V16.5568C114.828 16.7083 115.545 17.099 116.061 17.7287C116.577 18.3537 116.835 19.1278 116.835 20.0511C116.835 20.8419 116.62 21.5521 116.189 22.1818C115.763 22.8068 115.18 23.2992 114.442 23.6591C113.703 24.0189 112.863 24.1989 111.92 24.1989Z" fill="#AAAAAA"/>
<rect x="128" y="1" width="32" height="32" fill="white"/>
<rect x="128" y="1" width="32" height="32" stroke="#AAAAAA" stroke-width="2"/>
<path d="M145.619 9.45455V24H143.858V11.3011H143.773L140.222 13.6591V11.8693L143.858 9.45455H145.619Z" fill="#AAAAAA"/>
<rect x="160" y="1" width="32" height="32" fill="white"/>
<rect x="160" y="1" width="32" height="32" stroke="#AAAAAA" stroke-width="2"/>
<path d="M175.665 24.1989C174.689 24.1989 173.828 24.026 173.08 23.6804C172.336 23.33 171.756 22.8494 171.339 22.2386C170.923 21.6231 170.717 20.9223 170.722 20.1364C170.717 19.5208 170.838 18.9527 171.084 18.4318C171.33 17.9062 171.666 17.4683 172.092 17.1179C172.523 16.7628 173.004 16.5379 173.534 16.4432V16.358C172.838 16.178 172.284 15.7874 171.872 15.1861C171.46 14.58 171.257 13.8911 171.261 13.1193C171.257 12.3807 171.444 11.7202 171.822 11.1378C172.201 10.5554 172.722 10.0961 173.385 9.75994C174.053 9.42377 174.813 9.25568 175.665 9.25568C176.508 9.25568 177.26 9.42377 177.923 9.75994C178.586 10.0961 179.107 10.5554 179.486 11.1378C179.869 11.7202 180.063 12.3807 180.068 13.1193C180.063 13.8911 179.853 14.58 179.436 15.1861C179.024 15.7874 178.477 16.178 177.795 16.358V16.4432C178.321 16.5379 178.795 16.7628 179.216 17.1179C179.637 17.4683 179.973 17.9062 180.224 18.4318C180.475 18.9527 180.603 19.5208 180.608 20.1364C180.603 20.9223 180.39 21.6231 179.969 22.2386C179.552 22.8494 178.972 23.33 178.229 23.6804C177.49 24.026 176.635 24.1989 175.665 24.1989ZM175.665 22.6364C176.323 22.6364 176.891 22.5298 177.369 22.3168C177.848 22.1037 178.217 21.803 178.477 21.4148C178.738 21.0265 178.87 20.572 178.875 20.0511C178.87 19.5019 178.728 19.0166 178.449 18.5952C178.17 18.1738 177.788 17.8423 177.305 17.6009C176.827 17.3594 176.28 17.2386 175.665 17.2386C175.045 17.2386 174.491 17.3594 174.003 17.6009C173.52 17.8423 173.139 18.1738 172.859 18.5952C172.585 19.0166 172.45 19.5019 172.455 20.0511C172.45 20.572 172.575 21.0265 172.831 21.4148C173.091 21.803 173.463 22.1037 173.946 22.3168C174.429 22.5298 175.002 22.6364 175.665 22.6364ZM175.665 15.733C176.186 15.733 176.647 15.6288 177.05 15.4205C177.457 15.2121 177.777 14.9209 178.009 14.5469C178.241 14.1728 178.359 13.7348 178.364 13.233C178.359 12.7405 178.243 12.312 178.016 11.9474C177.788 11.5781 177.473 11.294 177.071 11.0952C176.669 10.8916 176.2 10.7898 175.665 10.7898C175.12 10.7898 174.644 10.8916 174.237 11.0952C173.83 11.294 173.515 11.5781 173.293 11.9474C173.07 12.312 172.961 12.7405 172.966 13.233C172.961 13.7348 173.072 14.1728 173.3 14.5469C173.532 14.9209 173.851 15.2121 174.259 15.4205C174.666 15.6288 175.134 15.733 175.665 15.733Z" fill="#AAAAAA"/>
<rect x="192" y="1" width="32" height="32" fill="white"/>
<rect x="192" y="1" width="32" height="32" stroke="#AAAAAA" stroke-width="2"/>
<path d="M203.96 24L210.466 11.1307V11.017H202.966V9.45455H212.284V11.1023L205.807 24H203.96Z" fill="#AAAAAA"/>
<rect x="224" y="1" width="32" height="32" fill="white"/>
<rect x="224" y="1" width="32" height="32" stroke="#AAAAAA" stroke-width="2"/>
<path d="M235.006 24V22.7216L239.807 17.4659C240.37 16.8504 240.834 16.3153 241.199 15.8608C241.563 15.4015 241.833 14.9706 242.009 14.5682C242.188 14.161 242.278 13.7348 242.278 13.2898C242.278 12.7784 242.155 12.3357 241.909 11.9616C241.668 11.5876 241.336 11.2988 240.915 11.0952C240.493 10.8916 240.02 10.7898 239.494 10.7898C238.936 10.7898 238.448 10.9058 238.031 11.1378C237.619 11.3651 237.3 11.6847 237.072 12.0966C236.85 12.5085 236.739 12.9915 236.739 13.5455H235.062C235.062 12.6932 235.259 11.9451 235.652 11.3011C236.045 10.6572 236.58 10.1553 237.257 9.79545C237.939 9.43561 238.704 9.25568 239.551 9.25568C240.403 9.25568 241.159 9.43561 241.817 9.79545C242.475 10.1553 242.991 10.6406 243.365 11.2514C243.739 11.8622 243.926 12.5417 243.926 13.2898C243.926 13.8248 243.829 14.348 243.635 14.8594C243.446 15.366 243.114 15.9318 242.641 16.5568C242.172 17.1771 241.521 17.9347 240.688 18.8295L237.42 22.3239V22.4375H244.182V24H235.006Z" fill="#AAAAAA"/>
<path d="M256 1H284C286.209 1 288 2.79086 288 5V29C288 31.2091 286.209 33 284 33H256V1Z" fill="white"/>
<path d="M256 1H284C286.209 1 288 2.79086 288 5V29C288 31.2091 286.209 33 284 33H256V1Z" stroke="#AAAAAA" stroke-width="2"/>
<path d="M266.665 21.017V19.5682L273.057 9.45455H274.108V11.6989H273.398L268.568 19.3409V19.4545H277.176V21.017H266.665ZM273.511 24V20.5767V19.902V9.45455H275.188V24H273.511Z" fill="#AAAAAA"/>
<rect x="96" y="1" width="32" height="32" fill="white"/>
<rect x="96" y="1" width="32" height="32" stroke="#AAAAAA" stroke-width="2"/>
<path d="M111.92 24.1989C110.983 24.1989 110.147 24.0379 109.413 23.7159C108.684 23.3939 108.104 22.9465 107.673 22.3736C107.247 21.7959 107.015 21.1259 106.977 20.3636H108.767C108.805 20.8324 108.966 21.2372 109.25 21.5781C109.534 21.9143 109.906 22.1747 110.365 22.3594C110.824 22.544 111.333 22.6364 111.892 22.6364C112.517 22.6364 113.071 22.5275 113.554 22.3097C114.037 22.0919 114.416 21.7888 114.69 21.4006C114.965 21.0123 115.102 20.5625 115.102 20.0511C115.102 19.5161 114.97 19.045 114.705 18.6378C114.439 18.2259 114.051 17.9039 113.54 17.6719C113.028 17.4399 112.403 17.3239 111.665 17.3239H110.5V15.7614H111.665C112.242 15.7614 112.749 15.6572 113.185 15.4489C113.625 15.2405 113.968 14.947 114.214 14.5682C114.465 14.1894 114.591 13.7443 114.591 13.233C114.591 12.7405 114.482 12.312 114.264 11.9474C114.046 11.5829 113.739 11.2988 113.341 11.0952C112.948 10.8916 112.484 10.7898 111.949 10.7898C111.447 10.7898 110.973 10.8821 110.528 11.0668C110.088 11.2467 109.728 11.5095 109.449 11.8551C109.17 12.196 109.018 12.608 108.994 13.0909H107.29C107.318 12.3286 107.548 11.661 107.979 11.0881C108.41 10.5104 108.973 10.0606 109.669 9.73864C110.37 9.41667 111.139 9.25568 111.977 9.25568C112.877 9.25568 113.649 9.43797 114.293 9.80256C114.937 10.1624 115.431 10.6383 115.777 11.2301C116.123 11.822 116.295 12.4612 116.295 13.1477C116.295 13.9669 116.08 14.6652 115.649 15.2429C115.223 15.8205 114.643 16.2206 113.909 16.4432V16.5568C114.828 16.7083 115.545 17.099 116.061 17.7287C116.577 18.3537 116.835 19.1278 116.835 20.0511C116.835 20.8419 116.62 21.5521 116.189 22.1818C115.763 22.8068 115.18 23.2992 114.442 23.6591C113.703 24.0189 112.863 24.1989 111.92 24.1989Z" fill="#AAAAAA"/>
<rect x="128" y="1" width="32" height="32" fill="white"/>
<rect x="128" y="1" width="32" height="32" stroke="#AAAAAA" stroke-width="2"/>
<path d="M145.619 9.45455V24H143.858V11.3011H143.773L140.222 13.6591V11.8693L143.858 9.45455H145.619Z" fill="#AAAAAA"/>
<rect x="160" y="1" width="32" height="32" fill="white"/>
<rect x="160" y="1" width="32" height="32" stroke="#AAAAAA" stroke-width="2"/>
<path d="M175.665 24.1989C174.689 24.1989 173.828 24.026 173.08 23.6804C172.336 23.33 171.756 22.8494 171.339 22.2386C170.923 21.6231 170.717 20.9223 170.722 20.1364C170.717 19.5208 170.838 18.9527 171.084 18.4318C171.33 17.9062 171.666 17.4683 172.092 17.1179C172.523 16.7628 173.004 16.5379 173.534 16.4432V16.358C172.838 16.178 172.284 15.7874 171.872 15.1861C171.46 14.58 171.257 13.8911 171.261 13.1193C171.257 12.3807 171.444 11.7202 171.822 11.1378C172.201 10.5554 172.722 10.0961 173.385 9.75994C174.053 9.42377 174.813 9.25568 175.665 9.25568C176.508 9.25568 177.26 9.42377 177.923 9.75994C178.586 10.0961 179.107 10.5554 179.486 11.1378C179.869 11.7202 180.063 12.3807 180.068 13.1193C180.063 13.8911 179.853 14.58 179.436 15.1861C179.024 15.7874 178.477 16.178 177.795 16.358V16.4432C178.321 16.5379 178.795 16.7628 179.216 17.1179C179.637 17.4683 179.973 17.9062 180.224 18.4318C180.475 18.9527 180.603 19.5208 180.608 20.1364C180.603 20.9223 180.39 21.6231 179.969 22.2386C179.552 22.8494 178.972 23.33 178.229 23.6804C177.49 24.026 176.635 24.1989 175.665 24.1989ZM175.665 22.6364C176.323 22.6364 176.891 22.5298 177.369 22.3168C177.848 22.1037 178.217 21.803 178.477 21.4148C178.738 21.0265 178.87 20.572 178.875 20.0511C178.87 19.5019 178.728 19.0166 178.449 18.5952C178.17 18.1738 177.788 17.8423 177.305 17.6009C176.827 17.3594 176.28 17.2386 175.665 17.2386C175.045 17.2386 174.491 17.3594 174.003 17.6009C173.52 17.8423 173.139 18.1738 172.859 18.5952C172.585 19.0166 172.45 19.5019 172.455 20.0511C172.45 20.572 172.575 21.0265 172.831 21.4148C173.091 21.803 173.463 22.1037 173.946 22.3168C174.429 22.5298 175.002 22.6364 175.665 22.6364ZM175.665 15.733C176.186 15.733 176.647 15.6288 177.05 15.4205C177.457 15.2121 177.777 14.9209 178.009 14.5469C178.241 14.1728 178.359 13.7348 178.364 13.233C178.359 12.7405 178.243 12.312 178.016 11.9474C177.788 11.5781 177.473 11.294 177.071 11.0952C176.669 10.8916 176.2 10.7898 175.665 10.7898C175.12 10.7898 174.644 10.8916 174.237 11.0952C173.83 11.294 173.515 11.5781 173.293 11.9474C173.07 12.312 172.961 12.7405 172.966 13.233C172.961 13.7348 173.072 14.1728 173.3 14.5469C173.532 14.9209 173.851 15.2121 174.259 15.4205C174.666 15.6288 175.134 15.733 175.665 15.733Z" fill="#AAAAAA"/>
<rect x="192" y="1" width="32" height="32" fill="white"/>
<rect x="192" y="1" width="32" height="32" stroke="#AAAAAA" stroke-width="2"/>
<path d="M203.96 24L210.466 11.1307V11.017H202.966V9.45455H212.284V11.1023L205.807 24H203.96Z" fill="#AAAAAA"/>
<rect x="224" y="1" width="32" height="32" fill="white"/>
<rect x="224" y="1" width="32" height="32" stroke="#AAAAAA" stroke-width="2"/>
<path d="M235.006 24V22.7216L239.807 17.4659C240.37 16.8504 240.834 16.3153 241.199 15.8608C241.563 15.4015 241.833 14.9706 242.009 14.5682C242.188 14.161 242.278 13.7348 242.278 13.2898C242.278 12.7784 242.155 12.3357 241.909 11.9616C241.668 11.5876 241.336 11.2988 240.915 11.0952C240.493 10.8916 240.02 10.7898 239.494 10.7898C238.936 10.7898 238.448 10.9058 238.031 11.1378C237.619 11.3651 237.3 11.6847 237.072 12.0966C236.85 12.5085 236.739 12.9915 236.739 13.5455H235.062C235.062 12.6932 235.259 11.9451 235.652 11.3011C236.045 10.6572 236.58 10.1553 237.257 9.79545C237.939 9.43561 238.704 9.25568 239.551 9.25568C240.403 9.25568 241.159 9.43561 241.817 9.79545C242.475 10.1553 242.991 10.6406 243.365 11.2514C243.739 11.8622 243.926 12.5417 243.926 13.2898C243.926 13.8248 243.829 14.348 243.635 14.8594C243.446 15.366 243.114 15.9318 242.641 16.5568C242.172 17.1771 241.521 17.9347 240.688 18.8295L237.42 22.3239V22.4375H244.182V24H235.006Z" fill="#AAAAAA"/>
<path d="M256 1H284C286.209 1 288 2.79086 288 5V29C288 31.2091 286.209 33 284 33H256V1Z" fill="white"/>
<path d="M256 1H284C286.209 1 288 2.79086 288 5V29C288 31.2091 286.209 33 284 33H256V1Z" stroke="#AAAAAA" stroke-width="2"/>
<path d="M266.665 21.017V19.5682L273.057 9.45455H274.108V11.6989H273.398L268.568 19.3409V19.4545H277.176V21.017H266.665ZM273.511 24V20.5767V19.902V9.45455H275.188V24H273.511Z" fill="#AAAAAA"/>
<rect x="76" y="53" width="32" height="32" fill="white"/>
<rect x="76" y="53" width="32" height="32" stroke="black" stroke-width="2"/>
<path d="M91.5511 76.1989C90.7178 76.1989 89.9673 76.0331 89.2997 75.7017C88.6321 75.3703 88.0971 74.9157 87.6946 74.3381C87.2921 73.7604 87.072 73.1023 87.0341 72.3636H88.7386C88.8049 73.0218 89.1032 73.5663 89.6335 73.9972C90.1686 74.4233 90.8078 74.6364 91.5511 74.6364C92.1477 74.6364 92.678 74.4967 93.142 74.2173C93.6108 73.938 93.9777 73.5545 94.2429 73.0668C94.5128 72.5743 94.6477 72.018 94.6477 71.3977C94.6477 70.7633 94.508 70.1974 94.2287 69.7003C93.9541 69.1984 93.5753 68.803 93.0923 68.5142C92.6094 68.2254 92.0578 68.0786 91.4375 68.0739C90.9924 68.0691 90.5355 68.1378 90.0668 68.2798C89.598 68.4171 89.2121 68.5947 88.9091 68.8125L87.2614 68.6136L88.142 61.4545H95.6989V63.017H89.6193L89.108 67.3068H89.1932C89.4915 67.0701 89.8655 66.8736 90.3153 66.7173C90.7652 66.5611 91.2339 66.483 91.7216 66.483C92.6117 66.483 93.4048 66.696 94.1009 67.1222C94.8016 67.5436 95.3509 68.1212 95.7486 68.8551C96.151 69.589 96.3523 70.4271 96.3523 71.3693C96.3523 72.2973 96.1439 73.1259 95.7273 73.8551C95.3153 74.5795 94.7472 75.1525 94.0227 75.5739C93.2983 75.9905 92.4744 76.1989 91.5511 76.1989Z" fill="black"/>
<path d="M108 53H136C138.209 53 140 54.7909 140 57V81C140 83.2091 138.209 85 136 85H108V53Z" fill="white"/>
<path d="M108 53H136C138.209 53 140 54.7909 140 57V81C140 83.2091 138.209 85 136 85H108V53Z" stroke="black" stroke-width="2"/>
<path d="M123.835 76.1989C123.239 76.1894 122.642 76.0758 122.045 75.858C121.449 75.6402 120.904 75.2732 120.412 74.7571C119.92 74.2363 119.524 73.5331 119.226 72.6477C118.928 71.7576 118.778 70.6402 118.778 69.2955C118.778 68.0076 118.899 66.8665 119.141 65.8722C119.382 64.8731 119.732 64.0327 120.192 63.3509C120.651 62.6643 121.205 62.1435 121.854 61.7884C122.507 61.4332 123.243 61.2557 124.062 61.2557C124.877 61.2557 125.601 61.419 126.236 61.7457C126.875 62.0677 127.396 62.5175 127.798 63.0952C128.201 63.6728 128.461 64.3381 128.58 65.0909H126.847C126.686 64.4375 126.373 63.8954 125.909 63.4645C125.445 63.0336 124.83 62.8182 124.062 62.8182C122.936 62.8182 122.048 63.3082 121.399 64.2884C120.755 65.2685 120.431 66.6439 120.426 68.4148H120.54C120.805 68.0123 121.12 67.669 121.484 67.3849C121.854 67.0961 122.261 66.8736 122.706 66.7173C123.151 66.5611 123.622 66.483 124.119 66.483C124.953 66.483 125.715 66.6913 126.406 67.108C127.098 67.5199 127.652 68.0904 128.068 68.8196C128.485 69.544 128.693 70.375 128.693 71.3125C128.693 72.2121 128.492 73.036 128.089 73.7841C127.687 74.5275 127.121 75.1193 126.392 75.5597C125.668 75.9953 124.815 76.2083 123.835 76.1989ZM123.835 74.6364C124.432 74.6364 124.967 74.4872 125.44 74.1889C125.919 73.8906 126.295 73.4905 126.57 72.9886C126.849 72.4867 126.989 71.928 126.989 71.3125C126.989 70.7112 126.854 70.1643 126.584 69.6719C126.319 69.1747 125.952 68.7794 125.483 68.4858C125.019 68.1922 124.489 68.0455 123.892 68.0455C123.442 68.0455 123.023 68.1354 122.635 68.3153C122.247 68.4905 121.906 68.732 121.612 69.0398C121.323 69.3475 121.096 69.7003 120.93 70.098C120.765 70.491 120.682 70.9053 120.682 71.3409C120.682 71.9186 120.817 72.4583 121.087 72.9602C121.361 73.4621 121.735 73.867 122.209 74.1747C122.687 74.4825 123.229 74.6364 123.835 74.6364Z" fill="black"/>
<rect x="212" y="53" width="32" height="32" fill="white"/>
<rect x="212" y="53" width="32" height="32" stroke="black" stroke-width="2"/>
<path d="M222.665 73.017V71.5682L229.057 61.4545H230.108V63.6989H229.398L224.568 71.3409V71.4545H233.176V73.017H222.665ZM229.511 76V72.5767V71.902V61.4545H231.188V76H229.511Z" fill="black"/>
<rect x="244" y="53" width="32" height="32" fill="white"/>
<rect x="244" y="53" width="32" height="32" stroke="black" stroke-width="2"/>
<path d="M255.96 76L262.466 63.1307V63.017H254.966V61.4545H264.284V63.1023L257.807 76H255.96Z" fill="black"/>
<path d="M276 53H304C306.209 53 308 54.7909 308 57V81C308 83.2091 306.209 85 304 85H276V53Z" fill="white"/>
<path d="M276 53H304C306.209 53 308 54.7909 308 57V81C308 83.2091 306.209 85 304 85H276V53Z" stroke="black" stroke-width="2"/>
<path d="M291.665 76.1989C290.689 76.1989 289.828 76.026 289.08 75.6804C288.336 75.33 287.756 74.8494 287.339 74.2386C286.923 73.6231 286.717 72.9223 286.722 72.1364C286.717 71.5208 286.838 70.9527 287.084 70.4318C287.33 69.9062 287.666 69.4683 288.092 69.1179C288.523 68.7628 289.004 68.5379 289.534 68.4432V68.358C288.838 68.178 288.284 67.7874 287.872 67.1861C287.46 66.58 287.257 65.8911 287.261 65.1193C287.257 64.3807 287.444 63.7202 287.822 63.1378C288.201 62.5554 288.722 62.0961 289.385 61.7599C290.053 61.4238 290.813 61.2557 291.665 61.2557C292.508 61.2557 293.26 61.4238 293.923 61.7599C294.586 62.0961 295.107 62.5554 295.486 63.1378C295.869 63.7202 296.063 64.3807 296.068 65.1193C296.063 65.8911 295.853 66.58 295.436 67.1861C295.024 67.7874 294.477 68.178 293.795 68.358V68.4432C294.321 68.5379 294.795 68.7628 295.216 69.1179C295.637 69.4683 295.973 69.9062 296.224 70.4318C296.475 70.9527 296.603 71.5208 296.608 72.1364C296.603 72.9223 296.39 73.6231 295.969 74.2386C295.552 74.8494 294.972 75.33 294.229 75.6804C293.49 76.026 292.635 76.1989 291.665 76.1989ZM291.665 74.6364C292.323 74.6364 292.891 74.5298 293.369 74.3168C293.848 74.1037 294.217 73.803 294.477 73.4148C294.738 73.0265 294.87 72.572 294.875 72.0511C294.87 71.5019 294.728 71.0166 294.449 70.5952C294.17 70.1738 293.788 69.8423 293.305 69.6009C292.827 69.3594 292.28 69.2386 291.665 69.2386C291.045 69.2386 290.491 69.3594 290.003 69.6009C289.52 69.8423 289.139 70.1738 288.859 70.5952C288.585 71.0166 288.45 71.5019 288.455 72.0511C288.45 72.572 288.575 73.0265 288.831 73.4148C289.091 73.803 289.463 74.1037 289.946 74.3168C290.429 74.5298 291.002 74.6364 291.665 74.6364ZM291.665 67.733C292.186 67.733 292.647 67.6288 293.05 67.4205C293.457 67.2121 293.777 66.9209 294.009 66.5469C294.241 66.1728 294.359 65.7348 294.364 65.233C294.359 64.7405 294.243 64.312 294.016 63.9474C293.788 63.5781 293.473 63.294 293.071 63.0952C292.669 62.8916 292.2 62.7898 291.665 62.7898C291.12 62.7898 290.644 62.8916 290.237 63.0952C289.83 63.294 289.515 63.5781 289.293 63.9474C289.07 64.312 288.961 64.7405 288.966 65.233C288.961 65.7348 289.072 66.1728 289.3 66.5469C289.532 66.9209 289.851 67.2121 290.259 67.4205C290.666 67.6288 291.134 67.733 291.665 67.733Z" fill="black"/>
<path d="M12 57C12 54.7909 13.7909 53 16 53H44V85H16C13.7909 85 12 83.2091 12 81V57Z" fill="white"/>
<path d="M12 57C12 54.7909 13.7909 53 16 53H44V85H16C13.7909 85 12 83.2091 12 81V57Z" stroke="#AAAAAA" stroke-width="2"/>
<path d="M29.6193 61.4545V76H27.858V63.3011H27.7727L24.2216 65.6591V63.8693L27.858 61.4545H29.6193Z" fill="#AAAAAA"/>
<path d="M32 5C32 2.79086 33.7909 1 36 1H64V33H36C33.7909 33 32 31.2091 32 29V5Z" fill="white"/>
<path d="M32 5C32 2.79086 33.7909 1 36 1H64V33H36C33.7909 33 32 31.2091 32 29V5Z" stroke="black" stroke-width="2"/>
<path d="M49.6193 9.45455V24H47.858V11.3011H47.7727L44.2216 13.6591V11.8693L47.858 9.45455H49.6193Z" fill="black"/>
<path d="M180 57C180 54.7909 181.791 53 184 53H212V85H184C181.791 85 180 83.2091 180 81V57Z" fill="white"/>
<path d="M180 57C180 54.7909 181.791 53 184 53H212V85H184C181.791 85 180 83.2091 180 81V57Z" stroke="#EF4444" stroke-width="2"/>
<path d="M191.006 76V74.7216L195.807 69.4659C196.37 68.8504 196.834 68.3153 197.199 67.8608C197.563 67.4015 197.833 66.9706 198.009 66.5682C198.188 66.161 198.278 65.7348 198.278 65.2898C198.278 64.7784 198.155 64.3357 197.909 63.9616C197.668 63.5876 197.336 63.2988 196.915 63.0952C196.493 62.8916 196.02 62.7898 195.494 62.7898C194.936 62.7898 194.448 62.9058 194.031 63.1378C193.619 63.3651 193.3 63.6847 193.072 64.0966C192.85 64.5085 192.739 64.9915 192.739 65.5455H191.062C191.062 64.6932 191.259 63.9451 191.652 63.3011C192.045 62.6572 192.58 62.1553 193.257 61.7955C193.939 61.4356 194.704 61.2557 195.551 61.2557C196.403 61.2557 197.159 61.4356 197.817 61.7955C198.475 62.1553 198.991 62.6406 199.365 63.2514C199.739 63.8622 199.926 64.5417 199.926 65.2898C199.926 65.8248 199.829 66.348 199.635 66.8594C199.446 67.366 199.114 67.9318 198.641 68.5568C198.172 69.1771 197.521 69.9347 196.688 70.8295L193.42 74.3239V74.4375H200.182V76H191.006Z" fill="#EF4444"/>
<rect x="44" y="53" width="32" height="32" fill="white"/>
<rect x="44" y="53" width="32" height="32" stroke="black" stroke-width="2"/>
<path d="M59.9205 76.1989C58.983 76.1989 58.1473 76.0379 57.4134 75.7159C56.6842 75.3939 56.1042 74.9465 55.6733 74.3736C55.2472 73.7959 55.0152 73.1259 54.9773 72.3636H56.767C56.8049 72.8324 56.9659 73.2372 57.25 73.5781C57.5341 73.9143 57.9058 74.1747 58.3651 74.3594C58.8243 74.544 59.3333 74.6364 59.892 74.6364C60.517 74.6364 61.071 74.5275 61.554 74.3097C62.0369 74.0919 62.4157 73.7888 62.6903 73.4006C62.965 73.0123 63.1023 72.5625 63.1023 72.0511C63.1023 71.5161 62.9697 71.045 62.7045 70.6378C62.4394 70.2259 62.0511 69.9039 61.5398 69.6719C61.0284 69.4399 60.4034 69.3239 59.6648 69.3239H58.5V67.7614H59.6648C60.2424 67.7614 60.7491 67.6572 61.1847 67.4489C61.625 67.2405 61.9683 66.947 62.2145 66.5682C62.4654 66.1894 62.5909 65.7443 62.5909 65.233C62.5909 64.7405 62.482 64.312 62.2642 63.9474C62.0464 63.5829 61.7386 63.2988 61.3409 63.0952C60.9479 62.8916 60.4839 62.7898 59.9489 62.7898C59.447 62.7898 58.9735 62.8821 58.5284 63.0668C58.0881 63.2467 57.7282 63.5095 57.4489 63.8551C57.1695 64.196 57.018 64.608 56.9943 65.0909H55.2898C55.3182 64.3286 55.5478 63.661 55.9787 63.0881C56.4096 62.5104 56.973 62.0606 57.669 61.7386C58.3698 61.4167 59.1392 61.2557 59.9773 61.2557C60.8769 61.2557 61.6487 61.438 62.2926 61.8026C62.9366 62.1624 63.4313 62.6383 63.777 63.2301C64.1226 63.822 64.2955 64.4612 64.2955 65.1477C64.2955 65.9669 64.08 66.6652 63.6491 67.2429C63.223 67.8205 62.643 68.2206 61.9091 68.4432V68.5568C62.8277 68.7083 63.545 69.099 64.0611 69.7287C64.5772 70.3537 64.8352 71.1278 64.8352 72.0511C64.8352 72.8419 64.6198 73.5521 64.1889 74.1818C63.7628 74.8068 63.1804 75.2992 62.4418 75.6591C61.7031 76.0189 60.8627 76.1989 59.9205 76.1989Z" fill="black"/>
<rect x="64" y="1" width="32" height="32" fill="white"/>
<rect x="64" y="1" width="32" height="32" stroke="#EF4444" stroke-width="2"/>
<path d="M75.0057 24V22.7216L79.8068 17.4659C80.3703 16.8504 80.8343 16.3153 81.1989 15.8608C81.5634 15.4015 81.8333 14.9706 82.0085 14.5682C82.1884 14.161 82.2784 13.7348 82.2784 13.2898C82.2784 12.7784 82.1553 12.3357 81.9091 11.9616C81.6676 11.5876 81.3362 11.2988 80.9148 11.0952C80.4934 10.8916 80.0199 10.7898 79.4943 10.7898C78.9356 10.7898 78.4479 10.9058 78.0312 11.1378C77.6193 11.3651 77.2997 11.6847 77.0724 12.0966C76.8499 12.5085 76.7386 12.9915 76.7386 13.5455H75.0625C75.0625 12.6932 75.259 11.9451 75.652 11.3011C76.045 10.6572 76.58 10.1553 77.2571 9.79545C77.9389 9.43561 78.7036 9.25568 79.5511 9.25568C80.4034 9.25568 81.1586 9.43561 81.8168 9.79545C82.4749 10.1553 82.991 10.6406 83.3651 11.2514C83.7391 11.8622 83.9261 12.5417 83.9261 13.2898C83.9261 13.8248 83.8291 14.348 83.6349 14.8594C83.4455 15.366 83.1141 15.9318 82.6406 16.5568C82.1719 17.1771 81.5208 17.9347 80.6875 18.8295L77.4205 22.3239V22.4375H84.1818V24H75.0057Z" fill="#EF4444"/>
</svg>
