<svg width="502" height="88" viewBox="0 0 502 88" fill="none"
  xmlns="http://www.w3.org/2000/svg">
  <g clip-path="url(#clip0_355_130)">
    <path d="M1 44H501" stroke="black" stroke-width="2" stroke-linecap="round"/>
    <path d="M193.646 63.6464C193.451 63.8417 193.451 64.1583 193.646 64.3536L196.828 67.5355C197.024 67.7308 197.34 67.7308 197.536 67.5355C197.731 67.3403 197.731 67.0237 197.536 66.8284L194.707 64L197.536 61.1716C197.731 60.9763 197.731 60.6597 197.536 60.4645C197.34 60.2692 197.024 60.2692 196.828 60.4645L193.646 63.6464ZM308.354 64.3536C308.549 64.1583 308.549 63.8417 308.354 63.6464L305.172 60.4645C304.976 60.2692 304.66 60.2692 304.464 60.4645C304.269 60.6597 304.269 60.9763 304.464 61.1716L307.293 64L304.464 66.8284C304.269 67.0237 304.269 67.3403 304.464 67.5355C304.66 67.7308 304.976 67.7308 305.172 67.5355L308.354 64.3536ZM194 64.5L308 64.5V63.5L194 63.5V64.5Z" fill="black"/>
    <path d="M120.646 23.6464C120.451 23.8417 120.451 24.1583 120.646 24.3536L123.828 27.5355C124.024 27.7308 124.34 27.7308 124.536 27.5355C124.731 27.3403 124.731 27.0237 124.536 26.8284L121.707 24L124.536 21.1716C124.731 20.9763 124.731 20.6597 124.536 20.4645C124.34 20.2692 124.024 20.2692 123.828 20.4645L120.646 23.6464ZM190.354 24.3536C190.549 24.1583 190.549 23.8417 190.354 23.6465L187.172 20.4645C186.976 20.2692 186.66 20.2692 186.464 20.4645C186.269 20.6597 186.269 20.9763 186.464 21.1716L189.293 24L186.464 26.8284C186.269 27.0237 186.269 27.3403 186.464 27.5355C186.66 27.7308 186.976 27.7308 187.172 27.5355L190.354 24.3536ZM121 24.5L190 24.5L190 23.5L121 23.5L121 24.5Z" fill="black"/>
    <path d="M2.64645 63.6464C2.45118 63.8417 2.45118 64.1583 2.64645 64.3536L5.82843 67.5355C6.02369 67.7308 6.34027 67.7308 6.53553 67.5355C6.7308 67.3403 6.7308 67.0237 6.53553 66.8284L3.70711 64L6.53553 61.1716C6.7308 60.9763 6.7308 60.6597 6.53553 60.4645C6.34027 60.2692 6.02369 60.2692 5.82843 60.4645L2.64645 63.6464ZM190.354 64.3536C190.549 64.1583 190.549 63.8417 190.354 63.6464L187.172 60.4645C186.976 60.2692 186.66 60.2692 186.464 60.4645C186.269 60.6597 186.269 60.9763 186.464 61.1716L189.293 64L186.464 66.8284C186.269 67.0237 186.269 67.3403 186.464 67.5355C186.66 67.7308 186.976 67.7308 187.172 67.5355L190.354 64.3536ZM3 64.5L190 64.5V63.5L3 63.5V64.5Z" fill="black"/>
    <path d="M2.64645 23.6464C2.45118 23.8417 2.45118 24.1583 2.64645 24.3536L5.82843 27.5355C6.02369 27.7308 6.34027 27.7308 6.53553 27.5355C6.7308 27.3403 6.7308 27.0237 6.53553 26.8284L3.70711 24L6.53553 21.1716C6.7308 20.9763 6.7308 20.6597 6.53553 20.4645C6.34027 20.2692 6.02369 20.2692 5.82843 20.4645L2.64645 23.6464ZM117.354 24.3536C117.549 24.1583 117.549 23.8417 117.354 23.6464L114.172 20.4645C113.976 20.2692 113.66 20.2692 113.464 20.4645C113.269 20.6597 113.269 20.9763 113.464 21.1716L116.293 24L113.464 26.8284C113.269 27.0237 113.269 27.3403 113.464 27.5355C113.66 27.7308 113.976 27.7308 114.172 27.5355L117.354 24.3536ZM3 24.5L117 24.5V23.5L3 23.5V24.5Z" fill="black"/>
    <path d="M193.646 23.6464C193.451 23.8417 193.451 24.1583 193.646 24.3536L196.828 27.5355C197.024 27.7308 197.34 27.7308 197.536 27.5355C197.731 27.3403 197.731 27.0237 197.536 26.8284L194.707 24L197.536 21.1716C197.731 20.9763 197.731 20.6597 197.536 20.4645C197.34 20.2692 197.024 20.2692 196.828 20.4645L193.646 23.6464ZM308.354 24.3536C308.549 24.1583 308.549 23.8417 308.354 23.6464L305.172 20.4645C304.976 20.2692 304.66 20.2692 304.464 20.4645C304.269 20.6597 304.269 20.9763 304.464 21.1716L307.293 24L304.464 26.8284C304.269 27.0237 304.269 27.3403 304.464 27.5355C304.66 27.7308 304.976 27.7308 305.172 27.5355L308.354 24.3536ZM194 24.5L308 24.5V23.5L194 23.5V24.5Z" fill="black"/>
    <path d="M311.646 63.6464C311.451 63.8417 311.451 64.1583 311.646 64.3536L314.828 67.5355C315.024 67.7308 315.34 67.7308 315.536 67.5355C315.731 67.3403 315.731 67.0237 315.536 66.8284L312.707 64L315.536 61.1716C315.731 60.9763 315.731 60.6597 315.536 60.4645C315.34 60.2692 315.024 60.2692 314.828 60.4645L311.646 63.6464ZM499.354 64.3536C499.549 64.1583 499.549 63.8417 499.354 63.6464L496.172 60.4645C495.976 60.2692 495.66 60.2692 495.464 60.4645C495.269 60.6597 495.269 60.9763 495.464 61.1716L498.293 64L495.464 66.8284C495.269 67.0237 495.269 67.3403 495.464 67.5355C495.66 67.7308 495.976 67.7308 496.172 67.5355L499.354 64.3536ZM312 64.5L499 64.5V63.5L312 63.5V64.5Z" fill="black"/>
    <path d="M1 50L0.999999 38" stroke="black" stroke-width="2" stroke-linecap="round"/>
    <path d="M501 50L501 38" stroke="black" stroke-width="2" stroke-linecap="round"/>
    <path d="M310 50L310 38" stroke="black" stroke-width="2" stroke-linecap="round"/>
    <path d="M78.8551 84.0957C78.6532 84.0957 78.5522 84.0363 78.5522 83.9176C78.5522 83.8938 78.5701 83.8107 78.6057 83.6682C78.6532 83.4782 78.7007 83.3713 78.7482 83.3475C78.7957 83.3238 78.9323 83.306 79.1579 83.2941C79.4786 83.2941 79.8348 83.2763 80.2267 83.2406C80.393 83.205 80.5058 83.1338 80.5652 83.0269C80.589 82.9675 81.0106 81.2989 81.83 78.0212C82.6494 74.7434 83.0651 73.0808 83.077 73.0333C83.077 72.9502 83.0532 72.9086 83.0057 72.9086C82.9107 72.873 82.596 72.8433 82.0616 72.8195H81.5093C81.4381 72.7483 81.4025 72.7008 81.4025 72.677C81.4025 72.6533 81.4143 72.5523 81.4381 72.3742C81.4856 72.1723 81.545 72.0476 81.6162 72.0001H91.2179C91.301 72.0476 91.3426 72.1129 91.3426 72.1961C91.3426 72.2554 91.2654 72.9205 91.111 74.1912C90.9566 75.4619 90.8735 76.1151 90.8616 76.1507C90.8379 76.2339 90.7191 76.2754 90.5053 76.2754H90.2916C90.2084 76.2161 90.1669 76.1389 90.1669 76.0439C90.1669 76.032 90.1847 75.8895 90.2203 75.6163C90.2559 75.3432 90.2738 75.0285 90.2738 74.6722C90.2738 74.3159 90.2322 74.025 90.1491 73.7993C90.0659 73.5737 89.9531 73.3896 89.8106 73.2471C89.6681 73.1046 89.4484 73.0096 89.1515 72.9621C88.8546 72.9146 88.5518 72.873 88.243 72.8374C87.9342 72.8017 87.5067 72.7958 86.9604 72.8195H86.5507C85.5768 72.8314 85.0602 72.8492 85.0009 72.873C84.9415 72.8967 84.8999 72.9442 84.8762 73.0155C84.8643 73.0274 84.6624 73.8052 84.2705 75.3491L83.7004 77.6471H84.6802C84.7158 77.6471 84.8524 77.6471 85.0899 77.6471C85.3274 77.6471 85.4937 77.6412 85.5887 77.6293C85.6837 77.6174 85.8144 77.5996 85.9806 77.5758C86.1469 77.5521 86.2894 77.5105 86.4082 77.4511C86.5269 77.3918 86.6279 77.3205 86.711 77.2374C86.8654 77.0949 86.996 76.8989 87.1029 76.6495C87.2098 76.4001 87.287 76.1745 87.3345 75.9726C87.382 75.7707 87.4117 75.6638 87.4235 75.6519C87.4592 75.5926 87.572 75.5629 87.762 75.5629H87.9758C88.0589 75.6223 88.1005 75.6816 88.1005 75.741C88.1005 75.7766 87.9164 76.5545 87.5482 78.0746C87.1801 79.5947 86.9782 80.3786 86.9426 80.4261C86.9188 80.5092 86.8001 80.5508 86.5863 80.5508H86.3725C86.2894 80.4795 86.2478 80.4082 86.2478 80.337C86.2478 80.3014 86.2775 80.1707 86.3369 79.9451C86.3963 79.7194 86.426 79.4819 86.426 79.2325C86.426 78.8881 86.3072 78.6744 86.0697 78.5912C85.8322 78.5081 85.3037 78.4665 84.4843 78.4665H83.5045L82.9345 80.7289C82.5544 82.2015 82.3644 82.9734 82.3644 83.0447C82.3644 83.211 82.8929 83.2941 83.9498 83.2941H84.3952C84.4664 83.3653 84.5021 83.4069 84.5021 83.4188C84.5021 83.4307 84.4902 83.5494 84.4664 83.7751C84.4189 83.9294 84.3596 84.0423 84.2883 84.1135H83.9855C83.4986 84.0898 82.6019 84.0779 81.2956 84.0779C80.5236 84.0779 79.9358 84.0779 79.532 84.0779C79.1282 84.0779 78.9026 84.0838 78.8551 84.0957Z" fill="black"/>
    <path d="M89.7188 83.1709C89.7271 83.1206 89.7397 83.0534 89.7565 82.9694C89.7733 82.8855 89.8237 82.7259 89.9077 82.4908C89.9916 82.2558 90.0756 82.0584 90.1596 81.8989C90.2435 81.7394 90.3821 81.5841 90.5752 81.4329C90.7683 81.2818 90.9614 81.2104 91.1545 81.2188C91.4568 81.2188 91.7087 81.2944 91.9102 81.4455C92.1117 81.5966 92.2376 81.7394 92.288 81.8737C92.3384 82.0081 92.3636 82.0962 92.3636 82.1382C92.3636 82.155 92.3678 82.1634 92.3762 82.1634L92.5147 82.0249C93.0269 81.4875 93.6104 81.2188 94.2653 81.2188C94.7187 81.2188 95.084 81.3322 95.361 81.5589C95.6381 81.7856 95.7808 82.1172 95.7892 82.5538C95.7976 82.9904 95.6381 83.6495 95.3107 84.5311C94.9832 85.4127 94.8237 85.9459 94.8321 86.1306C94.8321 86.3489 94.9034 86.4581 95.0462 86.4581C95.0966 86.4581 95.1343 86.4539 95.1595 86.4455C95.403 86.4035 95.6213 86.244 95.8144 85.9669C96.0075 85.6898 96.1545 85.354 96.2552 84.9593C96.272 84.8922 96.356 84.8586 96.5071 84.8586C96.6751 84.8586 96.759 84.8922 96.759 84.9593C96.759 84.9677 96.7422 85.0307 96.7086 85.1483C96.6415 85.3918 96.5491 85.631 96.4316 85.8661C96.314 86.1012 96.1209 86.3363 95.8522 86.5714C95.5835 86.8065 95.2939 86.9199 94.9832 86.9115C94.5886 86.9115 94.3031 86.7981 94.1268 86.5714C93.9505 86.3447 93.8623 86.1096 93.8623 85.8661C93.8623 85.7066 94.0134 85.2028 94.3157 84.3548C94.618 83.5068 94.7733 82.8687 94.7817 82.4405C94.7817 81.9451 94.597 81.6974 94.2275 81.6974H94.1646C93.4425 81.6974 92.8338 82.1214 92.3384 82.9694L92.2502 83.1206L91.8346 84.8082C91.5575 85.9081 91.398 86.5001 91.356 86.584C91.2469 86.8107 91.0663 86.9241 90.8145 86.9241C90.7053 86.9241 90.6171 86.8989 90.55 86.8485C90.4828 86.7981 90.4366 86.7478 90.4114 86.6974C90.3863 86.647 90.3779 86.605 90.3863 86.5714C90.3863 86.4623 90.5458 85.778 90.8648 84.5185C91.1839 83.2591 91.3518 82.5748 91.3686 82.4657C91.377 82.4237 91.3812 82.3271 91.3812 82.176C91.3812 81.8485 91.2805 81.6848 91.0789 81.6848C90.7599 81.6848 90.4954 82.1046 90.2855 82.9442C90.2351 83.1122 90.2099 83.2003 90.2099 83.2087C90.1931 83.2591 90.1134 83.2843 89.9706 83.2843H89.7943C89.7439 83.2339 89.7188 83.1961 89.7188 83.1709Z" fill="black"/>
    <path d="M98.0688 83.8008C98.0688 83.8008 98.0688 83.7462 98.0688 83.637C98.0688 83.5279 98.1276 83.4439 98.2452 83.3851H105.563C105.688 83.4523 105.751 83.5363 105.751 83.637C105.751 83.7378 105.688 83.8217 105.563 83.8889H98.2452C98.1276 83.8301 98.0688 83.7462 98.0688 83.637V83.8008Z" fill="black"/>
    <path d="M108.182 81.3827C107.955 81.3827 107.775 81.3071 107.64 81.156C107.506 81.0048 107.439 80.8201 107.439 80.6018C107.439 80.0057 107.661 79.4893 108.106 79.0527C108.551 78.6161 109.106 78.3978 109.769 78.3978C110.533 78.3978 111.171 78.6329 111.683 79.1031C112.195 79.5733 112.456 80.182 112.464 80.9293C112.464 81.2903 112.38 81.6345 112.212 81.962C112.044 82.2894 111.843 82.5749 111.608 82.8184C111.373 83.0619 111.037 83.3726 110.6 83.7504C110.298 84.0107 109.878 84.3969 109.341 84.9091L108.598 85.6144L109.555 85.627C110.873 85.627 111.574 85.606 111.658 85.564C111.717 85.5472 111.818 85.1736 111.96 84.4431V84.4053H112.464V84.4431C112.456 84.4683 112.401 84.8503 112.3 85.5892C112.2 86.328 112.137 86.7143 112.111 86.7479V86.7856H107.439V86.5464V86.3952C107.439 86.3364 107.464 86.2735 107.515 86.2063C107.565 86.1391 107.691 85.9922 107.892 85.7655C108.136 85.4968 108.346 85.2617 108.522 85.0602C108.598 84.9763 108.74 84.8209 108.95 84.5942C109.16 84.3675 109.303 84.2122 109.379 84.1282C109.454 84.0443 109.576 83.9057 109.744 83.7126C109.912 83.5195 110.029 83.3768 110.096 83.2844C110.164 83.192 110.26 83.0661 110.386 82.9066C110.512 82.747 110.6 82.6127 110.651 82.5036C110.701 82.3944 110.764 82.2727 110.839 82.1383C110.915 82.004 110.97 81.8696 111.003 81.7353C111.037 81.601 111.066 81.475 111.091 81.3575C111.117 81.2399 111.129 81.1014 111.129 80.9418C111.129 80.4129 110.986 79.9553 110.701 79.5691C110.415 79.1828 110.008 78.9897 109.479 78.9897C109.202 78.9897 108.959 79.0611 108.749 79.2038C108.539 79.3466 108.392 79.4851 108.308 79.6194C108.224 79.7538 108.182 79.8335 108.182 79.8587C108.182 79.8671 108.203 79.8713 108.245 79.8713C108.396 79.8713 108.551 79.9301 108.711 80.0476C108.871 80.1652 108.95 80.3583 108.95 80.627C108.95 80.8369 108.883 81.0132 108.749 81.156C108.614 81.2987 108.426 81.3743 108.182 81.3827Z" fill="black"/>
    <path d="M387.855 84.0957C387.653 84.0957 387.552 84.0363 387.552 83.9176C387.552 83.8938 387.57 83.8107 387.606 83.6682C387.653 83.4782 387.701 83.3713 387.748 83.3475C387.796 83.3238 387.932 83.306 388.158 83.2941C388.479 83.2941 388.835 83.2763 389.227 83.2406C389.393 83.205 389.506 83.1338 389.565 83.0269C389.589 82.9675 390.011 81.2989 390.83 78.0212C391.649 74.7434 392.065 73.0808 392.077 73.0333C392.077 72.9502 392.053 72.9086 392.006 72.9086C391.911 72.873 391.596 72.8433 391.062 72.8195H390.509C390.438 72.7483 390.402 72.7008 390.402 72.677C390.402 72.6533 390.414 72.5523 390.438 72.3742C390.486 72.1723 390.545 72.0476 390.616 72.0001H400.218C400.301 72.0476 400.343 72.1129 400.343 72.1961C400.343 72.2554 400.265 72.9205 400.111 74.1912C399.957 75.4619 399.873 76.1151 399.862 76.1507C399.838 76.2339 399.719 76.2754 399.505 76.2754H399.292C399.208 76.2161 399.167 76.1389 399.167 76.0439C399.167 76.032 399.185 75.8895 399.22 75.6163C399.256 75.3432 399.274 75.0285 399.274 74.6722C399.274 74.3159 399.232 74.025 399.149 73.7993C399.066 73.5737 398.953 73.3896 398.811 73.2471C398.668 73.1046 398.448 73.0096 398.151 72.9621C397.855 72.9146 397.552 72.873 397.243 72.8374C396.934 72.8017 396.507 72.7958 395.96 72.8195H395.551C394.577 72.8314 394.06 72.8492 394.001 72.873C393.941 72.8967 393.9 72.9442 393.876 73.0155C393.864 73.0274 393.662 73.8052 393.27 75.3491L392.7 77.6471H393.68C393.716 77.6471 393.852 77.6471 394.09 77.6471C394.327 77.6471 394.494 77.6412 394.589 77.6293C394.684 77.6174 394.814 77.5996 394.981 77.5758C395.147 77.5521 395.289 77.5105 395.408 77.4511C395.527 77.3918 395.628 77.3205 395.711 77.2374C395.865 77.0949 395.996 76.8989 396.103 76.6495C396.21 76.4001 396.287 76.1745 396.334 75.9726C396.382 75.7707 396.412 75.6638 396.424 75.6519C396.459 75.5926 396.572 75.5629 396.762 75.5629H396.976C397.059 75.6223 397.1 75.6816 397.1 75.741C397.1 75.7766 396.916 76.5545 396.548 78.0746C396.18 79.5947 395.978 80.3786 395.943 80.4261C395.919 80.5092 395.8 80.5508 395.586 80.5508H395.373C395.289 80.4795 395.248 80.4082 395.248 80.337C395.248 80.3014 395.278 80.1707 395.337 79.9451C395.396 79.7194 395.426 79.4819 395.426 79.2325C395.426 78.8881 395.307 78.6744 395.07 78.5912C394.832 78.5081 394.304 78.4665 393.484 78.4665H392.504L391.934 80.7289C391.554 82.2015 391.364 82.9734 391.364 83.0447C391.364 83.211 391.893 83.2941 392.95 83.2941H393.395C393.466 83.3653 393.502 83.4069 393.502 83.4188C393.502 83.4307 393.49 83.5494 393.466 83.7751C393.419 83.9294 393.36 84.0423 393.288 84.1135H392.985C392.499 84.0898 391.602 84.0779 390.296 84.0779C389.524 84.0779 388.936 84.0779 388.532 84.0779C388.128 84.0779 387.903 84.0838 387.855 84.0957Z" fill="black"/>
    <path d="M398.719 83.1709C398.727 83.1206 398.74 83.0534 398.757 82.9694C398.773 82.8855 398.824 82.7259 398.908 82.4908C398.992 82.2558 399.076 82.0584 399.16 81.8989C399.244 81.7394 399.382 81.5841 399.575 81.4329C399.768 81.2818 399.961 81.2104 400.155 81.2188C400.457 81.2188 400.709 81.2944 400.91 81.4455C401.112 81.5966 401.238 81.7394 401.288 81.8737C401.338 82.0081 401.364 82.0962 401.364 82.1382C401.364 82.155 401.368 82.1634 401.376 82.1634L401.515 82.0249C402.027 81.4875 402.61 81.2188 403.265 81.2188C403.719 81.2188 404.084 81.3322 404.361 81.5589C404.638 81.7856 404.781 82.1172 404.789 82.5538C404.798 82.9904 404.638 83.6495 404.311 84.5311C403.983 85.4127 403.824 85.9459 403.832 86.1306C403.832 86.3489 403.903 86.4581 404.046 86.4581C404.097 86.4581 404.134 86.4539 404.16 86.4455C404.403 86.4035 404.621 86.244 404.814 85.9669C405.008 85.6898 405.154 85.354 405.255 84.9593C405.272 84.8922 405.356 84.8586 405.507 84.8586C405.675 84.8586 405.759 84.8922 405.759 84.9593C405.759 84.9677 405.742 85.0307 405.709 85.1483C405.641 85.3918 405.549 85.631 405.432 85.8661C405.314 86.1012 405.121 86.3363 404.852 86.5714C404.584 86.8065 404.294 86.9199 403.983 86.9115C403.589 86.9115 403.303 86.7981 403.127 86.5714C402.95 86.3447 402.862 86.1096 402.862 85.8661C402.862 85.7066 403.013 85.2028 403.316 84.3548C403.618 83.5068 403.773 82.8687 403.782 82.4405C403.782 81.9451 403.597 81.6974 403.228 81.6974H403.165C402.442 81.6974 401.834 82.1214 401.338 82.9694L401.25 83.1206L400.835 84.8082C400.558 85.9081 400.398 86.5001 400.356 86.584C400.247 86.8107 400.066 86.9241 399.814 86.9241C399.705 86.9241 399.617 86.8989 399.55 86.8485C399.483 86.7981 399.437 86.7478 399.411 86.6974C399.386 86.647 399.378 86.605 399.386 86.5714C399.386 86.4623 399.546 85.778 399.865 84.5185C400.184 83.2591 400.352 82.5748 400.369 82.4657C400.377 82.4237 400.381 82.3271 400.381 82.176C400.381 81.8485 400.28 81.6848 400.079 81.6848C399.76 81.6848 399.495 82.1046 399.285 82.9442C399.235 83.1122 399.21 83.2003 399.21 83.2087C399.193 83.2591 399.113 83.2843 398.971 83.2843H398.794C398.744 83.2339 398.719 83.1961 398.719 83.1709Z" fill="black"/>
    <path d="M407.069 83.8008C407.069 83.8008 407.069 83.7462 407.069 83.637C407.069 83.5279 407.128 83.4439 407.245 83.3851H414.563C414.688 83.4523 414.751 83.5363 414.751 83.637C414.751 83.7378 414.688 83.8217 414.563 83.8889H407.245C407.128 83.8301 407.069 83.7462 407.069 83.637V83.8008Z" fill="black"/>
    <path d="M417.182 81.3827C416.955 81.3827 416.775 81.3071 416.64 81.156C416.506 81.0048 416.439 80.8201 416.439 80.6018C416.439 80.0057 416.661 79.4893 417.106 79.0527C417.551 78.6161 418.106 78.3978 418.769 78.3978C419.533 78.3978 420.171 78.6329 420.683 79.1031C421.195 79.5733 421.456 80.182 421.464 80.9293C421.464 81.2903 421.38 81.6345 421.212 81.962C421.044 82.2894 420.843 82.5749 420.608 82.8184C420.373 83.0619 420.037 83.3726 419.6 83.7504C419.298 84.0107 418.878 84.3969 418.341 84.9091L417.598 85.6144L418.555 85.627C419.873 85.627 420.574 85.606 420.658 85.564C420.717 85.5472 420.818 85.1736 420.96 84.4431V84.4053H421.464V84.4431C421.456 84.4683 421.401 84.8503 421.3 85.5892C421.2 86.328 421.137 86.7143 421.111 86.7479V86.7856H416.439V86.5464V86.3952C416.439 86.3364 416.464 86.2735 416.515 86.2063C416.565 86.1391 416.691 85.9922 416.892 85.7655C417.136 85.4968 417.346 85.2617 417.522 85.0602C417.598 84.9763 417.74 84.8209 417.95 84.5942C418.16 84.3675 418.303 84.2122 418.379 84.1282C418.454 84.0443 418.576 83.9057 418.744 83.7126C418.912 83.5195 419.029 83.3768 419.096 83.2844C419.164 83.192 419.26 83.0661 419.386 82.9066C419.512 82.747 419.6 82.6127 419.651 82.5036C419.701 82.3944 419.764 82.2727 419.839 82.1383C419.915 82.004 419.97 81.8696 420.003 81.7353C420.037 81.601 420.066 81.475 420.091 81.3575C420.117 81.2399 420.129 81.1014 420.129 80.9418C420.129 80.4129 419.986 79.9553 419.701 79.5691C419.415 79.1828 419.008 78.9897 418.479 78.9897C418.202 78.9897 417.959 79.0611 417.749 79.2038C417.539 79.3466 417.392 79.4851 417.308 79.6194C417.224 79.7538 417.182 79.8335 417.182 79.8587C417.182 79.8671 417.203 79.8713 417.245 79.8713C417.396 79.8713 417.551 79.9301 417.711 80.0476C417.871 80.1652 417.95 80.3583 417.95 80.627C417.95 80.8369 417.883 81.0132 417.749 81.156C417.614 81.2987 417.426 81.3743 417.182 81.3827Z" fill="black"/>
    <g clip-path="url(#clip1_355_130)">
      <path d="M42.8551 12.0957C42.6532 12.0957 42.5522 12.0363 42.5522 11.9176C42.5522 11.8938 42.5701 11.8107 42.6057 11.6682C42.6532 11.4782 42.7007 11.3713 42.7482 11.3475C42.7957 11.3238 42.9323 11.306 43.1579 11.2941C43.4786 11.2941 43.8348 11.2763 44.2267 11.2406C44.393 11.205 44.5058 11.1338 44.5652 11.0269C44.589 10.9675 45.0106 9.29894 45.83 6.02119C46.6494 2.74344 47.0651 1.08082 47.077 1.03331C47.077 0.950182 47.0532 0.908616 47.0057 0.908616C46.9107 0.872988 46.596 0.843299 46.0616 0.819547H45.5093C45.4381 0.748291 45.4025 0.700788 45.4025 0.677036C45.4025 0.653284 45.4143 0.552339 45.4381 0.374201C45.4856 0.17231 45.545 0.0476134 45.6162 0.000109792H55.2179C55.301 0.0476134 55.3426 0.112931 55.3426 0.196062C55.3426 0.255442 55.2654 0.920492 55.111 2.19121C54.9566 3.46193 54.8735 4.11511 54.8616 4.15074C54.8379 4.23387 54.7191 4.27543 54.5053 4.27543H54.2916C54.2084 4.21605 54.1669 4.13886 54.1669 4.04385C54.1669 4.03198 54.1847 3.88947 54.2203 3.61632C54.2559 3.34317 54.2738 3.02846 54.2738 2.67219C54.2738 2.31591 54.2322 2.02495 54.1491 1.79931C54.0659 1.57367 53.9531 1.38959 53.8106 1.24708C53.6681 1.10457 53.4484 1.00956 53.1515 0.962058C52.8546 0.914554 52.5518 0.872988 52.243 0.837361C51.9342 0.801733 51.5067 0.795795 50.9604 0.819547H50.5507C49.5768 0.831423 49.0602 0.849236 49.0009 0.872988C48.9415 0.89674 48.8999 0.944244 48.8762 1.0155C48.8643 1.02737 48.6624 1.80525 48.2705 3.34911L47.7004 5.6471H48.6802C48.7158 5.6471 48.8524 5.6471 49.0899 5.6471C49.3274 5.6471 49.4937 5.64116 49.5887 5.62929C49.6837 5.61741 49.8144 5.5996 49.9806 5.57584C50.1469 5.55209 50.2894 5.51053 50.4082 5.45115C50.5269 5.39177 50.6279 5.32051 50.711 5.23738C50.8654 5.09487 50.996 4.89892 51.1029 4.64952C51.2098 4.40013 51.287 4.17449 51.3345 3.9726C51.382 3.77071 51.4117 3.66382 51.4235 3.65195C51.4592 3.59257 51.572 3.56288 51.762 3.56288H51.9758C52.0589 3.62226 52.1005 3.68164 52.1005 3.74102C52.1005 3.77665 51.9164 4.55452 51.5482 6.07463C51.1801 7.59475 50.9782 8.37856 50.9426 8.42606C50.9188 8.50919 50.8001 8.55076 50.5863 8.55076H50.3725C50.2894 8.4795 50.2478 8.40825 50.2478 8.33699C50.2478 8.30136 50.2775 8.17073 50.3369 7.94509C50.3963 7.71944 50.426 7.48193 50.426 7.23253C50.426 6.88813 50.3072 6.67436 50.0697 6.59123C49.8322 6.5081 49.3037 6.46654 48.4843 6.46654H47.5045L46.9345 8.72889C46.5544 10.2015 46.3644 10.9734 46.3644 11.0447C46.3644 11.211 46.8929 11.2941 47.9498 11.2941H48.3952C48.4664 11.3653 48.5021 11.4069 48.5021 11.4188C48.5021 11.4307 48.4902 11.5494 48.4664 11.7751C48.4189 11.9294 48.3596 12.0423 48.2883 12.1135H47.9855C47.4986 12.0898 46.6019 12.0779 45.2956 12.0779C44.5236 12.0779 43.9358 12.0779 43.532 12.0779C43.1282 12.0779 42.9026 12.0838 42.8551 12.0957Z" fill="black"/>
      <path d="M53.7188 11.1712C53.7271 11.1208 53.7397 11.0536 53.7565 10.9697C53.7733 10.8857 53.8237 10.7262 53.9077 10.4911C53.9916 10.256 54.0756 10.0587 54.1596 9.89916C54.2435 9.73963 54.3821 9.5843 54.5752 9.43316C54.7683 9.28203 54.9614 9.21066 55.1545 9.21906C55.4568 9.21906 55.7087 9.29462 55.9102 9.44576C56.1117 9.59689 56.2376 9.73963 56.288 9.87397C56.3384 10.0083 56.3636 10.0965 56.3636 10.1384C56.3636 10.1552 56.3678 10.1636 56.3762 10.1636L56.5147 10.0251C57.0269 9.48774 57.6104 9.21906 58.2653 9.21906C58.7187 9.21906 59.084 9.33241 59.361 9.55911C59.6381 9.78581 59.7808 10.1175 59.7892 10.5541C59.7976 10.9907 59.6381 11.6498 59.3107 12.5314C58.9832 13.413 58.8237 13.9462 58.8321 14.1309C58.8321 14.3492 58.9034 14.4583 59.0462 14.4583C59.0966 14.4583 59.1343 14.4541 59.1595 14.4457C59.403 14.4037 59.6213 14.2442 59.8144 13.9671C60.0075 13.6901 60.1545 13.3542 60.2552 12.9596C60.272 12.8924 60.356 12.8588 60.5071 12.8588C60.6751 12.8588 60.759 12.8924 60.759 12.9596C60.759 12.968 60.7422 13.031 60.7086 13.1485C60.6415 13.392 60.5491 13.6313 60.4316 13.8664C60.314 14.1015 60.1209 14.3366 59.8522 14.5717C59.5835 14.8068 59.2939 14.9201 58.9832 14.9117C58.5886 14.9117 58.3031 14.7984 58.1268 14.5717C57.9505 14.345 57.8623 14.1099 57.8623 13.8664C57.8623 13.7069 58.0134 13.2031 58.3157 12.3551C58.618 11.507 58.7733 10.8689 58.7817 10.4407C58.7817 9.94533 58.597 9.69765 58.2275 9.69765H58.1646C57.4425 9.69765 56.8338 10.1217 56.3384 10.9697L56.2502 11.1208L55.8346 12.8085C55.5575 13.9084 55.398 14.5003 55.356 14.5843C55.2469 14.811 55.0663 14.9243 54.8145 14.9243C54.7053 14.9243 54.6171 14.8991 54.55 14.8488C54.4828 14.7984 54.4366 14.748 54.4114 14.6976C54.3863 14.6472 54.3779 14.6053 54.3863 14.5717C54.3863 14.4625 54.5458 13.7782 54.8648 12.5188C55.1839 11.2593 55.3518 10.5751 55.3686 10.4659C55.377 10.4239 55.3812 10.3274 55.3812 10.1762C55.3812 9.84878 55.2805 9.68505 55.0789 9.68505C54.7599 9.68505 54.4954 10.1049 54.2855 10.9445C54.2351 11.1124 54.2099 11.2006 54.2099 11.209C54.1931 11.2593 54.1134 11.2845 53.9706 11.2845H53.7943C53.7439 11.2342 53.7188 11.1964 53.7188 11.1712Z" fill="black"/>
      <path d="M62.0688 11.8008C62.0688 11.8008 62.0688 11.7462 62.0688 11.637C62.0688 11.5279 62.1276 11.4439 62.2452 11.3851H69.5625C69.6885 11.4523 69.7514 11.5363 69.7514 11.637C69.7514 11.7378 69.6885 11.8217 69.5625 11.8889H62.2452C62.1276 11.8301 62.0688 11.7462 62.0688 11.637V11.8008Z" fill="black"/>
      <path d="M72.4089 8.95447C72.1822 8.95447 72.0059 8.8831 71.8799 8.74036C71.754 8.59762 71.6868 8.41291 71.6784 8.18621C71.6784 7.72441 71.8799 7.313 72.283 6.95196C72.686 6.59092 73.173 6.4104 73.7439 6.4104C74.0378 6.4104 74.2225 6.4146 74.2981 6.42299C74.9194 6.52375 75.3938 6.74625 75.7212 7.0905C76.0487 7.43474 76.2166 7.80838 76.225 8.2114C76.225 8.648 76.0823 9.07201 75.7968 9.48343C75.5113 9.89485 75.1167 10.1929 74.6129 10.3776L74.5751 10.4028C74.5751 10.4112 74.6129 10.4238 74.6885 10.4406C74.7641 10.4574 74.8858 10.4952 75.0537 10.554C75.2216 10.6127 75.3812 10.7009 75.5323 10.8184C76.2208 11.2634 76.5651 11.8512 76.5651 12.5816C76.5651 13.245 76.3048 13.8243 75.7842 14.3197C75.2636 14.8151 74.6045 15.0627 73.8069 15.0627C73.1352 15.0627 72.5558 14.8822 72.0689 14.5212C71.5819 14.1601 71.3384 13.7026 71.3384 13.1484C71.3384 12.9133 71.4139 12.7244 71.5651 12.5816C71.7162 12.4389 71.9051 12.3633 72.1318 12.355C72.3669 12.355 72.56 12.4305 72.7112 12.5816C72.8623 12.7328 72.9379 12.9217 72.9379 13.1484C72.9379 13.2408 72.9253 13.3247 72.9001 13.4003C72.8749 13.4759 72.8455 13.543 72.8119 13.6018C72.7783 13.6606 72.7322 13.7109 72.6734 13.7529C72.6146 13.7949 72.5642 13.8285 72.5223 13.8537C72.4803 13.8789 72.4383 13.8957 72.3963 13.9041C72.3543 13.9125 72.3207 13.9251 72.2956 13.9418L72.2452 13.9544C72.6734 14.3323 73.194 14.5212 73.8069 14.5212C74.2687 14.5212 74.6171 14.2987 74.8522 13.8537C74.9949 13.5766 75.0663 13.1526 75.0663 12.5816V12.3298C75.0663 11.5321 74.7976 10.999 74.2603 10.7303C74.1343 10.6799 73.8782 10.6505 73.492 10.6421L72.9631 10.6295L72.9253 10.6043C72.9085 10.5791 72.9001 10.512 72.9001 10.4028C72.9001 10.2517 72.9337 10.1761 73.0008 10.1761C73.2359 10.1761 73.4794 10.1551 73.7313 10.1131C74.0168 10.0712 74.2771 9.89485 74.5122 9.58418C74.7473 9.27352 74.8648 8.80333 74.8648 8.17361V8.07286C74.8648 7.59427 74.7179 7.26262 74.424 7.0779C74.2393 6.96035 74.042 6.90158 73.8321 6.90158C73.5634 6.90158 73.3157 6.94776 73.089 7.04012C72.8623 7.13248 72.7028 7.22903 72.6104 7.32979C72.5181 7.43054 72.4719 7.48092 72.4719 7.48092H72.5097C72.5348 7.48932 72.5684 7.49771 72.6104 7.50611C72.6524 7.51451 72.6944 7.5355 72.7364 7.56908C72.7783 7.60267 72.8287 7.63205 72.8875 7.65724C72.9463 7.68243 72.9882 7.72861 73.0134 7.79578C73.0386 7.86295 73.0722 7.92592 73.1142 7.9847C73.1562 8.04347 73.1688 8.12743 73.152 8.23658C73.152 8.4213 73.0932 8.58503 72.9756 8.72777C72.8581 8.8705 72.6692 8.94607 72.4089 8.95447Z" fill="black"/>
    </g>
    <g clip-path="url(#clip2_355_130)">
      <path d="M233.855 84.0957C233.653 84.0957 233.552 84.0363 233.552 83.9176C233.552 83.8938 233.57 83.8107 233.606 83.6682C233.653 83.4782 233.701 83.3713 233.748 83.3475C233.796 83.3238 233.932 83.306 234.158 83.2941C234.479 83.2941 234.835 83.2763 235.227 83.2406C235.393 83.205 235.506 83.1338 235.565 83.0269C235.589 82.9675 236.011 81.2989 236.83 78.0212C237.649 74.7434 238.065 73.0808 238.077 73.0333C238.077 72.9502 238.053 72.9086 238.006 72.9086C237.911 72.873 237.596 72.8433 237.062 72.8195H236.509C236.438 72.7483 236.402 72.7008 236.402 72.677C236.402 72.6533 236.414 72.5523 236.438 72.3742C236.486 72.1723 236.545 72.0476 236.616 72.0001H246.218C246.301 72.0476 246.343 72.1129 246.343 72.1961C246.343 72.2554 246.265 72.9205 246.111 74.1912C245.957 75.4619 245.873 76.1151 245.862 76.1507C245.838 76.2339 245.719 76.2754 245.505 76.2754H245.292C245.208 76.2161 245.167 76.1389 245.167 76.0439C245.167 76.032 245.185 75.8895 245.22 75.6163C245.256 75.3432 245.274 75.0285 245.274 74.6722C245.274 74.3159 245.232 74.025 245.149 73.7993C245.066 73.5737 244.953 73.3896 244.811 73.2471C244.668 73.1046 244.448 73.0096 244.151 72.9621C243.855 72.9146 243.552 72.873 243.243 72.8374C242.934 72.8017 242.507 72.7958 241.96 72.8195H241.551C240.577 72.8314 240.06 72.8492 240.001 72.873C239.941 72.8967 239.9 72.9442 239.876 73.0155C239.864 73.0274 239.662 73.8052 239.27 75.3491L238.7 77.6471H239.68C239.716 77.6471 239.852 77.6471 240.09 77.6471C240.327 77.6471 240.494 77.6412 240.589 77.6293C240.684 77.6174 240.814 77.5996 240.981 77.5758C241.147 77.5521 241.289 77.5105 241.408 77.4511C241.527 77.3918 241.628 77.3205 241.711 77.2374C241.865 77.0949 241.996 76.8989 242.103 76.6495C242.21 76.4001 242.287 76.1745 242.334 75.9726C242.382 75.7707 242.412 75.6638 242.424 75.6519C242.459 75.5926 242.572 75.5629 242.762 75.5629H242.976C243.059 75.6223 243.1 75.6816 243.1 75.741C243.1 75.7766 242.916 76.5545 242.548 78.0746C242.18 79.5947 241.978 80.3786 241.943 80.4261C241.919 80.5092 241.8 80.5508 241.586 80.5508H241.373C241.289 80.4795 241.248 80.4082 241.248 80.337C241.248 80.3014 241.278 80.1707 241.337 79.9451C241.396 79.7194 241.426 79.4819 241.426 79.2325C241.426 78.8881 241.307 78.6744 241.07 78.5912C240.832 78.5081 240.304 78.4665 239.484 78.4665H238.504L237.934 80.7289C237.554 82.2015 237.364 82.9734 237.364 83.0447C237.364 83.211 237.893 83.2941 238.95 83.2941H239.395C239.466 83.3653 239.502 83.4069 239.502 83.4188C239.502 83.4307 239.49 83.5494 239.466 83.7751C239.419 83.9294 239.36 84.0423 239.288 84.1135H238.985C238.499 84.0898 237.602 84.0779 236.296 84.0779C235.524 84.0779 234.936 84.0779 234.532 84.0779C234.128 84.0779 233.903 84.0838 233.855 84.0957Z" fill="black"/>
      <path d="M244.719 83.1712C244.727 83.1208 244.74 83.0536 244.757 82.9697C244.773 82.8857 244.824 82.7262 244.908 82.4911C244.992 82.256 245.076 82.0587 245.16 81.8992C245.244 81.7396 245.382 81.5843 245.575 81.4332C245.768 81.282 245.961 81.2107 246.155 81.2191C246.457 81.2191 246.709 81.2946 246.91 81.4458C247.112 81.5969 247.238 81.7396 247.288 81.874C247.338 82.0083 247.364 82.0965 247.364 82.1384C247.364 82.1552 247.368 82.1636 247.376 82.1636L247.515 82.0251C248.027 81.4877 248.61 81.2191 249.265 81.2191C249.719 81.2191 250.084 81.3324 250.361 81.5591C250.638 81.7858 250.781 82.1175 250.789 82.5541C250.798 82.9907 250.638 83.6498 250.311 84.5314C249.983 85.413 249.824 85.9462 249.832 86.1309C249.832 86.3492 249.903 86.4583 250.046 86.4583C250.097 86.4583 250.134 86.4541 250.16 86.4457C250.403 86.4037 250.621 86.2442 250.814 85.9671C251.008 85.6901 251.154 85.3542 251.255 84.9596C251.272 84.8924 251.356 84.8588 251.507 84.8588C251.675 84.8588 251.759 84.8924 251.759 84.9596C251.759 84.968 251.742 85.031 251.709 85.1485C251.641 85.392 251.549 85.6313 251.432 85.8664C251.314 86.1015 251.121 86.3366 250.852 86.5717C250.584 86.8068 250.294 86.9201 249.983 86.9117C249.589 86.9117 249.303 86.7984 249.127 86.5717C248.95 86.345 248.862 86.1099 248.862 85.8664C248.862 85.7069 249.013 85.2031 249.316 84.3551C249.618 83.507 249.773 82.8689 249.782 82.4407C249.782 81.9453 249.597 81.6976 249.228 81.6976H249.165C248.442 81.6976 247.834 82.1217 247.338 82.9697L247.25 83.1208L246.835 84.8085C246.558 85.9084 246.398 86.5003 246.356 86.5843C246.247 86.811 246.066 86.9243 245.814 86.9243C245.705 86.9243 245.617 86.8991 245.55 86.8488C245.483 86.7984 245.437 86.748 245.411 86.6976C245.386 86.6472 245.378 86.6053 245.386 86.5717C245.386 86.4625 245.546 85.7782 245.865 84.5188C246.184 83.2593 246.352 82.5751 246.369 82.4659C246.377 82.4239 246.381 82.3274 246.381 82.1762C246.381 81.8488 246.28 81.6851 246.079 81.6851C245.76 81.6851 245.495 82.1049 245.285 82.9445C245.235 83.1124 245.21 83.2006 245.21 83.209C245.193 83.2593 245.113 83.2845 244.971 83.2845H244.794C244.744 83.2342 244.719 83.1964 244.719 83.1712Z" fill="black"/>
      <path d="M253.069 83.8008C253.069 83.8008 253.069 83.7462 253.069 83.637C253.069 83.5279 253.128 83.4439 253.245 83.3851H260.563C260.688 83.4523 260.751 83.5363 260.751 83.637C260.751 83.7378 260.688 83.8217 260.563 83.8889H253.245C253.128 83.8301 253.069 83.7462 253.069 83.637V83.8008Z" fill="black"/>
      <path d="M263.409 80.9545C263.182 80.9545 263.006 80.8831 262.88 80.7404C262.754 80.5976 262.687 80.4129 262.678 80.1862C262.678 79.7244 262.88 79.313 263.283 78.952C263.686 78.5909 264.173 78.4104 264.744 78.4104C265.038 78.4104 265.222 78.4146 265.298 78.423C265.919 78.5237 266.394 78.7462 266.721 79.0905C267.049 79.4347 267.217 79.8084 267.225 80.2114C267.225 80.648 267.082 81.072 266.797 81.4834C266.511 81.8948 266.117 82.1929 265.613 82.3776L265.575 82.4028C265.575 82.4112 265.613 82.4238 265.688 82.4406C265.764 82.4574 265.886 82.4952 266.054 82.554C266.222 82.6127 266.381 82.7009 266.532 82.8184C267.221 83.2634 267.565 83.8512 267.565 84.5816C267.565 85.245 267.305 85.8243 266.784 86.3197C266.264 86.8151 265.605 87.0627 264.807 87.0627C264.135 87.0627 263.556 86.8822 263.069 86.5212C262.582 86.1601 262.338 85.7026 262.338 85.1484C262.338 84.9133 262.414 84.7244 262.565 84.5816C262.716 84.4389 262.905 84.3633 263.132 84.355C263.367 84.355 263.56 84.4305 263.711 84.5816C263.862 84.7328 263.938 84.9217 263.938 85.1484C263.938 85.2408 263.925 85.3247 263.9 85.4003C263.875 85.4759 263.846 85.543 263.812 85.6018C263.778 85.6606 263.732 85.7109 263.673 85.7529C263.615 85.7949 263.564 85.8285 263.522 85.8537C263.48 85.8789 263.438 85.8957 263.396 85.9041C263.354 85.9125 263.321 85.9251 263.296 85.9418L263.245 85.9544C263.673 86.3323 264.194 86.5212 264.807 86.5212C265.269 86.5212 265.617 86.2987 265.852 85.8537C265.995 85.5766 266.066 85.1526 266.066 84.5816V84.3298C266.066 83.5321 265.798 82.999 265.26 82.7303C265.134 82.6799 264.878 82.6505 264.492 82.6421L263.963 82.6295L263.925 82.6043C263.908 82.5791 263.9 82.512 263.9 82.4028C263.9 82.2517 263.934 82.1761 264.001 82.1761C264.236 82.1761 264.479 82.1551 264.731 82.1131C265.017 82.0712 265.277 81.8948 265.512 81.5842C265.747 81.2735 265.865 80.8033 265.865 80.1736V80.0729C265.865 79.5943 265.718 79.2626 265.424 79.0779C265.239 78.9604 265.042 78.9016 264.832 78.9016C264.563 78.9016 264.316 78.9478 264.089 79.0401C263.862 79.1325 263.703 79.229 263.61 79.3298C263.518 79.4305 263.472 79.4809 263.472 79.4809H263.51C263.535 79.4893 263.568 79.4977 263.61 79.5061C263.652 79.5145 263.694 79.5355 263.736 79.5691C263.778 79.6027 263.829 79.6321 263.887 79.6572C263.946 79.6824 263.988 79.7286 264.013 79.7958C264.039 79.863 264.072 79.9259 264.114 79.9847C264.156 80.0435 264.169 80.1274 264.152 80.2366C264.152 80.4213 264.093 80.585 263.976 80.7278C263.858 80.8705 263.669 80.9461 263.409 80.9545Z" fill="black"/>
    </g>
    <path d="M137.855 12.0957C137.653 12.0957 137.552 12.0363 137.552 11.9176C137.552 11.8938 137.57 11.8107 137.606 11.6682C137.653 11.4782 137.701 11.3713 137.748 11.3475C137.796 11.3238 137.932 11.306 138.158 11.2941C138.479 11.2941 138.835 11.2763 139.227 11.2406C139.393 11.205 139.506 11.1338 139.565 11.0269C139.589 10.9675 140.011 9.29894 140.83 6.02119C141.649 2.74344 142.065 1.08082 142.077 1.03331C142.077 0.950182 142.053 0.908616 142.006 0.908616C141.911 0.872988 141.596 0.843299 141.062 0.819547H140.509C140.438 0.748291 140.402 0.700788 140.402 0.677036C140.402 0.653284 140.414 0.552339 140.438 0.374201C140.486 0.17231 140.545 0.0476134 140.616 0.000109792H150.218C150.301 0.0476134 150.343 0.112931 150.343 0.196062C150.343 0.255442 150.265 0.920492 150.111 2.19121C149.957 3.46193 149.873 4.11511 149.862 4.15074C149.838 4.23387 149.719 4.27543 149.505 4.27543H149.292C149.208 4.21605 149.167 4.13886 149.167 4.04385C149.167 4.03198 149.185 3.88947 149.22 3.61632C149.256 3.34317 149.274 3.02846 149.274 2.67219C149.274 2.31591 149.232 2.02495 149.149 1.79931C149.066 1.57367 148.953 1.38959 148.811 1.24708C148.668 1.10457 148.448 1.00956 148.151 0.962058C147.855 0.914554 147.552 0.872988 147.243 0.837361C146.934 0.801733 146.507 0.795795 145.96 0.819547H145.551C144.577 0.831423 144.06 0.849236 144.001 0.872988C143.941 0.89674 143.9 0.944244 143.876 1.0155C143.864 1.02737 143.662 1.80525 143.27 3.34911L142.7 5.6471H143.68C143.716 5.6471 143.852 5.6471 144.09 5.6471C144.327 5.6471 144.494 5.64116 144.589 5.62929C144.684 5.61741 144.814 5.5996 144.981 5.57584C145.147 5.55209 145.289 5.51053 145.408 5.45115C145.527 5.39177 145.628 5.32051 145.711 5.23738C145.865 5.09487 145.996 4.89892 146.103 4.64952C146.21 4.40013 146.287 4.17449 146.334 3.9726C146.382 3.77071 146.412 3.66382 146.424 3.65195C146.459 3.59257 146.572 3.56288 146.762 3.56288H146.976C147.059 3.62226 147.1 3.68164 147.1 3.74102C147.1 3.77665 146.916 4.55452 146.548 6.07463C146.18 7.59475 145.978 8.37856 145.943 8.42606C145.919 8.50919 145.8 8.55076 145.586 8.55076H145.373C145.289 8.4795 145.248 8.40825 145.248 8.33699C145.248 8.30136 145.278 8.17073 145.337 7.94509C145.396 7.71944 145.426 7.48193 145.426 7.23253C145.426 6.88813 145.307 6.67436 145.07 6.59123C144.832 6.5081 144.304 6.46654 143.484 6.46654H142.504L141.934 8.72889C141.554 10.2015 141.364 10.9734 141.364 11.0447C141.364 11.211 141.893 11.2941 142.95 11.2941H143.395C143.466 11.3653 143.502 11.4069 143.502 11.4188C143.502 11.4307 143.49 11.5494 143.466 11.7751C143.419 11.9294 143.36 12.0423 143.288 12.1135H142.985C142.499 12.0898 141.602 12.0779 140.296 12.0779C139.524 12.0779 138.936 12.0779 138.532 12.0779C138.128 12.0779 137.903 12.0838 137.855 12.0957Z" fill="black"/>
    <path d="M148.719 11.1709C148.727 11.1206 148.74 11.0534 148.757 10.9694C148.773 10.8855 148.824 10.7259 148.908 10.4908C148.992 10.2558 149.076 10.0584 149.16 9.89891C149.244 9.73938 149.382 9.58405 149.575 9.43292C149.768 9.28179 149.961 9.21042 150.155 9.21881C150.457 9.21881 150.709 9.29438 150.91 9.44551C151.112 9.59665 151.238 9.73938 151.288 9.87372C151.338 10.0081 151.364 10.0962 151.364 10.1382C151.364 10.155 151.368 10.1634 151.376 10.1634L151.515 10.0249C152.027 9.48749 152.61 9.21881 153.265 9.21881C153.719 9.21881 154.084 9.33216 154.361 9.55886C154.638 9.78556 154.781 10.1172 154.789 10.5538C154.798 10.9904 154.638 11.6495 154.311 12.5311C153.983 13.4127 153.824 13.9459 153.832 14.1306C153.832 14.3489 153.903 14.4581 154.046 14.4581C154.097 14.4581 154.134 14.4539 154.16 14.4455C154.403 14.4035 154.621 14.244 154.814 13.9669C155.008 13.6898 155.154 13.354 155.255 12.9593C155.272 12.8922 155.356 12.8586 155.507 12.8586C155.675 12.8586 155.759 12.8922 155.759 12.9593C155.759 12.9677 155.742 13.0307 155.709 13.1483C155.641 13.3918 155.549 13.631 155.432 13.8661C155.314 14.1012 155.121 14.3363 154.852 14.5714C154.584 14.8065 154.294 14.9199 153.983 14.9115C153.589 14.9115 153.303 14.7981 153.127 14.5714C152.95 14.3447 152.862 14.1096 152.862 13.8661C152.862 13.7066 153.013 13.2028 153.316 12.3548C153.618 11.5068 153.773 10.8687 153.782 10.4405C153.782 9.94509 153.597 9.6974 153.228 9.6974H153.165C152.442 9.6974 151.834 10.1214 151.338 10.9694L151.25 11.1206L150.835 12.8082C150.558 13.9081 150.398 14.5001 150.356 14.584C150.247 14.8107 150.066 14.9241 149.814 14.9241C149.705 14.9241 149.617 14.8989 149.55 14.8485C149.483 14.7981 149.437 14.7478 149.411 14.6974C149.386 14.647 149.378 14.605 149.386 14.5714C149.386 14.4623 149.546 13.778 149.865 12.5185C150.184 11.2591 150.352 10.5748 150.369 10.4657C150.377 10.4237 150.381 10.3271 150.381 10.176C150.381 9.84853 150.28 9.68481 150.079 9.68481C149.76 9.68481 149.495 10.1046 149.285 10.9442C149.235 11.1122 149.21 11.2003 149.21 11.2087C149.193 11.2591 149.113 11.2843 148.971 11.2843H148.794C148.744 11.2339 148.719 11.1961 148.719 11.1709Z" fill="black"/>
    <path d="M157.069 11.8008C157.069 11.8008 157.069 11.7462 157.069 11.637C157.069 11.5279 157.128 11.4439 157.245 11.3851H164.563C164.688 11.4523 164.751 11.5363 164.751 11.637C164.751 11.7378 164.688 11.8217 164.563 11.8889H157.245C157.128 11.8301 157.069 11.7462 157.069 11.637V11.8008Z" fill="black"/>
    <path d="M171.628 14.7856C171.477 14.7605 170.935 14.7479 170.003 14.7479C169.029 14.7479 168.467 14.7605 168.316 14.7856H168.202V14.2063H168.593C168.761 14.2063 168.874 14.2063 168.933 14.2063C168.992 14.2063 169.063 14.1979 169.147 14.1811C169.231 14.1643 169.29 14.1433 169.323 14.1181C169.357 14.093 169.386 14.0594 169.411 14.0174C169.42 14.0006 169.424 13.7739 169.424 13.3373V12.7076H166.162V12.1282L168.064 9.21892C169.348 7.27099 169.999 6.29283 170.016 6.28443C170.033 6.26764 170.121 6.25924 170.28 6.25924H170.507L170.583 6.33481V12.1282H171.741V12.7076H170.583V13.3499C170.583 13.6941 170.583 13.8956 170.583 13.9544C170.583 14.0132 170.608 14.0636 170.658 14.1055C170.725 14.1643 170.965 14.1979 171.376 14.2063H171.741V14.7856H171.628ZM169.5 12.1282V7.9217L166.741 12.1156L168.114 12.1282H169.5Z" fill="black"/>
    <g clip-path="url(#clip3_355_130)">
      <path d="M233.855 12.0957C233.653 12.0957 233.552 12.0363 233.552 11.9176C233.552 11.8938 233.57 11.8107 233.606 11.6682C233.653 11.4782 233.701 11.3713 233.748 11.3475C233.796 11.3238 233.932 11.306 234.158 11.2941C234.479 11.2941 234.835 11.2763 235.227 11.2406C235.393 11.205 235.506 11.1338 235.565 11.0269C235.589 10.9675 236.011 9.29894 236.83 6.02119C237.649 2.74344 238.065 1.08082 238.077 1.03331C238.077 0.950182 238.053 0.908616 238.006 0.908616C237.911 0.872988 237.596 0.843299 237.062 0.819547H236.509C236.438 0.748291 236.402 0.700788 236.402 0.677036C236.402 0.653284 236.414 0.552339 236.438 0.374201C236.486 0.17231 236.545 0.0476134 236.616 0.000109792H246.218C246.301 0.0476134 246.343 0.112931 246.343 0.196062C246.343 0.255442 246.265 0.920492 246.111 2.19121C245.957 3.46193 245.873 4.11511 245.862 4.15074C245.838 4.23387 245.719 4.27543 245.505 4.27543H245.292C245.208 4.21605 245.167 4.13886 245.167 4.04385C245.167 4.03198 245.185 3.88947 245.22 3.61632C245.256 3.34317 245.274 3.02846 245.274 2.67219C245.274 2.31591 245.232 2.02495 245.149 1.79931C245.066 1.57367 244.953 1.38959 244.811 1.24708C244.668 1.10457 244.448 1.00956 244.151 0.962058C243.855 0.914554 243.552 0.872988 243.243 0.837361C242.934 0.801733 242.507 0.795795 241.96 0.819547H241.551C240.577 0.831423 240.06 0.849236 240.001 0.872988C239.941 0.89674 239.9 0.944244 239.876 1.0155C239.864 1.02737 239.662 1.80525 239.27 3.34911L238.7 5.6471H239.68C239.716 5.6471 239.852 5.6471 240.09 5.6471C240.327 5.6471 240.494 5.64116 240.589 5.62929C240.684 5.61741 240.814 5.5996 240.981 5.57584C241.147 5.55209 241.289 5.51053 241.408 5.45115C241.527 5.39177 241.628 5.32051 241.711 5.23738C241.865 5.09487 241.996 4.89892 242.103 4.64952C242.21 4.40013 242.287 4.17449 242.334 3.9726C242.382 3.77071 242.412 3.66382 242.424 3.65195C242.459 3.59257 242.572 3.56288 242.762 3.56288H242.976C243.059 3.62226 243.1 3.68164 243.1 3.74102C243.1 3.77665 242.916 4.55452 242.548 6.07463C242.18 7.59475 241.978 8.37856 241.943 8.42606C241.919 8.50919 241.8 8.55076 241.586 8.55076H241.373C241.289 8.4795 241.248 8.40825 241.248 8.33699C241.248 8.30136 241.278 8.17073 241.337 7.94509C241.396 7.71944 241.426 7.48193 241.426 7.23253C241.426 6.88813 241.307 6.67436 241.07 6.59123C240.832 6.5081 240.304 6.46654 239.484 6.46654H238.504L237.934 8.72889C237.554 10.2015 237.364 10.9734 237.364 11.0447C237.364 11.211 237.893 11.2941 238.95 11.2941H239.395C239.466 11.3653 239.502 11.4069 239.502 11.4188C239.502 11.4307 239.49 11.5494 239.466 11.7751C239.419 11.9294 239.36 12.0423 239.288 12.1135H238.985C238.499 12.0898 237.602 12.0779 236.296 12.0779C235.524 12.0779 234.936 12.0779 234.532 12.0779C234.128 12.0779 233.903 12.0838 233.855 12.0957Z" fill="black"/>
      <path d="M244.719 11.1712C244.727 11.1208 244.74 11.0536 244.757 10.9697C244.773 10.8857 244.824 10.7262 244.908 10.4911C244.992 10.256 245.076 10.0587 245.16 9.89916C245.244 9.73963 245.382 9.5843 245.575 9.43316C245.768 9.28203 245.961 9.21066 246.155 9.21906C246.457 9.21906 246.709 9.29462 246.91 9.44576C247.112 9.59689 247.238 9.73963 247.288 9.87397C247.338 10.0083 247.364 10.0965 247.364 10.1384C247.364 10.1552 247.368 10.1636 247.376 10.1636L247.515 10.0251C248.027 9.48774 248.61 9.21906 249.265 9.21906C249.719 9.21906 250.084 9.33241 250.361 9.55911C250.638 9.78581 250.781 10.1175 250.789 10.5541C250.798 10.9907 250.638 11.6498 250.311 12.5314C249.983 13.413 249.824 13.9462 249.832 14.1309C249.832 14.3492 249.903 14.4583 250.046 14.4583C250.097 14.4583 250.134 14.4541 250.16 14.4457C250.403 14.4037 250.621 14.2442 250.814 13.9671C251.008 13.6901 251.154 13.3542 251.255 12.9596C251.272 12.8924 251.356 12.8588 251.507 12.8588C251.675 12.8588 251.759 12.8924 251.759 12.9596C251.759 12.968 251.742 13.031 251.709 13.1485C251.641 13.392 251.549 13.6313 251.432 13.8664C251.314 14.1015 251.121 14.3366 250.852 14.5717C250.584 14.8068 250.294 14.9201 249.983 14.9117C249.589 14.9117 249.303 14.7984 249.127 14.5717C248.95 14.345 248.862 14.1099 248.862 13.8664C248.862 13.7069 249.013 13.2031 249.316 12.3551C249.618 11.507 249.773 10.8689 249.782 10.4407C249.782 9.94533 249.597 9.69765 249.228 9.69765H249.165C248.442 9.69765 247.834 10.1217 247.338 10.9697L247.25 11.1208L246.835 12.8085C246.558 13.9084 246.398 14.5003 246.356 14.5843C246.247 14.811 246.066 14.9243 245.814 14.9243C245.705 14.9243 245.617 14.8991 245.55 14.8488C245.483 14.7984 245.437 14.748 245.411 14.6976C245.386 14.6472 245.378 14.6053 245.386 14.5717C245.386 14.4625 245.546 13.7782 245.865 12.5188C246.184 11.2593 246.352 10.5751 246.369 10.4659C246.377 10.4239 246.381 10.3274 246.381 10.1762C246.381 9.84878 246.28 9.68505 246.079 9.68505C245.76 9.68505 245.495 10.1049 245.285 10.9445C245.235 11.1124 245.21 11.2006 245.21 11.209C245.193 11.2593 245.113 11.2845 244.971 11.2845H244.794C244.744 11.2342 244.719 11.1964 244.719 11.1712Z" fill="black"/>
      <path d="M253.069 11.8008C253.069 11.8008 253.069 11.7462 253.069 11.637C253.069 11.5279 253.128 11.4439 253.245 11.3851H260.563C260.688 11.4523 260.751 11.5363 260.751 11.637C260.751 11.7378 260.688 11.8217 260.563 11.8889H253.245C253.128 11.8301 253.069 11.7462 253.069 11.637V11.8008Z" fill="black"/>
      <path d="M263.409 8.95447C263.182 8.95447 263.006 8.8831 262.88 8.74036C262.754 8.59762 262.687 8.41291 262.678 8.18621C262.678 7.72441 262.88 7.313 263.283 6.95196C263.686 6.59092 264.173 6.4104 264.744 6.4104C265.038 6.4104 265.222 6.4146 265.298 6.42299C265.919 6.52375 266.394 6.74625 266.721 7.0905C267.049 7.43474 267.217 7.80838 267.225 8.2114C267.225 8.648 267.082 9.07201 266.797 9.48343C266.511 9.89485 266.117 10.1929 265.613 10.3776L265.575 10.4028C265.575 10.4112 265.613 10.4238 265.688 10.4406C265.764 10.4574 265.886 10.4952 266.054 10.554C266.222 10.6127 266.381 10.7009 266.532 10.8184C267.221 11.2634 267.565 11.8512 267.565 12.5816C267.565 13.245 267.305 13.8243 266.784 14.3197C266.264 14.8151 265.605 15.0627 264.807 15.0627C264.135 15.0627 263.556 14.8822 263.069 14.5212C262.582 14.1601 262.338 13.7026 262.338 13.1484C262.338 12.9133 262.414 12.7244 262.565 12.5816C262.716 12.4389 262.905 12.3633 263.132 12.355C263.367 12.355 263.56 12.4305 263.711 12.5816C263.862 12.7328 263.938 12.9217 263.938 13.1484C263.938 13.2408 263.925 13.3247 263.9 13.4003C263.875 13.4759 263.846 13.543 263.812 13.6018C263.778 13.6606 263.732 13.7109 263.673 13.7529C263.615 13.7949 263.564 13.8285 263.522 13.8537C263.48 13.8789 263.438 13.8957 263.396 13.9041C263.354 13.9125 263.321 13.9251 263.296 13.9418L263.245 13.9544C263.673 14.3323 264.194 14.5212 264.807 14.5212C265.269 14.5212 265.617 14.2987 265.852 13.8537C265.995 13.5766 266.066 13.1526 266.066 12.5816V12.3298C266.066 11.5321 265.798 10.999 265.26 10.7303C265.134 10.6799 264.878 10.6505 264.492 10.6421L263.963 10.6295L263.925 10.6043C263.908 10.5791 263.9 10.512 263.9 10.4028C263.9 10.2517 263.934 10.1761 264.001 10.1761C264.236 10.1761 264.479 10.1551 264.731 10.1131C265.017 10.0712 265.277 9.89485 265.512 9.58418C265.747 9.27352 265.865 8.80333 265.865 8.17361V8.07286C265.865 7.59427 265.718 7.26262 265.424 7.0779C265.239 6.96035 265.042 6.90158 264.832 6.90158C264.563 6.90158 264.316 6.94776 264.089 7.04012C263.862 7.13248 263.703 7.22903 263.61 7.32979C263.518 7.43054 263.472 7.48092 263.472 7.48092H263.51C263.535 7.48932 263.568 7.49771 263.61 7.50611C263.652 7.51451 263.694 7.5355 263.736 7.56908C263.778 7.60267 263.829 7.63205 263.887 7.65724C263.946 7.68243 263.988 7.72861 264.013 7.79578C264.039 7.86295 264.072 7.92592 264.114 7.9847C264.156 8.04347 264.169 8.12743 264.152 8.23658C264.152 8.4213 264.093 8.58503 263.976 8.72777C263.858 8.8705 263.669 8.94607 263.409 8.95447Z" fill="black"/>
    </g>
  </g>
  <defs>
    <clipPath id="clip0_355_130">
      <rect width="502" height="88" fill="white"/>
    </clipPath>
    <clipPath id="clip1_355_130">
      <rect width="36" height="15.8189" fill="white" transform="translate(42)"/>
    </clipPath>
    <clipPath id="clip2_355_130">
      <rect width="35" height="16" fill="white" transform="translate(233 72)"/>
    </clipPath>
    <clipPath id="clip3_355_130">
      <rect width="36" height="15.8189" fill="white" transform="translate(233)"/>
    </clipPath>
  </defs>
</svg>
  