<svg width="502" height="81" viewBox="0 0 502 81" fill="none"
  xmlns="http://www.w3.org/2000/svg">
  <g clip-path="url(#clip0_346_129)">
    <path d="M1 41H501" stroke="black" stroke-width="2" stroke-linecap="round"/>
    <path d="M193.646 60.6464C193.451 60.8417 193.451 61.1583 193.646 61.3536L196.828 64.5355C197.024 64.7308 197.34 64.7308 197.536 64.5355C197.731 64.3403 197.731 64.0237 197.536 63.8284L194.707 61L197.536 58.1716C197.731 57.9763 197.731 57.6597 197.536 57.4645C197.34 57.2692 197.024 57.2692 196.828 57.4645L193.646 60.6464ZM308.354 61.3536C308.549 61.1583 308.549 60.8417 308.354 60.6464L305.172 57.4645C304.976 57.2692 304.66 57.2692 304.464 57.4645C304.269 57.6597 304.269 57.9763 304.464 58.1716L307.293 61L304.464 63.8284C304.269 64.0237 304.269 64.3403 304.464 64.5355C304.66 64.7308 304.976 64.7308 305.172 64.5355L308.354 61.3536ZM194 61.5L308 61.5V60.5L194 60.5V61.5Z" fill="black"/>
    <path d="M120.646 20.6464C120.451 20.8417 120.451 21.1583 120.646 21.3536L123.828 24.5355C124.024 24.7308 124.34 24.7308 124.536 24.5355C124.731 24.3403 124.731 24.0237 124.536 23.8284L121.707 21L124.536 18.1716C124.731 17.9763 124.731 17.6597 124.536 17.4645C124.34 17.2692 124.024 17.2692 123.828 17.4645L120.646 20.6464ZM190.354 21.3536C190.549 21.1583 190.549 20.8417 190.354 20.6465L187.172 17.4645C186.976 17.2692 186.66 17.2692 186.464 17.4645C186.269 17.6597 186.269 17.9763 186.464 18.1716L189.293 21L186.464 23.8284C186.269 24.0237 186.269 24.3403 186.464 24.5355C186.66 24.7308 186.976 24.7308 187.172 24.5355L190.354 21.3536ZM121 21.5L190 21.5L190 20.5L121 20.5L121 21.5Z" fill="black"/>
    <path d="M2.64645 60.6464C2.45118 60.8417 2.45118 61.1583 2.64645 61.3536L5.82843 64.5355C6.02369 64.7308 6.34027 64.7308 6.53553 64.5355C6.7308 64.3403 6.7308 64.0237 6.53553 63.8284L3.70711 61L6.53553 58.1716C6.7308 57.9763 6.7308 57.6597 6.53553 57.4645C6.34027 57.2692 6.02369 57.2692 5.82843 57.4645L2.64645 60.6464ZM190.354 61.3536C190.549 61.1583 190.549 60.8417 190.354 60.6464L187.172 57.4645C186.976 57.2692 186.66 57.2692 186.464 57.4645C186.269 57.6597 186.269 57.9763 186.464 58.1716L189.293 61L186.464 63.8284C186.269 64.0237 186.269 64.3403 186.464 64.5355C186.66 64.7308 186.976 64.7308 187.172 64.5355L190.354 61.3536ZM3 61.5L190 61.5V60.5L3 60.5V61.5Z" fill="black"/>
    <path d="M2.64645 20.6464C2.45118 20.8417 2.45118 21.1583 2.64645 21.3536L5.82843 24.5355C6.02369 24.7308 6.34027 24.7308 6.53553 24.5355C6.7308 24.3403 6.7308 24.0237 6.53553 23.8284L3.70711 21L6.53553 18.1716C6.7308 17.9763 6.7308 17.6597 6.53553 17.4645C6.34027 17.2692 6.02369 17.2692 5.82843 17.4645L2.64645 20.6464ZM117.354 21.3536C117.549 21.1583 117.549 20.8417 117.354 20.6464L114.172 17.4645C113.976 17.2692 113.66 17.2692 113.464 17.4645C113.269 17.6597 113.269 17.9763 113.464 18.1716L116.293 21L113.464 23.8284C113.269 24.0237 113.269 24.3403 113.464 24.5355C113.66 24.7308 113.976 24.7308 114.172 24.5355L117.354 21.3536ZM3 21.5L117 21.5V20.5L3 20.5V21.5Z" fill="black"/>
    <path d="M193.646 20.6464C193.451 20.8417 193.451 21.1583 193.646 21.3536L196.828 24.5355C197.024 24.7308 197.34 24.7308 197.536 24.5355C197.731 24.3403 197.731 24.0237 197.536 23.8284L194.707 21L197.536 18.1716C197.731 17.9763 197.731 17.6597 197.536 17.4645C197.34 17.2692 197.024 17.2692 196.828 17.4645L193.646 20.6464ZM308.354 21.3536C308.549 21.1583 308.549 20.8417 308.354 20.6464L305.172 17.4645C304.976 17.2692 304.66 17.2692 304.464 17.4645C304.269 17.6597 304.269 17.9763 304.464 18.1716L307.293 21L304.464 23.8284C304.269 24.0237 304.269 24.3403 304.464 24.5355C304.66 24.7308 304.976 24.7308 305.172 24.5355L308.354 21.3536ZM194 21.5L308 21.5V20.5L194 20.5V21.5Z" fill="black"/>
    <path d="M311.646 60.6464C311.451 60.8417 311.451 61.1583 311.646 61.3536L314.828 64.5355C315.024 64.7308 315.34 64.7308 315.536 64.5355C315.731 64.3403 315.731 64.0237 315.536 63.8284L312.707 61L315.536 58.1716C315.731 57.9763 315.731 57.6597 315.536 57.4645C315.34 57.2692 315.024 57.2692 314.828 57.4645L311.646 60.6464ZM499.354 61.3536C499.549 61.1583 499.549 60.8417 499.354 60.6464L496.172 57.4645C495.976 57.2692 495.66 57.2692 495.464 57.4645C495.269 57.6597 495.269 57.9763 495.464 58.1716L498.293 61L495.464 63.8284C495.269 64.0237 495.269 64.3403 495.464 64.5355C495.66 64.7308 495.976 64.7308 496.172 64.5355L499.354 61.3536ZM312 61.5L499 61.5V60.5L312 60.5V61.5Z" fill="black"/>
    <path d="M1 47L0.999999 35" stroke="black" stroke-width="2" stroke-linecap="round"/>
    <path d="M501 47L501 35" stroke="black" stroke-width="2" stroke-linecap="round"/>
    <path d="M310 47L310 35" stroke="black" stroke-width="2" stroke-linecap="round"/>
    <path d="M184.324 71.9358C184.413 71.3986 184.757 70.7781 185.354 70.0745C185.952 69.371 186.689 69.0128 187.567 69C188.012 69 188.419 69.1151 188.787 69.3454C189.156 69.5756 189.429 69.8635 189.607 70.2089C190.141 69.4029 190.784 69 191.534 69C192.004 69 192.411 69.1407 192.754 69.4221C193.098 69.7036 193.276 70.0809 193.288 70.5543C193.288 70.9252 193.199 71.2259 193.021 71.4561C192.843 71.6864 192.672 71.8271 192.506 71.8783C192.341 71.9294 192.195 71.955 192.068 71.955C191.826 71.955 191.629 71.8847 191.477 71.7439C191.324 71.6032 191.248 71.4177 191.248 71.1875C191.248 70.599 191.566 70.1961 192.201 69.9786C192.061 69.8123 191.807 69.7291 191.438 69.7291C191.273 69.7291 191.152 69.7419 191.076 69.7675C190.593 69.9722 190.237 70.3944 190.008 71.034C189.245 73.8611 188.864 75.5113 188.864 75.9846C188.864 76.3428 188.965 76.5986 189.169 76.7521C189.372 76.9057 189.595 76.9824 189.836 76.9824C190.307 76.9824 190.771 76.7713 191.229 76.3492C191.686 75.927 191.998 75.4089 192.163 74.7949C192.201 74.667 192.239 74.5966 192.278 74.5838C192.316 74.5711 192.417 74.5583 192.583 74.5455H192.659C192.85 74.5455 192.945 74.5966 192.945 74.699C192.945 74.7118 192.932 74.7821 192.907 74.91C192.704 75.6392 192.309 76.2852 191.725 76.8481C191.14 77.411 190.459 77.6924 189.684 77.6924C188.794 77.6924 188.12 77.2894 187.662 76.4835C187.141 77.2766 186.543 77.6732 185.869 77.6732H185.755C185.132 77.6732 184.687 77.5069 184.42 77.1743C184.153 76.8417 184.013 76.4899 184 76.1189C184 75.7096 184.121 75.377 184.362 75.1211C184.604 74.8653 184.89 74.7374 185.221 74.7374C185.767 74.7374 186.041 75.006 186.041 75.5433C186.041 75.7991 185.965 76.023 185.812 76.2149C185.659 76.4068 185.513 76.5347 185.373 76.5986C185.233 76.6626 185.151 76.6946 185.125 76.6946L185.068 76.7138C185.068 76.7266 185.106 76.7521 185.183 76.7905C185.259 76.8289 185.361 76.8737 185.488 76.9248C185.615 76.976 185.736 76.9952 185.85 76.9824C186.308 76.9824 186.702 76.6946 187.033 76.1189C187.147 75.9142 187.293 75.4793 187.471 74.8141C187.649 74.1489 187.827 73.4581 188.005 72.7417C188.183 72.0254 188.285 71.6032 188.31 71.4753C188.374 71.1299 188.406 70.8805 188.406 70.727C188.406 70.3688 188.31 70.1129 188.12 69.9594C187.929 69.8059 187.713 69.7291 187.471 69.7291C186.963 69.7291 186.486 69.9338 186.041 70.3432C185.596 70.7525 185.284 71.277 185.106 71.9166C185.081 72.0318 185.049 72.0957 185.011 72.1085C184.973 72.1213 184.871 72.1341 184.706 72.1469H184.439C184.362 72.0701 184.324 71.9998 184.324 71.9358Z" fill="black"/>
    <path d="M197.114 72.5183L196.939 72.5861C196.813 72.6314 196.633 72.6766 196.4 72.7218C196.166 72.767 195.905 72.7987 195.618 72.8168H195.361V72.1927H195.618C196.04 72.1746 196.431 72.1068 196.791 71.9892C197.15 71.8716 197.402 71.7631 197.546 71.6636C197.69 71.5641 197.816 71.4647 197.923 71.3652C197.941 71.338 197.995 71.3245 198.085 71.3245C198.166 71.3245 198.243 71.3516 198.314 71.4059V75.4622L198.328 79.5321C198.391 79.5954 198.445 79.6361 198.49 79.6542C198.535 79.6723 198.643 79.6903 198.813 79.7084C198.984 79.7265 199.263 79.7356 199.649 79.7356H200V80.3596H199.852C199.663 80.3325 198.948 80.3189 197.708 80.3189C196.485 80.3189 195.779 80.3325 195.591 80.3596H195.429V79.7356H195.779C195.977 79.7356 196.148 79.7356 196.292 79.7356C196.436 79.7356 196.548 79.731 196.629 79.722C196.71 79.713 196.782 79.6994 196.845 79.6813C196.908 79.6632 196.944 79.6542 196.952 79.6542C196.961 79.6542 196.988 79.6316 197.033 79.5863C197.078 79.5411 197.105 79.523 197.114 79.5321V72.5183Z" fill="black"/>
    <path d="M302.318 71.8052C302.406 71.2808 302.743 70.6754 303.33 69.9888C303.916 69.3022 304.64 68.9526 305.502 68.9401C305.939 68.9401 306.338 69.0525 306.7 69.2772C307.062 69.5019 307.331 69.7828 307.505 70.1198C308.03 69.3334 308.66 68.9401 309.397 68.9401C309.859 68.9401 310.258 69.0775 310.595 69.3521C310.932 69.6267 311.107 69.995 311.119 70.4569C311.119 70.8189 311.032 71.1123 310.857 71.337C310.682 71.5617 310.514 71.699 310.352 71.749C310.189 71.7989 310.046 71.8239 309.921 71.8239C309.684 71.8239 309.49 71.7552 309.34 71.6179C309.191 71.4806 309.116 71.2996 309.116 71.0749C309.116 70.5006 309.428 70.1074 310.052 69.8951C309.915 69.7329 309.665 69.6517 309.303 69.6517C309.141 69.6517 309.022 69.6642 308.947 69.6892C308.473 69.8889 308.123 70.3009 307.899 70.9251C307.15 73.684 306.775 75.2944 306.775 75.7563C306.775 76.1058 306.875 76.3555 307.075 76.5053C307.274 76.6551 307.493 76.73 307.73 76.73C308.192 76.73 308.648 76.524 309.097 76.1121C309.546 75.7001 309.852 75.1945 310.015 74.5953C310.052 74.4704 310.089 74.4018 310.127 74.3893C310.164 74.3768 310.264 74.3643 310.427 74.3518H310.501C310.689 74.3518 310.782 74.4018 310.782 74.5017C310.782 74.5141 310.77 74.5828 310.745 74.7076C310.545 75.4192 310.158 76.0496 309.584 76.5989C309.01 77.1482 308.342 77.4229 307.58 77.4229C306.706 77.4229 306.045 77.0296 305.595 76.2431C305.083 77.0171 304.497 77.4041 303.835 77.4041H303.723C303.111 77.4041 302.674 77.2418 302.412 76.9173C302.15 76.5927 302.012 76.2494 302 75.8873C302 75.4879 302.119 75.1633 302.356 74.9136C302.593 74.6639 302.874 74.5391 303.198 74.5391C303.735 74.5391 304.004 74.8013 304.004 75.3256C304.004 75.5753 303.929 75.7937 303.779 75.981C303.629 76.1682 303.486 76.2931 303.348 76.3555C303.211 76.4179 303.13 76.4491 303.105 76.4491L303.049 76.4678C303.049 76.4803 303.086 76.5053 303.161 76.5427C303.236 76.5802 303.336 76.6239 303.461 76.6738C303.585 76.7238 303.704 76.7425 303.816 76.73C304.266 76.73 304.653 76.4491 304.977 75.8873C305.09 75.6876 305.233 75.2632 305.408 74.614C305.583 73.9648 305.758 73.2907 305.932 72.5916C306.107 71.8925 306.207 71.4806 306.232 71.3557C306.294 71.0187 306.326 70.7752 306.326 70.6254C306.326 70.2759 306.232 70.0262 306.045 69.8764C305.857 69.7266 305.645 69.6517 305.408 69.6517C304.909 69.6517 304.441 69.8514 304.004 70.2509C303.567 70.6504 303.261 71.1622 303.086 71.7864C303.061 71.8988 303.03 71.9612 302.992 71.9737C302.955 71.9862 302.855 71.9987 302.693 72.0111H302.431C302.356 71.9362 302.318 71.8676 302.318 71.8052Z" fill="black"/>
    <path d="M313.499 74.3461C313.261 74.3461 313.071 74.2667 312.93 74.1078C312.788 73.9489 312.718 73.7547 312.718 73.5253C312.718 72.8986 312.952 72.3558 313.419 71.8969C313.887 71.4379 314.47 71.2084 315.167 71.2084C315.97 71.2084 316.641 71.4556 317.179 71.9498C317.718 72.4441 317.991 73.084 318 73.8695C318 74.249 317.912 74.6109 317.735 74.9551C317.559 75.2993 317.347 75.5994 317.1 75.8553C316.853 76.1113 316.5 76.4379 316.041 76.835C315.723 77.1086 315.282 77.5146 314.717 78.053L313.936 78.7944L314.942 78.8076C316.328 78.8076 317.065 78.7856 317.153 78.7414C317.215 78.7238 317.321 78.331 317.471 77.5632V77.5235H318V77.5632C317.991 77.5897 317.934 77.9912 317.828 78.7679C317.722 79.5446 317.656 79.9506 317.629 79.9859V80.0256H312.718V79.7741V79.6152C312.718 79.5534 312.744 79.4872 312.797 79.4166C312.85 79.346 312.983 79.1916 313.194 78.9533C313.45 78.6708 313.671 78.4237 313.856 78.2119C313.936 78.1236 314.086 77.9603 314.306 77.722C314.527 77.4837 314.677 77.3205 314.757 77.2322C314.836 77.1439 314.964 76.9983 315.141 76.7953C315.317 76.5923 315.441 76.4423 315.511 76.3452C315.582 76.2481 315.683 76.1157 315.816 75.948C315.948 75.7803 316.041 75.6391 316.094 75.5244C316.147 75.4096 316.213 75.2816 316.292 75.1404C316.372 74.9992 316.429 74.858 316.464 74.7168C316.5 74.5756 316.531 74.4432 316.557 74.3196C316.584 74.196 316.597 74.0504 316.597 73.8827C316.597 73.3267 316.447 72.8457 316.147 72.4397C315.847 72.0337 315.419 71.8307 314.862 71.8307C314.571 71.8307 314.315 71.9057 314.095 72.0557C313.874 72.2058 313.72 72.3514 313.631 72.4926C313.543 72.6338 313.499 72.7177 313.499 72.7442C313.499 72.753 313.521 72.7574 313.565 72.7574C313.724 72.7574 313.887 72.8192 314.055 72.9428C314.223 73.0663 314.306 73.2693 314.306 73.5517C314.306 73.7724 314.236 73.9577 314.095 74.1078C313.953 74.2578 313.755 74.3373 313.499 74.3461Z" fill="black"/>
    <path d="M111 3.56771C111 3.374 111.104 3.04191 111.311 2.57146C111.519 2.10101 111.851 1.6098 112.308 1.09784C112.764 0.585873 113.276 0.33681 113.843 0.350647C114.411 0.350647 114.867 0.50977 115.213 0.828017C115.559 1.14626 115.739 1.58904 115.753 2.15635C115.725 2.41925 115.705 2.56454 115.691 2.59221C115.691 2.63372 115.58 2.95197 115.359 3.54696C115.137 4.14194 114.909 4.81303 114.674 5.56022C114.438 6.3074 114.328 6.90239 114.342 7.34517C114.342 7.94015 114.438 8.35526 114.632 8.59048C114.826 8.82571 115.116 8.95024 115.504 8.96408C115.822 8.96408 116.12 8.88797 116.396 8.73577C116.673 8.58356 116.888 8.42444 117.04 8.2584C117.192 8.09236 117.379 7.86405 117.6 7.57348C117.6 7.55964 117.635 7.42127 117.704 7.15837C117.773 6.89547 117.87 6.48728 117.995 5.93381C118.119 5.38034 118.251 4.86837 118.389 4.39792C118.915 2.3224 119.205 1.2362 119.261 1.13935C119.44 0.765752 119.738 0.578954 120.153 0.578954C120.333 0.578954 120.478 0.627383 120.589 0.724241C120.7 0.821099 120.776 0.90412 120.817 0.973304C120.859 1.04249 120.873 1.10475 120.859 1.1601C120.859 1.33998 120.52 2.79285 119.842 5.51871C119.164 8.24456 118.776 9.73894 118.679 10.0018C118.292 11.1503 117.621 12.0635 116.666 12.7415C115.711 13.4195 114.757 13.7655 113.802 13.7793C113.179 13.7793 112.633 13.6271 112.162 13.3227C111.692 13.0183 111.457 12.5617 111.457 11.9528C111.457 11.6484 111.505 11.3924 111.602 11.1849C111.699 10.9773 111.83 10.8251 111.996 10.7283C112.162 10.6314 112.301 10.5622 112.411 10.5207C112.522 10.4792 112.64 10.4585 112.764 10.4585C113.373 10.4585 113.677 10.749 113.677 11.3302C113.677 11.6069 113.594 11.8491 113.428 12.0566C113.262 12.2642 113.103 12.4025 112.951 12.4717C112.799 12.5409 112.709 12.5755 112.681 12.5755L112.619 12.5962C112.647 12.6654 112.778 12.7485 113.013 12.8453C113.248 12.9422 113.484 12.9906 113.719 12.9906H113.885C114.12 12.9906 114.3 12.9768 114.425 12.9491C114.881 12.8246 115.303 12.5617 115.691 12.1604C116.078 11.7591 116.376 11.3302 116.583 10.8736C116.791 10.4169 116.95 10.0295 117.061 9.71127C117.171 9.39302 117.227 9.18547 117.227 9.08861L117.102 9.17163C117.019 9.22698 116.888 9.30308 116.708 9.39994C116.528 9.4968 116.348 9.57982 116.168 9.649C115.891 9.71819 115.622 9.75278 115.359 9.75278C114.722 9.75278 114.162 9.60057 113.677 9.29616C113.193 8.99175 112.875 8.50054 112.723 7.82254C112.709 7.72568 112.702 7.51121 112.702 7.17913C112.702 6.39043 112.944 5.35958 113.428 4.08659C113.913 2.8136 114.155 2.00415 114.155 1.65823C114.155 1.64439 114.155 1.63055 114.155 1.61672C114.155 1.49219 114.155 1.40916 114.155 1.36765C114.155 1.32614 114.127 1.27771 114.072 1.22237C114.016 1.16702 113.94 1.13935 113.843 1.13935H113.76C113.442 1.13935 113.152 1.2708 112.889 1.5337C112.626 1.7966 112.418 2.08025 112.266 2.38466C112.114 2.68907 111.996 2.97965 111.913 3.25638C111.83 3.53312 111.775 3.68532 111.747 3.713C111.72 3.74067 111.609 3.75451 111.415 3.75451H111.125C111.042 3.67149 111 3.60922 111 3.56771Z" fill="black"/>
    <path d="M123.86 4.15614L123.669 4.22951C123.533 4.27843 123.337 4.32734 123.083 4.37625C122.828 4.42517 122.544 4.4594 122.231 4.47897H121.953V3.80397H122.231C122.691 3.7844 123.117 3.71103 123.508 3.58386C123.899 3.45668 124.173 3.33929 124.33 3.23168C124.486 3.12407 124.623 3.01646 124.741 2.90886C124.76 2.87951 124.819 2.86483 124.917 2.86483C125.005 2.86483 125.088 2.89418 125.166 2.95288V7.34039L125.181 11.7426C125.249 11.8111 125.308 11.8551 125.357 11.8746C125.406 11.8942 125.523 11.9138 125.709 11.9333C125.895 11.9529 126.198 11.9627 126.619 11.9627H127V12.6377H126.839C126.634 12.6083 125.856 12.5937 124.506 12.5937C123.175 12.5937 122.408 12.6083 122.202 12.6377H122.026V11.9627H122.408C122.623 11.9627 122.809 11.9627 122.965 11.9627C123.122 11.9627 123.244 11.9578 123.332 11.948C123.42 11.9382 123.498 11.9236 123.567 11.904C123.635 11.8844 123.674 11.8746 123.684 11.8746C123.694 11.8746 123.723 11.8502 123.772 11.8013C123.821 11.7524 123.85 11.7328 123.86 11.7426V4.15614Z" fill="black"/>
    <path d="M184 3.45766C184 3.26777 184.102 2.94226 184.305 2.48111C184.509 2.01996 184.834 1.53847 185.282 1.03663C185.729 0.534794 186.231 0.290657 186.787 0.30422C187.343 0.30422 187.791 0.460197 188.13 0.77215C188.469 1.0841 188.645 1.51812 188.659 2.07422C188.632 2.33192 188.611 2.47433 188.598 2.50146C188.598 2.54214 188.489 2.8541 188.272 3.43731C188.055 4.02053 187.832 4.67835 187.601 5.41076C187.37 6.14317 187.262 6.72639 187.276 7.16041C187.276 7.74362 187.37 8.15052 187.56 8.38109C187.75 8.61167 188.035 8.73374 188.415 8.7473C188.727 8.7473 189.018 8.6727 189.29 8.52351C189.561 8.37431 189.771 8.21834 189.92 8.05558C190.07 7.89282 190.253 7.66903 190.47 7.3842C190.47 7.37064 190.504 7.235 190.571 6.9773C190.639 6.7196 190.734 6.31949 190.856 5.77696C190.978 5.23444 191.107 4.7326 191.243 4.27145C191.758 2.23697 192.043 1.17226 192.097 1.07732C192.274 0.711116 192.565 0.528013 192.972 0.528013C193.148 0.528013 193.291 0.575484 193.399 0.670426C193.508 0.765369 193.582 0.846748 193.623 0.914563C193.664 0.982379 193.677 1.04341 193.664 1.09767C193.664 1.27399 193.331 2.69812 192.667 5.37007C192.002 8.04201 191.623 9.50684 191.528 9.76454C191.148 10.8903 190.49 11.7855 189.554 12.45C188.618 13.1146 187.682 13.4537 186.747 13.4673C186.136 13.4673 185.6 13.3181 185.139 13.0197C184.678 12.7213 184.448 12.2737 184.448 11.6769C184.448 11.3786 184.495 11.1276 184.59 10.9242C184.685 10.7207 184.814 10.5715 184.977 10.4766C185.139 10.3817 185.275 10.3138 185.383 10.2732C185.492 10.2325 185.607 10.2121 185.729 10.2121C186.326 10.2121 186.624 10.4969 186.624 11.0666C186.624 11.3379 186.543 11.5752 186.38 11.7787C186.218 11.9821 186.062 12.1177 185.912 12.1856C185.763 12.2534 185.675 12.2873 185.648 12.2873L185.587 12.3076C185.614 12.3754 185.743 12.4568 185.973 12.5518C186.204 12.6467 186.435 12.6942 186.665 12.6942H186.828C187.058 12.6942 187.235 12.6806 187.357 12.6535C187.804 12.5314 188.218 12.2737 188.598 11.8804C188.978 11.4871 189.269 11.0666 189.473 10.619C189.676 10.1714 189.832 9.79166 189.941 9.47971C190.049 9.16776 190.103 8.96431 190.103 8.86937L189.981 8.95075C189.9 9.005 189.771 9.0796 189.595 9.17454C189.418 9.26948 189.242 9.35086 189.066 9.41868C188.795 9.48649 188.53 9.5204 188.272 9.5204C187.648 9.5204 187.099 9.37121 186.624 9.07282C186.15 8.77443 185.838 8.29293 185.689 7.62834C185.675 7.53339 185.668 7.32317 185.668 6.99765C185.668 6.22455 185.906 5.21409 186.38 3.96628C186.855 2.71847 187.092 1.92502 187.092 1.58594C187.092 1.57238 187.092 1.55881 187.092 1.54525C187.092 1.42318 187.092 1.3418 187.092 1.30111C187.092 1.26042 187.065 1.21295 187.011 1.1587C186.957 1.10445 186.882 1.07732 186.787 1.07732H186.706C186.394 1.07732 186.109 1.20617 185.851 1.46387C185.594 1.72157 185.39 1.99962 185.241 2.29801C185.092 2.5964 184.977 2.88122 184.895 3.15249C184.814 3.42375 184.76 3.57295 184.732 3.60007C184.705 3.6272 184.597 3.64076 184.407 3.64076H184.122C184.041 3.55938 184 3.49835 184 3.45766Z" fill="black"/>
    <path d="M195.109 6.17752C194.85 6.17752 194.644 6.09121 194.491 5.91861C194.337 5.746 194.261 5.53504 194.261 5.28572C194.261 4.60489 194.515 4.01516 195.023 3.51652C195.531 3.01788 196.164 2.76857 196.922 2.76857C197.794 2.76857 198.523 3.03706 199.108 3.57406C199.693 4.11105 199.99 4.80626 200 5.6597C200 6.07203 199.904 6.46519 199.712 6.83917C199.52 7.21315 199.29 7.53918 199.022 7.81726C198.753 8.09535 198.37 8.45015 197.871 8.88166C197.526 9.17892 197.046 9.62003 196.433 10.205L195.584 11.0105L196.677 11.0248C198.183 11.0248 198.983 11.0009 199.079 10.9529C199.146 10.9337 199.261 10.507 199.425 9.67277V9.62962H200V9.67277C199.99 9.70153 199.928 10.1378 199.813 10.9817C199.698 11.8255 199.626 12.2666 199.597 12.305V12.3481H194.261V12.0749V11.9022C194.261 11.8351 194.29 11.7632 194.347 11.6865C194.405 11.6098 194.548 11.442 194.779 11.1831C195.057 10.8762 195.296 10.6077 195.498 10.3776C195.584 10.2817 195.747 10.1043 195.987 9.84537C196.227 9.58646 196.39 9.40906 196.476 9.31317C196.562 9.21728 196.701 9.05906 196.893 8.83851C197.085 8.61796 197.219 8.45494 197.296 8.34946C197.372 8.24398 197.483 8.10014 197.627 7.91795C197.77 7.73576 197.871 7.58233 197.929 7.45767C197.986 7.33301 198.058 7.19397 198.144 7.04054C198.231 6.88711 198.293 6.73369 198.331 6.58026C198.37 6.42683 198.403 6.283 198.432 6.14875C198.461 6.0145 198.475 5.85628 198.475 5.67408C198.475 5.06997 198.312 4.54736 197.986 4.10626C197.66 3.66515 197.195 3.4446 196.591 3.4446C196.274 3.4446 195.996 3.52611 195.757 3.68913C195.517 3.85214 195.349 4.01036 195.253 4.16379C195.157 4.31722 195.109 4.40831 195.109 4.43708C195.109 4.44667 195.133 4.45147 195.181 4.45147C195.354 4.45147 195.531 4.51859 195.714 4.65284C195.896 4.78709 195.987 5.00764 195.987 5.31449C195.987 5.55422 195.91 5.75559 195.757 5.91861C195.603 6.08162 195.387 6.16793 195.109 6.17752Z" fill="black"/>
    <path d="M92 75.1543C92 73.6951 92.549 72.3083 93.6469 70.9936C94.7449 69.6789 95.9801 69.0144 97.3525 68.9999C98.0893 68.9999 98.7394 69.3539 99.3029 70.0618C99.534 69.6284 99.8663 69.4117 100.3 69.4117C100.487 69.4117 100.654 69.4695 100.798 69.585C100.943 69.7006 101.015 69.8451 101.015 70.0184C101.015 70.2062 100.748 71.362 100.213 73.4857C99.6785 75.6093 99.404 76.8084 99.3895 77.0829C99.3895 77.4441 99.4401 77.6825 99.5412 77.798C99.6424 77.9136 99.794 77.9786 99.9963 77.9931C100.126 77.9786 100.271 77.9136 100.43 77.798C100.733 77.5091 101.029 76.8157 101.318 75.7177C101.405 75.4288 101.477 75.2771 101.535 75.2626C101.564 75.2482 101.636 75.241 101.752 75.241H101.838C102.113 75.241 102.25 75.306 102.25 75.436C102.25 75.5227 102.214 75.7177 102.142 76.0211C102.069 76.3245 101.925 76.7145 101.708 77.1913C101.492 77.668 101.26 78.0292 101.015 78.2748C100.827 78.4626 100.596 78.6143 100.321 78.7299C100.206 78.7587 100.032 78.7732 99.8013 78.7732C99.3101 78.7732 98.8983 78.6648 98.5661 78.4481C98.2338 78.2314 98.0171 78.0075 97.916 77.7764L97.7859 77.4513C97.7715 77.4369 97.7426 77.4441 97.6993 77.473C97.6704 77.5019 97.6415 77.5308 97.6126 77.5597C96.7602 78.3687 95.8934 78.7732 95.0122 78.7732C94.2176 78.7732 93.5169 78.4843 92.9101 77.9064C92.3034 77.3285 92 76.4111 92 75.1543ZM98.8911 71.4487C98.8911 71.362 98.855 71.2031 98.7828 70.9719C98.7105 70.7408 98.5444 70.488 98.2844 70.2135C98.0243 69.939 97.692 69.7945 97.2875 69.7801C96.7819 69.7801 96.2979 70.004 95.8356 70.4518C95.3733 70.8997 95.0122 71.4848 94.7521 72.2071C94.3332 73.3484 94.037 74.5331 93.8636 75.761C93.8636 75.8044 93.8636 75.8838 93.8636 75.9994C93.8636 76.115 93.8564 76.2017 93.842 76.2595C93.842 76.9096 93.972 77.3574 94.232 77.603C94.4921 77.8486 94.8027 77.9786 95.1638 77.9931C95.7128 77.9931 96.2546 77.7547 96.7891 77.278C97.3236 76.8012 97.6415 76.4328 97.7426 76.1728C97.7715 76.115 97.9665 75.3421 98.3277 73.8541C98.6889 72.366 98.8767 71.5642 98.8911 71.4487Z" fill="black"/>
    <path d="M247.717 65.0213C247.717 64.8764 247.746 64.7098 247.804 64.5215C247.862 64.3332 247.949 64.2391 248.065 64.2391C248.079 64.2391 248.601 64.2028 249.629 64.1304C250.658 64.058 251.186 64.0145 251.215 64.0001C251.389 64.0001 251.476 64.0652 251.476 64.1956C251.476 64.326 251.23 65.3617 250.737 67.3027C250.621 67.7952 250.498 68.3021 250.368 68.8236C250.237 69.3451 250.129 69.7362 250.042 69.9969L249.955 70.4097C249.955 70.4532 249.998 70.4315 250.085 70.3446C250.795 69.7651 251.527 69.4754 252.28 69.4754C253.178 69.4754 253.902 69.8086 254.453 70.4749C255.003 71.1412 255.286 71.9814 255.3 72.9953C255.3 74.6032 254.728 76.059 253.584 77.3626C252.439 78.6663 251.208 79.3181 249.89 79.3181C249.166 79.3181 248.506 79.0429 247.913 78.4925C247.319 77.942 247.014 77.0512 247 75.8199V75.6244C247 75.3202 247.058 74.9001 247.174 74.3642C247.29 73.8282 247.645 72.4014 248.238 70.0838C248.963 67.2302 249.325 65.7165 249.325 65.5427C249.325 65.3689 249.05 65.2675 248.499 65.2385C248.427 65.2385 248.369 65.2385 248.325 65.2385H248.217C248.072 65.2385 247.978 65.2385 247.934 65.2385C247.891 65.2385 247.84 65.2168 247.782 65.1734C247.724 65.1299 247.703 65.0792 247.717 65.0213ZM253.431 72.0176V71.8872C253.431 70.8153 252.99 70.2794 252.106 70.2794C251.86 70.2794 251.606 70.3373 251.346 70.4532C251.085 70.5691 250.846 70.7212 250.629 70.9095C250.411 71.0978 250.223 71.2716 250.064 71.4309C249.904 71.5903 249.774 71.7496 249.673 71.909L249.542 72.0828L249.086 73.9514C248.767 75.1971 248.608 76.0807 248.608 76.6021C248.608 77.2974 248.782 77.8189 249.129 78.1665C249.361 78.3983 249.651 78.5142 249.998 78.5142C250.476 78.5142 250.962 78.2824 251.454 77.8189C251.816 77.4857 252.106 77.0802 252.323 76.6021C252.541 76.1241 252.78 75.3637 253.04 74.3207C253.301 73.2778 253.431 72.5101 253.431 72.0176Z" fill="black"/>
    <path d="M402 75.0026C402 73.4613 402.608 72.0756 403.824 70.8454C405.04 69.6152 406.355 69.0001 407.769 69.0001C408.561 69.0001 409.183 69.1698 409.636 69.5091C410.088 69.8485 410.322 70.2939 410.336 70.8454C410.336 71.2555 410.201 71.6019 409.933 71.8847C409.664 72.1675 409.325 72.316 408.915 72.3301C408.646 72.3301 408.434 72.2594 408.278 72.118C408.123 71.9766 408.045 71.7645 408.045 71.4817C408.045 71.1989 408.123 70.9585 408.278 70.7605C408.434 70.5626 408.589 70.4141 408.745 70.3151C408.9 70.2161 408.999 70.1737 409.042 70.1879H409.063C409.063 70.1596 409.021 70.1172 408.936 70.0606C408.851 70.004 408.702 69.9475 408.49 69.8909C408.278 69.8344 408.038 69.8061 407.769 69.8061C407.345 69.8061 406.942 69.9051 406.56 70.103C406.263 70.2303 405.959 70.4495 405.648 70.7605C405.026 71.3827 404.574 72.2594 404.291 73.3906C404.008 74.5218 403.859 75.342 403.845 75.851C403.845 76.5015 404.029 76.9893 404.397 77.3145C404.708 77.6539 405.118 77.8236 405.627 77.8236H405.712C407.296 77.8236 408.603 77.2226 409.636 76.0207C409.763 75.8793 409.848 75.8086 409.89 75.8086C409.947 75.8086 410.039 75.8722 410.166 75.9995C410.293 76.1268 410.364 76.2257 410.378 76.2964C410.392 76.3671 410.329 76.4732 410.187 76.6146C410.046 76.756 409.841 76.954 409.572 77.2085C409.303 77.463 408.985 77.6751 408.618 77.8448C408.25 78.0145 407.797 78.1912 407.26 78.375C406.723 78.5589 406.157 78.6366 405.563 78.6084C404.503 78.6084 403.647 78.269 402.997 77.5903C402.346 76.9115 402.014 76.049 402 75.0026Z" fill="black"/>
  </g>
  <defs>
    <clipPath id="clip0_346_129">
      <rect width="502" height="81" fill="white"/>
    </clipPath>
  </defs>
</svg>
  