<svg width="832" height="200" viewBox="0 0 832 200" fill="none"
  xmlns="http://www.w3.org/2000/svg">
  <g clip-path="url(#clip0_335_111)">
    <g clip-path="url(#clip1_335_111)">
      <path d="M48 128L80 72" stroke="black" stroke-width="2" stroke-linecap="round"/>
      <path d="M144 16L80 72" stroke="black" stroke-width="2" stroke-linecap="round"/>
      <path d="M144 16L208 72" stroke="black" stroke-width="2" stroke-linecap="round"/>
      <path d="M112 128L80 72" stroke="black" stroke-width="2" stroke-linecap="round"/>
      <path d="M240 128L208 72" stroke="black" stroke-width="2" stroke-linecap="round"/>
      <path d="M176 128L208 72" stroke="black" stroke-width="2" stroke-linecap="round"/>
      <path d="M16 184L48 128" stroke="black" stroke-width="2" stroke-linecap="round"/>
      <path d="M80 184L48 128" stroke="black" stroke-width="2" stroke-linecap="round"/>
      <rect x="33" y="113" width="30" height="30" rx="15" fill="white"/>
      <rect x="33" y="113" width="30" height="30" rx="15" stroke="black" stroke-width="2"/>
      <path d="M40.2045 133.5V132.477L44.0455 128.273C44.4962 127.78 44.8674 127.352 45.1591 126.989C45.4508 126.621 45.6667 126.277 45.8068 125.955C45.9508 125.629 46.0227 125.288 46.0227 124.932C46.0227 124.523 45.9242 124.169 45.7273 123.869C45.5341 123.57 45.2689 123.339 44.9318 123.176C44.5947 123.013 44.2159 122.932 43.7955 122.932C43.3485 122.932 42.9583 123.025 42.625 123.21C42.2955 123.392 42.0398 123.648 41.858 123.977C41.6799 124.307 41.5909 124.693 41.5909 125.136H40.25C40.25 124.455 40.4072 123.856 40.7216 123.341C41.036 122.826 41.464 122.424 42.0057 122.136C42.5511 121.848 43.1629 121.705 43.8409 121.705C44.5227 121.705 45.1269 121.848 45.6534 122.136C46.1799 122.424 46.5928 122.812 46.892 123.301C47.1913 123.79 47.3409 124.333 47.3409 124.932C47.3409 125.36 47.2633 125.778 47.108 126.188C46.9564 126.593 46.6913 127.045 46.3125 127.545C45.9375 128.042 45.4167 128.648 44.75 129.364L42.1364 132.159V132.25H47.5455V133.5H40.2045ZM53.983 121.864V133.5H52.5739V123.341H52.5057L49.6648 125.227V123.795L52.5739 121.864H53.983Z" fill="black"/>
      <rect x="97" y="113" width="30" height="30" rx="15" fill="white"/>
      <rect x="97" y="113" width="30" height="30" rx="15" stroke="black" stroke-width="2"/>
      <path d="M111.909 121.705C112.386 121.708 112.864 121.799 113.341 121.977C113.818 122.155 114.254 122.451 114.648 122.864C115.042 123.273 115.358 123.831 115.597 124.54C115.835 125.248 115.955 126.136 115.955 127.205C115.955 128.239 115.856 129.157 115.659 129.96C115.466 130.759 115.186 131.434 114.818 131.983C114.455 132.532 114.011 132.949 113.489 133.233C112.97 133.517 112.383 133.659 111.727 133.659C111.076 133.659 110.494 133.53 109.983 133.273C109.475 133.011 109.059 132.65 108.733 132.188C108.411 131.722 108.205 131.182 108.114 130.568H109.5C109.625 131.102 109.873 131.544 110.244 131.892C110.619 132.237 111.114 132.409 111.727 132.409C112.625 132.409 113.333 132.017 113.852 131.233C114.375 130.449 114.636 129.341 114.636 127.909H114.545C114.333 128.227 114.081 128.502 113.79 128.733C113.498 128.964 113.174 129.142 112.818 129.267C112.462 129.392 112.083 129.455 111.682 129.455C111.015 129.455 110.403 129.29 109.847 128.96C109.294 128.627 108.85 128.17 108.517 127.591C108.188 127.008 108.023 126.341 108.023 125.591C108.023 124.879 108.182 124.227 108.5 123.636C108.822 123.042 109.273 122.568 109.852 122.216C110.436 121.864 111.121 121.693 111.909 121.705ZM111.909 122.955C111.432 122.955 111.002 123.074 110.619 123.312C110.241 123.547 109.939 123.866 109.716 124.267C109.496 124.665 109.386 125.106 109.386 125.591C109.386 126.076 109.492 126.517 109.705 126.915C109.92 127.309 110.214 127.623 110.585 127.858C110.96 128.089 111.386 128.205 111.864 128.205C112.223 128.205 112.559 128.134 112.869 127.994C113.18 127.85 113.451 127.655 113.682 127.409C113.917 127.159 114.1 126.877 114.233 126.562C114.366 126.244 114.432 125.913 114.432 125.568C114.432 125.114 114.322 124.687 114.102 124.29C113.886 123.892 113.587 123.57 113.205 123.324C112.826 123.078 112.394 122.955 111.909 122.955Z" fill="black"/>
      <rect x="1" y="169" width="30" height="30" rx="15" fill="white"/>
      <rect x="1" y="169" width="30" height="30" rx="15" stroke="black" stroke-width="2"/>
      <path d="M12.5682 189.5L17.7727 179.205V179.114H11.7727V177.864H19.2273V179.182L14.0455 189.5H12.5682Z" fill="black"/>
      <rect x="65" y="169" width="30" height="30" rx="15" fill="white"/>
      <rect x="65" y="169" width="30" height="30" rx="15" stroke="#0078FC" stroke-width="2"/>
      <path d="M75.1364 189.659C74.3864 189.659 73.7178 189.53 73.1307 189.273C72.5473 189.015 72.0833 188.657 71.7386 188.199C71.3977 187.737 71.2121 187.201 71.1818 186.591H72.6136C72.6439 186.966 72.7727 187.29 73 187.562C73.2273 187.831 73.5246 188.04 73.892 188.188C74.2595 188.335 74.6667 188.409 75.1136 188.409C75.6136 188.409 76.0568 188.322 76.4432 188.148C76.8295 187.973 77.1326 187.731 77.3523 187.42C77.572 187.11 77.6818 186.75 77.6818 186.341C77.6818 185.913 77.5758 185.536 77.3636 185.21C77.1515 184.881 76.8409 184.623 76.4318 184.438C76.0227 184.252 75.5227 184.159 74.9318 184.159H74V182.909H74.9318C75.3939 182.909 75.7992 182.826 76.1477 182.659C76.5 182.492 76.7746 182.258 76.9716 181.955C77.1723 181.652 77.2727 181.295 77.2727 180.886C77.2727 180.492 77.1856 180.15 77.0114 179.858C76.8371 179.566 76.5909 179.339 76.2727 179.176C75.9583 179.013 75.5871 178.932 75.1591 178.932C74.7576 178.932 74.3788 179.006 74.0227 179.153C73.6705 179.297 73.3826 179.508 73.1591 179.784C72.9356 180.057 72.8144 180.386 72.7955 180.773H71.4318C71.4545 180.163 71.6383 179.629 71.983 179.17C72.3277 178.708 72.7784 178.348 73.3352 178.091C73.8958 177.833 74.5114 177.705 75.1818 177.705C75.9015 177.705 76.5189 177.85 77.0341 178.142C77.5492 178.43 77.9451 178.811 78.2216 179.284C78.4981 179.758 78.6364 180.269 78.6364 180.818C78.6364 181.473 78.464 182.032 78.1193 182.494C77.7784 182.956 77.3144 183.277 76.7273 183.455V183.545C77.4621 183.667 78.036 183.979 78.4489 184.483C78.8617 184.983 79.0682 185.602 79.0682 186.341C79.0682 186.973 78.8958 187.542 78.5511 188.045C78.2102 188.545 77.7443 188.939 77.1534 189.227C76.5625 189.515 75.8902 189.659 75.1364 189.659ZM81.7557 189.5L86.9602 179.205V179.114H80.9602V177.864H88.4148V179.182L83.233 189.5H81.7557Z" fill="#0078FC"/>
      <rect x="161" y="113" width="30" height="30" rx="15" fill="white"/>
      <rect x="161" y="113" width="30" height="30" rx="15" stroke="black" stroke-width="2"/>
      <path d="M172.295 121.864V133.5H170.886V123.341H170.818L167.977 125.227V123.795L170.886 121.864H172.295ZM175.642 133.5V132.477L179.483 128.273C179.934 127.78 180.305 127.352 180.597 126.989C180.888 126.621 181.104 126.277 181.244 125.955C181.388 125.629 181.46 125.288 181.46 124.932C181.46 124.523 181.362 124.169 181.165 123.869C180.972 123.57 180.706 123.339 180.369 123.176C180.032 123.013 179.653 122.932 179.233 122.932C178.786 122.932 178.396 123.025 178.062 123.21C177.733 123.392 177.477 123.648 177.295 123.977C177.117 124.307 177.028 124.693 177.028 125.136H175.688C175.688 124.455 175.845 123.856 176.159 123.341C176.473 122.826 176.902 122.424 177.443 122.136C177.989 121.848 178.6 121.705 179.278 121.705C179.96 121.705 180.564 121.848 181.091 122.136C181.617 122.424 182.03 122.812 182.33 123.301C182.629 123.79 182.778 124.333 182.778 124.932C182.778 125.36 182.701 125.778 182.545 126.188C182.394 126.593 182.129 127.045 181.75 127.545C181.375 128.042 180.854 128.648 180.188 129.364L177.574 132.159V132.25H182.983V133.5H175.642Z" fill="black"/>
      <rect x="225" y="113" width="30" height="30" rx="15" fill="white"/>
      <rect x="225" y="113" width="30" height="30" rx="15" stroke="black" stroke-width="2"/>
      <path d="M241.295 121.864V133.5H239.886V123.341H239.818L236.977 125.227V123.795L239.886 121.864H241.295Z" fill="black"/>
      <rect x="65" y="57" width="30" height="30" rx="15" fill="white"/>
      <rect x="65" y="57" width="30" height="30" rx="15" stroke="black" stroke-width="2"/>
      <path d="M75.1364 77.6591C74.3864 77.6591 73.7178 77.5303 73.1307 77.2727C72.5473 77.0152 72.0833 76.6572 71.7386 76.1989C71.3977 75.7367 71.2121 75.2008 71.1818 74.5909H72.6136C72.6439 74.9659 72.7727 75.2898 73 75.5625C73.2273 75.8314 73.5246 76.0398 73.892 76.1875C74.2595 76.3352 74.6667 76.4091 75.1136 76.4091C75.6136 76.4091 76.0568 76.322 76.4432 76.1477C76.8295 75.9735 77.1326 75.7311 77.3523 75.4205C77.572 75.1098 77.6818 74.75 77.6818 74.3409C77.6818 73.9129 77.5758 73.536 77.3636 73.2102C77.1515 72.8807 76.8409 72.6231 76.4318 72.4375C76.0227 72.2519 75.5227 72.1591 74.9318 72.1591H74V70.9091H74.9318C75.3939 70.9091 75.7992 70.8258 76.1477 70.6591C76.5 70.4924 76.7746 70.2576 76.9716 69.9545C77.1723 69.6515 77.2727 69.2955 77.2727 68.8864C77.2727 68.4924 77.1856 68.1496 77.0114 67.858C76.8371 67.5663 76.5909 67.339 76.2727 67.1761C75.9583 67.0133 75.5871 66.9318 75.1591 66.9318C74.7576 66.9318 74.3788 67.0057 74.0227 67.1534C73.6705 67.2973 73.3826 67.5076 73.1591 67.7841C72.9356 68.0568 72.8144 68.3864 72.7955 68.7727H71.4318C71.4545 68.1629 71.6383 67.6288 71.983 67.1705C72.3277 66.7083 72.7784 66.3485 73.3352 66.0909C73.8958 65.8333 74.5114 65.7045 75.1818 65.7045C75.9015 65.7045 76.5189 65.8504 77.0341 66.142C77.5492 66.4299 77.9451 66.8106 78.2216 67.2841C78.4981 67.7576 78.6364 68.2689 78.6364 68.8182C78.6364 69.4735 78.464 70.0322 78.1193 70.4943C77.7784 70.9564 77.3144 71.2765 76.7273 71.4545V71.5455C77.4621 71.6667 78.036 71.9792 78.4489 72.483C78.8617 72.983 79.0682 73.6023 79.0682 74.3409C79.0682 74.9735 78.8958 75.5417 78.5511 76.0455C78.2102 76.5455 77.7443 76.9394 77.1534 77.2273C76.5625 77.5152 75.8902 77.6591 75.1364 77.6591ZM81.392 77.5V76.4773L85.233 72.2727C85.6837 71.7803 86.0549 71.3523 86.3466 70.9886C86.6383 70.6212 86.8542 70.2765 86.9943 69.9545C87.1383 69.6288 87.2102 69.2879 87.2102 68.9318C87.2102 68.5227 87.1117 68.1686 86.9148 67.8693C86.7216 67.5701 86.4564 67.339 86.1193 67.1761C85.7822 67.0133 85.4034 66.9318 84.983 66.9318C84.536 66.9318 84.1458 67.0246 83.8125 67.2102C83.483 67.392 83.2273 67.6477 83.0455 67.9773C82.8674 68.3068 82.7784 68.6932 82.7784 69.1364H81.4375C81.4375 68.4545 81.5947 67.8561 81.9091 67.3409C82.2235 66.8258 82.6515 66.4242 83.1932 66.1364C83.7386 65.8485 84.3504 65.7045 85.0284 65.7045C85.7102 65.7045 86.3144 65.8485 86.8409 66.1364C87.3674 66.4242 87.7803 66.8125 88.0795 67.3011C88.3788 67.7898 88.5284 68.3333 88.5284 68.9318C88.5284 69.3598 88.4508 69.7784 88.2955 70.1875C88.1439 70.5928 87.8788 71.0455 87.5 71.5455C87.125 72.0417 86.6042 72.6477 85.9375 73.3636L83.3239 76.1591V76.25H88.733V77.5H81.392Z" fill="black"/>
      <rect x="129" y="1" width="30" height="30" rx="15" fill="white"/>
      <rect x="129" y="1" width="30" height="30" rx="15" stroke="black" stroke-width="2"/>
      <path d="M135.568 21.5L140.773 11.2045V11.1136H134.773V9.86364H142.227V11.1818L137.045 21.5H135.568ZM148.011 21.6591C147.261 21.6591 146.593 21.5303 146.006 21.2727C145.422 21.0152 144.958 20.6572 144.614 20.1989C144.273 19.7367 144.087 19.2008 144.057 18.5909H145.489C145.519 18.9659 145.648 19.2898 145.875 19.5625C146.102 19.8314 146.4 20.0398 146.767 20.1875C147.134 20.3352 147.542 20.4091 147.989 20.4091C148.489 20.4091 148.932 20.322 149.318 20.1477C149.705 19.9735 150.008 19.7311 150.227 19.4205C150.447 19.1098 150.557 18.75 150.557 18.3409C150.557 17.9129 150.451 17.536 150.239 17.2102C150.027 16.8807 149.716 16.6231 149.307 16.4375C148.898 16.2519 148.398 16.1591 147.807 16.1591H146.875V14.9091H147.807C148.269 14.9091 148.674 14.8258 149.023 14.6591C149.375 14.4924 149.65 14.2576 149.847 13.9545C150.047 13.6515 150.148 13.2955 150.148 12.8864C150.148 12.4924 150.061 12.1496 149.886 11.858C149.712 11.5663 149.466 11.339 149.148 11.1761C148.833 11.0133 148.462 10.9318 148.034 10.9318C147.633 10.9318 147.254 11.0057 146.898 11.1534C146.545 11.2973 146.258 11.5076 146.034 11.7841C145.811 12.0568 145.689 12.3864 145.67 12.7727H144.307C144.33 12.1629 144.513 11.6288 144.858 11.1705C145.203 10.7083 145.653 10.3485 146.21 10.0909C146.771 9.83333 147.386 9.70455 148.057 9.70455C148.777 9.70455 149.394 9.85038 149.909 10.142C150.424 10.4299 150.82 10.8106 151.097 11.2841C151.373 11.7576 151.511 12.2689 151.511 12.8182C151.511 13.4735 151.339 14.0322 150.994 14.4943C150.653 14.9564 150.189 15.2765 149.602 15.4545V15.5455C150.337 15.6667 150.911 15.9792 151.324 16.483C151.737 16.983 151.943 17.6023 151.943 18.3409C151.943 18.9735 151.771 19.5417 151.426 20.0455C151.085 20.5455 150.619 20.9394 150.028 21.2273C149.438 21.5152 148.765 21.6591 148.011 21.6591Z" fill="black"/>
      <rect x="193" y="57" width="30" height="30" rx="15" fill="white"/>
      <rect x="193" y="57" width="30" height="30" rx="15" stroke="black" stroke-width="2"/>
      <path d="M204.295 65.8636V77.5H202.886V67.3409H202.818L199.977 69.2273V67.7955L202.886 65.8636H204.295ZM211.347 65.7045C211.824 65.7083 212.301 65.7992 212.778 65.9773C213.256 66.1553 213.691 66.4508 214.085 66.8636C214.479 67.2727 214.795 67.8314 215.034 68.5398C215.273 69.2481 215.392 70.1364 215.392 71.2045C215.392 72.2386 215.294 73.1572 215.097 73.9602C214.903 74.7595 214.623 75.4337 214.256 75.983C213.892 76.5322 213.449 76.9489 212.926 77.233C212.407 77.517 211.82 77.6591 211.165 77.6591C210.513 77.6591 209.932 77.5303 209.42 77.2727C208.913 77.0114 208.496 76.6496 208.17 76.1875C207.848 75.7216 207.642 75.1818 207.551 74.5682H208.938C209.062 75.1023 209.311 75.5436 209.682 75.892C210.057 76.2367 210.551 76.4091 211.165 76.4091C212.063 76.4091 212.771 76.017 213.29 75.233C213.813 74.4489 214.074 73.3409 214.074 71.9091H213.983C213.771 72.2273 213.519 72.5019 213.227 72.733C212.936 72.964 212.612 73.142 212.256 73.267C211.9 73.392 211.521 73.4545 211.119 73.4545C210.453 73.4545 209.841 73.2898 209.284 72.9602C208.731 72.6269 208.288 72.1705 207.955 71.5909C207.625 71.0076 207.46 70.3409 207.46 69.5909C207.46 68.8788 207.619 68.2273 207.938 67.6364C208.259 67.0417 208.71 66.5682 209.29 66.2159C209.873 65.8636 210.559 65.6932 211.347 65.7045ZM211.347 66.9545C210.869 66.9545 210.439 67.0739 210.057 67.3125C209.678 67.5473 209.377 67.8655 209.153 68.267C208.934 68.6648 208.824 69.1061 208.824 69.5909C208.824 70.0758 208.93 70.517 209.142 70.9148C209.358 71.3087 209.652 71.6231 210.023 71.858C210.398 72.089 210.824 72.2045 211.301 72.2045C211.661 72.2045 211.996 72.1345 212.307 71.9943C212.617 71.8504 212.888 71.6553 213.119 71.4091C213.354 71.1591 213.538 70.8769 213.67 70.5625C213.803 70.2443 213.869 69.9129 213.869 69.5682C213.869 69.1136 213.759 68.6875 213.54 68.2898C213.324 67.892 213.025 67.5701 212.642 67.3239C212.263 67.0777 211.831 66.9545 211.347 66.9545Z" fill="black"/>
    </g>
    <g clip-path="url(#clip2_335_111)">
      <path d="M336 128L368 72" stroke="black" stroke-width="2" stroke-linecap="round"/>
      <path d="M432 16L368 72" stroke="black" stroke-width="2" stroke-linecap="round"/>
      <path d="M432 16L496 72" stroke="black" stroke-width="2" stroke-linecap="round"/>
      <path d="M400 128L368 72" stroke="black" stroke-width="2" stroke-linecap="round"/>
      <path d="M528 128L496 72" stroke="black" stroke-width="2" stroke-linecap="round"/>
      <path d="M464 128L496 72" stroke="black" stroke-width="2" stroke-linecap="round"/>
      <path d="M304 184L336 128" stroke="black" stroke-width="2" stroke-linecap="round"/>
      <path d="M368 184L336 128" stroke="#F5332B" stroke-width="2" stroke-linecap="round"/>
      <rect x="321" y="113" width="30" height="30" rx="15" fill="white"/>
      <rect x="321" y="113" width="30" height="30" rx="15" stroke="#0078FC" stroke-width="2"/>
      <path d="M331.136 133.659C330.386 133.659 329.718 133.53 329.131 133.273C328.547 133.015 328.083 132.657 327.739 132.199C327.398 131.737 327.212 131.201 327.182 130.591H328.614C328.644 130.966 328.773 131.29 329 131.562C329.227 131.831 329.525 132.04 329.892 132.188C330.259 132.335 330.667 132.409 331.114 132.409C331.614 132.409 332.057 132.322 332.443 132.148C332.83 131.973 333.133 131.731 333.352 131.42C333.572 131.11 333.682 130.75 333.682 130.341C333.682 129.913 333.576 129.536 333.364 129.21C333.152 128.881 332.841 128.623 332.432 128.438C332.023 128.252 331.523 128.159 330.932 128.159H330V126.909H330.932C331.394 126.909 331.799 126.826 332.148 126.659C332.5 126.492 332.775 126.258 332.972 125.955C333.172 125.652 333.273 125.295 333.273 124.886C333.273 124.492 333.186 124.15 333.011 123.858C332.837 123.566 332.591 123.339 332.273 123.176C331.958 123.013 331.587 122.932 331.159 122.932C330.758 122.932 330.379 123.006 330.023 123.153C329.67 123.297 329.383 123.508 329.159 123.784C328.936 124.057 328.814 124.386 328.795 124.773H327.432C327.455 124.163 327.638 123.629 327.983 123.17C328.328 122.708 328.778 122.348 329.335 122.091C329.896 121.833 330.511 121.705 331.182 121.705C331.902 121.705 332.519 121.85 333.034 122.142C333.549 122.43 333.945 122.811 334.222 123.284C334.498 123.758 334.636 124.269 334.636 124.818C334.636 125.473 334.464 126.032 334.119 126.494C333.778 126.956 333.314 127.277 332.727 127.455V127.545C333.462 127.667 334.036 127.979 334.449 128.483C334.862 128.983 335.068 129.602 335.068 130.341C335.068 130.973 334.896 131.542 334.551 132.045C334.21 132.545 333.744 132.939 333.153 133.227C332.563 133.515 331.89 133.659 331.136 133.659ZM337.756 133.5L342.96 123.205V123.114H336.96V121.864H344.415V123.182L339.233 133.5H337.756Z" fill="#0078FC"/>
      <rect x="385" y="113" width="30" height="30" rx="15" fill="white"/>
      <rect x="385" y="113" width="30" height="30" rx="15" stroke="black" stroke-width="2"/>
      <path d="M399.909 121.705C400.386 121.708 400.864 121.799 401.341 121.977C401.818 122.155 402.254 122.451 402.648 122.864C403.042 123.273 403.358 123.831 403.597 124.54C403.835 125.248 403.955 126.136 403.955 127.205C403.955 128.239 403.856 129.157 403.659 129.96C403.466 130.759 403.186 131.434 402.818 131.983C402.455 132.532 402.011 132.949 401.489 133.233C400.97 133.517 400.383 133.659 399.727 133.659C399.076 133.659 398.494 133.53 397.983 133.273C397.475 133.011 397.059 132.65 396.733 132.188C396.411 131.722 396.205 131.182 396.114 130.568H397.5C397.625 131.102 397.873 131.544 398.244 131.892C398.619 132.237 399.114 132.409 399.727 132.409C400.625 132.409 401.333 132.017 401.852 131.233C402.375 130.449 402.636 129.341 402.636 127.909H402.545C402.333 128.227 402.081 128.502 401.79 128.733C401.498 128.964 401.174 129.142 400.818 129.267C400.462 129.392 400.083 129.455 399.682 129.455C399.015 129.455 398.403 129.29 397.847 128.96C397.294 128.627 396.85 128.17 396.517 127.591C396.188 127.008 396.023 126.341 396.023 125.591C396.023 124.879 396.182 124.227 396.5 123.636C396.822 123.042 397.273 122.568 397.852 122.216C398.436 121.864 399.121 121.693 399.909 121.705ZM399.909 122.955C399.432 122.955 399.002 123.074 398.619 123.312C398.241 123.547 397.939 123.866 397.716 124.267C397.496 124.665 397.386 125.106 397.386 125.591C397.386 126.076 397.492 126.517 397.705 126.915C397.92 127.309 398.214 127.623 398.585 127.858C398.96 128.089 399.386 128.205 399.864 128.205C400.223 128.205 400.559 128.134 400.869 127.994C401.18 127.85 401.451 127.655 401.682 127.409C401.917 127.159 402.1 126.877 402.233 126.562C402.366 126.244 402.432 125.913 402.432 125.568C402.432 125.114 402.322 124.687 402.102 124.29C401.886 123.892 401.587 123.57 401.205 123.324C400.826 123.078 400.394 122.955 399.909 122.955Z" fill="black"/>
      <rect x="289" y="169" width="30" height="30" rx="15" fill="white"/>
      <rect x="289" y="169" width="30" height="30" rx="15" stroke="black" stroke-width="2"/>
      <path d="M300.568 189.5L305.773 179.205V179.114H299.773V177.864H307.227V179.182L302.045 189.5H300.568Z" fill="black"/>
      <rect x="353" y="169" width="30" height="30" rx="15" fill="white"/>
      <rect x="353" y="169" width="30" height="30" rx="15" stroke="#F5332B" stroke-width="2"/>
      <path d="M360.205 189.5V188.477L364.045 184.273C364.496 183.78 364.867 183.352 365.159 182.989C365.451 182.621 365.667 182.277 365.807 181.955C365.951 181.629 366.023 181.288 366.023 180.932C366.023 180.523 365.924 180.169 365.727 179.869C365.534 179.57 365.269 179.339 364.932 179.176C364.595 179.013 364.216 178.932 363.795 178.932C363.348 178.932 362.958 179.025 362.625 179.21C362.295 179.392 362.04 179.648 361.858 179.977C361.68 180.307 361.591 180.693 361.591 181.136H360.25C360.25 180.455 360.407 179.856 360.722 179.341C361.036 178.826 361.464 178.424 362.006 178.136C362.551 177.848 363.163 177.705 363.841 177.705C364.523 177.705 365.127 177.848 365.653 178.136C366.18 178.424 366.593 178.812 366.892 179.301C367.191 179.79 367.341 180.333 367.341 180.932C367.341 181.36 367.263 181.778 367.108 182.188C366.956 182.593 366.691 183.045 366.312 183.545C365.938 184.042 365.417 184.648 364.75 185.364L362.136 188.159V188.25H367.545V189.5H360.205ZM373.983 177.864V189.5H372.574V179.341H372.506L369.665 181.227V179.795L372.574 177.864H373.983Z" fill="#F5332B"/>
      <rect x="449" y="113" width="30" height="30" rx="15" fill="white"/>
      <rect x="449" y="113" width="30" height="30" rx="15" stroke="black" stroke-width="2"/>
      <path d="M460.295 121.864V133.5H458.886V123.341H458.818L455.977 125.227V123.795L458.886 121.864H460.295ZM463.642 133.5V132.477L467.483 128.273C467.934 127.78 468.305 127.352 468.597 126.989C468.888 126.621 469.104 126.277 469.244 125.955C469.388 125.629 469.46 125.288 469.46 124.932C469.46 124.523 469.362 124.169 469.165 123.869C468.972 123.57 468.706 123.339 468.369 123.176C468.032 123.013 467.653 122.932 467.233 122.932C466.786 122.932 466.396 123.025 466.062 123.21C465.733 123.392 465.477 123.648 465.295 123.977C465.117 124.307 465.028 124.693 465.028 125.136H463.688C463.688 124.455 463.845 123.856 464.159 123.341C464.473 122.826 464.902 122.424 465.443 122.136C465.989 121.848 466.6 121.705 467.278 121.705C467.96 121.705 468.564 121.848 469.091 122.136C469.617 122.424 470.03 122.812 470.33 123.301C470.629 123.79 470.778 124.333 470.778 124.932C470.778 125.36 470.701 125.778 470.545 126.188C470.394 126.593 470.129 127.045 469.75 127.545C469.375 128.042 468.854 128.648 468.188 129.364L465.574 132.159V132.25H470.983V133.5H463.642Z" fill="black"/>
      <rect x="513" y="113" width="30" height="30" rx="15" fill="white"/>
      <rect x="513" y="113" width="30" height="30" rx="15" stroke="black" stroke-width="2"/>
      <path d="M529.295 121.864V133.5H527.886V123.341H527.818L524.977 125.227V123.795L527.886 121.864H529.295Z" fill="black"/>
      <rect x="353" y="57" width="30" height="30" rx="15" fill="white"/>
      <rect x="353" y="57" width="30" height="30" rx="15" stroke="black" stroke-width="2"/>
      <path d="M363.136 77.6591C362.386 77.6591 361.718 77.5303 361.131 77.2727C360.547 77.0152 360.083 76.6572 359.739 76.1989C359.398 75.7367 359.212 75.2008 359.182 74.5909H360.614C360.644 74.9659 360.773 75.2898 361 75.5625C361.227 75.8314 361.525 76.0398 361.892 76.1875C362.259 76.3352 362.667 76.4091 363.114 76.4091C363.614 76.4091 364.057 76.322 364.443 76.1477C364.83 75.9735 365.133 75.7311 365.352 75.4205C365.572 75.1098 365.682 74.75 365.682 74.3409C365.682 73.9129 365.576 73.536 365.364 73.2102C365.152 72.8807 364.841 72.6231 364.432 72.4375C364.023 72.2519 363.523 72.1591 362.932 72.1591H362V70.9091H362.932C363.394 70.9091 363.799 70.8258 364.148 70.6591C364.5 70.4924 364.775 70.2576 364.972 69.9545C365.172 69.6515 365.273 69.2955 365.273 68.8864C365.273 68.4924 365.186 68.1496 365.011 67.858C364.837 67.5663 364.591 67.339 364.273 67.1761C363.958 67.0133 363.587 66.9318 363.159 66.9318C362.758 66.9318 362.379 67.0057 362.023 67.1534C361.67 67.2973 361.383 67.5076 361.159 67.7841C360.936 68.0568 360.814 68.3864 360.795 68.7727H359.432C359.455 68.1629 359.638 67.6288 359.983 67.1705C360.328 66.7083 360.778 66.3485 361.335 66.0909C361.896 65.8333 362.511 65.7045 363.182 65.7045C363.902 65.7045 364.519 65.8504 365.034 66.142C365.549 66.4299 365.945 66.8106 366.222 67.2841C366.498 67.7576 366.636 68.2689 366.636 68.8182C366.636 69.4735 366.464 70.0322 366.119 70.4943C365.778 70.9564 365.314 71.2765 364.727 71.4545V71.5455C365.462 71.6667 366.036 71.9792 366.449 72.483C366.862 72.983 367.068 73.6023 367.068 74.3409C367.068 74.9735 366.896 75.5417 366.551 76.0455C366.21 76.5455 365.744 76.9394 365.153 77.2273C364.563 77.5152 363.89 77.6591 363.136 77.6591ZM369.392 77.5V76.4773L373.233 72.2727C373.684 71.7803 374.055 71.3523 374.347 70.9886C374.638 70.6212 374.854 70.2765 374.994 69.9545C375.138 69.6288 375.21 69.2879 375.21 68.9318C375.21 68.5227 375.112 68.1686 374.915 67.8693C374.722 67.5701 374.456 67.339 374.119 67.1761C373.782 67.0133 373.403 66.9318 372.983 66.9318C372.536 66.9318 372.146 67.0246 371.812 67.2102C371.483 67.392 371.227 67.6477 371.045 67.9773C370.867 68.3068 370.778 68.6932 370.778 69.1364H369.438C369.438 68.4545 369.595 67.8561 369.909 67.3409C370.223 66.8258 370.652 66.4242 371.193 66.1364C371.739 65.8485 372.35 65.7045 373.028 65.7045C373.71 65.7045 374.314 65.8485 374.841 66.1364C375.367 66.4242 375.78 66.8125 376.08 67.3011C376.379 67.7898 376.528 68.3333 376.528 68.9318C376.528 69.3598 376.451 69.7784 376.295 70.1875C376.144 70.5928 375.879 71.0455 375.5 71.5455C375.125 72.0417 374.604 72.6477 373.938 73.3636L371.324 76.1591V76.25H376.733V77.5H369.392Z" fill="black"/>
      <rect x="417" y="1" width="30" height="30" rx="15" fill="white"/>
      <rect x="417" y="1" width="30" height="30" rx="15" stroke="black" stroke-width="2"/>
      <path d="M423.568 21.5L428.773 11.2045V11.1136H422.773V9.86364H430.227V11.1818L425.045 21.5H423.568ZM436.011 21.6591C435.261 21.6591 434.593 21.5303 434.006 21.2727C433.422 21.0152 432.958 20.6572 432.614 20.1989C432.273 19.7367 432.087 19.2008 432.057 18.5909H433.489C433.519 18.9659 433.648 19.2898 433.875 19.5625C434.102 19.8314 434.4 20.0398 434.767 20.1875C435.134 20.3352 435.542 20.4091 435.989 20.4091C436.489 20.4091 436.932 20.322 437.318 20.1477C437.705 19.9735 438.008 19.7311 438.227 19.4205C438.447 19.1098 438.557 18.75 438.557 18.3409C438.557 17.9129 438.451 17.536 438.239 17.2102C438.027 16.8807 437.716 16.6231 437.307 16.4375C436.898 16.2519 436.398 16.1591 435.807 16.1591H434.875V14.9091H435.807C436.269 14.9091 436.674 14.8258 437.023 14.6591C437.375 14.4924 437.65 14.2576 437.847 13.9545C438.047 13.6515 438.148 13.2955 438.148 12.8864C438.148 12.4924 438.061 12.1496 437.886 11.858C437.712 11.5663 437.466 11.339 437.148 11.1761C436.833 11.0133 436.462 10.9318 436.034 10.9318C435.633 10.9318 435.254 11.0057 434.898 11.1534C434.545 11.2973 434.258 11.5076 434.034 11.7841C433.811 12.0568 433.689 12.3864 433.67 12.7727H432.307C432.33 12.1629 432.513 11.6288 432.858 11.1705C433.203 10.7083 433.653 10.3485 434.21 10.0909C434.771 9.83333 435.386 9.70455 436.057 9.70455C436.777 9.70455 437.394 9.85038 437.909 10.142C438.424 10.4299 438.82 10.8106 439.097 11.2841C439.373 11.7576 439.511 12.2689 439.511 12.8182C439.511 13.4735 439.339 14.0322 438.994 14.4943C438.653 14.9564 438.189 15.2765 437.602 15.4545V15.5455C438.337 15.6667 438.911 15.9792 439.324 16.483C439.737 16.983 439.943 17.6023 439.943 18.3409C439.943 18.9735 439.771 19.5417 439.426 20.0455C439.085 20.5455 438.619 20.9394 438.028 21.2273C437.438 21.5152 436.765 21.6591 436.011 21.6591Z" fill="black"/>
      <rect x="481" y="57" width="30" height="30" rx="15" fill="white"/>
      <rect x="481" y="57" width="30" height="30" rx="15" stroke="black" stroke-width="2"/>
      <path d="M492.295 65.8636V77.5H490.886V67.3409H490.818L487.977 69.2273V67.7955L490.886 65.8636H492.295ZM499.347 65.7045C499.824 65.7083 500.301 65.7992 500.778 65.9773C501.256 66.1553 501.691 66.4508 502.085 66.8636C502.479 67.2727 502.795 67.8314 503.034 68.5398C503.273 69.2481 503.392 70.1364 503.392 71.2045C503.392 72.2386 503.294 73.1572 503.097 73.9602C502.903 74.7595 502.623 75.4337 502.256 75.983C501.892 76.5322 501.449 76.9489 500.926 77.233C500.407 77.517 499.82 77.6591 499.165 77.6591C498.513 77.6591 497.932 77.5303 497.42 77.2727C496.913 77.0114 496.496 76.6496 496.17 76.1875C495.848 75.7216 495.642 75.1818 495.551 74.5682H496.938C497.062 75.1023 497.311 75.5436 497.682 75.892C498.057 76.2367 498.551 76.4091 499.165 76.4091C500.063 76.4091 500.771 76.017 501.29 75.233C501.813 74.4489 502.074 73.3409 502.074 71.9091H501.983C501.771 72.2273 501.519 72.5019 501.227 72.733C500.936 72.964 500.612 73.142 500.256 73.267C499.9 73.392 499.521 73.4545 499.119 73.4545C498.453 73.4545 497.841 73.2898 497.284 72.9602C496.731 72.6269 496.288 72.1705 495.955 71.5909C495.625 71.0076 495.46 70.3409 495.46 69.5909C495.46 68.8788 495.619 68.2273 495.938 67.6364C496.259 67.0417 496.71 66.5682 497.29 66.2159C497.873 65.8636 498.559 65.6932 499.347 65.7045ZM499.347 66.9545C498.869 66.9545 498.439 67.0739 498.057 67.3125C497.678 67.5473 497.377 67.8655 497.153 68.267C496.934 68.6648 496.824 69.1061 496.824 69.5909C496.824 70.0758 496.93 70.517 497.142 70.9148C497.358 71.3087 497.652 71.6231 498.023 71.858C498.398 72.089 498.824 72.2045 499.301 72.2045C499.661 72.2045 499.996 72.1345 500.307 71.9943C500.617 71.8504 500.888 71.6553 501.119 71.4091C501.354 71.1591 501.538 70.8769 501.67 70.5625C501.803 70.2443 501.869 69.9129 501.869 69.5682C501.869 69.1136 501.759 68.6875 501.54 68.2898C501.324 67.892 501.025 67.5701 500.642 67.3239C500.263 67.0777 499.831 66.9545 499.347 66.9545Z" fill="black"/>
    </g>
    <g clip-path="url(#clip3_335_111)">
      <path d="M624 128L656 72" stroke="#F5332B" stroke-width="2" stroke-linecap="round"/>
      <path d="M720 16L656 72" stroke="black" stroke-width="2" stroke-linecap="round"/>
      <path d="M720 16L784 72" stroke="black" stroke-width="2" stroke-linecap="round"/>
      <path d="M688 128L656 72" stroke="black" stroke-width="2" stroke-linecap="round"/>
      <path d="M816 128L784 72" stroke="black" stroke-width="2" stroke-linecap="round"/>
      <path d="M752 128L784 72" stroke="black" stroke-width="2" stroke-linecap="round"/>
      <path d="M592 184L624 128" stroke="black" stroke-width="2" stroke-linecap="round"/>
      <path d="M656 184L624 128" stroke="#F5332B" stroke-width="2" stroke-linecap="round"/>
      <rect x="609" y="113" width="30" height="30" rx="15" fill="white"/>
      <rect x="609" y="113" width="30" height="30" rx="15" stroke="#F5332B" stroke-width="2"/>
      <path d="M619.136 133.659C618.386 133.659 617.718 133.53 617.131 133.273C616.547 133.015 616.083 132.657 615.739 132.199C615.398 131.737 615.212 131.201 615.182 130.591H616.614C616.644 130.966 616.773 131.29 617 131.562C617.227 131.831 617.525 132.04 617.892 132.188C618.259 132.335 618.667 132.409 619.114 132.409C619.614 132.409 620.057 132.322 620.443 132.148C620.83 131.973 621.133 131.731 621.352 131.42C621.572 131.11 621.682 130.75 621.682 130.341C621.682 129.913 621.576 129.536 621.364 129.21C621.152 128.881 620.841 128.623 620.432 128.438C620.023 128.252 619.523 128.159 618.932 128.159H618V126.909H618.932C619.394 126.909 619.799 126.826 620.148 126.659C620.5 126.492 620.775 126.258 620.972 125.955C621.172 125.652 621.273 125.295 621.273 124.886C621.273 124.492 621.186 124.15 621.011 123.858C620.837 123.566 620.591 123.339 620.273 123.176C619.958 123.013 619.587 122.932 619.159 122.932C618.758 122.932 618.379 123.006 618.023 123.153C617.67 123.297 617.383 123.508 617.159 123.784C616.936 124.057 616.814 124.386 616.795 124.773H615.432C615.455 124.163 615.638 123.629 615.983 123.17C616.328 122.708 616.778 122.348 617.335 122.091C617.896 121.833 618.511 121.705 619.182 121.705C619.902 121.705 620.519 121.85 621.034 122.142C621.549 122.43 621.945 122.811 622.222 123.284C622.498 123.758 622.636 124.269 622.636 124.818C622.636 125.473 622.464 126.032 622.119 126.494C621.778 126.956 621.314 127.277 620.727 127.455V127.545C621.462 127.667 622.036 127.979 622.449 128.483C622.862 128.983 623.068 129.602 623.068 130.341C623.068 130.973 622.896 131.542 622.551 132.045C622.21 132.545 621.744 132.939 621.153 133.227C620.563 133.515 619.89 133.659 619.136 133.659ZM625.392 133.5V132.477L629.233 128.273C629.684 127.78 630.055 127.352 630.347 126.989C630.638 126.621 630.854 126.277 630.994 125.955C631.138 125.629 631.21 125.288 631.21 124.932C631.21 124.523 631.112 124.169 630.915 123.869C630.722 123.57 630.456 123.339 630.119 123.176C629.782 123.013 629.403 122.932 628.983 122.932C628.536 122.932 628.146 123.025 627.812 123.21C627.483 123.392 627.227 123.648 627.045 123.977C626.867 124.307 626.778 124.693 626.778 125.136H625.438C625.438 124.455 625.595 123.856 625.909 123.341C626.223 122.826 626.652 122.424 627.193 122.136C627.739 121.848 628.35 121.705 629.028 121.705C629.71 121.705 630.314 121.848 630.841 122.136C631.367 122.424 631.78 122.812 632.08 123.301C632.379 123.79 632.528 124.333 632.528 124.932C632.528 125.36 632.451 125.778 632.295 126.188C632.144 126.593 631.879 127.045 631.5 127.545C631.125 128.042 630.604 128.648 629.938 129.364L627.324 132.159V132.25H632.733V133.5H625.392Z" fill="#F5332B"/>
      <rect x="673" y="113" width="30" height="30" rx="15" fill="white"/>
      <rect x="673" y="113" width="30" height="30" rx="15" stroke="black" stroke-width="2"/>
      <path d="M687.909 121.705C688.386 121.708 688.864 121.799 689.341 121.977C689.818 122.155 690.254 122.451 690.648 122.864C691.042 123.273 691.358 123.831 691.597 124.54C691.835 125.248 691.955 126.136 691.955 127.205C691.955 128.239 691.856 129.157 691.659 129.96C691.466 130.759 691.186 131.434 690.818 131.983C690.455 132.532 690.011 132.949 689.489 133.233C688.97 133.517 688.383 133.659 687.727 133.659C687.076 133.659 686.494 133.53 685.983 133.273C685.475 133.011 685.059 132.65 684.733 132.188C684.411 131.722 684.205 131.182 684.114 130.568H685.5C685.625 131.102 685.873 131.544 686.244 131.892C686.619 132.237 687.114 132.409 687.727 132.409C688.625 132.409 689.333 132.017 689.852 131.233C690.375 130.449 690.636 129.341 690.636 127.909H690.545C690.333 128.227 690.081 128.502 689.79 128.733C689.498 128.964 689.174 129.142 688.818 129.267C688.462 129.392 688.083 129.455 687.682 129.455C687.015 129.455 686.403 129.29 685.847 128.96C685.294 128.627 684.85 128.17 684.517 127.591C684.188 127.008 684.023 126.341 684.023 125.591C684.023 124.879 684.182 124.227 684.5 123.636C684.822 123.042 685.273 122.568 685.852 122.216C686.436 121.864 687.121 121.693 687.909 121.705ZM687.909 122.955C687.432 122.955 687.002 123.074 686.619 123.312C686.241 123.547 685.939 123.866 685.716 124.267C685.496 124.665 685.386 125.106 685.386 125.591C685.386 126.076 685.492 126.517 685.705 126.915C685.92 127.309 686.214 127.623 686.585 127.858C686.96 128.089 687.386 128.205 687.864 128.205C688.223 128.205 688.559 128.134 688.869 127.994C689.18 127.85 689.451 127.655 689.682 127.409C689.917 127.159 690.1 126.877 690.233 126.562C690.366 126.244 690.432 125.913 690.432 125.568C690.432 125.114 690.322 124.687 690.102 124.29C689.886 123.892 689.587 123.57 689.205 123.324C688.826 123.078 688.394 122.955 687.909 122.955Z" fill="black"/>
      <rect x="577" y="169" width="30" height="30" rx="15" fill="white"/>
      <rect x="577" y="169" width="30" height="30" rx="15" stroke="black" stroke-width="2"/>
      <path d="M588.568 189.5L593.773 179.205V179.114H587.773V177.864H595.227V179.182L590.045 189.5H588.568Z" fill="black"/>
      <rect x="641" y="169" width="30" height="30" rx="15" fill="white"/>
      <rect x="641" y="169" width="30" height="30" rx="15" stroke="#F5332B" stroke-width="2"/>
      <path d="M648.205 189.5V188.477L652.045 184.273C652.496 183.78 652.867 183.352 653.159 182.989C653.451 182.621 653.667 182.277 653.807 181.955C653.951 181.629 654.023 181.288 654.023 180.932C654.023 180.523 653.924 180.169 653.727 179.869C653.534 179.57 653.269 179.339 652.932 179.176C652.595 179.013 652.216 178.932 651.795 178.932C651.348 178.932 650.958 179.025 650.625 179.21C650.295 179.392 650.04 179.648 649.858 179.977C649.68 180.307 649.591 180.693 649.591 181.136H648.25C648.25 180.455 648.407 179.856 648.722 179.341C649.036 178.826 649.464 178.424 650.006 178.136C650.551 177.848 651.163 177.705 651.841 177.705C652.523 177.705 653.127 177.848 653.653 178.136C654.18 178.424 654.593 178.812 654.892 179.301C655.191 179.79 655.341 180.333 655.341 180.932C655.341 181.36 655.263 181.778 655.108 182.188C654.956 182.593 654.691 183.045 654.312 183.545C653.938 184.042 653.417 184.648 652.75 185.364L650.136 188.159V188.25H655.545V189.5H648.205ZM661.983 177.864V189.5H660.574V179.341H660.506L657.665 181.227V179.795L660.574 177.864H661.983Z" fill="#F5332B"/>
      <rect x="737" y="113" width="30" height="30" rx="15" fill="white"/>
      <rect x="737" y="113" width="30" height="30" rx="15" stroke="black" stroke-width="2"/>
      <path d="M748.295 121.864V133.5H746.886V123.341H746.818L743.977 125.227V123.795L746.886 121.864H748.295ZM751.642 133.5V132.477L755.483 128.273C755.934 127.78 756.305 127.352 756.597 126.989C756.888 126.621 757.104 126.277 757.244 125.955C757.388 125.629 757.46 125.288 757.46 124.932C757.46 124.523 757.362 124.169 757.165 123.869C756.972 123.57 756.706 123.339 756.369 123.176C756.032 123.013 755.653 122.932 755.233 122.932C754.786 122.932 754.396 123.025 754.062 123.21C753.733 123.392 753.477 123.648 753.295 123.977C753.117 124.307 753.028 124.693 753.028 125.136H751.688C751.688 124.455 751.845 123.856 752.159 123.341C752.473 122.826 752.902 122.424 753.443 122.136C753.989 121.848 754.6 121.705 755.278 121.705C755.96 121.705 756.564 121.848 757.091 122.136C757.617 122.424 758.03 122.812 758.33 123.301C758.629 123.79 758.778 124.333 758.778 124.932C758.778 125.36 758.701 125.778 758.545 126.188C758.394 126.593 758.129 127.045 757.75 127.545C757.375 128.042 756.854 128.648 756.188 129.364L753.574 132.159V132.25H758.983V133.5H751.642Z" fill="black"/>
      <rect x="801" y="113" width="30" height="30" rx="15" fill="white"/>
      <rect x="801" y="113" width="30" height="30" rx="15" stroke="black" stroke-width="2"/>
      <path d="M817.295 121.864V133.5H815.886V123.341H815.818L812.977 125.227V123.795L815.886 121.864H817.295Z" fill="black"/>
      <rect x="641" y="57" width="30" height="30" rx="15" fill="white"/>
      <rect x="641" y="57" width="30" height="30" rx="15" stroke="#0078FC" stroke-width="2"/>
      <path d="M651.136 77.6591C650.386 77.6591 649.718 77.5303 649.131 77.2727C648.547 77.0152 648.083 76.6572 647.739 76.1989C647.398 75.7367 647.212 75.2008 647.182 74.5909H648.614C648.644 74.9659 648.773 75.2898 649 75.5625C649.227 75.8314 649.525 76.0398 649.892 76.1875C650.259 76.3352 650.667 76.4091 651.114 76.4091C651.614 76.4091 652.057 76.322 652.443 76.1477C652.83 75.9735 653.133 75.7311 653.352 75.4205C653.572 75.1098 653.682 74.75 653.682 74.3409C653.682 73.9129 653.576 73.536 653.364 73.2102C653.152 72.8807 652.841 72.6231 652.432 72.4375C652.023 72.2519 651.523 72.1591 650.932 72.1591H650V70.9091H650.932C651.394 70.9091 651.799 70.8258 652.148 70.6591C652.5 70.4924 652.775 70.2576 652.972 69.9545C653.172 69.6515 653.273 69.2955 653.273 68.8864C653.273 68.4924 653.186 68.1496 653.011 67.858C652.837 67.5663 652.591 67.339 652.273 67.1761C651.958 67.0133 651.587 66.9318 651.159 66.9318C650.758 66.9318 650.379 67.0057 650.023 67.1534C649.67 67.2973 649.383 67.5076 649.159 67.7841C648.936 68.0568 648.814 68.3864 648.795 68.7727H647.432C647.455 68.1629 647.638 67.6288 647.983 67.1705C648.328 66.7083 648.778 66.3485 649.335 66.0909C649.896 65.8333 650.511 65.7045 651.182 65.7045C651.902 65.7045 652.519 65.8504 653.034 66.142C653.549 66.4299 653.945 66.8106 654.222 67.2841C654.498 67.7576 654.636 68.2689 654.636 68.8182C654.636 69.4735 654.464 70.0322 654.119 70.4943C653.778 70.9564 653.314 71.2765 652.727 71.4545V71.5455C653.462 71.6667 654.036 71.9792 654.449 72.483C654.862 72.983 655.068 73.6023 655.068 74.3409C655.068 74.9735 654.896 75.5417 654.551 76.0455C654.21 76.5455 653.744 76.9394 653.153 77.2273C652.563 77.5152 651.89 77.6591 651.136 77.6591ZM657.756 77.5L662.96 67.2045V67.1136H656.96V65.8636H664.415V67.1818L659.233 77.5H657.756Z" fill="#0078FC"/>
      <rect x="705" y="1" width="30" height="30" rx="15" fill="white"/>
      <rect x="705" y="1" width="30" height="30" rx="15" stroke="black" stroke-width="2"/>
      <path d="M711.568 21.5L716.773 11.2045V11.1136H710.773V9.86364H718.227V11.1818L713.045 21.5H711.568ZM724.011 21.6591C723.261 21.6591 722.593 21.5303 722.006 21.2727C721.422 21.0152 720.958 20.6572 720.614 20.1989C720.273 19.7367 720.087 19.2008 720.057 18.5909H721.489C721.519 18.9659 721.648 19.2898 721.875 19.5625C722.102 19.8314 722.4 20.0398 722.767 20.1875C723.134 20.3352 723.542 20.4091 723.989 20.4091C724.489 20.4091 724.932 20.322 725.318 20.1477C725.705 19.9735 726.008 19.7311 726.227 19.4205C726.447 19.1098 726.557 18.75 726.557 18.3409C726.557 17.9129 726.451 17.536 726.239 17.2102C726.027 16.8807 725.716 16.6231 725.307 16.4375C724.898 16.2519 724.398 16.1591 723.807 16.1591H722.875V14.9091H723.807C724.269 14.9091 724.674 14.8258 725.023 14.6591C725.375 14.4924 725.65 14.2576 725.847 13.9545C726.047 13.6515 726.148 13.2955 726.148 12.8864C726.148 12.4924 726.061 12.1496 725.886 11.858C725.712 11.5663 725.466 11.339 725.148 11.1761C724.833 11.0133 724.462 10.9318 724.034 10.9318C723.633 10.9318 723.254 11.0057 722.898 11.1534C722.545 11.2973 722.258 11.5076 722.034 11.7841C721.811 12.0568 721.689 12.3864 721.67 12.7727H720.307C720.33 12.1629 720.513 11.6288 720.858 11.1705C721.203 10.7083 721.653 10.3485 722.21 10.0909C722.771 9.83333 723.386 9.70455 724.057 9.70455C724.777 9.70455 725.394 9.85038 725.909 10.142C726.424 10.4299 726.82 10.8106 727.097 11.2841C727.373 11.7576 727.511 12.2689 727.511 12.8182C727.511 13.4735 727.339 14.0322 726.994 14.4943C726.653 14.9564 726.189 15.2765 725.602 15.4545V15.5455C726.337 15.6667 726.911 15.9792 727.324 16.483C727.737 16.983 727.943 17.6023 727.943 18.3409C727.943 18.9735 727.771 19.5417 727.426 20.0455C727.085 20.5455 726.619 20.9394 726.028 21.2273C725.438 21.5152 724.765 21.6591 724.011 21.6591Z" fill="black"/>
      <rect x="769" y="57" width="30" height="30" rx="15" fill="white"/>
      <rect x="769" y="57" width="30" height="30" rx="15" stroke="black" stroke-width="2"/>
      <path d="M780.295 65.8636V77.5H778.886V67.3409H778.818L775.977 69.2273V67.7955L778.886 65.8636H780.295ZM787.347 65.7045C787.824 65.7083 788.301 65.7992 788.778 65.9773C789.256 66.1553 789.691 66.4508 790.085 66.8636C790.479 67.2727 790.795 67.8314 791.034 68.5398C791.273 69.2481 791.392 70.1364 791.392 71.2045C791.392 72.2386 791.294 73.1572 791.097 73.9602C790.903 74.7595 790.623 75.4337 790.256 75.983C789.892 76.5322 789.449 76.9489 788.926 77.233C788.407 77.517 787.82 77.6591 787.165 77.6591C786.513 77.6591 785.932 77.5303 785.42 77.2727C784.913 77.0114 784.496 76.6496 784.17 76.1875C783.848 75.7216 783.642 75.1818 783.551 74.5682H784.938C785.062 75.1023 785.311 75.5436 785.682 75.892C786.057 76.2367 786.551 76.4091 787.165 76.4091C788.063 76.4091 788.771 76.017 789.29 75.233C789.813 74.4489 790.074 73.3409 790.074 71.9091H789.983C789.771 72.2273 789.519 72.5019 789.227 72.733C788.936 72.964 788.612 73.142 788.256 73.267C787.9 73.392 787.521 73.4545 787.119 73.4545C786.453 73.4545 785.841 73.2898 785.284 72.9602C784.731 72.6269 784.288 72.1705 783.955 71.5909C783.625 71.0076 783.46 70.3409 783.46 69.5909C783.46 68.8788 783.619 68.2273 783.938 67.6364C784.259 67.0417 784.71 66.5682 785.29 66.2159C785.873 65.8636 786.559 65.6932 787.347 65.7045ZM787.347 66.9545C786.869 66.9545 786.439 67.0739 786.057 67.3125C785.678 67.5473 785.377 67.8655 785.153 68.267C784.934 68.6648 784.824 69.1061 784.824 69.5909C784.824 70.0758 784.93 70.517 785.142 70.9148C785.358 71.3087 785.652 71.6231 786.023 71.858C786.398 72.089 786.824 72.2045 787.301 72.2045C787.661 72.2045 787.996 72.1345 788.307 71.9943C788.617 71.8504 788.888 71.6553 789.119 71.4091C789.354 71.1591 789.538 70.8769 789.67 70.5625C789.803 70.2443 789.869 69.9129 789.869 69.5682C789.869 69.1136 789.759 68.6875 789.54 68.2898C789.324 67.892 789.025 67.5701 788.642 67.3239C788.263 67.0777 787.831 66.9545 787.347 66.9545Z" fill="black"/>
    </g>
  </g>
  <defs>
    <clipPath id="clip0_335_111">
      <rect width="832" height="200" fill="white"/>
    </clipPath>
    <clipPath id="clip1_335_111">
      <rect width="256" height="200" fill="white"/>
    </clipPath>
    <clipPath id="clip2_335_111">
      <rect width="256" height="200" fill="white" transform="translate(288)"/>
    </clipPath>
    <clipPath id="clip3_335_111">
      <rect width="256" height="200" fill="white" transform="translate(576)"/>
    </clipPath>
  </defs>
</svg>
  