<svg width="256" height="200" viewBox="0 0 256 200" fill="none"
    xmlns="http://www.w3.org/2000/svg">
    <g clip-path="url(#clip0_205_201)">
        <path d="M48 128L80 72" stroke="black" stroke-width="2" stroke-linecap="round"/>
        <path d="M144 16L80 72" stroke="black" stroke-width="2" stroke-linecap="round"/>
        <path d="M144 16L208 72" stroke="black" stroke-width="2" stroke-linecap="round"/>
        <path d="M112 128L80 72" stroke="black" stroke-width="2" stroke-linecap="round"/>
        <path d="M240 128L208 72" stroke="black" stroke-width="2" stroke-linecap="round"/>
        <path d="M176 128L208 72" stroke="black" stroke-width="2" stroke-linecap="round"/>
        <path d="M16 184L48 128" stroke="black" stroke-width="2" stroke-linecap="round"/>
        <path d="M80 184L48 128" stroke="black" stroke-width="2" stroke-linecap="round"/>
        <rect x="33" y="113" width="30" height="30" rx="15" fill="white"/>
        <rect x="33" y="113" width="30" height="30" rx="15" stroke="black" stroke-width="2"/>
        <path d="M40.2045 133.5V132.477L44.0455 128.273C44.4962 127.78 44.8674 127.352 45.1591 126.989C45.4508 126.621 45.6667 126.277 45.8068 125.955C45.9508 125.629 46.0227 125.288 46.0227 124.932C46.0227 124.523 45.9242 124.169 45.7273 123.869C45.5341 123.57 45.2689 123.339 44.9318 123.176C44.5947 123.013 44.2159 122.932 43.7955 122.932C43.3485 122.932 42.9583 123.025 42.625 123.21C42.2955 123.392 42.0398 123.648 41.858 123.977C41.6799 124.307 41.5909 124.693 41.5909 125.136H40.25C40.25 124.455 40.4072 123.856 40.7216 123.341C41.036 122.826 41.464 122.424 42.0057 122.136C42.5511 121.848 43.1629 121.705 43.8409 121.705C44.5227 121.705 45.1269 121.848 45.6534 122.136C46.1799 122.424 46.5928 122.812 46.892 123.301C47.1913 123.79 47.3409 124.333 47.3409 124.932C47.3409 125.36 47.2633 125.778 47.108 126.188C46.9564 126.593 46.6913 127.045 46.3125 127.545C45.9375 128.042 45.4167 128.648 44.75 129.364L42.1364 132.159V132.25H47.5455V133.5H40.2045ZM53.983 121.864V133.5H52.5739V123.341H52.5057L49.6648 125.227V123.795L52.5739 121.864H53.983Z" fill="black"/>
        <rect x="97" y="113" width="30" height="30" rx="15" fill="white"/>
        <rect x="97" y="113" width="30" height="30" rx="15" stroke="black" stroke-width="2"/>
        <path d="M111.909 121.705C112.386 121.708 112.864 121.799 113.341 121.977C113.818 122.155 114.254 122.451 114.648 122.864C115.042 123.273 115.358 123.831 115.597 124.54C115.835 125.248 115.955 126.136 115.955 127.205C115.955 128.239 115.856 129.157 115.659 129.96C115.466 130.759 115.186 131.434 114.818 131.983C114.455 132.532 114.011 132.949 113.489 133.233C112.97 133.517 112.383 133.659 111.727 133.659C111.076 133.659 110.494 133.53 109.983 133.273C109.475 133.011 109.059 132.65 108.733 132.188C108.411 131.722 108.205 131.182 108.114 130.568H109.5C109.625 131.102 109.873 131.544 110.244 131.892C110.619 132.237 111.114 132.409 111.727 132.409C112.625 132.409 113.333 132.017 113.852 131.233C114.375 130.449 114.636 129.341 114.636 127.909H114.545C114.333 128.227 114.081 128.502 113.79 128.733C113.498 128.964 113.174 129.142 112.818 129.267C112.462 129.392 112.083 129.455 111.682 129.455C111.015 129.455 110.403 129.29 109.847 128.96C109.294 128.627 108.85 128.17 108.517 127.591C108.188 127.008 108.023 126.341 108.023 125.591C108.023 124.879 108.182 124.227 108.5 123.636C108.822 123.042 109.273 122.568 109.852 122.216C110.436 121.864 111.121 121.693 111.909 121.705ZM111.909 122.955C111.432 122.955 111.002 123.074 110.619 123.312C110.241 123.547 109.939 123.866 109.716 124.267C109.496 124.665 109.386 125.106 109.386 125.591C109.386 126.076 109.492 126.517 109.705 126.915C109.92 127.309 110.214 127.623 110.585 127.858C110.96 128.089 111.386 128.205 111.864 128.205C112.223 128.205 112.559 128.134 112.869 127.994C113.18 127.85 113.451 127.655 113.682 127.409C113.917 127.159 114.1 126.877 114.233 126.562C114.366 126.244 114.432 125.913 114.432 125.568C114.432 125.114 114.322 124.687 114.102 124.29C113.886 123.892 113.587 123.57 113.205 123.324C112.826 123.078 112.394 122.955 111.909 122.955Z" fill="black"/>
        <rect x="1" y="169" width="30" height="30" rx="15" fill="white"/>
        <rect x="1" y="169" width="30" height="30" rx="15" stroke="black" stroke-width="2"/>
        <path d="M12.5682 189.5L17.7727 179.205V179.114H11.7727V177.864H19.2273V179.182L14.0455 189.5H12.5682Z" fill="black"/>
        <rect x="65" y="169" width="30" height="30" rx="15" fill="white"/>
        <rect x="65" y="169" width="30" height="30" rx="15" stroke="black" stroke-width="2"/>
        <path d="M79.6364 189.659C78.8864 189.659 78.2178 189.53 77.6307 189.273C77.0473 189.015 76.5833 188.657 76.2386 188.199C75.8977 187.737 75.7121 187.201 75.6818 186.591H77.1136C77.1439 186.966 77.2727 187.29 77.5 187.562C77.7273 187.831 78.0246 188.04 78.392 188.188C78.7595 188.335 79.1667 188.409 79.6136 188.409C80.1136 188.409 80.5568 188.322 80.9432 188.148C81.3295 187.973 81.6326 187.731 81.8523 187.42C82.072 187.11 82.1818 186.75 82.1818 186.341C82.1818 185.913 82.0758 185.536 81.8636 185.21C81.6515 184.881 81.3409 184.623 80.9318 184.438C80.5227 184.252 80.0227 184.159 79.4318 184.159H78.5V182.909H79.4318C79.8939 182.909 80.2992 182.826 80.6477 182.659C81 182.492 81.2746 182.258 81.4716 181.955C81.6723 181.652 81.7727 181.295 81.7727 180.886C81.7727 180.492 81.6856 180.15 81.5114 179.858C81.3371 179.566 81.0909 179.339 80.7727 179.176C80.4583 179.013 80.0871 178.932 79.6591 178.932C79.2576 178.932 78.8788 179.006 78.5227 179.153C78.1705 179.297 77.8826 179.508 77.6591 179.784C77.4356 180.057 77.3144 180.386 77.2955 180.773H75.9318C75.9545 180.163 76.1383 179.629 76.483 179.17C76.8277 178.708 77.2784 178.348 77.8352 178.091C78.3958 177.833 79.0114 177.705 79.6818 177.705C80.4015 177.705 81.0189 177.85 81.5341 178.142C82.0492 178.43 82.4451 178.811 82.7216 179.284C82.9981 179.758 83.1364 180.269 83.1364 180.818C83.1364 181.473 82.964 182.032 82.6193 182.494C82.2784 182.956 81.8144 183.277 81.2273 183.455V183.545C81.9621 183.667 82.536 183.979 82.9489 184.483C83.3617 184.983 83.5682 185.602 83.5682 186.341C83.5682 186.973 83.3958 187.542 83.0511 188.045C82.7102 188.545 82.2443 188.939 81.6534 189.227C81.0625 189.515 80.3902 189.659 79.6364 189.659Z" fill="black"/>
        <rect x="161" y="113" width="30" height="30" rx="15" fill="white"/>
        <rect x="161" y="113" width="30" height="30" rx="15" stroke="black" stroke-width="2"/>
        <path d="M172.295 121.864V133.5H170.886V123.341H170.818L167.977 125.227V123.795L170.886 121.864H172.295ZM175.642 133.5V132.477L179.483 128.273C179.934 127.78 180.305 127.352 180.597 126.989C180.888 126.621 181.104 126.277 181.244 125.955C181.388 125.629 181.46 125.288 181.46 124.932C181.46 124.523 181.362 124.169 181.165 123.869C180.972 123.57 180.706 123.339 180.369 123.176C180.032 123.013 179.653 122.932 179.233 122.932C178.786 122.932 178.396 123.025 178.062 123.21C177.733 123.392 177.477 123.648 177.295 123.977C177.117 124.307 177.028 124.693 177.028 125.136H175.688C175.688 124.455 175.845 123.856 176.159 123.341C176.473 122.826 176.902 122.424 177.443 122.136C177.989 121.848 178.6 121.705 179.278 121.705C179.96 121.705 180.564 121.848 181.091 122.136C181.617 122.424 182.03 122.812 182.33 123.301C182.629 123.79 182.778 124.333 182.778 124.932C182.778 125.36 182.701 125.778 182.545 126.188C182.394 126.593 182.129 127.045 181.75 127.545C181.375 128.042 180.854 128.648 180.188 129.364L177.574 132.159V132.25H182.983V133.5H175.642Z" fill="black"/>
        <rect x="225" y="113" width="30" height="30" rx="15" fill="white"/>
        <rect x="225" y="113" width="30" height="30" rx="15" stroke="black" stroke-width="2"/>
        <path d="M241.295 121.864V133.5H239.886V123.341H239.818L236.977 125.227V123.795L239.886 121.864H241.295Z" fill="black"/>
        <rect x="65" y="57" width="30" height="30" rx="15" fill="white"/>
        <rect x="65" y="57" width="30" height="30" rx="15" stroke="black" stroke-width="2"/>
        <path d="M75.1364 77.6591C74.3864 77.6591 73.7178 77.5303 73.1307 77.2727C72.5473 77.0152 72.0833 76.6572 71.7386 76.1989C71.3977 75.7367 71.2121 75.2008 71.1818 74.5909H72.6136C72.6439 74.9659 72.7727 75.2898 73 75.5625C73.2273 75.8314 73.5246 76.0398 73.892 76.1875C74.2595 76.3352 74.6667 76.4091 75.1136 76.4091C75.6136 76.4091 76.0568 76.322 76.4432 76.1477C76.8295 75.9735 77.1326 75.7311 77.3523 75.4205C77.572 75.1098 77.6818 74.75 77.6818 74.3409C77.6818 73.9129 77.5758 73.536 77.3636 73.2102C77.1515 72.8807 76.8409 72.6231 76.4318 72.4375C76.0227 72.2519 75.5227 72.1591 74.9318 72.1591H74V70.9091H74.9318C75.3939 70.9091 75.7992 70.8258 76.1477 70.6591C76.5 70.4924 76.7746 70.2576 76.9716 69.9545C77.1723 69.6515 77.2727 69.2955 77.2727 68.8864C77.2727 68.4924 77.1856 68.1496 77.0114 67.858C76.8371 67.5663 76.5909 67.339 76.2727 67.1761C75.9583 67.0133 75.5871 66.9318 75.1591 66.9318C74.7576 66.9318 74.3788 67.0057 74.0227 67.1534C73.6705 67.2973 73.3826 67.5076 73.1591 67.7841C72.9356 68.0568 72.8144 68.3864 72.7955 68.7727H71.4318C71.4545 68.1629 71.6383 67.6288 71.983 67.1705C72.3277 66.7083 72.7784 66.3485 73.3352 66.0909C73.8958 65.8333 74.5114 65.7045 75.1818 65.7045C75.9015 65.7045 76.5189 65.8504 77.0341 66.142C77.5492 66.4299 77.9451 66.8106 78.2216 67.2841C78.4981 67.7576 78.6364 68.2689 78.6364 68.8182C78.6364 69.4735 78.464 70.0322 78.1193 70.4943C77.7784 70.9564 77.3144 71.2765 76.7273 71.4545V71.5455C77.4621 71.6667 78.036 71.9792 78.4489 72.483C78.8617 72.983 79.0682 73.6023 79.0682 74.3409C79.0682 74.9735 78.8958 75.5417 78.5511 76.0455C78.2102 76.5455 77.7443 76.9394 77.1534 77.2273C76.5625 77.5152 75.8902 77.6591 75.1364 77.6591ZM81.392 77.5V76.4773L85.233 72.2727C85.6837 71.7803 86.0549 71.3523 86.3466 70.9886C86.6383 70.6212 86.8542 70.2765 86.9943 69.9545C87.1383 69.6288 87.2102 69.2879 87.2102 68.9318C87.2102 68.5227 87.1117 68.1686 86.9148 67.8693C86.7216 67.5701 86.4564 67.339 86.1193 67.1761C85.7822 67.0133 85.4034 66.9318 84.983 66.9318C84.536 66.9318 84.1458 67.0246 83.8125 67.2102C83.483 67.392 83.2273 67.6477 83.0455 67.9773C82.8674 68.3068 82.7784 68.6932 82.7784 69.1364H81.4375C81.4375 68.4545 81.5947 67.8561 81.9091 67.3409C82.2235 66.8258 82.6515 66.4242 83.1932 66.1364C83.7386 65.8485 84.3504 65.7045 85.0284 65.7045C85.7102 65.7045 86.3144 65.8485 86.8409 66.1364C87.3674 66.4242 87.7803 66.8125 88.0795 67.3011C88.3788 67.7898 88.5284 68.3333 88.5284 68.9318C88.5284 69.3598 88.4508 69.7784 88.2955 70.1875C88.1439 70.5928 87.8788 71.0455 87.5 71.5455C87.125 72.0417 86.6042 72.6477 85.9375 73.3636L83.3239 76.1591V76.25H88.733V77.5H81.392Z" fill="black"/>
        <rect x="129" y="1" width="30" height="30" rx="15" fill="white"/>
        <rect x="129" y="1" width="30" height="30" rx="15" stroke="black" stroke-width="2"/>
        <path d="M135.568 21.5L140.773 11.2045V11.1136H134.773V9.86364H142.227V11.1818L137.045 21.5H135.568ZM148.011 21.6591C147.261 21.6591 146.593 21.5303 146.006 21.2727C145.422 21.0152 144.958 20.6572 144.614 20.1989C144.273 19.7367 144.087 19.2008 144.057 18.5909H145.489C145.519 18.9659 145.648 19.2898 145.875 19.5625C146.102 19.8314 146.4 20.0398 146.767 20.1875C147.134 20.3352 147.542 20.4091 147.989 20.4091C148.489 20.4091 148.932 20.322 149.318 20.1477C149.705 19.9735 150.008 19.7311 150.227 19.4205C150.447 19.1098 150.557 18.75 150.557 18.3409C150.557 17.9129 150.451 17.536 150.239 17.2102C150.027 16.8807 149.716 16.6231 149.307 16.4375C148.898 16.2519 148.398 16.1591 147.807 16.1591H146.875V14.9091H147.807C148.269 14.9091 148.674 14.8258 149.023 14.6591C149.375 14.4924 149.65 14.2576 149.847 13.9545C150.047 13.6515 150.148 13.2955 150.148 12.8864C150.148 12.4924 150.061 12.1496 149.886 11.858C149.712 11.5663 149.466 11.339 149.148 11.1761C148.833 11.0133 148.462 10.9318 148.034 10.9318C147.633 10.9318 147.254 11.0057 146.898 11.1534C146.545 11.2973 146.258 11.5076 146.034 11.7841C145.811 12.0568 145.689 12.3864 145.67 12.7727H144.307C144.33 12.1629 144.513 11.6288 144.858 11.1705C145.203 10.7083 145.653 10.3485 146.21 10.0909C146.771 9.83333 147.386 9.70455 148.057 9.70455C148.777 9.70455 149.394 9.85038 149.909 10.142C150.424 10.4299 150.82 10.8106 151.097 11.2841C151.373 11.7576 151.511 12.2689 151.511 12.8182C151.511 13.4735 151.339 14.0322 150.994 14.4943C150.653 14.9564 150.189 15.2765 149.602 15.4545V15.5455C150.337 15.6667 150.911 15.9792 151.324 16.483C151.737 16.983 151.943 17.6023 151.943 18.3409C151.943 18.9735 151.771 19.5417 151.426 20.0455C151.085 20.5455 150.619 20.9394 150.028 21.2273C149.438 21.5152 148.765 21.6591 148.011 21.6591Z" fill="black"/>
        <rect x="193" y="57" width="30" height="30" rx="15" fill="white"/>
        <rect x="193" y="57" width="30" height="30" rx="15" stroke="black" stroke-width="2"/>
        <path d="M204.295 65.8636V77.5H202.886V67.3409H202.818L199.977 69.2273V67.7955L202.886 65.8636H204.295ZM211.347 65.7045C211.824 65.7083 212.301 65.7992 212.778 65.9773C213.256 66.1553 213.691 66.4508 214.085 66.8636C214.479 67.2727 214.795 67.8314 215.034 68.5398C215.273 69.2481 215.392 70.1364 215.392 71.2045C215.392 72.2386 215.294 73.1572 215.097 73.9602C214.903 74.7595 214.623 75.4337 214.256 75.983C213.892 76.5322 213.449 76.9489 212.926 77.233C212.407 77.517 211.82 77.6591 211.165 77.6591C210.513 77.6591 209.932 77.5303 209.42 77.2727C208.913 77.0114 208.496 76.6496 208.17 76.1875C207.848 75.7216 207.642 75.1818 207.551 74.5682H208.938C209.062 75.1023 209.311 75.5436 209.682 75.892C210.057 76.2367 210.551 76.4091 211.165 76.4091C212.063 76.4091 212.771 76.017 213.29 75.233C213.813 74.4489 214.074 73.3409 214.074 71.9091H213.983C213.771 72.2273 213.519 72.5019 213.227 72.733C212.936 72.964 212.612 73.142 212.256 73.267C211.9 73.392 211.521 73.4545 211.119 73.4545C210.453 73.4545 209.841 73.2898 209.284 72.9602C208.731 72.6269 208.288 72.1705 207.955 71.5909C207.625 71.0076 207.46 70.3409 207.46 69.5909C207.46 68.8788 207.619 68.2273 207.938 67.6364C208.259 67.0417 208.71 66.5682 209.29 66.2159C209.873 65.8636 210.559 65.6932 211.347 65.7045ZM211.347 66.9545C210.869 66.9545 210.439 67.0739 210.057 67.3125C209.678 67.5473 209.377 67.8655 209.153 68.267C208.934 68.6648 208.824 69.1061 208.824 69.5909C208.824 70.0758 208.93 70.517 209.142 70.9148C209.358 71.3087 209.652 71.6231 210.023 71.858C210.398 72.089 210.824 72.2045 211.301 72.2045C211.661 72.2045 211.996 72.1345 212.307 71.9943C212.617 71.8504 212.888 71.6553 213.119 71.4091C213.354 71.1591 213.538 70.8769 213.67 70.5625C213.803 70.2443 213.869 69.9129 213.869 69.5682C213.869 69.1136 213.759 68.6875 213.54 68.2898C213.324 67.892 213.025 67.5701 212.642 67.3239C212.263 67.0777 211.831 66.9545 211.347 66.9545Z" fill="black"/>
    </g>
    <defs>
        <clipPath id="clip0_205_201">
            <rect width="256" height="200" fill="white"/>
        </clipPath>
    </defs>
</svg>
