<svg width="832" height="200" viewBox="0 0 832 200" fill="none"
  xmlns="http://www.w3.org/2000/svg">
  <g clip-path="url(#clip0_336_193)">
    <g clip-path="url(#clip1_336_193)">
      <path d="M48 128L80 72" stroke="black" stroke-width="2" stroke-linecap="round"/>
      <path d="M144 16L80 72" stroke="black" stroke-width="2" stroke-linecap="round"/>
      <path d="M144 16L208 72" stroke="black" stroke-width="2" stroke-linecap="round"/>
      <path d="M112 128L80 72" stroke="black" stroke-width="2" stroke-linecap="round"/>
      <path d="M240 128L208 72" stroke="black" stroke-width="2" stroke-linecap="round"/>
      <path d="M176 128L208 72" stroke="black" stroke-width="2" stroke-linecap="round"/>
      <path d="M16 184L48 128" stroke="black" stroke-width="2" stroke-linecap="round"/>
      <path d="M80 184L48 128" stroke="black" stroke-width="2" stroke-linecap="round"/>
      <rect x="33" y="113" width="30" height="30" rx="15" fill="white"/>
      <rect x="33" y="113" width="30" height="30" rx="15" stroke="black" stroke-width="2"/>
      <path d="M40.2045 133.5V132.477L44.0455 128.273C44.4962 127.78 44.8674 127.352 45.1591 126.989C45.4508 126.621 45.6667 126.277 45.8068 125.955C45.9508 125.629 46.0227 125.288 46.0227 124.932C46.0227 124.523 45.9242 124.169 45.7273 123.869C45.5341 123.57 45.2689 123.339 44.9318 123.176C44.5947 123.013 44.2159 122.932 43.7955 122.932C43.3485 122.932 42.9583 123.025 42.625 123.21C42.2955 123.392 42.0398 123.648 41.858 123.977C41.6799 124.307 41.5909 124.693 41.5909 125.136H40.25C40.25 124.455 40.4072 123.856 40.7216 123.341C41.036 122.826 41.464 122.424 42.0057 122.136C42.5511 121.848 43.1629 121.705 43.8409 121.705C44.5227 121.705 45.1269 121.848 45.6534 122.136C46.1799 122.424 46.5928 122.812 46.892 123.301C47.1913 123.79 47.3409 124.333 47.3409 124.932C47.3409 125.36 47.2633 125.778 47.108 126.188C46.9564 126.593 46.6913 127.045 46.3125 127.545C45.9375 128.042 45.4167 128.648 44.75 129.364L42.1364 132.159V132.25H47.5455V133.5H40.2045ZM53.983 121.864V133.5H52.5739V123.341H52.5057L49.6648 125.227V123.795L52.5739 121.864H53.983Z" fill="black"/>
      <rect x="97" y="113" width="30" height="30" rx="15" fill="white"/>
      <rect x="97" y="113" width="30" height="30" rx="15" stroke="black" stroke-width="2"/>
      <path d="M111.909 121.705C112.386 121.708 112.864 121.799 113.341 121.977C113.818 122.155 114.254 122.451 114.648 122.864C115.042 123.273 115.358 123.831 115.597 124.54C115.835 125.248 115.955 126.136 115.955 127.205C115.955 128.239 115.856 129.157 115.659 129.96C115.466 130.759 115.186 131.434 114.818 131.983C114.455 132.532 114.011 132.949 113.489 133.233C112.97 133.517 112.383 133.659 111.727 133.659C111.076 133.659 110.494 133.53 109.983 133.273C109.475 133.011 109.059 132.65 108.733 132.188C108.411 131.722 108.205 131.182 108.114 130.568H109.5C109.625 131.102 109.873 131.544 110.244 131.892C110.619 132.237 111.114 132.409 111.727 132.409C112.625 132.409 113.333 132.017 113.852 131.233C114.375 130.449 114.636 129.341 114.636 127.909H114.545C114.333 128.227 114.081 128.502 113.79 128.733C113.498 128.964 113.174 129.142 112.818 129.267C112.462 129.392 112.083 129.455 111.682 129.455C111.015 129.455 110.403 129.29 109.847 128.96C109.294 128.627 108.85 128.17 108.517 127.591C108.188 127.008 108.023 126.341 108.023 125.591C108.023 124.879 108.182 124.227 108.5 123.636C108.822 123.042 109.273 122.568 109.852 122.216C110.436 121.864 111.121 121.693 111.909 121.705ZM111.909 122.955C111.432 122.955 111.002 123.074 110.619 123.312C110.241 123.547 109.939 123.866 109.716 124.267C109.496 124.665 109.386 125.106 109.386 125.591C109.386 126.076 109.492 126.517 109.705 126.915C109.92 127.309 110.214 127.623 110.585 127.858C110.96 128.089 111.386 128.205 111.864 128.205C112.223 128.205 112.559 128.134 112.869 127.994C113.18 127.85 113.451 127.655 113.682 127.409C113.917 127.159 114.1 126.877 114.233 126.562C114.366 126.244 114.432 125.913 114.432 125.568C114.432 125.114 114.322 124.687 114.102 124.29C113.886 123.892 113.587 123.57 113.205 123.324C112.826 123.078 112.394 122.955 111.909 122.955Z" fill="black"/>
      <rect x="1" y="169" width="30" height="30" rx="15" fill="white"/>
      <rect x="1" y="169" width="30" height="30" rx="15" stroke="black" stroke-width="2"/>
      <path d="M12.5682 189.5L17.7727 179.205V179.114H11.7727V177.864H19.2273V179.182L14.0455 189.5H12.5682Z" fill="black"/>
      <rect x="65" y="169" width="30" height="30" rx="15" fill="white"/>
      <rect x="65" y="169" width="30" height="30" rx="15" stroke="black" stroke-width="2"/>
      <path d="M79.6364 189.659C78.8864 189.659 78.2178 189.53 77.6307 189.273C77.0473 189.015 76.5833 188.657 76.2386 188.199C75.8977 187.737 75.7121 187.201 75.6818 186.591H77.1136C77.1439 186.966 77.2727 187.29 77.5 187.562C77.7273 187.831 78.0246 188.04 78.392 188.188C78.7595 188.335 79.1667 188.409 79.6136 188.409C80.1136 188.409 80.5568 188.322 80.9432 188.148C81.3295 187.973 81.6326 187.731 81.8523 187.42C82.072 187.11 82.1818 186.75 82.1818 186.341C82.1818 185.913 82.0758 185.536 81.8636 185.21C81.6515 184.881 81.3409 184.623 80.9318 184.438C80.5227 184.252 80.0227 184.159 79.4318 184.159H78.5V182.909H79.4318C79.8939 182.909 80.2992 182.826 80.6477 182.659C81 182.492 81.2746 182.258 81.4716 181.955C81.6723 181.652 81.7727 181.295 81.7727 180.886C81.7727 180.492 81.6856 180.15 81.5114 179.858C81.3371 179.566 81.0909 179.339 80.7727 179.176C80.4583 179.013 80.0871 178.932 79.6591 178.932C79.2576 178.932 78.8788 179.006 78.5227 179.153C78.1705 179.297 77.8826 179.508 77.6591 179.784C77.4356 180.057 77.3144 180.386 77.2955 180.773H75.9318C75.9545 180.163 76.1383 179.629 76.483 179.17C76.8277 178.708 77.2784 178.348 77.8352 178.091C78.3958 177.833 79.0114 177.705 79.6818 177.705C80.4015 177.705 81.0189 177.85 81.5341 178.142C82.0492 178.43 82.4451 178.811 82.7216 179.284C82.9981 179.758 83.1364 180.269 83.1364 180.818C83.1364 181.473 82.964 182.032 82.6193 182.494C82.2784 182.956 81.8144 183.277 81.2273 183.455V183.545C81.9621 183.667 82.536 183.979 82.9489 184.483C83.3617 184.983 83.5682 185.602 83.5682 186.341C83.5682 186.973 83.3958 187.542 83.0511 188.045C82.7102 188.545 82.2443 188.939 81.6534 189.227C81.0625 189.515 80.3902 189.659 79.6364 189.659Z" fill="black"/>
      <rect x="161" y="113" width="30" height="30" rx="15" fill="white"/>
      <rect x="161" y="113" width="30" height="30" rx="15" stroke="black" stroke-width="2"/>
      <path d="M172.295 121.864V133.5H170.886V123.341H170.818L167.977 125.227V123.795L170.886 121.864H172.295ZM175.642 133.5V132.477L179.483 128.273C179.934 127.78 180.305 127.352 180.597 126.989C180.888 126.621 181.104 126.277 181.244 125.955C181.388 125.629 181.46 125.288 181.46 124.932C181.46 124.523 181.362 124.169 181.165 123.869C180.972 123.57 180.706 123.339 180.369 123.176C180.032 123.013 179.653 122.932 179.233 122.932C178.786 122.932 178.396 123.025 178.062 123.21C177.733 123.392 177.477 123.648 177.295 123.977C177.117 124.307 177.028 124.693 177.028 125.136H175.688C175.688 124.455 175.845 123.856 176.159 123.341C176.473 122.826 176.902 122.424 177.443 122.136C177.989 121.848 178.6 121.705 179.278 121.705C179.96 121.705 180.564 121.848 181.091 122.136C181.617 122.424 182.03 122.812 182.33 123.301C182.629 123.79 182.778 124.333 182.778 124.932C182.778 125.36 182.701 125.778 182.545 126.188C182.394 126.593 182.129 127.045 181.75 127.545C181.375 128.042 180.854 128.648 180.188 129.364L177.574 132.159V132.25H182.983V133.5H175.642Z" fill="black"/>
      <rect x="225" y="113" width="30" height="30" rx="15" fill="white"/>
      <rect x="225" y="113" width="30" height="30" rx="15" stroke="black" stroke-width="2"/>
      <path d="M241.295 121.864V133.5H239.886V123.341H239.818L236.977 125.227V123.795L239.886 121.864H241.295Z" fill="black"/>
      <rect x="65" y="57" width="30" height="30" rx="15" fill="white"/>
      <rect x="65" y="57" width="30" height="30" rx="15" stroke="#0078FC" stroke-width="2"/>
      <path d="M76.2045 77.5V76.4773L80.0455 72.2727C80.4962 71.7803 80.8674 71.3523 81.1591 70.9886C81.4508 70.6212 81.6667 70.2765 81.8068 69.9545C81.9508 69.6288 82.0227 69.2879 82.0227 68.9318C82.0227 68.5227 81.9242 68.1686 81.7273 67.8693C81.5341 67.5701 81.2689 67.339 80.9318 67.1761C80.5947 67.0133 80.2159 66.9318 79.7955 66.9318C79.3485 66.9318 78.9583 67.0246 78.625 67.2102C78.2955 67.392 78.0398 67.6477 77.858 67.9773C77.6799 68.3068 77.5909 68.6932 77.5909 69.1364H76.25C76.25 68.4545 76.4072 67.8561 76.7216 67.3409C77.036 66.8258 77.464 66.4242 78.0057 66.1364C78.5511 65.8485 79.1629 65.7045 79.8409 65.7045C80.5227 65.7045 81.1269 65.8485 81.6534 66.1364C82.1799 66.4242 82.5928 66.8125 82.892 67.3011C83.1913 67.7898 83.3409 68.3333 83.3409 68.9318C83.3409 69.3598 83.2633 69.7784 83.108 70.1875C82.9564 70.5928 82.6913 71.0455 82.3125 71.5455C81.9375 72.0417 81.4167 72.6477 80.75 73.3636L78.1364 76.1591V76.25H83.5455V77.5H76.2045Z" fill="#0078FC"/>
      <rect x="129" y="1" width="30" height="30" rx="15" fill="white"/>
      <rect x="129" y="1" width="30" height="30" rx="15" stroke="black" stroke-width="2"/>
      <path d="M135.568 21.5L140.773 11.2045V11.1136H134.773V9.86364H142.227V11.1818L137.045 21.5H135.568ZM148.011 21.6591C147.261 21.6591 146.593 21.5303 146.006 21.2727C145.422 21.0152 144.958 20.6572 144.614 20.1989C144.273 19.7367 144.087 19.2008 144.057 18.5909H145.489C145.519 18.9659 145.648 19.2898 145.875 19.5625C146.102 19.8314 146.4 20.0398 146.767 20.1875C147.134 20.3352 147.542 20.4091 147.989 20.4091C148.489 20.4091 148.932 20.322 149.318 20.1477C149.705 19.9735 150.008 19.7311 150.227 19.4205C150.447 19.1098 150.557 18.75 150.557 18.3409C150.557 17.9129 150.451 17.536 150.239 17.2102C150.027 16.8807 149.716 16.6231 149.307 16.4375C148.898 16.2519 148.398 16.1591 147.807 16.1591H146.875V14.9091H147.807C148.269 14.9091 148.674 14.8258 149.023 14.6591C149.375 14.4924 149.65 14.2576 149.847 13.9545C150.047 13.6515 150.148 13.2955 150.148 12.8864C150.148 12.4924 150.061 12.1496 149.886 11.858C149.712 11.5663 149.466 11.339 149.148 11.1761C148.833 11.0133 148.462 10.9318 148.034 10.9318C147.633 10.9318 147.254 11.0057 146.898 11.1534C146.545 11.2973 146.258 11.5076 146.034 11.7841C145.811 12.0568 145.689 12.3864 145.67 12.7727H144.307C144.33 12.1629 144.513 11.6288 144.858 11.1705C145.203 10.7083 145.653 10.3485 146.21 10.0909C146.771 9.83333 147.386 9.70455 148.057 9.70455C148.777 9.70455 149.394 9.85038 149.909 10.142C150.424 10.4299 150.82 10.8106 151.097 11.2841C151.373 11.7576 151.511 12.2689 151.511 12.8182C151.511 13.4735 151.339 14.0322 150.994 14.4943C150.653 14.9564 150.189 15.2765 149.602 15.4545V15.5455C150.337 15.6667 150.911 15.9792 151.324 16.483C151.737 16.983 151.943 17.6023 151.943 18.3409C151.943 18.9735 151.771 19.5417 151.426 20.0455C151.085 20.5455 150.619 20.9394 150.028 21.2273C149.438 21.5152 148.765 21.6591 148.011 21.6591Z" fill="black"/>
      <rect x="193" y="57" width="30" height="30" rx="15" fill="white"/>
      <rect x="193" y="57" width="30" height="30" rx="15" stroke="black" stroke-width="2"/>
      <path d="M204.295 65.8636V77.5H202.886V67.3409H202.818L199.977 69.2273V67.7955L202.886 65.8636H204.295ZM211.347 65.7045C211.824 65.7083 212.301 65.7992 212.778 65.9773C213.256 66.1553 213.691 66.4508 214.085 66.8636C214.479 67.2727 214.795 67.8314 215.034 68.5398C215.273 69.2481 215.392 70.1364 215.392 71.2045C215.392 72.2386 215.294 73.1572 215.097 73.9602C214.903 74.7595 214.623 75.4337 214.256 75.983C213.892 76.5322 213.449 76.9489 212.926 77.233C212.407 77.517 211.82 77.6591 211.165 77.6591C210.513 77.6591 209.932 77.5303 209.42 77.2727C208.913 77.0114 208.496 76.6496 208.17 76.1875C207.848 75.7216 207.642 75.1818 207.551 74.5682H208.938C209.062 75.1023 209.311 75.5436 209.682 75.892C210.057 76.2367 210.551 76.4091 211.165 76.4091C212.063 76.4091 212.771 76.017 213.29 75.233C213.813 74.4489 214.074 73.3409 214.074 71.9091H213.983C213.771 72.2273 213.519 72.5019 213.227 72.733C212.936 72.964 212.612 73.142 212.256 73.267C211.9 73.392 211.521 73.4545 211.119 73.4545C210.453 73.4545 209.841 73.2898 209.284 72.9602C208.731 72.6269 208.288 72.1705 207.955 71.5909C207.625 71.0076 207.46 70.3409 207.46 69.5909C207.46 68.8788 207.619 68.2273 207.938 67.6364C208.259 67.0417 208.71 66.5682 209.29 66.2159C209.873 65.8636 210.559 65.6932 211.347 65.7045ZM211.347 66.9545C210.869 66.9545 210.439 67.0739 210.057 67.3125C209.678 67.5473 209.377 67.8655 209.153 68.267C208.934 68.6648 208.824 69.1061 208.824 69.5909C208.824 70.0758 208.93 70.517 209.142 70.9148C209.358 71.3087 209.652 71.6231 210.023 71.858C210.398 72.089 210.824 72.2045 211.301 72.2045C211.661 72.2045 211.996 72.1345 212.307 71.9943C212.617 71.8504 212.888 71.6553 213.119 71.4091C213.354 71.1591 213.538 70.8769 213.67 70.5625C213.803 70.2443 213.869 69.9129 213.869 69.5682C213.869 69.1136 213.759 68.6875 213.54 68.2898C213.324 67.892 213.025 67.5701 212.642 67.3239C212.263 67.0777 211.831 66.9545 211.347 66.9545Z" fill="black"/>
    </g>
    <g clip-path="url(#clip2_336_193)">
      <path d="M336 128L368 72" stroke="#F5332B" stroke-width="2" stroke-linecap="round"/>
      <path d="M432 16L368 72" stroke="black" stroke-width="2" stroke-linecap="round"/>
      <path d="M432 16L496 72" stroke="black" stroke-width="2" stroke-linecap="round"/>
      <path d="M400 128L368 72" stroke="black" stroke-width="2" stroke-linecap="round"/>
      <path d="M528 128L496 72" stroke="black" stroke-width="2" stroke-linecap="round"/>
      <path d="M464 128L496 72" stroke="black" stroke-width="2" stroke-linecap="round"/>
      <path d="M304 184L336 128" stroke="black" stroke-width="2" stroke-linecap="round"/>
      <path d="M368 184L336 128" stroke="black" stroke-width="2" stroke-linecap="round"/>
      <rect x="321" y="113" width="30" height="30" rx="15" fill="white"/>
      <rect x="321" y="113" width="30" height="30" rx="15" stroke="#0078FC" stroke-width="2"/>
      <path d="M332.205 133.5V132.477L336.045 128.273C336.496 127.78 336.867 127.352 337.159 126.989C337.451 126.621 337.667 126.277 337.807 125.955C337.951 125.629 338.023 125.288 338.023 124.932C338.023 124.523 337.924 124.169 337.727 123.869C337.534 123.57 337.269 123.339 336.932 123.176C336.595 123.013 336.216 122.932 335.795 122.932C335.348 122.932 334.958 123.025 334.625 123.21C334.295 123.392 334.04 123.648 333.858 123.977C333.68 124.307 333.591 124.693 333.591 125.136H332.25C332.25 124.455 332.407 123.856 332.722 123.341C333.036 122.826 333.464 122.424 334.006 122.136C334.551 121.848 335.163 121.705 335.841 121.705C336.523 121.705 337.127 121.848 337.653 122.136C338.18 122.424 338.593 122.812 338.892 123.301C339.191 123.79 339.341 124.333 339.341 124.932C339.341 125.36 339.263 125.778 339.108 126.188C338.956 126.593 338.691 127.045 338.312 127.545C337.938 128.042 337.417 128.648 336.75 129.364L334.136 132.159V132.25H339.545V133.5H332.205Z" fill="#0078FC"/>
      <rect x="385" y="113" width="30" height="30" rx="15" fill="white"/>
      <rect x="385" y="113" width="30" height="30" rx="15" stroke="black" stroke-width="2"/>
      <path d="M399.909 121.705C400.386 121.708 400.864 121.799 401.341 121.977C401.818 122.155 402.254 122.451 402.648 122.864C403.042 123.273 403.358 123.831 403.597 124.54C403.835 125.248 403.955 126.136 403.955 127.205C403.955 128.239 403.856 129.157 403.659 129.96C403.466 130.759 403.186 131.434 402.818 131.983C402.455 132.532 402.011 132.949 401.489 133.233C400.97 133.517 400.383 133.659 399.727 133.659C399.076 133.659 398.494 133.53 397.983 133.273C397.475 133.011 397.059 132.65 396.733 132.188C396.411 131.722 396.205 131.182 396.114 130.568H397.5C397.625 131.102 397.873 131.544 398.244 131.892C398.619 132.237 399.114 132.409 399.727 132.409C400.625 132.409 401.333 132.017 401.852 131.233C402.375 130.449 402.636 129.341 402.636 127.909H402.545C402.333 128.227 402.081 128.502 401.79 128.733C401.498 128.964 401.174 129.142 400.818 129.267C400.462 129.392 400.083 129.455 399.682 129.455C399.015 129.455 398.403 129.29 397.847 128.96C397.294 128.627 396.85 128.17 396.517 127.591C396.188 127.008 396.023 126.341 396.023 125.591C396.023 124.879 396.182 124.227 396.5 123.636C396.822 123.042 397.273 122.568 397.852 122.216C398.436 121.864 399.121 121.693 399.909 121.705ZM399.909 122.955C399.432 122.955 399.002 123.074 398.619 123.312C398.241 123.547 397.939 123.866 397.716 124.267C397.496 124.665 397.386 125.106 397.386 125.591C397.386 126.076 397.492 126.517 397.705 126.915C397.92 127.309 398.214 127.623 398.585 127.858C398.96 128.089 399.386 128.205 399.864 128.205C400.223 128.205 400.559 128.134 400.869 127.994C401.18 127.85 401.451 127.655 401.682 127.409C401.917 127.159 402.1 126.877 402.233 126.562C402.366 126.244 402.432 125.913 402.432 125.568C402.432 125.114 402.322 124.687 402.102 124.29C401.886 123.892 401.587 123.57 401.205 123.324C400.826 123.078 400.394 122.955 399.909 122.955Z" fill="black"/>
      <rect x="289" y="169" width="30" height="30" rx="15" fill="white"/>
      <rect x="289" y="169" width="30" height="30" rx="15" stroke="black" stroke-width="2"/>
      <path d="M300.568 189.5L305.773 179.205V179.114H299.773V177.864H307.227V179.182L302.045 189.5H300.568Z" fill="black"/>
      <rect x="353" y="169" width="30" height="30" rx="15" fill="white"/>
      <rect x="353" y="169" width="30" height="30" rx="15" stroke="black" stroke-width="2"/>
      <path d="M367.636 189.659C366.886 189.659 366.218 189.53 365.631 189.273C365.047 189.015 364.583 188.657 364.239 188.199C363.898 187.737 363.712 187.201 363.682 186.591H365.114C365.144 186.966 365.273 187.29 365.5 187.562C365.727 187.831 366.025 188.04 366.392 188.188C366.759 188.335 367.167 188.409 367.614 188.409C368.114 188.409 368.557 188.322 368.943 188.148C369.33 187.973 369.633 187.731 369.852 187.42C370.072 187.11 370.182 186.75 370.182 186.341C370.182 185.913 370.076 185.536 369.864 185.21C369.652 184.881 369.341 184.623 368.932 184.438C368.523 184.252 368.023 184.159 367.432 184.159H366.5V182.909H367.432C367.894 182.909 368.299 182.826 368.648 182.659C369 182.492 369.275 182.258 369.472 181.955C369.672 181.652 369.773 181.295 369.773 180.886C369.773 180.492 369.686 180.15 369.511 179.858C369.337 179.566 369.091 179.339 368.773 179.176C368.458 179.013 368.087 178.932 367.659 178.932C367.258 178.932 366.879 179.006 366.523 179.153C366.17 179.297 365.883 179.508 365.659 179.784C365.436 180.057 365.314 180.386 365.295 180.773H363.932C363.955 180.163 364.138 179.629 364.483 179.17C364.828 178.708 365.278 178.348 365.835 178.091C366.396 177.833 367.011 177.705 367.682 177.705C368.402 177.705 369.019 177.85 369.534 178.142C370.049 178.43 370.445 178.811 370.722 179.284C370.998 179.758 371.136 180.269 371.136 180.818C371.136 181.473 370.964 182.032 370.619 182.494C370.278 182.956 369.814 183.277 369.227 183.455V183.545C369.962 183.667 370.536 183.979 370.949 184.483C371.362 184.983 371.568 185.602 371.568 186.341C371.568 186.973 371.396 187.542 371.051 188.045C370.71 188.545 370.244 188.939 369.653 189.227C369.063 189.515 368.39 189.659 367.636 189.659Z" fill="black"/>
      <rect x="449" y="113" width="30" height="30" rx="15" fill="white"/>
      <rect x="449" y="113" width="30" height="30" rx="15" stroke="black" stroke-width="2"/>
      <path d="M460.295 121.864V133.5H458.886V123.341H458.818L455.977 125.227V123.795L458.886 121.864H460.295ZM463.642 133.5V132.477L467.483 128.273C467.934 127.78 468.305 127.352 468.597 126.989C468.888 126.621 469.104 126.277 469.244 125.955C469.388 125.629 469.46 125.288 469.46 124.932C469.46 124.523 469.362 124.169 469.165 123.869C468.972 123.57 468.706 123.339 468.369 123.176C468.032 123.013 467.653 122.932 467.233 122.932C466.786 122.932 466.396 123.025 466.062 123.21C465.733 123.392 465.477 123.648 465.295 123.977C465.117 124.307 465.028 124.693 465.028 125.136H463.688C463.688 124.455 463.845 123.856 464.159 123.341C464.473 122.826 464.902 122.424 465.443 122.136C465.989 121.848 466.6 121.705 467.278 121.705C467.96 121.705 468.564 121.848 469.091 122.136C469.617 122.424 470.03 122.812 470.33 123.301C470.629 123.79 470.778 124.333 470.778 124.932C470.778 125.36 470.701 125.778 470.545 126.188C470.394 126.593 470.129 127.045 469.75 127.545C469.375 128.042 468.854 128.648 468.188 129.364L465.574 132.159V132.25H470.983V133.5H463.642Z" fill="black"/>
      <rect x="513" y="113" width="30" height="30" rx="15" fill="white"/>
      <rect x="513" y="113" width="30" height="30" rx="15" stroke="black" stroke-width="2"/>
      <path d="M529.295 121.864V133.5H527.886V123.341H527.818L524.977 125.227V123.795L527.886 121.864H529.295Z" fill="black"/>
      <rect x="353" y="57" width="30" height="30" rx="15" fill="white"/>
      <rect x="353" y="57" width="30" height="30" rx="15" stroke="#F5332B" stroke-width="2"/>
      <path d="M360.205 77.5V76.4773L364.045 72.2727C364.496 71.7803 364.867 71.3523 365.159 70.9886C365.451 70.6212 365.667 70.2765 365.807 69.9545C365.951 69.6288 366.023 69.2879 366.023 68.9318C366.023 68.5227 365.924 68.1686 365.727 67.8693C365.534 67.5701 365.269 67.339 364.932 67.1761C364.595 67.0133 364.216 66.9318 363.795 66.9318C363.348 66.9318 362.958 67.0246 362.625 67.2102C362.295 67.392 362.04 67.6477 361.858 67.9773C361.68 68.3068 361.591 68.6932 361.591 69.1364H360.25C360.25 68.4545 360.407 67.8561 360.722 67.3409C361.036 66.8258 361.464 66.4242 362.006 66.1364C362.551 65.8485 363.163 65.7045 363.841 65.7045C364.523 65.7045 365.127 65.8485 365.653 66.1364C366.18 66.4242 366.593 66.8125 366.892 67.3011C367.191 67.7898 367.341 68.3333 367.341 68.9318C367.341 69.3598 367.263 69.7784 367.108 70.1875C366.956 70.5928 366.691 71.0455 366.312 71.5455C365.938 72.0417 365.417 72.6477 364.75 73.3636L362.136 76.1591V76.25H367.545V77.5H360.205ZM373.983 65.8636V77.5H372.574V67.3409H372.506L369.665 69.2273V67.7955L372.574 65.8636H373.983Z" fill="#F5332B"/>
      <rect x="417" y="1" width="30" height="30" rx="15" fill="white"/>
      <rect x="417" y="1" width="30" height="30" rx="15" stroke="black" stroke-width="2"/>
      <path d="M423.568 21.5L428.773 11.2045V11.1136H422.773V9.86364H430.227V11.1818L425.045 21.5H423.568ZM436.011 21.6591C435.261 21.6591 434.593 21.5303 434.006 21.2727C433.422 21.0152 432.958 20.6572 432.614 20.1989C432.273 19.7367 432.087 19.2008 432.057 18.5909H433.489C433.519 18.9659 433.648 19.2898 433.875 19.5625C434.102 19.8314 434.4 20.0398 434.767 20.1875C435.134 20.3352 435.542 20.4091 435.989 20.4091C436.489 20.4091 436.932 20.322 437.318 20.1477C437.705 19.9735 438.008 19.7311 438.227 19.4205C438.447 19.1098 438.557 18.75 438.557 18.3409C438.557 17.9129 438.451 17.536 438.239 17.2102C438.027 16.8807 437.716 16.6231 437.307 16.4375C436.898 16.2519 436.398 16.1591 435.807 16.1591H434.875V14.9091H435.807C436.269 14.9091 436.674 14.8258 437.023 14.6591C437.375 14.4924 437.65 14.2576 437.847 13.9545C438.047 13.6515 438.148 13.2955 438.148 12.8864C438.148 12.4924 438.061 12.1496 437.886 11.858C437.712 11.5663 437.466 11.339 437.148 11.1761C436.833 11.0133 436.462 10.9318 436.034 10.9318C435.633 10.9318 435.254 11.0057 434.898 11.1534C434.545 11.2973 434.258 11.5076 434.034 11.7841C433.811 12.0568 433.689 12.3864 433.67 12.7727H432.307C432.33 12.1629 432.513 11.6288 432.858 11.1705C433.203 10.7083 433.653 10.3485 434.21 10.0909C434.771 9.83333 435.386 9.70455 436.057 9.70455C436.777 9.70455 437.394 9.85038 437.909 10.142C438.424 10.4299 438.82 10.8106 439.097 11.2841C439.373 11.7576 439.511 12.2689 439.511 12.8182C439.511 13.4735 439.339 14.0322 438.994 14.4943C438.653 14.9564 438.189 15.2765 437.602 15.4545V15.5455C438.337 15.6667 438.911 15.9792 439.324 16.483C439.737 16.983 439.943 17.6023 439.943 18.3409C439.943 18.9735 439.771 19.5417 439.426 20.0455C439.085 20.5455 438.619 20.9394 438.028 21.2273C437.438 21.5152 436.765 21.6591 436.011 21.6591Z" fill="black"/>
      <rect x="481" y="57" width="30" height="30" rx="15" fill="white"/>
      <rect x="481" y="57" width="30" height="30" rx="15" stroke="black" stroke-width="2"/>
      <path d="M492.295 65.8636V77.5H490.886V67.3409H490.818L487.977 69.2273V67.7955L490.886 65.8636H492.295ZM499.347 65.7045C499.824 65.7083 500.301 65.7992 500.778 65.9773C501.256 66.1553 501.691 66.4508 502.085 66.8636C502.479 67.2727 502.795 67.8314 503.034 68.5398C503.273 69.2481 503.392 70.1364 503.392 71.2045C503.392 72.2386 503.294 73.1572 503.097 73.9602C502.903 74.7595 502.623 75.4337 502.256 75.983C501.892 76.5322 501.449 76.9489 500.926 77.233C500.407 77.517 499.82 77.6591 499.165 77.6591C498.513 77.6591 497.932 77.5303 497.42 77.2727C496.913 77.0114 496.496 76.6496 496.17 76.1875C495.848 75.7216 495.642 75.1818 495.551 74.5682H496.938C497.062 75.1023 497.311 75.5436 497.682 75.892C498.057 76.2367 498.551 76.4091 499.165 76.4091C500.063 76.4091 500.771 76.017 501.29 75.233C501.813 74.4489 502.074 73.3409 502.074 71.9091H501.983C501.771 72.2273 501.519 72.5019 501.227 72.733C500.936 72.964 500.612 73.142 500.256 73.267C499.9 73.392 499.521 73.4545 499.119 73.4545C498.453 73.4545 497.841 73.2898 497.284 72.9602C496.731 72.6269 496.288 72.1705 495.955 71.5909C495.625 71.0076 495.46 70.3409 495.46 69.5909C495.46 68.8788 495.619 68.2273 495.938 67.6364C496.259 67.0417 496.71 66.5682 497.29 66.2159C497.873 65.8636 498.559 65.6932 499.347 65.7045ZM499.347 66.9545C498.869 66.9545 498.439 67.0739 498.057 67.3125C497.678 67.5473 497.377 67.8655 497.153 68.267C496.934 68.6648 496.824 69.1061 496.824 69.5909C496.824 70.0758 496.93 70.517 497.142 70.9148C497.358 71.3087 497.652 71.6231 498.023 71.858C498.398 72.089 498.824 72.2045 499.301 72.2045C499.661 72.2045 499.996 72.1345 500.307 71.9943C500.617 71.8504 500.888 71.6553 501.119 71.4091C501.354 71.1591 501.538 70.8769 501.67 70.5625C501.803 70.2443 501.869 69.9129 501.869 69.5682C501.869 69.1136 501.759 68.6875 501.54 68.2898C501.324 67.892 501.025 67.5701 500.642 67.3239C500.263 67.0777 499.831 66.9545 499.347 66.9545Z" fill="black"/>
    </g>
    <g clip-path="url(#clip3_336_193)">
      <path d="M624 128L656 72" stroke="#F5332B" stroke-width="2" stroke-linecap="round"/>
      <path d="M720 16L656 72" stroke="black" stroke-width="2" stroke-linecap="round"/>
      <path d="M720 16L784 72" stroke="black" stroke-width="2" stroke-linecap="round"/>
      <path d="M688 128L656 72" stroke="black" stroke-width="2" stroke-linecap="round"/>
      <path d="M816 128L784 72" stroke="black" stroke-width="2" stroke-linecap="round"/>
      <path d="M752 128L784 72" stroke="black" stroke-width="2" stroke-linecap="round"/>
      <path d="M592 184L624 128" stroke="#F5332B" stroke-width="2" stroke-linecap="round"/>
      <path d="M656 184L624 128" stroke="black" stroke-width="2" stroke-linecap="round"/>
      <rect x="609" y="113" width="30" height="30" rx="15" fill="white"/>
      <rect x="609" y="113" width="30" height="30" rx="15" stroke="#F5332B" stroke-width="2"/>
      <path d="M620.568 133.5L625.773 123.205V123.114H619.773V121.864H627.227V123.182L622.045 133.5H620.568Z" fill="#F5332B"/>
      <rect x="673" y="113" width="30" height="30" rx="15" fill="white"/>
      <rect x="673" y="113" width="30" height="30" rx="15" stroke="black" stroke-width="2"/>
      <path d="M687.909 121.705C688.386 121.708 688.864 121.799 689.341 121.977C689.818 122.155 690.254 122.451 690.648 122.864C691.042 123.273 691.358 123.831 691.597 124.54C691.835 125.248 691.955 126.136 691.955 127.205C691.955 128.239 691.856 129.157 691.659 129.96C691.466 130.759 691.186 131.434 690.818 131.983C690.455 132.532 690.011 132.949 689.489 133.233C688.97 133.517 688.383 133.659 687.727 133.659C687.076 133.659 686.494 133.53 685.983 133.273C685.475 133.011 685.059 132.65 684.733 132.188C684.411 131.722 684.205 131.182 684.114 130.568H685.5C685.625 131.102 685.873 131.544 686.244 131.892C686.619 132.237 687.114 132.409 687.727 132.409C688.625 132.409 689.333 132.017 689.852 131.233C690.375 130.449 690.636 129.341 690.636 127.909H690.545C690.333 128.227 690.081 128.502 689.79 128.733C689.498 128.964 689.174 129.142 688.818 129.267C688.462 129.392 688.083 129.455 687.682 129.455C687.015 129.455 686.403 129.29 685.847 128.96C685.294 128.627 684.85 128.17 684.517 127.591C684.188 127.008 684.023 126.341 684.023 125.591C684.023 124.879 684.182 124.227 684.5 123.636C684.822 123.042 685.273 122.568 685.852 122.216C686.436 121.864 687.121 121.693 687.909 121.705ZM687.909 122.955C687.432 122.955 687.002 123.074 686.619 123.312C686.241 123.547 685.939 123.866 685.716 124.267C685.496 124.665 685.386 125.106 685.386 125.591C685.386 126.076 685.492 126.517 685.705 126.915C685.92 127.309 686.214 127.623 686.585 127.858C686.96 128.089 687.386 128.205 687.864 128.205C688.223 128.205 688.559 128.134 688.869 127.994C689.18 127.85 689.451 127.655 689.682 127.409C689.917 127.159 690.1 126.877 690.233 126.562C690.366 126.244 690.432 125.913 690.432 125.568C690.432 125.114 690.322 124.687 690.102 124.29C689.886 123.892 689.587 123.57 689.205 123.324C688.826 123.078 688.394 122.955 687.909 122.955Z" fill="black"/>
      <rect x="577" y="169" width="30" height="30" rx="15" fill="white"/>
      <rect x="577" y="169" width="30" height="30" rx="15" stroke="#0078FC" stroke-width="2"/>
      <path d="M588.205 189.5V188.477L592.045 184.273C592.496 183.78 592.867 183.352 593.159 182.989C593.451 182.621 593.667 182.277 593.807 181.955C593.951 181.629 594.023 181.288 594.023 180.932C594.023 180.523 593.924 180.169 593.727 179.869C593.534 179.57 593.269 179.339 592.932 179.176C592.595 179.013 592.216 178.932 591.795 178.932C591.348 178.932 590.958 179.025 590.625 179.21C590.295 179.392 590.04 179.648 589.858 179.977C589.68 180.307 589.591 180.693 589.591 181.136H588.25C588.25 180.455 588.407 179.856 588.722 179.341C589.036 178.826 589.464 178.424 590.006 178.136C590.551 177.848 591.163 177.705 591.841 177.705C592.523 177.705 593.127 177.848 593.653 178.136C594.18 178.424 594.593 178.812 594.892 179.301C595.191 179.79 595.341 180.333 595.341 180.932C595.341 181.36 595.263 181.778 595.108 182.188C594.956 182.593 594.691 183.045 594.312 183.545C593.938 184.042 593.417 184.648 592.75 185.364L590.136 188.159V188.25H595.545V189.5H588.205Z" fill="#0078FC"/>
      <rect x="641" y="169" width="30" height="30" rx="15" fill="white"/>
      <rect x="641" y="169" width="30" height="30" rx="15" stroke="black" stroke-width="2"/>
      <path d="M655.636 189.659C654.886 189.659 654.218 189.53 653.631 189.273C653.047 189.015 652.583 188.657 652.239 188.199C651.898 187.737 651.712 187.201 651.682 186.591H653.114C653.144 186.966 653.273 187.29 653.5 187.562C653.727 187.831 654.025 188.04 654.392 188.188C654.759 188.335 655.167 188.409 655.614 188.409C656.114 188.409 656.557 188.322 656.943 188.148C657.33 187.973 657.633 187.731 657.852 187.42C658.072 187.11 658.182 186.75 658.182 186.341C658.182 185.913 658.076 185.536 657.864 185.21C657.652 184.881 657.341 184.623 656.932 184.438C656.523 184.252 656.023 184.159 655.432 184.159H654.5V182.909H655.432C655.894 182.909 656.299 182.826 656.648 182.659C657 182.492 657.275 182.258 657.472 181.955C657.672 181.652 657.773 181.295 657.773 180.886C657.773 180.492 657.686 180.15 657.511 179.858C657.337 179.566 657.091 179.339 656.773 179.176C656.458 179.013 656.087 178.932 655.659 178.932C655.258 178.932 654.879 179.006 654.523 179.153C654.17 179.297 653.883 179.508 653.659 179.784C653.436 180.057 653.314 180.386 653.295 180.773H651.932C651.955 180.163 652.138 179.629 652.483 179.17C652.828 178.708 653.278 178.348 653.835 178.091C654.396 177.833 655.011 177.705 655.682 177.705C656.402 177.705 657.019 177.85 657.534 178.142C658.049 178.43 658.445 178.811 658.722 179.284C658.998 179.758 659.136 180.269 659.136 180.818C659.136 181.473 658.964 182.032 658.619 182.494C658.278 182.956 657.814 183.277 657.227 183.455V183.545C657.962 183.667 658.536 183.979 658.949 184.483C659.362 184.983 659.568 185.602 659.568 186.341C659.568 186.973 659.396 187.542 659.051 188.045C658.71 188.545 658.244 188.939 657.653 189.227C657.063 189.515 656.39 189.659 655.636 189.659Z" fill="black"/>
      <rect x="737" y="113" width="30" height="30" rx="15" fill="white"/>
      <rect x="737" y="113" width="30" height="30" rx="15" stroke="black" stroke-width="2"/>
      <path d="M748.295 121.864V133.5H746.886V123.341H746.818L743.977 125.227V123.795L746.886 121.864H748.295ZM751.642 133.5V132.477L755.483 128.273C755.934 127.78 756.305 127.352 756.597 126.989C756.888 126.621 757.104 126.277 757.244 125.955C757.388 125.629 757.46 125.288 757.46 124.932C757.46 124.523 757.362 124.169 757.165 123.869C756.972 123.57 756.706 123.339 756.369 123.176C756.032 123.013 755.653 122.932 755.233 122.932C754.786 122.932 754.396 123.025 754.062 123.21C753.733 123.392 753.477 123.648 753.295 123.977C753.117 124.307 753.028 124.693 753.028 125.136H751.688C751.688 124.455 751.845 123.856 752.159 123.341C752.473 122.826 752.902 122.424 753.443 122.136C753.989 121.848 754.6 121.705 755.278 121.705C755.96 121.705 756.564 121.848 757.091 122.136C757.617 122.424 758.03 122.812 758.33 123.301C758.629 123.79 758.778 124.333 758.778 124.932C758.778 125.36 758.701 125.778 758.545 126.188C758.394 126.593 758.129 127.045 757.75 127.545C757.375 128.042 756.854 128.648 756.188 129.364L753.574 132.159V132.25H758.983V133.5H751.642Z" fill="black"/>
      <rect x="801" y="113" width="30" height="30" rx="15" fill="white"/>
      <rect x="801" y="113" width="30" height="30" rx="15" stroke="black" stroke-width="2"/>
      <path d="M817.295 121.864V133.5H815.886V123.341H815.818L812.977 125.227V123.795L815.886 121.864H817.295Z" fill="black"/>
      <rect x="641" y="57" width="30" height="30" rx="15" fill="white"/>
      <rect x="641" y="57" width="30" height="30" rx="15" stroke="#F5332B" stroke-width="2"/>
      <path d="M648.205 77.5V76.4773L652.045 72.2727C652.496 71.7803 652.867 71.3523 653.159 70.9886C653.451 70.6212 653.667 70.2765 653.807 69.9545C653.951 69.6288 654.023 69.2879 654.023 68.9318C654.023 68.5227 653.924 68.1686 653.727 67.8693C653.534 67.5701 653.269 67.339 652.932 67.1761C652.595 67.0133 652.216 66.9318 651.795 66.9318C651.348 66.9318 650.958 67.0246 650.625 67.2102C650.295 67.392 650.04 67.6477 649.858 67.9773C649.68 68.3068 649.591 68.6932 649.591 69.1364H648.25C648.25 68.4545 648.407 67.8561 648.722 67.3409C649.036 66.8258 649.464 66.4242 650.006 66.1364C650.551 65.8485 651.163 65.7045 651.841 65.7045C652.523 65.7045 653.127 65.8485 653.653 66.1364C654.18 66.4242 654.593 66.8125 654.892 67.3011C655.191 67.7898 655.341 68.3333 655.341 68.9318C655.341 69.3598 655.263 69.7784 655.108 70.1875C654.956 70.5928 654.691 71.0455 654.312 71.5455C653.938 72.0417 653.417 72.6477 652.75 73.3636L650.136 76.1591V76.25H655.545V77.5H648.205ZM661.983 65.8636V77.5H660.574V67.3409H660.506L657.665 69.2273V67.7955L660.574 65.8636H661.983Z" fill="#F5332B"/>
      <rect x="705" y="1" width="30" height="30" rx="15" fill="white"/>
      <rect x="705" y="1" width="30" height="30" rx="15" stroke="black" stroke-width="2"/>
      <path d="M711.568 21.5L716.773 11.2045V11.1136H710.773V9.86364H718.227V11.1818L713.045 21.5H711.568ZM724.011 21.6591C723.261 21.6591 722.593 21.5303 722.006 21.2727C721.422 21.0152 720.958 20.6572 720.614 20.1989C720.273 19.7367 720.087 19.2008 720.057 18.5909H721.489C721.519 18.9659 721.648 19.2898 721.875 19.5625C722.102 19.8314 722.4 20.0398 722.767 20.1875C723.134 20.3352 723.542 20.4091 723.989 20.4091C724.489 20.4091 724.932 20.322 725.318 20.1477C725.705 19.9735 726.008 19.7311 726.227 19.4205C726.447 19.1098 726.557 18.75 726.557 18.3409C726.557 17.9129 726.451 17.536 726.239 17.2102C726.027 16.8807 725.716 16.6231 725.307 16.4375C724.898 16.2519 724.398 16.1591 723.807 16.1591H722.875V14.9091H723.807C724.269 14.9091 724.674 14.8258 725.023 14.6591C725.375 14.4924 725.65 14.2576 725.847 13.9545C726.047 13.6515 726.148 13.2955 726.148 12.8864C726.148 12.4924 726.061 12.1496 725.886 11.858C725.712 11.5663 725.466 11.339 725.148 11.1761C724.833 11.0133 724.462 10.9318 724.034 10.9318C723.633 10.9318 723.254 11.0057 722.898 11.1534C722.545 11.2973 722.258 11.5076 722.034 11.7841C721.811 12.0568 721.689 12.3864 721.67 12.7727H720.307C720.33 12.1629 720.513 11.6288 720.858 11.1705C721.203 10.7083 721.653 10.3485 722.21 10.0909C722.771 9.83333 723.386 9.70455 724.057 9.70455C724.777 9.70455 725.394 9.85038 725.909 10.142C726.424 10.4299 726.82 10.8106 727.097 11.2841C727.373 11.7576 727.511 12.2689 727.511 12.8182C727.511 13.4735 727.339 14.0322 726.994 14.4943C726.653 14.9564 726.189 15.2765 725.602 15.4545V15.5455C726.337 15.6667 726.911 15.9792 727.324 16.483C727.737 16.983 727.943 17.6023 727.943 18.3409C727.943 18.9735 727.771 19.5417 727.426 20.0455C727.085 20.5455 726.619 20.9394 726.028 21.2273C725.438 21.5152 724.765 21.6591 724.011 21.6591Z" fill="black"/>
      <rect x="769" y="57" width="30" height="30" rx="15" fill="white"/>
      <rect x="769" y="57" width="30" height="30" rx="15" stroke="black" stroke-width="2"/>
      <path d="M780.295 65.8636V77.5H778.886V67.3409H778.818L775.977 69.2273V67.7955L778.886 65.8636H780.295ZM787.347 65.7045C787.824 65.7083 788.301 65.7992 788.778 65.9773C789.256 66.1553 789.691 66.4508 790.085 66.8636C790.479 67.2727 790.795 67.8314 791.034 68.5398C791.273 69.2481 791.392 70.1364 791.392 71.2045C791.392 72.2386 791.294 73.1572 791.097 73.9602C790.903 74.7595 790.623 75.4337 790.256 75.983C789.892 76.5322 789.449 76.9489 788.926 77.233C788.407 77.517 787.82 77.6591 787.165 77.6591C786.513 77.6591 785.932 77.5303 785.42 77.2727C784.913 77.0114 784.496 76.6496 784.17 76.1875C783.848 75.7216 783.642 75.1818 783.551 74.5682H784.938C785.062 75.1023 785.311 75.5436 785.682 75.892C786.057 76.2367 786.551 76.4091 787.165 76.4091C788.063 76.4091 788.771 76.017 789.29 75.233C789.813 74.4489 790.074 73.3409 790.074 71.9091H789.983C789.771 72.2273 789.519 72.5019 789.227 72.733C788.936 72.964 788.612 73.142 788.256 73.267C787.9 73.392 787.521 73.4545 787.119 73.4545C786.453 73.4545 785.841 73.2898 785.284 72.9602C784.731 72.6269 784.288 72.1705 783.955 71.5909C783.625 71.0076 783.46 70.3409 783.46 69.5909C783.46 68.8788 783.619 68.2273 783.938 67.6364C784.259 67.0417 784.71 66.5682 785.29 66.2159C785.873 65.8636 786.559 65.6932 787.347 65.7045ZM787.347 66.9545C786.869 66.9545 786.439 67.0739 786.057 67.3125C785.678 67.5473 785.377 67.8655 785.153 68.267C784.934 68.6648 784.824 69.1061 784.824 69.5909C784.824 70.0758 784.93 70.517 785.142 70.9148C785.358 71.3087 785.652 71.6231 786.023 71.858C786.398 72.089 786.824 72.2045 787.301 72.2045C787.661 72.2045 787.996 72.1345 788.307 71.9943C788.617 71.8504 788.888 71.6553 789.119 71.4091C789.354 71.1591 789.538 70.8769 789.67 70.5625C789.803 70.2443 789.869 69.9129 789.869 69.5682C789.869 69.1136 789.759 68.6875 789.54 68.2898C789.324 67.892 789.025 67.5701 788.642 67.3239C788.263 67.0777 787.831 66.9545 787.347 66.9545Z" fill="black"/>
    </g>
  </g>
  <defs>
    <clipPath id="clip0_336_193">
      <rect width="832" height="200" fill="white"/>
    </clipPath>
    <clipPath id="clip1_336_193">
      <rect width="256" height="200" fill="white"/>
    </clipPath>
    <clipPath id="clip2_336_193">
      <rect width="256" height="200" fill="white" transform="translate(288)"/>
    </clipPath>
    <clipPath id="clip3_336_193">
      <rect width="256" height="200" fill="white" transform="translate(576)"/>
    </clipPath>
  </defs>
</svg>
  