<svg width="342" height="153" viewBox="0 0 342 153" fill="none"
  xmlns="http://www.w3.org/2000/svg">
  <path d="M95.1246 109.517C94.8576 110 95.0331 110.608 95.5166 110.875C96 111.142 96.6084 110.967 96.8754 110.483L95.1246 109.517ZM124.294 60.2285C124.14 59.6978 123.586 59.3917 123.056 59.5448L114.408 62.0392C113.877 62.1923 113.571 62.7466 113.724 63.2772C113.878 63.8079 114.432 64.114 114.962 63.9609L122.649 61.7436L124.866 69.4302C125.019 69.9608 125.574 70.2669 126.104 70.1139C126.635 69.9608 126.941 69.4065 126.788 68.8759L124.294 60.2285ZM96.8754 110.483L124.208 60.989L122.457 60.0222L95.1246 109.517L96.8754 110.483Z" fill="black"/>
  <path d="M133.87 42.5067C133.597 42.0263 132.987 41.8577 132.507 42.1302C132.026 42.4026 131.858 43.0129 132.13 43.4933L133.87 42.5067ZM160.869 93.5707C161.401 93.7177 161.952 93.4054 162.099 92.873L164.495 84.1978C164.642 83.6654 164.33 83.1147 163.797 82.9677C163.265 82.8206 162.714 83.133 162.567 83.6653L160.437 91.3766L152.726 89.2469C152.194 89.0998 151.643 89.4122 151.496 89.9445C151.349 90.4769 151.661 91.0276 152.194 91.1747L160.869 93.5707ZM132.13 43.4933L160.265 93.1001L162.005 92.1134L133.87 42.5067L132.13 43.4933Z" fill="black"/>
  <path d="M37 109C36.4477 109 36 109.448 36 110C36 110.552 36.4477 111 37 111V109ZM75.7071 110.707C76.0976 110.317 76.0976 109.683 75.7071 109.293L69.3431 102.929C68.9526 102.538 68.3195 102.538 67.9289 102.929C67.5384 103.319 67.5384 103.953 67.9289 104.343L73.5858 110L67.9289 115.657C67.5384 116.047 67.5384 116.681 67.9289 117.071C68.3195 117.462 68.9526 117.462 69.3431 117.071L75.7071 110.707ZM37 111H75V109H37V111Z" fill="black"/>
  <path d="M189 109C188.448 109 188 109.448 188 110C188 110.552 188.448 111 189 111V109ZM227.707 110.707C228.098 110.317 228.098 109.683 227.707 109.293L221.343 102.929C220.953 102.538 220.319 102.538 219.929 102.929C219.538 103.319 219.538 103.953 219.929 104.343L225.586 110L219.929 115.657C219.538 116.047 219.538 116.681 219.929 117.071C220.319 117.462 220.953 117.462 221.343 117.071L227.707 110.707ZM189 111H227V109H189V111Z" fill="black"/>
  <path d="M113 109C112.448 109 112 109.448 112 110C112 110.552 112.448 111 113 111V109ZM151.707 110.707C152.098 110.317 152.098 109.683 151.707 109.293L145.343 102.929C144.953 102.538 144.319 102.538 143.929 102.929C143.538 103.319 143.538 103.953 143.929 104.343L149.586 110L143.929 115.657C143.538 116.047 143.538 116.681 143.929 117.071C144.319 117.462 144.953 117.462 145.343 117.071L151.707 110.707ZM113 111H151V109H113V111Z" fill="#AAAAAA"/>
  <path d="M265 109C264.448 109 264 109.448 264 110C264 110.552 264.448 111 265 111V109ZM303.707 110.707C304.098 110.317 304.098 109.683 303.707 109.293L297.343 102.929C296.953 102.538 296.319 102.538 295.929 102.929C295.538 103.319 295.538 103.953 295.929 104.343L301.586 110L295.929 115.657C295.538 116.047 295.538 116.681 295.929 117.071C296.319 117.462 296.953 117.462 297.343 117.071L303.707 110.707ZM265 111H303V109H265V111Z" fill="black"/>
  <rect x="1" y="92" width="36" height="36" rx="18" fill="white"/>
  <rect x="1" y="92" width="36" height="36" rx="18" stroke="black" stroke-width="2"/>
  <path d="M18.8352 117.199C18.2386 117.189 17.642 117.076 17.0455 116.858C16.4489 116.64 15.9044 116.273 15.4119 115.757C14.9195 115.236 14.5241 114.533 14.2259 113.648C13.9276 112.758 13.7784 111.64 13.7784 110.295C13.7784 109.008 13.8991 107.866 14.1406 106.872C14.3821 105.873 14.7325 105.033 15.1918 104.351C15.651 103.664 16.205 103.143 16.8537 102.788C17.5071 102.433 18.2434 102.256 19.0625 102.256C19.8769 102.256 20.6013 102.419 21.2358 102.746C21.875 103.068 22.3958 103.518 22.7983 104.095C23.2008 104.673 23.4612 105.338 23.5795 106.091H21.8466C21.6856 105.437 21.3731 104.895 20.9091 104.464C20.4451 104.034 19.8295 103.818 19.0625 103.818C17.9356 103.818 17.0478 104.308 16.3991 105.288C15.7552 106.268 15.4309 107.644 15.4261 109.415H15.5398C15.8049 109.012 16.1198 108.669 16.4844 108.385C16.8537 108.096 17.2609 107.874 17.706 107.717C18.151 107.561 18.6222 107.483 19.1193 107.483C19.9527 107.483 20.715 107.691 21.4062 108.108C22.0975 108.52 22.6515 109.09 23.0682 109.82C23.4848 110.544 23.6932 111.375 23.6932 112.312C23.6932 113.212 23.492 114.036 23.0895 114.784C22.687 115.527 22.1212 116.119 21.392 116.56C20.6676 116.995 19.8153 117.208 18.8352 117.199ZM18.8352 115.636C19.4318 115.636 19.9669 115.487 20.4403 115.189C20.9186 114.891 21.295 114.491 21.5696 113.989C21.849 113.487 21.9886 112.928 21.9886 112.312C21.9886 111.711 21.8537 111.164 21.5838 110.672C21.3187 110.175 20.9517 109.779 20.483 109.486C20.0189 109.192 19.4886 109.045 18.892 109.045C18.4422 109.045 18.0232 109.135 17.6349 109.315C17.2467 109.491 16.9058 109.732 16.6122 110.04C16.3234 110.348 16.0961 110.7 15.9304 111.098C15.7647 111.491 15.6818 111.905 15.6818 112.341C15.6818 112.919 15.8168 113.458 16.0866 113.96C16.3613 114.462 16.7353 114.867 17.2088 115.175C17.687 115.482 18.2292 115.636 18.8352 115.636Z" fill="black"/>
  <rect x="77" y="92" width="36" height="36" rx="18" fill="white"/>
  <rect x="77" y="92" width="36" height="36" rx="18" stroke="black" stroke-width="2"/>
  <path d="M94.5511 117.199C93.7178 117.199 92.9673 117.033 92.2997 116.702C91.6321 116.37 91.0971 115.916 90.6946 115.338C90.2921 114.76 90.072 114.102 90.0341 113.364H91.7386C91.8049 114.022 92.1032 114.566 92.6335 114.997C93.1686 115.423 93.8078 115.636 94.5511 115.636C95.1477 115.636 95.678 115.497 96.142 115.217C96.6108 114.938 96.9777 114.554 97.2429 114.067C97.5128 113.574 97.6477 113.018 97.6477 112.398C97.6477 111.763 97.508 111.197 97.2287 110.7C96.9541 110.198 96.5753 109.803 96.0923 109.514C95.6094 109.225 95.0578 109.079 94.4375 109.074C93.9924 109.069 93.5355 109.138 93.0668 109.28C92.598 109.417 92.2121 109.595 91.9091 109.812L90.2614 109.614L91.142 102.455H98.6989V104.017H92.6193L92.108 108.307H92.1932C92.4915 108.07 92.8655 107.874 93.3153 107.717C93.7652 107.561 94.2339 107.483 94.7216 107.483C95.6117 107.483 96.4048 107.696 97.1009 108.122C97.8016 108.544 98.3509 109.121 98.7486 109.855C99.151 110.589 99.3523 111.427 99.3523 112.369C99.3523 113.297 99.1439 114.126 98.7273 114.855C98.3153 115.58 97.7472 116.152 97.0227 116.574C96.2983 116.991 95.4744 117.199 94.5511 117.199Z" fill="black"/>
  <rect x="115" y="25" width="36" height="36" rx="18" fill="white"/>
  <rect x="115" y="25" width="36" height="36" rx="18" stroke="black" stroke-width="2"/>
  <path d="M128.619 35.4545V50H126.858V37.3011H126.773L123.222 39.6591V37.8693L126.858 35.4545H128.619ZM132.803 50V48.7216L137.604 43.4659C138.167 42.8504 138.631 42.3153 138.996 41.8608C139.36 41.4015 139.63 40.9706 139.805 40.5682C139.985 40.161 140.075 39.7348 140.075 39.2898C140.075 38.7784 139.952 38.3357 139.706 37.9616C139.464 37.5876 139.133 37.2988 138.712 37.0952C138.29 36.8916 137.817 36.7898 137.291 36.7898C136.732 36.7898 136.245 36.9058 135.828 37.1378C135.416 37.3651 135.097 37.6847 134.869 38.0966C134.647 38.5085 134.536 38.9915 134.536 39.5455H132.859C132.859 38.6932 133.056 37.9451 133.449 37.3011C133.842 36.6572 134.377 36.1553 135.054 35.7955C135.736 35.4356 136.5 35.2557 137.348 35.2557C138.2 35.2557 138.955 35.4356 139.614 35.7955C140.272 36.1553 140.788 36.6406 141.162 37.2514C141.536 37.8622 141.723 38.5417 141.723 39.2898C141.723 39.8248 141.626 40.348 141.432 40.8594C141.242 41.366 140.911 41.9318 140.438 42.5568C139.969 43.1771 139.318 43.9347 138.484 44.8295L135.217 48.3239V48.4375H141.979V50H132.803Z" fill="black"/>
  <rect x="229" y="92" width="36" height="36" rx="18" fill="white"/>
  <rect x="229" y="92" width="36" height="36" rx="18" stroke="black" stroke-width="2"/>
  <path d="M248.619 102.455V117H246.858V104.301H246.773L243.222 106.659V104.869L246.858 102.455H248.619Z" fill="black"/>
  <rect x="153" y="92" width="36" height="36" rx="18" fill="white"/>
  <rect x="153" y="92" width="36" height="36" rx="18" stroke="black" stroke-width="2"/>
  <path d="M170.92 117.199C169.983 117.199 169.147 117.038 168.413 116.716C167.684 116.394 167.104 115.946 166.673 115.374C166.247 114.796 166.015 114.126 165.977 113.364H167.767C167.805 113.832 167.966 114.237 168.25 114.578C168.534 114.914 168.906 115.175 169.365 115.359C169.824 115.544 170.333 115.636 170.892 115.636C171.517 115.636 172.071 115.527 172.554 115.31C173.037 115.092 173.416 114.789 173.69 114.401C173.965 114.012 174.102 113.562 174.102 113.051C174.102 112.516 173.97 112.045 173.705 111.638C173.439 111.226 173.051 110.904 172.54 110.672C172.028 110.44 171.403 110.324 170.665 110.324H169.5V108.761H170.665C171.242 108.761 171.749 108.657 172.185 108.449C172.625 108.241 172.968 107.947 173.214 107.568C173.465 107.189 173.591 106.744 173.591 106.233C173.591 105.741 173.482 105.312 173.264 104.947C173.046 104.583 172.739 104.299 172.341 104.095C171.948 103.892 171.484 103.79 170.949 103.79C170.447 103.79 169.973 103.882 169.528 104.067C169.088 104.247 168.728 104.509 168.449 104.855C168.17 105.196 168.018 105.608 167.994 106.091H166.29C166.318 105.329 166.548 104.661 166.979 104.088C167.41 103.51 167.973 103.061 168.669 102.739C169.37 102.417 170.139 102.256 170.977 102.256C171.877 102.256 172.649 102.438 173.293 102.803C173.937 103.162 174.431 103.638 174.777 104.23C175.123 104.822 175.295 105.461 175.295 106.148C175.295 106.967 175.08 107.665 174.649 108.243C174.223 108.821 173.643 109.221 172.909 109.443V109.557C173.828 109.708 174.545 110.099 175.061 110.729C175.577 111.354 175.835 112.128 175.835 113.051C175.835 113.842 175.62 114.552 175.189 115.182C174.763 115.807 174.18 116.299 173.442 116.659C172.703 117.019 171.863 117.199 170.92 117.199Z" fill="black"/>
  <rect x="305" y="92" width="36" height="36" rx="18" fill="white"/>
  <rect x="305" y="92" width="36" height="36" rx="18" stroke="black" stroke-width="2"/>
  <path d="M322.665 117.199C321.689 117.199 320.828 117.026 320.08 116.68C319.336 116.33 318.756 115.849 318.339 115.239C317.923 114.623 317.717 113.922 317.722 113.136C317.717 112.521 317.838 111.953 318.084 111.432C318.33 110.906 318.666 110.468 319.092 110.118C319.523 109.763 320.004 109.538 320.534 109.443V109.358C319.838 109.178 319.284 108.787 318.872 108.186C318.46 107.58 318.257 106.891 318.261 106.119C318.257 105.381 318.444 104.72 318.822 104.138C319.201 103.555 319.722 103.096 320.385 102.76C321.053 102.424 321.813 102.256 322.665 102.256C323.508 102.256 324.26 102.424 324.923 102.76C325.586 103.096 326.107 103.555 326.486 104.138C326.869 104.72 327.063 105.381 327.068 106.119C327.063 106.891 326.853 107.58 326.436 108.186C326.024 108.787 325.477 109.178 324.795 109.358V109.443C325.321 109.538 325.795 109.763 326.216 110.118C326.637 110.468 326.973 110.906 327.224 111.432C327.475 111.953 327.603 112.521 327.608 113.136C327.603 113.922 327.39 114.623 326.969 115.239C326.552 115.849 325.972 116.33 325.229 116.68C324.49 117.026 323.635 117.199 322.665 117.199ZM322.665 115.636C323.323 115.636 323.891 115.53 324.369 115.317C324.848 115.104 325.217 114.803 325.477 114.415C325.738 114.027 325.87 113.572 325.875 113.051C325.87 112.502 325.728 112.017 325.449 111.595C325.17 111.174 324.788 110.842 324.305 110.601C323.827 110.359 323.28 110.239 322.665 110.239C322.045 110.239 321.491 110.359 321.003 110.601C320.52 110.842 320.139 111.174 319.859 111.595C319.585 112.017 319.45 112.502 319.455 113.051C319.45 113.572 319.575 114.027 319.831 114.415C320.091 114.803 320.463 115.104 320.946 115.317C321.429 115.53 322.002 115.636 322.665 115.636ZM322.665 108.733C323.186 108.733 323.647 108.629 324.05 108.42C324.457 108.212 324.777 107.921 325.009 107.547C325.241 107.173 325.359 106.735 325.364 106.233C325.359 105.741 325.243 105.312 325.016 104.947C324.788 104.578 324.473 104.294 324.071 104.095C323.669 103.892 323.2 103.79 322.665 103.79C322.12 103.79 321.644 103.892 321.237 104.095C320.83 104.294 320.515 104.578 320.293 104.947C320.07 105.312 319.961 105.741 319.966 106.233C319.961 106.735 320.072 107.173 320.3 107.547C320.532 107.921 320.851 108.212 321.259 108.42C321.666 108.629 322.134 108.733 322.665 108.733Z" fill="black"/>
  <path d="M66.3499 148.16C65.2832 148.16 64.4299 147.861 63.7899 147.264C63.1499 146.667 62.8299 145.845 62.8299 144.8V142.4C62.8299 141.355 63.1499 140.533 63.7899 139.936C64.4299 139.339 65.2832 139.04 66.3499 139.04C67.3632 139.04 68.1792 139.312 68.7979 139.856C69.4272 140.4 69.7579 141.141 69.7899 142.08H68.3499C68.3179 141.515 68.1259 141.083 67.7739 140.784C67.4219 140.475 66.9472 140.32 66.3499 140.32C65.7205 140.32 65.2139 140.501 64.8299 140.864C64.4565 141.216 64.2699 141.723 64.2699 142.384V144.8C64.2699 145.461 64.4565 145.973 64.8299 146.336C65.2139 146.699 65.7205 146.88 66.3499 146.88C66.9472 146.88 67.4219 146.725 67.7739 146.416C68.1259 146.107 68.3179 145.675 68.3499 145.12H69.7899C69.7579 146.059 69.4272 146.8 68.7979 147.344C68.1792 147.888 67.3632 148.16 66.3499 148.16ZM75.7996 148.16C74.7863 148.16 73.9756 147.861 73.3676 147.264C72.7596 146.656 72.4556 145.835 72.4556 144.8V139.2H73.8956V144.8C73.8956 145.44 74.0663 145.952 74.4076 146.336C74.749 146.709 75.213 146.896 75.7996 146.896C76.397 146.896 76.8663 146.709 77.2076 146.336C77.5596 145.952 77.7356 145.44 77.7356 144.8V139.2H79.1756V144.8C79.1756 145.835 78.8663 146.656 78.2476 147.264C77.629 147.861 76.813 148.16 75.7996 148.16ZM82.4014 148V139.2H83.8414V140.88H83.8734C83.948 140.315 84.188 139.867 84.5934 139.536C84.9987 139.205 85.5427 139.04 86.2254 139.04C87.1427 139.04 87.8467 139.317 88.3374 139.872C88.8387 140.416 89.0894 141.195 89.0894 142.208V142.96H87.6494V142.208C87.6494 140.928 87.0254 140.288 85.7774 140.288C85.148 140.288 84.668 140.469 84.3374 140.832C84.0067 141.195 83.8414 141.717 83.8414 142.4V148H82.4014ZM91.9951 148V139.2H93.4351V140.88H93.4671C93.5418 140.315 93.7818 139.867 94.1871 139.536C94.5925 139.205 95.1365 139.04 95.8191 139.04C96.7365 139.04 97.4405 139.317 97.9311 139.872C98.4325 140.416 98.6831 141.195 98.6831 142.208V142.96H97.2431V142.208C97.2431 140.928 96.6191 140.288 95.3711 140.288C94.7418 140.288 94.2618 140.469 93.9311 140.832C93.6005 141.195 93.4351 141.717 93.4351 142.4V148H91.9951ZM104.597 148.16C103.562 148.16 102.725 147.851 102.085 147.232C101.456 146.603 101.141 145.739 101.141 144.64V142.56C101.141 141.461 101.456 140.603 102.085 139.984C102.725 139.355 103.562 139.04 104.597 139.04C105.29 139.04 105.893 139.179 106.405 139.456C106.928 139.733 107.333 140.123 107.621 140.624C107.909 141.125 108.053 141.717 108.053 142.4V143.968H102.549V144.8C102.549 145.451 102.736 145.968 103.109 146.352C103.482 146.725 103.978 146.912 104.597 146.912C105.13 146.912 105.568 146.811 105.909 146.608C106.261 146.395 106.474 146.112 106.549 145.76H107.989C107.893 146.496 107.536 147.083 106.917 147.52C106.298 147.947 105.525 148.16 104.597 148.16ZM102.549 142.848H106.645V142.4C106.645 141.707 106.464 141.173 106.101 140.8C105.749 140.416 105.248 140.224 104.597 140.224C103.946 140.224 103.44 140.416 103.077 140.8C102.725 141.173 102.549 141.707 102.549 142.4V142.848ZM110.863 148V139.2H112.303V140.88H112.319C112.393 140.293 112.633 139.84 113.039 139.52C113.444 139.2 113.983 139.04 114.655 139.04C115.54 139.04 116.244 139.312 116.767 139.856C117.289 140.4 117.551 141.141 117.551 142.08V148H116.111V142.336C116.111 141.664 115.94 141.152 115.599 140.8C115.268 140.437 114.815 140.256 114.239 140.256C113.641 140.256 113.167 140.443 112.815 140.816C112.473 141.189 112.303 141.717 112.303 142.4V148H110.863ZM124.664 148C123.939 148 123.358 147.792 122.92 147.376C122.483 146.949 122.264 146.384 122.264 145.68V140.512H119.736V139.2H122.264V136.72H123.704V139.2H127.304V140.512H123.704V145.68C123.704 145.979 123.79 146.224 123.96 146.416C124.142 146.597 124.376 146.688 124.664 146.688H127.224V148H124.664Z" fill="black"/>
  <path d="M115.749 16L114.309 7.2H115.557L116.453 13.408C116.485 13.6427 116.517 13.904 116.549 14.192C116.581 14.4693 116.602 14.6987 116.613 14.88C116.634 14.6987 116.655 14.4693 116.677 14.192C116.709 13.904 116.746 13.6427 116.789 13.408L117.893 7.2H119.333L120.437 13.408C120.479 13.6427 120.517 13.904 120.549 14.192C120.591 14.4693 120.618 14.6987 120.629 14.88C120.65 14.6987 120.677 14.4693 120.709 14.192C120.741 13.904 120.773 13.6427 120.805 13.408L121.733 7.2H122.917L121.413 16H119.829L118.821 9.92C118.778 9.62133 118.735 9.30667 118.693 8.976C118.661 8.63467 118.634 8.37333 118.613 8.192C118.602 8.37333 118.575 8.63467 118.533 8.976C118.49 9.30667 118.442 9.62133 118.389 9.92L117.333 16H115.749ZM124.878 16V4.32H126.318V8.88H126.334C126.409 8.29333 126.649 7.84 127.054 7.52C127.46 7.2 127.998 7.04 128.67 7.04C129.556 7.04 130.26 7.312 130.782 7.856C131.305 8.4 131.566 9.14133 131.566 10.08V16H130.126V10.32C130.126 9.65867 129.956 9.152 129.614 8.8C129.284 8.43733 128.83 8.256 128.254 8.256C127.657 8.256 127.182 8.44267 126.83 8.816C126.489 9.18933 126.318 9.71733 126.318 10.4V16H124.878ZM137.032 16.16C136.125 16.16 135.405 15.9093 134.872 15.408C134.339 14.896 134.072 14.2293 134.072 13.408C134.072 12.864 134.195 12.3893 134.44 11.984C134.685 11.5787 135.027 11.264 135.464 11.04C135.901 10.8053 136.403 10.688 136.968 10.688H139.688V10C139.688 8.85867 139.064 8.288 137.816 8.288C137.261 8.288 136.813 8.38933 136.472 8.592C136.131 8.79467 135.949 9.07733 135.928 9.44H134.488C134.541 8.74667 134.861 8.176 135.448 7.728C136.045 7.26933 136.835 7.04 137.816 7.04C138.883 7.04 139.699 7.296 140.264 7.808C140.84 8.32 141.128 9.03467 141.128 9.952V16H139.704V14.4H139.672C139.587 14.944 139.315 15.376 138.856 15.696C138.397 16.0053 137.789 16.16 137.032 16.16ZM137.384 14.944C138.088 14.944 138.648 14.7733 139.064 14.432C139.48 14.0907 139.688 13.6267 139.688 13.04V11.808H137.128C136.659 11.808 136.275 11.952 135.976 12.24C135.688 12.5173 135.544 12.8907 135.544 13.36C135.544 13.8507 135.704 14.24 136.024 14.528C136.355 14.8053 136.808 14.944 137.384 14.944ZM148.274 16C147.548 16 146.967 15.792 146.53 15.376C146.092 14.9493 145.874 14.384 145.874 13.68V8.512H143.346V7.2H145.874V4.72H147.314V7.2H150.914V8.512H147.314V13.68C147.314 13.9787 147.399 14.224 147.57 14.416C147.751 14.5973 147.986 14.688 148.274 14.688H150.834V16H148.274Z" fill="black"/>
</svg>
  