<svg width="541" height="62" viewBox="0 0 541 62" fill="none"
  xmlns="http://www.w3.org/2000/svg">
  <g clip-path="url(#clip0_434_136)">
    <rect width="541" height="62" fill="white"/>
    <rect x="457" y="25" width="36" height="36" rx="18" fill="white"/>
    <rect x="457" y="25" width="36" height="36" rx="18" stroke="black" stroke-width="2"/>
    <path d="M479.205 40C479.048 39.5218 478.842 39.0933 478.587 38.7145C478.336 38.331 478.035 38.0043 477.685 37.7344C477.339 37.4645 476.946 37.2585 476.506 37.1165C476.065 36.9744 475.582 36.9034 475.057 36.9034C474.195 36.9034 473.411 37.1259 472.706 37.571C472 38.0161 471.439 38.6719 471.023 39.5384C470.606 40.4048 470.398 41.4678 470.398 42.7273C470.398 43.9867 470.608 45.0497 471.03 45.9162C471.451 46.7827 472.022 47.4384 472.741 47.8835C473.461 48.3286 474.271 48.5511 475.17 48.5511C476.004 48.5511 476.738 48.3736 477.372 48.0185C478.011 47.6586 478.509 47.152 478.864 46.4986C479.223 45.8404 479.403 45.0663 479.403 44.1761L479.943 44.2898H475.568V42.7273H481.108V44.2898C481.108 45.4877 480.852 46.5294 480.341 47.4148C479.834 48.3002 479.134 48.9867 478.239 49.4744C477.348 49.9574 476.326 50.1989 475.17 50.1989C473.883 50.1989 472.751 49.8958 471.776 49.2898C470.805 48.6837 470.047 47.822 469.503 46.7045C468.963 45.5871 468.693 44.2614 468.693 42.7273C468.693 41.5767 468.847 40.5421 469.155 39.6236C469.467 38.7003 469.908 37.9143 470.476 37.2656C471.044 36.617 471.716 36.1198 472.493 35.7741C473.269 35.4285 474.124 35.2557 475.057 35.2557C475.824 35.2557 476.539 35.3717 477.202 35.6037C477.869 35.831 478.464 36.1553 478.984 36.5767C479.51 36.9934 479.948 37.4929 480.298 38.0753C480.649 38.6529 480.89 39.2945 481.023 40H479.205Z" fill="black"/>
    <path d="M77.2845 16V4.32H78.7245V8.88H78.7405C78.8152 8.29333 79.0552 7.84 79.4605 7.52C79.8658 7.2 80.4045 7.04 81.0765 7.04C81.9618 7.04 82.6658 7.312 83.1885 7.856C83.7112 8.4 83.9725 9.14133 83.9725 10.08V16H82.5325V10.32C82.5325 9.65867 82.3618 9.152 82.0205 8.8C81.6898 8.43733 81.2365 8.256 80.6605 8.256C80.0632 8.256 79.5885 8.44267 79.2365 8.816C78.8952 9.18933 78.7245 9.71733 78.7245 10.4V16H77.2845ZM90.2063 16.16C89.1716 16.16 88.3343 15.8507 87.6943 15.232C87.0649 14.6027 86.7503 13.7387 86.7503 12.64V10.56C86.7503 9.46133 87.0649 8.60267 87.6943 7.984C88.3343 7.35467 89.1716 7.04 90.2063 7.04C90.8996 7.04 91.5023 7.17867 92.0143 7.456C92.5369 7.73333 92.9423 8.12267 93.2303 8.624C93.5183 9.12533 93.6623 9.71733 93.6623 10.4V11.968H88.1583V12.8C88.1583 13.4507 88.3449 13.968 88.7183 14.352C89.0916 14.7253 89.5876 14.912 90.2063 14.912C90.7396 14.912 91.1769 14.8107 91.5183 14.608C91.8703 14.3947 92.0836 14.112 92.1583 13.76H93.5983C93.5023 14.496 93.1449 15.0827 92.5263 15.52C91.9076 15.9467 91.1343 16.16 90.2063 16.16ZM88.1583 10.848H92.2543V10.4C92.2543 9.70667 92.0729 9.17333 91.7103 8.8C91.3583 8.416 90.8569 8.224 90.2063 8.224C89.5556 8.224 89.0489 8.416 88.6863 8.8C88.3343 9.17333 88.1583 9.70667 88.1583 10.4V10.848ZM99.032 16.16C98.1253 16.16 97.4053 15.9093 96.872 15.408C96.3387 14.896 96.072 14.2293 96.072 13.408C96.072 12.864 96.1947 12.3893 96.44 11.984C96.6853 11.5787 97.0267 11.264 97.464 11.04C97.9013 10.8053 98.4027 10.688 98.968 10.688H101.688V10C101.688 8.85867 101.064 8.288 99.816 8.288C99.2613 8.288 98.8133 8.38933 98.472 8.592C98.1307 8.79467 97.9493 9.07733 97.928 9.44H96.488C96.5413 8.74667 96.8613 8.176 97.448 7.728C98.0453 7.26933 98.8347 7.04 99.816 7.04C100.883 7.04 101.699 7.296 102.264 7.808C102.84 8.32 103.128 9.03467 103.128 9.952V16H101.704V14.4H101.672C101.587 14.944 101.315 15.376 100.856 15.696C100.397 16.0053 99.7893 16.16 99.032 16.16ZM99.384 14.944C100.088 14.944 100.648 14.7733 101.064 14.432C101.48 14.0907 101.688 13.6267 101.688 13.04V11.808H99.128C98.6587 11.808 98.2747 11.952 97.976 12.24C97.688 12.5173 97.544 12.8907 97.544 13.36C97.544 13.8507 97.704 14.24 98.024 14.528C98.3547 14.8053 98.808 14.944 99.384 14.944ZM108.882 16.16C108.007 16.16 107.303 15.8667 106.77 15.28C106.247 14.6933 105.986 13.8987 105.986 12.896V10.32C105.986 9.30667 106.247 8.50667 106.77 7.92C107.292 7.33333 107.996 7.04 108.882 7.04C109.543 7.04 110.087 7.20533 110.514 7.536C110.951 7.86667 111.212 8.31467 111.298 8.88H111.314L111.282 6.88V4.32H112.722V16H111.282V14.32H111.266C111.191 14.896 110.94 15.3493 110.514 15.68C110.087 16 109.543 16.16 108.882 16.16ZM109.362 14.912C109.959 14.912 110.428 14.7253 110.77 14.352C111.111 13.9787 111.282 13.4613 111.282 12.8V10.4C111.282 9.73867 111.111 9.22133 110.77 8.848C110.428 8.47467 109.959 8.288 109.362 8.288C108.754 8.288 108.279 8.448 107.938 8.768C107.596 9.07733 107.426 9.59467 107.426 10.32V12.88C107.426 13.5947 107.596 14.112 107.938 14.432C108.279 14.752 108.754 14.912 109.362 14.912Z" fill="black"/>
    <path d="M507.493 48C506.767 48 506.186 47.792 505.749 47.376C505.311 46.9493 505.093 46.384 505.093 45.68V40.512H502.565V39.2H505.093V36.72H506.533V39.2H510.133V40.512H506.533V45.68C506.533 45.9787 506.618 46.224 506.789 46.416C506.97 46.5973 507.205 46.688 507.493 46.688H510.053V48H507.493ZM515.438 48.16C514.532 48.16 513.812 47.9093 513.278 47.408C512.745 46.896 512.478 46.2293 512.478 45.408C512.478 44.864 512.601 44.3893 512.846 43.984C513.092 43.5787 513.433 43.264 513.87 43.04C514.308 42.8053 514.809 42.688 515.374 42.688H518.094V42C518.094 40.8587 517.47 40.288 516.222 40.288C515.668 40.288 515.22 40.3893 514.878 40.592C514.537 40.7947 514.356 41.0773 514.334 41.44H512.894C512.948 40.7467 513.268 40.176 513.854 39.728C514.452 39.2693 515.241 39.04 516.222 39.04C517.289 39.04 518.105 39.296 518.67 39.808C519.246 40.32 519.534 41.0347 519.534 41.952V48H518.11V46.4H518.078C517.993 46.944 517.721 47.376 517.262 47.696C516.804 48.0053 516.196 48.16 515.438 48.16ZM515.79 46.944C516.494 46.944 517.054 46.7733 517.47 46.432C517.886 46.0907 518.094 45.6267 518.094 45.04V43.808H515.534C515.065 43.808 514.681 43.952 514.382 44.24C514.094 44.5173 513.95 44.8907 513.95 45.36C513.95 45.8507 514.11 46.24 514.43 46.528C514.761 46.8053 515.214 46.944 515.79 46.944ZM522.36 48V46.688H525.48V40.512H522.68V39.2H526.92V46.688H529.88V48H522.36ZM526.04 37.616C525.688 37.616 525.411 37.5253 525.208 37.344C525.005 37.1627 524.904 36.9173 524.904 36.608C524.904 36.288 525.005 36.0373 525.208 35.856C525.411 35.664 525.688 35.568 526.04 35.568C526.392 35.568 526.669 35.664 526.872 35.856C527.075 36.0373 527.176 36.288 527.176 36.608C527.176 36.9173 527.075 37.1627 526.872 37.344C526.669 37.5253 526.392 37.616 526.04 37.616ZM536.674 48C535.895 48 535.271 47.776 534.802 47.328C534.343 46.8693 534.114 46.2667 534.114 45.52V37.632H531.074V36.32H535.554V45.52C535.554 45.8827 535.655 46.1707 535.858 46.384C536.06 46.5867 536.332 46.688 536.674 46.688H539.394V48H536.674Z" fill="black"/>
    <path d="M37 42C36.4477 42 36 42.4477 36 43C36 43.5523 36.4477 44 37 44V42ZM75.7071 43.7071C76.0976 43.3166 76.0976 42.6834 75.7071 42.2929L69.3431 35.9289C68.9526 35.5384 68.3195 35.5384 67.9289 35.9289C67.5384 36.3195 67.5384 36.9526 67.9289 37.3431L73.5858 43L67.9289 48.6569C67.5384 49.0474 67.5384 49.6805 67.9289 50.0711C68.3195 50.4616 68.9526 50.4616 69.3431 50.0711L75.7071 43.7071ZM37 44L75 44V42L37 42V44Z" fill="#EF4444"/>
    <rect x="1" y="25" width="36" height="36" rx="18" fill="white"/>
    <rect x="1" y="25" width="36" height="36" rx="18" stroke="#EF4444" stroke-width="2"/>
    <path d="M14.358 50H12.5114L17.8523 35.4545H19.6705L25.0114 50H23.1648L18.8182 37.7557H18.7045L14.358 50ZM15.0398 44.3182H22.483V45.8807H15.0398V44.3182Z" fill="#EF4444"/>
    <path d="M113 42C112.448 42 112 42.4477 112 43C112 43.5523 112.448 44 113 44V42ZM151.707 43.7071C152.098 43.3166 152.098 42.6834 151.707 42.2929L145.343 35.9289C144.953 35.5384 144.319 35.5384 143.929 35.9289C143.538 36.3195 143.538 36.9526 143.929 37.3431L149.586 43L143.929 48.6569C143.538 49.0474 143.538 49.6805 143.929 50.0711C144.319 50.4616 144.953 50.4616 145.343 50.0711L151.707 43.7071ZM113 44L151 44V42L113 42V44Z" fill="black"/>
    <rect x="77" y="25" width="36" height="36" rx="18" fill="white"/>
    <rect x="77" y="25" width="36" height="36" rx="18" stroke="black" stroke-width="2"/>
    <path d="M89.7614 50V35.4545H94.8466C95.8598 35.4545 96.6955 35.6297 97.3537 35.9801C98.0118 36.3258 98.5019 36.7921 98.8239 37.3793C99.1458 37.9616 99.3068 38.608 99.3068 39.3182C99.3068 39.9432 99.1955 40.4593 98.973 40.8665C98.7552 41.2737 98.4664 41.5956 98.1065 41.8324C97.7514 42.0691 97.3655 42.2443 96.9489 42.358V42.5C97.3939 42.5284 97.8414 42.6847 98.2912 42.9688C98.741 43.2528 99.1174 43.66 99.4205 44.1903C99.7235 44.7206 99.875 45.3693 99.875 46.1364C99.875 46.8655 99.7093 47.5213 99.3778 48.1037C99.0464 48.6861 98.5232 49.1477 97.8082 49.4886C97.0933 49.8295 96.1629 50 95.017 50H89.7614ZM91.5227 48.4375H95.017C96.1676 48.4375 96.9844 48.215 97.4673 47.7699C97.955 47.3201 98.1989 46.7756 98.1989 46.1364C98.1989 45.6439 98.0734 45.1894 97.8224 44.7727C97.5715 44.3513 97.214 44.0152 96.75 43.7642C96.286 43.5085 95.7367 43.3807 95.1023 43.3807H91.5227V48.4375ZM91.5227 41.8466H94.7898C95.3201 41.8466 95.7983 41.7424 96.2244 41.5341C96.6553 41.3258 96.9962 41.0322 97.2472 40.6534C97.5028 40.2746 97.6307 39.8295 97.6307 39.3182C97.6307 38.679 97.4081 38.1368 96.9631 37.6918C96.518 37.242 95.8125 37.017 94.8466 37.017H91.5227V41.8466Z" fill="black"/>
    <path d="M189 42C188.448 42 188 42.4477 188 43C188 43.5523 188.448 44 189 44V42ZM227.707 43.7071C228.098 43.3166 228.098 42.6834 227.707 42.2929L221.343 35.9289C220.953 35.5384 220.319 35.5384 219.929 35.9289C219.538 36.3195 219.538 36.9526 219.929 37.3431L225.586 43L219.929 48.6569C219.538 49.0474 219.538 49.6805 219.929 50.0711C220.319 50.4616 220.953 50.4616 221.343 50.0711L227.707 43.7071ZM189 44L227 44V42L189 42V44Z" fill="black"/>
    <rect x="153" y="25" width="36" height="36" rx="18" fill="white"/>
    <rect x="153" y="25" width="36" height="36" rx="18" stroke="black" stroke-width="2"/>
    <path d="M176.966 40H175.205C175.1 39.4934 174.918 39.0483 174.658 38.6648C174.402 38.2812 174.089 37.9593 173.72 37.6989C173.356 37.4337 172.951 37.2348 172.506 37.1023C172.061 36.9697 171.597 36.9034 171.114 36.9034C170.233 36.9034 169.435 37.1259 168.72 37.571C168.01 38.0161 167.444 38.6719 167.023 39.5384C166.606 40.4048 166.398 41.4678 166.398 42.7273C166.398 43.9867 166.606 45.0497 167.023 45.9162C167.444 46.7827 168.01 47.4384 168.72 47.8835C169.435 48.3286 170.233 48.5511 171.114 48.5511C171.597 48.5511 172.061 48.4848 172.506 48.3523C172.951 48.2197 173.356 48.0232 173.72 47.7628C174.089 47.4976 174.402 47.1733 174.658 46.7898C174.918 46.4015 175.1 45.9564 175.205 45.4545H176.966C176.833 46.1979 176.592 46.8632 176.241 47.4503C175.891 48.0374 175.455 48.5369 174.935 48.9489C174.414 49.3561 173.829 49.6662 173.18 49.8793C172.536 50.0923 171.848 50.1989 171.114 50.1989C169.873 50.1989 168.77 49.8958 167.804 49.2898C166.838 48.6837 166.078 47.822 165.524 46.7045C164.97 45.5871 164.693 44.2614 164.693 42.7273C164.693 41.1932 164.97 39.8674 165.524 38.75C166.078 37.6326 166.838 36.7708 167.804 36.1648C168.77 35.5587 169.873 35.2557 171.114 35.2557C171.848 35.2557 172.536 35.3622 173.18 35.5753C173.829 35.7884 174.414 36.1009 174.935 36.5128C175.455 36.92 175.891 37.4171 176.241 38.0043C176.592 38.5866 176.833 39.2519 176.966 40Z" fill="black"/>
    <path d="M265 42C264.448 42 264 42.4477 264 43C264 43.5523 264.448 44 265 44V42ZM303.707 43.7071C304.098 43.3166 304.098 42.6834 303.707 42.2929L297.343 35.9289C296.953 35.5384 296.319 35.5384 295.929 35.9289C295.538 36.3195 295.538 36.9526 295.929 37.3431L301.586 43L295.929 48.6569C295.538 49.0474 295.538 49.6805 295.929 50.0711C296.319 50.4616 296.953 50.4616 297.343 50.0711L303.707 43.7071ZM265 44L303 44V42L265 42V44Z" fill="black"/>
    <rect x="229" y="25" width="36" height="36" rx="18" fill="white"/>
    <rect x="229" y="25" width="36" height="36" rx="18" stroke="black" stroke-width="2"/>
    <path d="M245.75 50H241.261V35.4545H245.949C247.36 35.4545 248.567 35.7457 249.571 36.3281C250.575 36.9058 251.344 37.7367 251.879 38.821C252.414 39.9006 252.682 41.1932 252.682 42.6989C252.682 44.214 252.412 45.5185 251.872 46.6122C251.332 47.7012 250.546 48.5393 249.514 49.1264C248.482 49.7088 247.227 50 245.75 50ZM243.023 48.4375H245.636C246.839 48.4375 247.836 48.2055 248.626 47.7415C249.417 47.2775 250.007 46.617 250.395 45.7599C250.783 44.9029 250.977 43.8826 250.977 42.6989C250.977 41.5246 250.786 40.5137 250.402 39.6662C250.018 38.8139 249.446 38.1605 248.683 37.706C247.921 37.2467 246.972 37.017 245.835 37.017H243.023V48.4375Z" fill="black"/>
    <path d="M341 42C340.448 42 340 42.4477 340 43C340 43.5523 340.448 44 341 44V42ZM379.707 43.7071C380.098 43.3166 380.098 42.6834 379.707 42.2929L373.343 35.9289C372.953 35.5384 372.319 35.5384 371.929 35.9289C371.538 36.3195 371.538 36.9526 371.929 37.3431L377.586 43L371.929 48.6569C371.538 49.0474 371.538 49.6805 371.929 50.0711C372.319 50.4616 372.953 50.4616 373.343 50.0711L379.707 43.7071ZM341 44L379 44V42L341 42V44Z" fill="black"/>
    <rect x="305" y="25" width="36" height="36" rx="18" fill="white"/>
    <rect x="305" y="25" width="36" height="36" rx="18" stroke="black" stroke-width="2"/>
    <path d="M318.761 50V35.4545H327.54V37.017H320.523V41.9318H327.085V43.4943H320.523V48.4375H327.653V50H318.761Z" fill="black"/>
    <path d="M417 42C416.448 42 416 42.4477 416 43C416 43.5523 416.448 44 417 44V42ZM455.707 43.7071C456.098 43.3166 456.098 42.6834 455.707 42.2929L449.343 35.9289C448.953 35.5384 448.319 35.5384 447.929 35.9289C447.538 36.3195 447.538 36.9526 447.929 37.3431L453.586 43L447.929 48.6569C447.538 49.0474 447.538 49.6805 447.929 50.0711C448.319 50.4616 448.953 50.4616 449.343 50.0711L455.707 43.7071ZM417 44L455 44V42L417 42V44Z" fill="black"/>
    <rect x="381" y="25" width="36" height="36" rx="18" fill="white"/>
    <rect x="381" y="25" width="36" height="36" rx="18" stroke="black" stroke-width="2"/>
    <path d="M394.761 50V35.4545H403.483V37.017H396.523V41.9318H402.83V43.4943H396.523V50H394.761Z" fill="black"/>
  </g>
  <defs>
    <clipPath id="clip0_434_136">
      <rect width="541" height="62" fill="white"/>
    </clipPath>
  </defs>
</svg>
