<svg width="342" height="38" viewBox="0 0 342 38" fill="none"
  xmlns="http://www.w3.org/2000/svg">
  <rect x="1" y="1" width="36" height="36" rx="18" fill="white"/>
  <rect x="1" y="1" width="36" height="36" rx="18" stroke="black" stroke-width="2"/>
  <path d="M18.8352 26.1989C18.2386 26.1894 17.642 26.0758 17.0455 25.858C16.4489 25.6402 15.9044 25.2732 15.4119 24.7571C14.9195 24.2363 14.5241 23.5331 14.2259 22.6477C13.9276 21.7576 13.7784 20.6402 13.7784 19.2955C13.7784 18.0076 13.8991 16.8665 14.1406 15.8722C14.3821 14.8731 14.7325 14.0327 15.1918 13.3509C15.651 12.6643 16.205 12.1435 16.8537 11.7884C17.5071 11.4332 18.2434 11.2557 19.0625 11.2557C19.8769 11.2557 20.6013 11.419 21.2358 11.7457C21.875 12.0677 22.3958 12.5175 22.7983 13.0952C23.2008 13.6728 23.4612 14.3381 23.5795 15.0909H21.8466C21.6856 14.4375 21.3731 13.8954 20.9091 13.4645C20.4451 13.0336 19.8295 12.8182 19.0625 12.8182C17.9356 12.8182 17.0478 13.3082 16.3991 14.2884C15.7552 15.2685 15.4309 16.6439 15.4261 18.4148H15.5398C15.8049 18.0123 16.1198 17.669 16.4844 17.3849C16.8537 17.0961 17.2609 16.8736 17.706 16.7173C18.151 16.5611 18.6222 16.483 19.1193 16.483C19.9527 16.483 20.715 16.6913 21.4062 17.108C22.0975 17.5199 22.6515 18.0904 23.0682 18.8196C23.4848 19.544 23.6932 20.375 23.6932 21.3125C23.6932 22.2121 23.492 23.036 23.0895 23.7841C22.687 24.5275 22.1212 25.1193 21.392 25.5597C20.6676 25.9953 19.8153 26.2083 18.8352 26.1989ZM18.8352 24.6364C19.4318 24.6364 19.9669 24.4872 20.4403 24.1889C20.9186 23.8906 21.295 23.4905 21.5696 22.9886C21.849 22.4867 21.9886 21.928 21.9886 21.3125C21.9886 20.7112 21.8537 20.1643 21.5838 19.6719C21.3187 19.1747 20.9517 18.7794 20.483 18.4858C20.0189 18.1922 19.4886 18.0455 18.892 18.0455C18.4422 18.0455 18.0232 18.1354 17.6349 18.3153C17.2467 18.4905 16.9058 18.732 16.6122 19.0398C16.3234 19.3475 16.0961 19.7003 15.9304 20.098C15.7647 20.491 15.6818 20.9053 15.6818 21.3409C15.6818 21.9186 15.8168 22.4583 16.0866 22.9602C16.3613 23.4621 16.7353 23.867 17.2088 24.1747C17.687 24.4825 18.2292 24.6364 18.8352 24.6364Z" fill="black"/>
  <rect x="77" y="1" width="36" height="36" rx="18" fill="white"/>
  <rect x="77" y="1" width="36" height="36" rx="18" stroke="black" stroke-width="2"/>
  <path d="M94.5511 26.1989C93.7178 26.1989 92.9673 26.0331 92.2997 25.7017C91.6321 25.3703 91.0971 24.9157 90.6946 24.3381C90.2921 23.7604 90.072 23.1023 90.0341 22.3636H91.7386C91.8049 23.0218 92.1032 23.5663 92.6335 23.9972C93.1686 24.4233 93.8078 24.6364 94.5511 24.6364C95.1477 24.6364 95.678 24.4967 96.142 24.2173C96.6108 23.938 96.9777 23.5545 97.2429 23.0668C97.5128 22.5743 97.6477 22.018 97.6477 21.3977C97.6477 20.7633 97.508 20.1974 97.2287 19.7003C96.9541 19.1984 96.5753 18.803 96.0923 18.5142C95.6094 18.2254 95.0578 18.0786 94.4375 18.0739C93.9924 18.0691 93.5355 18.1378 93.0668 18.2798C92.598 18.4171 92.2121 18.5947 91.9091 18.8125L90.2614 18.6136L91.142 11.4545H98.6989V13.017H92.6193L92.108 17.3068H92.1932C92.4915 17.0701 92.8655 16.8736 93.3153 16.7173C93.7652 16.5611 94.2339 16.483 94.7216 16.483C95.6117 16.483 96.4048 16.696 97.1009 17.1222C97.8016 17.5436 98.3509 18.1212 98.7486 18.8551C99.151 19.589 99.3523 20.4271 99.3523 21.3693C99.3523 22.2973 99.1439 23.1259 98.7273 23.8551C98.3153 24.5795 97.7472 25.1525 97.0227 25.5739C96.2983 25.9905 95.4744 26.1989 94.5511 26.1989Z" fill="black"/>
  <rect x="229" y="1" width="36" height="36" rx="18" fill="white"/>
  <rect x="229" y="1" width="36" height="36" rx="18" stroke="black" stroke-width="2"/>
  <path d="M248.619 11.4545V26H246.858V13.3011H246.773L243.222 15.6591V13.8693L246.858 11.4545H248.619Z" fill="black"/>
  <path d="M37 18C36.4477 18 36 18.4477 36 19C36 19.5523 36.4477 20 37 20V18ZM75.7071 19.7071C76.0976 19.3166 76.0976 18.6834 75.7071 18.2929L69.3431 11.9289C68.9526 11.5384 68.3195 11.5384 67.9289 11.9289C67.5384 12.3195 67.5384 12.9526 67.9289 13.3431L73.5858 19L67.9289 24.6569C67.5384 25.0474 67.5384 25.6805 67.9289 26.0711C68.3195 26.4616 68.9526 26.4616 69.3431 26.0711L75.7071 19.7071ZM37 20H75V18H37V20Z" fill="black"/>
  <path d="M189 18C188.448 18 188 18.4477 188 19C188 19.5523 188.448 20 189 20V18ZM227.707 19.7071C228.098 19.3166 228.098 18.6834 227.707 18.2929L221.343 11.9289C220.953 11.5384 220.319 11.5384 219.929 11.9289C219.538 12.3195 219.538 12.9526 219.929 13.3431L225.586 19L219.929 24.6569C219.538 25.0474 219.538 25.6805 219.929 26.0711C220.319 26.4616 220.953 26.4616 221.343 26.0711L227.707 19.7071ZM189 20H227V18H189V20Z" fill="black"/>
  <rect x="153" y="1" width="36" height="36" rx="18" fill="white"/>
  <rect x="153" y="1" width="36" height="36" rx="18" stroke="black" stroke-width="2"/>
  <path d="M170.92 26.1989C169.983 26.1989 169.147 26.0379 168.413 25.7159C167.684 25.3939 167.104 24.9465 166.673 24.3736C166.247 23.7959 166.015 23.1259 165.977 22.3636H167.767C167.805 22.8324 167.966 23.2372 168.25 23.5781C168.534 23.9143 168.906 24.1747 169.365 24.3594C169.824 24.544 170.333 24.6364 170.892 24.6364C171.517 24.6364 172.071 24.5275 172.554 24.3097C173.037 24.0919 173.416 23.7888 173.69 23.4006C173.965 23.0123 174.102 22.5625 174.102 22.0511C174.102 21.5161 173.97 21.045 173.705 20.6378C173.439 20.2259 173.051 19.9039 172.54 19.6719C172.028 19.4399 171.403 19.3239 170.665 19.3239H169.5V17.7614H170.665C171.242 17.7614 171.749 17.6572 172.185 17.4489C172.625 17.2405 172.968 16.947 173.214 16.5682C173.465 16.1894 173.591 15.7443 173.591 15.233C173.591 14.7405 173.482 14.312 173.264 13.9474C173.046 13.5829 172.739 13.2988 172.341 13.0952C171.948 12.8916 171.484 12.7898 170.949 12.7898C170.447 12.7898 169.973 12.8821 169.528 13.0668C169.088 13.2467 168.728 13.5095 168.449 13.8551C168.17 14.196 168.018 14.608 167.994 15.0909H166.29C166.318 14.3286 166.548 13.661 166.979 13.0881C167.41 12.5104 167.973 12.0606 168.669 11.7386C169.37 11.4167 170.139 11.2557 170.977 11.2557C171.877 11.2557 172.649 11.438 173.293 11.8026C173.937 12.1624 174.431 12.6383 174.777 13.2301C175.123 13.822 175.295 14.4612 175.295 15.1477C175.295 15.9669 175.08 16.6652 174.649 17.2429C174.223 17.8205 173.643 18.2206 172.909 18.4432V18.5568C173.828 18.7083 174.545 19.099 175.061 19.7287C175.577 20.3537 175.835 21.1278 175.835 22.0511C175.835 22.8419 175.62 23.5521 175.189 24.1818C174.763 24.8068 174.18 25.2992 173.442 25.6591C172.703 26.0189 171.863 26.1989 170.92 26.1989Z" fill="black"/>
  <rect x="305" y="1" width="36" height="36" rx="18" fill="white"/>
  <rect x="305" y="1" width="36" height="36" rx="18" stroke="black" stroke-width="2"/>
  <path d="M322.665 26.1989C321.689 26.1989 320.828 26.026 320.08 25.6804C319.336 25.33 318.756 24.8494 318.339 24.2386C317.923 23.6231 317.717 22.9223 317.722 22.1364C317.717 21.5208 317.838 20.9527 318.084 20.4318C318.33 19.9062 318.666 19.4683 319.092 19.1179C319.523 18.7628 320.004 18.5379 320.534 18.4432V18.358C319.838 18.178 319.284 17.7874 318.872 17.1861C318.46 16.58 318.257 15.8911 318.261 15.1193C318.257 14.3807 318.444 13.7202 318.822 13.1378C319.201 12.5554 319.722 12.0961 320.385 11.7599C321.053 11.4238 321.813 11.2557 322.665 11.2557C323.508 11.2557 324.26 11.4238 324.923 11.7599C325.586 12.0961 326.107 12.5554 326.486 13.1378C326.869 13.7202 327.063 14.3807 327.068 15.1193C327.063 15.8911 326.853 16.58 326.436 17.1861C326.024 17.7874 325.477 18.178 324.795 18.358V18.4432C325.321 18.5379 325.795 18.7628 326.216 19.1179C326.637 19.4683 326.973 19.9062 327.224 20.4318C327.475 20.9527 327.603 21.5208 327.608 22.1364C327.603 22.9223 327.39 23.6231 326.969 24.2386C326.552 24.8494 325.972 25.33 325.229 25.6804C324.49 26.026 323.635 26.1989 322.665 26.1989ZM322.665 24.6364C323.323 24.6364 323.891 24.5298 324.369 24.3168C324.848 24.1037 325.217 23.803 325.477 23.4148C325.738 23.0265 325.87 22.572 325.875 22.0511C325.87 21.5019 325.728 21.0166 325.449 20.5952C325.17 20.1738 324.788 19.8423 324.305 19.6009C323.827 19.3594 323.28 19.2386 322.665 19.2386C322.045 19.2386 321.491 19.3594 321.003 19.6009C320.52 19.8423 320.139 20.1738 319.859 20.5952C319.585 21.0166 319.45 21.5019 319.455 22.0511C319.45 22.572 319.575 23.0265 319.831 23.4148C320.091 23.803 320.463 24.1037 320.946 24.3168C321.429 24.5298 322.002 24.6364 322.665 24.6364ZM322.665 17.733C323.186 17.733 323.647 17.6288 324.05 17.4205C324.457 17.2121 324.777 16.9209 325.009 16.5469C325.241 16.1728 325.359 15.7348 325.364 15.233C325.359 14.7405 325.243 14.312 325.016 13.9474C324.788 13.5781 324.473 13.294 324.071 13.0952C323.669 12.8916 323.2 12.7898 322.665 12.7898C322.12 12.7898 321.644 12.8916 321.237 13.0952C320.83 13.294 320.515 13.5781 320.293 13.9474C320.07 14.312 319.961 14.7405 319.966 15.233C319.961 15.7348 320.072 16.1728 320.3 16.5469C320.532 16.9209 320.851 17.2121 321.259 17.4205C321.666 17.6288 322.134 17.733 322.665 17.733Z" fill="black"/>
  <path d="M113 18C112.448 18 112 18.4477 112 19C112 19.5523 112.448 20 113 20V18ZM151.707 19.7071C152.098 19.3166 152.098 18.6834 151.707 18.2929L145.343 11.9289C144.953 11.5384 144.319 11.5384 143.929 11.9289C143.538 12.3195 143.538 12.9526 143.929 13.3431L149.586 19L143.929 24.6569C143.538 25.0474 143.538 25.6805 143.929 26.0711C144.319 26.4616 144.953 26.4616 145.343 26.0711L151.707 19.7071ZM113 20H151V18H113V20Z" fill="black"/>
  <path d="M265 18C264.448 18 264 18.4477 264 19C264 19.5523 264.448 20 265 20V18ZM303.707 19.7071C304.098 19.3166 304.098 18.6834 303.707 18.2929L297.343 11.9289C296.953 11.5384 296.319 11.5384 295.929 11.9289C295.538 12.3195 295.538 12.9526 295.929 13.3431L301.586 19L295.929 24.6569C295.538 25.0474 295.538 25.6805 295.929 26.0711C296.319 26.4616 296.953 26.4616 297.343 26.0711L303.707 19.7071ZM265 20H303V18H265V20Z" fill="black"/>
</svg>
