<svg width="673" height="38" viewBox="0 0 673 38" fill="none"
  xmlns="http://www.w3.org/2000/svg">
  <rect width="673" height="38" fill="white"/>
  <rect x="580" y="1" width="36" height="36" rx="18" fill="white"/>
  <rect x="580" y="1" width="36" height="36" rx="18" stroke="#0078FC" stroke-width="2"/>
  <path d="M603.295 11.4545V26H601.591L593.665 14.5795H593.523V26H591.761V11.4545H593.466L601.42 22.9034H601.562V11.4545H603.295Z" fill="#0078FC"/>
  <path d="M2.2845 24V12.32H3.7245V16.88H3.7405C3.81517 16.2933 4.05517 15.84 4.4605 15.52C4.86583 15.2 5.4045 15.04 6.0765 15.04C6.96183 15.04 7.66583 15.312 8.1885 15.856C8.71117 16.4 8.9725 17.1413 8.9725 18.08V24H7.5325V18.32C7.5325 17.6587 7.36183 17.152 7.0205 16.8C6.68983 16.4373 6.2365 16.256 5.6605 16.256C5.06317 16.256 4.5885 16.4427 4.2365 16.816C3.89517 17.1893 3.7245 17.7173 3.7245 18.4V24H2.2845ZM15.2063 24.16C14.1716 24.16 13.3343 23.8507 12.6943 23.232C12.0649 22.6027 11.7503 21.7387 11.7503 20.64V18.56C11.7503 17.4613 12.0649 16.6027 12.6943 15.984C13.3343 15.3547 14.1716 15.04 15.2063 15.04C15.8996 15.04 16.5023 15.1787 17.0143 15.456C17.5369 15.7333 17.9423 16.1227 18.2303 16.624C18.5183 17.1253 18.6623 17.7173 18.6623 18.4V19.968H13.1583V20.8C13.1583 21.4507 13.3449 21.968 13.7183 22.352C14.0916 22.7253 14.5876 22.912 15.2063 22.912C15.7396 22.912 16.1769 22.8107 16.5183 22.608C16.8703 22.3947 17.0836 22.112 17.1583 21.76H18.5983C18.5023 22.496 18.1449 23.0827 17.5263 23.52C16.9076 23.9467 16.1343 24.16 15.2063 24.16ZM13.1583 18.848H17.2543V18.4C17.2543 17.7067 17.0729 17.1733 16.7103 16.8C16.3583 16.416 15.8569 16.224 15.2063 16.224C14.5556 16.224 14.0489 16.416 13.6863 16.8C13.3343 17.1733 13.1583 17.7067 13.1583 18.4V18.848ZM24.032 24.16C23.1253 24.16 22.4053 23.9093 21.872 23.408C21.3387 22.896 21.072 22.2293 21.072 21.408C21.072 20.864 21.1947 20.3893 21.44 19.984C21.6853 19.5787 22.0267 19.264 22.464 19.04C22.9013 18.8053 23.4027 18.688 23.968 18.688H26.688V18C26.688 16.8587 26.064 16.288 24.816 16.288C24.2613 16.288 23.8133 16.3893 23.472 16.592C23.1307 16.7947 22.9493 17.0773 22.928 17.44H21.488C21.5413 16.7467 21.8613 16.176 22.448 15.728C23.0453 15.2693 23.8347 15.04 24.816 15.04C25.8827 15.04 26.6987 15.296 27.264 15.808C27.84 16.32 28.128 17.0347 28.128 17.952V24H26.704V22.4H26.672C26.5867 22.944 26.3147 23.376 25.856 23.696C25.3973 24.0053 24.7893 24.16 24.032 24.16ZM24.384 22.944C25.088 22.944 25.648 22.7733 26.064 22.432C26.48 22.0907 26.688 21.6267 26.688 21.04V19.808H24.128C23.6587 19.808 23.2747 19.952 22.976 20.24C22.688 20.5173 22.544 20.8907 22.544 21.36C22.544 21.8507 22.704 22.24 23.024 22.528C23.3547 22.8053 23.808 22.944 24.384 22.944ZM33.8818 24.16C33.0071 24.16 32.3031 23.8667 31.7698 23.28C31.2471 22.6933 30.9858 21.8987 30.9858 20.896V18.32C30.9858 17.3067 31.2471 16.5067 31.7698 15.92C32.2924 15.3333 32.9964 15.04 33.8818 15.04C34.5431 15.04 35.0871 15.2053 35.5138 15.536C35.9511 15.8667 36.2124 16.3147 36.2978 16.88H36.3138L36.2818 14.88V12.32H37.7218V24H36.2818V22.32H36.2658C36.1911 22.896 35.9404 23.3493 35.5138 23.68C35.0871 24 34.5431 24.16 33.8818 24.16ZM34.3618 22.912C34.9591 22.912 35.4284 22.7253 35.7698 22.352C36.1111 21.9787 36.2818 21.4613 36.2818 20.8V18.4C36.2818 17.7387 36.1111 17.2213 35.7698 16.848C35.4284 16.4747 34.9591 16.288 34.3618 16.288C33.7538 16.288 33.2791 16.448 32.9378 16.768C32.5964 17.0773 32.4258 17.5947 32.4258 18.32V20.88C32.4258 21.5947 32.5964 22.112 32.9378 22.432C33.2791 22.752 33.7538 22.912 34.3618 22.912Z" fill="black"/>
  <path d="M630.493 24C629.767 24 629.186 23.792 628.749 23.376C628.311 22.9493 628.093 22.384 628.093 21.68V16.512H625.565V15.2H628.093V12.72H629.533V15.2H633.133V16.512H629.533V21.68C629.533 21.9787 629.618 22.224 629.789 22.416C629.97 22.5973 630.205 22.688 630.493 22.688H633.053V24H630.493ZM638.438 24.16C637.532 24.16 636.812 23.9093 636.278 23.408C635.745 22.896 635.478 22.2293 635.478 21.408C635.478 20.864 635.601 20.3893 635.846 19.984C636.092 19.5787 636.433 19.264 636.87 19.04C637.308 18.8053 637.809 18.688 638.374 18.688H641.094V18C641.094 16.8587 640.47 16.288 639.222 16.288C638.668 16.288 638.22 16.3893 637.878 16.592C637.537 16.7947 637.356 17.0773 637.334 17.44H635.894C635.948 16.7467 636.268 16.176 636.854 15.728C637.452 15.2693 638.241 15.04 639.222 15.04C640.289 15.04 641.105 15.296 641.67 15.808C642.246 16.32 642.534 17.0347 642.534 17.952V24H641.11V22.4H641.078C640.993 22.944 640.721 23.376 640.262 23.696C639.804 24.0053 639.196 24.16 638.438 24.16ZM638.79 22.944C639.494 22.944 640.054 22.7733 640.47 22.432C640.886 22.0907 641.094 21.6267 641.094 21.04V19.808H638.534C638.065 19.808 637.681 19.952 637.382 20.24C637.094 20.5173 636.95 20.8907 636.95 21.36C636.95 21.8507 637.11 22.24 637.43 22.528C637.761 22.8053 638.214 22.944 638.79 22.944ZM645.36 24V22.688H648.48V16.512H645.68V15.2H649.92V22.688H652.88V24H645.36ZM649.04 13.616C648.688 13.616 648.411 13.5253 648.208 13.344C648.005 13.1627 647.904 12.9173 647.904 12.608C647.904 12.288 648.005 12.0373 648.208 11.856C648.411 11.664 648.688 11.568 649.04 11.568C649.392 11.568 649.669 11.664 649.872 11.856C650.075 12.0373 650.176 12.288 650.176 12.608C650.176 12.9173 650.075 13.1627 649.872 13.344C649.669 13.5253 649.392 13.616 649.04 13.616ZM659.674 24C658.895 24 658.271 23.776 657.802 23.328C657.343 22.8693 657.114 22.2667 657.114 21.52V13.632H654.074V12.32H658.554V21.52C658.554 21.8827 658.655 22.1707 658.858 22.384C659.06 22.5867 659.332 22.688 659.674 22.688H662.394V24H659.674Z" fill="black"/>
  <path d="M84 18C83.4477 18 83 18.4477 83 19C83 19.5523 83.4477 20 84 20V18ZM122.707 19.7071C123.098 19.3166 123.098 18.6834 122.707 18.2929L116.343 11.9289C115.953 11.5384 115.319 11.5384 114.929 11.9289C114.538 12.3195 114.538 12.9526 114.929 13.3431L120.586 19L114.929 24.6569C114.538 25.0474 114.538 25.6805 114.929 26.0711C115.319 26.4616 115.953 26.4616 116.343 26.0711L122.707 19.7071ZM84 20L122 20V18L84 18V20Z" fill="black"/>
  <rect x="48" y="1" width="36" height="36" rx="18" fill="white"/>
  <rect x="48" y="1" width="36" height="36" rx="18" stroke="black" stroke-width="2"/>
  <path d="M61.358 26H59.5114L64.8523 11.4545H66.6705L72.0114 26H70.1648L65.8182 13.7557H65.7045L61.358 26ZM62.0398 20.3182H69.483V21.8807H62.0398V20.3182Z" fill="black"/>
  <path d="M160 18C159.448 18 159 18.4477 159 19C159 19.5523 159.448 20 160 20V18ZM198.707 19.7071C199.098 19.3166 199.098 18.6834 198.707 18.2929L192.343 11.9289C191.953 11.5384 191.319 11.5384 190.929 11.9289C190.538 12.3195 190.538 12.9526 190.929 13.3431L196.586 19L190.929 24.6569C190.538 25.0474 190.538 25.6805 190.929 26.0711C191.319 26.4616 191.953 26.4616 192.343 26.0711L198.707 19.7071ZM160 20L198 20V18L160 18V20Z" fill="black"/>
  <rect x="124" y="1" width="36" height="36" rx="18" fill="white"/>
  <rect x="124" y="1" width="36" height="36" rx="18" stroke="black" stroke-width="2"/>
  <path d="M136.761 26V11.4545H141.847C142.86 11.4545 143.696 11.6297 144.354 11.9801C145.012 12.3258 145.502 12.7921 145.824 13.3793C146.146 13.9616 146.307 14.608 146.307 15.3182C146.307 15.9432 146.196 16.4593 145.973 16.8665C145.755 17.2737 145.466 17.5956 145.107 17.8324C144.751 18.0691 144.366 18.2443 143.949 18.358V18.5C144.394 18.5284 144.841 18.6847 145.291 18.9688C145.741 19.2528 146.117 19.66 146.42 20.1903C146.723 20.7206 146.875 21.3693 146.875 22.1364C146.875 22.8655 146.709 23.5213 146.378 24.1037C146.046 24.6861 145.523 25.1477 144.808 25.4886C144.093 25.8295 143.163 26 142.017 26H136.761ZM138.523 24.4375H142.017C143.168 24.4375 143.984 24.215 144.467 23.7699C144.955 23.3201 145.199 22.7756 145.199 22.1364C145.199 21.6439 145.073 21.1894 144.822 20.7727C144.571 20.3513 144.214 20.0152 143.75 19.7642C143.286 19.5085 142.737 19.3807 142.102 19.3807H138.523V24.4375ZM138.523 17.8466H141.79C142.32 17.8466 142.798 17.7424 143.224 17.5341C143.655 17.3258 143.996 17.0322 144.247 16.6534C144.503 16.2746 144.631 15.8295 144.631 15.3182C144.631 14.679 144.408 14.1368 143.963 13.6918C143.518 13.242 142.813 13.017 141.847 13.017H138.523V17.8466Z" fill="black"/>
  <path d="M236 18C235.448 18 235 18.4477 235 19C235 19.5523 235.448 20 236 20V18ZM274.707 19.7071C275.098 19.3166 275.098 18.6834 274.707 18.2929L268.343 11.9289C267.953 11.5384 267.319 11.5384 266.929 11.9289C266.538 12.3195 266.538 12.9526 266.929 13.3431L272.586 19L266.929 24.6569C266.538 25.0474 266.538 25.6805 266.929 26.0711C267.319 26.4616 267.953 26.4616 268.343 26.0711L274.707 19.7071ZM236 20L274 20V18L236 18V20Z" fill="black"/>
  <rect x="200" y="1" width="36" height="36" rx="18" fill="white"/>
  <rect x="200" y="1" width="36" height="36" rx="18" stroke="black" stroke-width="2"/>
  <path d="M223.966 16H222.205C222.1 15.4934 221.918 15.0483 221.658 14.6648C221.402 14.2812 221.089 13.9593 220.72 13.6989C220.356 13.4337 219.951 13.2348 219.506 13.1023C219.061 12.9697 218.597 12.9034 218.114 12.9034C217.233 12.9034 216.435 13.1259 215.72 13.571C215.01 14.0161 214.444 14.6719 214.023 15.5384C213.606 16.4048 213.398 17.4678 213.398 18.7273C213.398 19.9867 213.606 21.0497 214.023 21.9162C214.444 22.7827 215.01 23.4384 215.72 23.8835C216.435 24.3286 217.233 24.5511 218.114 24.5511C218.597 24.5511 219.061 24.4848 219.506 24.3523C219.951 24.2197 220.356 24.0232 220.72 23.7628C221.089 23.4976 221.402 23.1733 221.658 22.7898C221.918 22.4015 222.1 21.9564 222.205 21.4545H223.966C223.833 22.1979 223.592 22.8632 223.241 23.4503C222.891 24.0374 222.455 24.5369 221.935 24.9489C221.414 25.3561 220.829 25.6662 220.18 25.8793C219.536 26.0923 218.848 26.1989 218.114 26.1989C216.873 26.1989 215.77 25.8958 214.804 25.2898C213.838 24.6837 213.078 23.822 212.524 22.7045C211.97 21.5871 211.693 20.2614 211.693 18.7273C211.693 17.1932 211.97 15.8674 212.524 14.75C213.078 13.6326 213.838 12.7708 214.804 12.1648C215.77 11.5587 216.873 11.2557 218.114 11.2557C218.848 11.2557 219.536 11.3622 220.18 11.5753C220.829 11.7884 221.414 12.1009 221.935 12.5128C222.455 12.92 222.891 13.4171 223.241 14.0043C223.592 14.5866 223.833 15.2519 223.966 16Z" fill="black"/>
  <path d="M312 18C311.448 18 311 18.4477 311 19C311 19.5523 311.448 20 312 20V18ZM350.707 19.7071C351.098 19.3166 351.098 18.6834 350.707 18.2929L344.343 11.9289C343.953 11.5384 343.319 11.5384 342.929 11.9289C342.538 12.3195 342.538 12.9526 342.929 13.3431L348.586 19L342.929 24.6569C342.538 25.0474 342.538 25.6805 342.929 26.0711C343.319 26.4616 343.953 26.4616 344.343 26.0711L350.707 19.7071ZM312 20L350 20V18L312 18V20Z" fill="black"/>
  <rect x="276" y="1" width="36" height="36" rx="18" fill="white"/>
  <rect x="276" y="1" width="36" height="36" rx="18" stroke="black" stroke-width="2"/>
  <path d="M292.75 26H288.261V11.4545H292.949C294.36 11.4545 295.567 11.7457 296.571 12.3281C297.575 12.9058 298.344 13.7367 298.879 14.821C299.414 15.9006 299.682 17.1932 299.682 18.6989C299.682 20.214 299.412 21.5185 298.872 22.6122C298.332 23.7012 297.546 24.5393 296.514 25.1264C295.482 25.7088 294.227 26 292.75 26ZM290.023 24.4375H292.636C293.839 24.4375 294.836 24.2055 295.626 23.7415C296.417 23.2775 297.007 22.617 297.395 21.7599C297.783 20.9029 297.977 19.8826 297.977 18.6989C297.977 17.5246 297.786 16.5137 297.402 15.6662C297.018 14.8139 296.446 14.1605 295.683 13.706C294.921 13.2467 293.972 13.017 292.835 13.017H290.023V24.4375Z" fill="black"/>
  <path d="M388 18C387.448 18 387 18.4477 387 19C387 19.5523 387.448 20 388 20V18ZM426.707 19.7071C427.098 19.3166 427.098 18.6834 426.707 18.2929L420.343 11.9289C419.953 11.5384 419.319 11.5384 418.929 11.9289C418.538 12.3195 418.538 12.9526 418.929 13.3431L424.586 19L418.929 24.6569C418.538 25.0474 418.538 25.6805 418.929 26.0711C419.319 26.4616 419.953 26.4616 420.343 26.0711L426.707 19.7071ZM388 20L426 20V18L388 18V20Z" fill="black"/>
  <rect x="352" y="1" width="36" height="36" rx="18" fill="white"/>
  <rect x="352" y="1" width="36" height="36" rx="18" stroke="black" stroke-width="2"/>
  <path d="M365.761 26V11.4545H374.54V13.017H367.523V17.9318H374.085V19.4943H367.523V24.4375H374.653V26H365.761Z" fill="black"/>
  <path d="M464 18C463.448 18 463 18.4477 463 19C463 19.5523 463.448 20 464 20V18ZM502.707 19.7071C503.098 19.3166 503.098 18.6834 502.707 18.2929L496.343 11.9289C495.953 11.5384 495.319 11.5384 494.929 11.9289C494.538 12.3195 494.538 12.9526 494.929 13.3431L500.586 19L494.929 24.6569C494.538 25.0474 494.538 25.6805 494.929 26.0711C495.319 26.4616 495.953 26.4616 496.343 26.0711L502.707 19.7071ZM464 20L502 20V18L464 18V20Z" fill="black"/>
  <rect x="428" y="1" width="36" height="36" rx="18" fill="white"/>
  <rect x="428" y="1" width="36" height="36" rx="18" stroke="black" stroke-width="2"/>
  <path d="M441.761 26V11.4545H450.483V13.017H443.523V17.9318H449.83V19.4943H443.523V26H441.761Z" fill="black"/>
  <path d="M540 18C539.448 18 539 18.4477 539 19C539 19.5523 539.448 20 540 20V18ZM578.707 19.7071C579.098 19.3166 579.098 18.6834 578.707 18.2929L572.343 11.9289C571.953 11.5384 571.319 11.5384 570.929 11.9289C570.538 12.3195 570.538 12.9526 570.929 13.3431L576.586 19L570.929 24.6569C570.538 25.0474 570.538 25.6805 570.929 26.0711C571.319 26.4616 571.953 26.4616 572.343 26.0711L578.707 19.7071ZM540 20L578 20V18L540 18V20Z" fill="#0078FC"/>
  <rect x="504" y="1" width="36" height="36" rx="18" fill="white"/>
  <rect x="504" y="1" width="36" height="36" rx="18" stroke="black" stroke-width="2"/>
  <path d="M526.205 16C526.048 15.5218 525.842 15.0933 525.587 14.7145C525.336 14.331 525.035 14.0043 524.685 13.7344C524.339 13.4645 523.946 13.2585 523.506 13.1165C523.065 12.9744 522.582 12.9034 522.057 12.9034C521.195 12.9034 520.411 13.1259 519.706 13.571C519 14.0161 518.439 14.6719 518.023 15.5384C517.606 16.4048 517.398 17.4678 517.398 18.7273C517.398 19.9867 517.608 21.0497 518.03 21.9162C518.451 22.7827 519.022 23.4384 519.741 23.8835C520.461 24.3286 521.271 24.5511 522.17 24.5511C523.004 24.5511 523.738 24.3736 524.372 24.0185C525.011 23.6586 525.509 23.152 525.864 22.4986C526.223 21.8404 526.403 21.0663 526.403 20.1761L526.943 20.2898H522.568V18.7273H528.108V20.2898C528.108 21.4877 527.852 22.5294 527.341 23.4148C526.834 24.3002 526.134 24.9867 525.239 25.4744C524.348 25.9574 523.326 26.1989 522.17 26.1989C520.883 26.1989 519.751 25.8958 518.776 25.2898C517.805 24.6837 517.047 23.822 516.503 22.7045C515.963 21.5871 515.693 20.2614 515.693 18.7273C515.693 17.5767 515.847 16.5421 516.155 15.6236C516.467 14.7003 516.908 13.9143 517.476 13.2656C518.044 12.617 518.716 12.1198 519.493 11.7741C520.269 11.4285 521.124 11.2557 522.057 11.2557C522.824 11.2557 523.539 11.3717 524.202 11.6037C524.869 11.831 525.464 12.1553 525.984 12.5767C526.51 12.9934 526.948 13.4929 527.298 14.0753C527.649 14.6529 527.89 15.2945 528.023 16H526.205Z" fill="black"/>
</svg>
