<svg width="602" height="252" viewBox="0 0 602 252" fill="none"
  xmlns="http://www.w3.org/2000/svg">
  <g clip-path="url(#clip0_362_327)">
    <path d="M12 251C12 251.552 12.4477 252 13 252C13.5523 252 14 251.552 14 251L12 251ZM13.7071 0.292893C13.3166 -0.0976311 12.6834 -0.0976311 12.2929 0.292893L5.92892 6.65685C5.5384 7.04738 5.5384 7.68054 5.92892 8.07107C6.31945 8.46159 6.95261 8.46159 7.34314 8.07107L13 2.41421L18.6568 8.07107C19.0474 8.46159 19.6805 8.46159 20.0711 8.07107C20.4616 7.68054 20.4616 7.04738 20.0711 6.65685L13.7071 0.292893ZM14 251L14 1L12 1L12 251L14 251Z" fill="black"/>
    <path d="M34 239L34 67" stroke="#AAAAAA" stroke-width="2" stroke-linecap="round" stroke-dasharray="4 4"/>
    <path d="M535 239L535 67" stroke="#AAAAAA" stroke-width="2" stroke-linecap="round" stroke-dasharray="4 4"/>
    <path d="M201 239L201 73" stroke="#AAAAAA" stroke-width="2" stroke-linecap="round" stroke-dasharray="4 4"/>
    <path d="M368 239L368 186" stroke="#AAAAAA" stroke-width="2" stroke-linecap="round" stroke-dasharray="4 4"/>
    <path d="M1 238C0.447715 238 0 238.448 0 239C0 239.552 0.447715 240 1 240L1 238ZM601.707 239.707C602.098 239.317 602.098 238.683 601.707 238.293L595.343 231.929C594.953 231.538 594.319 231.538 593.929 231.929C593.538 232.319 593.538 232.953 593.929 233.343L599.586 239L593.929 244.657C593.538 245.047 593.538 245.681 593.929 246.071C594.319 246.462 594.953 246.462 595.343 246.071L601.707 239.707ZM1 240L601 240V238L1 238L1 240Z" fill="black"/>
    <path d="M34 205C65.5 122.5 133.5 70.1214 204.5 73.1214C275.5 76.1214 307 148.121 359.5 180.621C401.5 206.621 494.833 219.5 535 220" stroke="#0078FC" stroke-width="3" stroke-linecap="round"/>
    <circle cx="201" cy="73" r="3" fill="#F5332B"/>
    <circle cx="368" cy="185" r="3" fill="#F5332B"/>
    <path d="M201.557 72.1695C201.098 71.8619 200.477 71.9843 200.169 72.443C199.862 72.9017 199.984 73.5229 200.443 73.8305L201.557 72.1695ZM408.059 212.717C408.6 212.61 408.953 212.084 408.846 211.542L407.106 202.712C406.999 202.171 406.473 201.818 405.931 201.925C405.389 202.032 405.037 202.557 405.143 203.099L406.691 210.948L398.842 212.495C398.3 212.602 397.947 213.128 398.054 213.67C398.161 214.212 398.687 214.565 399.228 214.458L408.059 212.717ZM200.443 73.8305L407.308 212.566L408.422 210.905L201.557 72.1695L200.443 73.8305Z" fill="#F5332B"/>
  </g>
  <defs>
    <clipPath id="clip0_362_327">
      <rect width="602" height="252" fill="white"/>
    </clipPath>
  </defs>
</svg>
  