<svg width="320" height="190" viewBox="0 0 320 190" fill="none" xmlns="http://www.w3.org/2000/svg">
<path d="M32 5C32 2.79086 33.7909 1 36 1H64V33H36C33.7909 33 32 31.2091 32 29V5Z" fill="white"/>
<path d="M32 5C32 2.79086 33.7909 1 36 1H64V33H36C33.7909 33 32 31.2091 32 29V5Z" stroke="#AAAAAA" stroke-width="2"/>
<path d="M47.8352 24.1989C47.2386 24.1894 46.642 24.0758 46.0455 23.858C45.4489 23.6402 44.9044 23.2732 44.4119 22.7571C43.9195 22.2363 43.5241 21.5331 43.2259 20.6477C42.9276 19.7576 42.7784 18.6402 42.7784 17.2955C42.7784 16.0076 42.8991 14.8665 43.1406 13.8722C43.3821 12.8731 43.7325 12.0327 44.1918 11.3509C44.651 10.6643 45.205 10.1435 45.8537 9.78835C46.5071 9.43324 47.2434 9.25568 48.0625 9.25568C48.8769 9.25568 49.6013 9.41903 50.2358 9.74574C50.875 10.0677 51.3958 10.5175 51.7983 11.0952C52.2008 11.6728 52.4612 12.3381 52.5795 13.0909H50.8466C50.6856 12.4375 50.3731 11.8954 49.9091 11.4645C49.4451 11.0336 48.8295 10.8182 48.0625 10.8182C46.9356 10.8182 46.0478 11.3082 45.3991 12.2884C44.7552 13.2685 44.4309 14.6439 44.4261 16.4148H44.5398C44.8049 16.0123 45.1198 15.669 45.4844 15.3849C45.8537 15.0961 46.2609 14.8736 46.706 14.7173C47.151 14.5611 47.6222 14.483 48.1193 14.483C48.9527 14.483 49.715 14.6913 50.4062 15.108C51.0975 15.5199 51.6515 16.0904 52.0682 16.8196C52.4848 17.544 52.6932 18.375 52.6932 19.3125C52.6932 20.2121 52.492 21.036 52.0895 21.7841C51.687 22.5275 51.1212 23.1193 50.392 23.5597C49.6676 23.9953 48.8153 24.2083 47.8352 24.1989ZM47.8352 22.6364C48.4318 22.6364 48.9669 22.4872 49.4403 22.1889C49.9186 21.8906 50.295 21.4905 50.5696 20.9886C50.849 20.4867 50.9886 19.928 50.9886 19.3125C50.9886 18.7112 50.8537 18.1643 50.5838 17.6719C50.3187 17.1747 49.9517 16.7794 49.483 16.4858C49.0189 16.1922 48.4886 16.0455 47.892 16.0455C47.4422 16.0455 47.0232 16.1354 46.6349 16.3153C46.2467 16.4905 45.9058 16.732 45.6122 17.0398C45.3234 17.3475 45.0961 17.7003 44.9304 18.098C44.7647 18.491 44.6818 18.9053 44.6818 19.3409C44.6818 19.9186 44.8168 20.4583 45.0866 20.9602C45.3613 21.4621 45.7353 21.867 46.2088 22.1747C46.687 22.4825 47.2292 22.6364 47.8352 22.6364Z" fill="#AAAAAA"/>
<rect x="64" y="1" width="32" height="32" fill="white"/>
<rect x="64" y="1" width="32" height="32" stroke="#AAAAAA" stroke-width="2"/>
<path d="M79.5511 24.1989C78.7178 24.1989 77.9673 24.0331 77.2997 23.7017C76.6321 23.3703 76.0971 22.9157 75.6946 22.3381C75.2921 21.7604 75.072 21.1023 75.0341 20.3636H76.7386C76.8049 21.0218 77.1032 21.5663 77.6335 21.9972C78.1686 22.4233 78.8078 22.6364 79.5511 22.6364C80.1477 22.6364 80.678 22.4967 81.142 22.2173C81.6108 21.938 81.9777 21.5545 82.2429 21.0668C82.5128 20.5743 82.6477 20.018 82.6477 19.3977C82.6477 18.7633 82.508 18.1974 82.2287 17.7003C81.9541 17.1984 81.5753 16.803 81.0923 16.5142C80.6094 16.2254 80.0578 16.0786 79.4375 16.0739C78.9924 16.0691 78.5355 16.1378 78.0668 16.2798C77.598 16.4171 77.2121 16.5947 76.9091 16.8125L75.2614 16.6136L76.142 9.45455H83.6989V11.017H77.6193L77.108 15.3068H77.1932C77.4915 15.0701 77.8655 14.8736 78.3153 14.7173C78.7652 14.5611 79.2339 14.483 79.7216 14.483C80.6117 14.483 81.4048 14.696 82.1009 15.1222C82.8016 15.5436 83.3509 16.1212 83.7486 16.8551C84.151 17.589 84.3523 18.4271 84.3523 19.3693C84.3523 20.2973 84.1439 21.1259 83.7273 21.8551C83.3153 22.5795 82.7472 23.1525 82.0227 23.5739C81.2983 23.9905 80.4744 24.1989 79.5511 24.1989Z" fill="#AAAAAA"/>
<rect x="96" y="1" width="32" height="32" fill="white"/>
<rect x="96" y="1" width="32" height="32" stroke="#AAAAAA" stroke-width="2"/>
<path d="M111.92 24.1989C110.983 24.1989 110.147 24.0379 109.413 23.7159C108.684 23.3939 108.104 22.9465 107.673 22.3736C107.247 21.7959 107.015 21.1259 106.977 20.3636H108.767C108.805 20.8324 108.966 21.2372 109.25 21.5781C109.534 21.9143 109.906 22.1747 110.365 22.3594C110.824 22.544 111.333 22.6364 111.892 22.6364C112.517 22.6364 113.071 22.5275 113.554 22.3097C114.037 22.0919 114.416 21.7888 114.69 21.4006C114.965 21.0123 115.102 20.5625 115.102 20.0511C115.102 19.5161 114.97 19.045 114.705 18.6378C114.439 18.2259 114.051 17.9039 113.54 17.6719C113.028 17.4399 112.403 17.3239 111.665 17.3239H110.5V15.7614H111.665C112.242 15.7614 112.749 15.6572 113.185 15.4489C113.625 15.2405 113.968 14.947 114.214 14.5682C114.465 14.1894 114.591 13.7443 114.591 13.233C114.591 12.7405 114.482 12.312 114.264 11.9474C114.046 11.5829 113.739 11.2988 113.341 11.0952C112.948 10.8916 112.484 10.7898 111.949 10.7898C111.447 10.7898 110.973 10.8821 110.528 11.0668C110.088 11.2467 109.728 11.5095 109.449 11.8551C109.17 12.196 109.018 12.608 108.994 13.0909H107.29C107.318 12.3286 107.548 11.661 107.979 11.0881C108.41 10.5104 108.973 10.0606 109.669 9.73864C110.37 9.41667 111.139 9.25568 111.977 9.25568C112.877 9.25568 113.649 9.43797 114.293 9.80256C114.937 10.1624 115.431 10.6383 115.777 11.2301C116.123 11.822 116.295 12.4612 116.295 13.1477C116.295 13.9669 116.08 14.6652 115.649 15.2429C115.223 15.8205 114.643 16.2206 113.909 16.4432V16.5568C114.828 16.7083 115.545 17.099 116.061 17.7287C116.577 18.3537 116.835 19.1278 116.835 20.0511C116.835 20.8419 116.62 21.5521 116.189 22.1818C115.763 22.8068 115.18 23.2992 114.442 23.6591C113.703 24.0189 112.863 24.1989 111.92 24.1989Z" fill="#AAAAAA"/>
<rect x="128" y="1" width="32" height="32" fill="white"/>
<rect x="128" y="1" width="32" height="32" stroke="#AAAAAA" stroke-width="2"/>
<path d="M145.619 9.45455V24H143.858V11.3011H143.773L140.222 13.6591V11.8693L143.858 9.45455H145.619Z" fill="#AAAAAA"/>
<rect x="160" y="1" width="32" height="32" fill="white"/>
<rect x="160" y="1" width="32" height="32" stroke="#AAAAAA" stroke-width="2"/>
<path d="M175.665 24.1989C174.689 24.1989 173.828 24.026 173.08 23.6804C172.336 23.33 171.756 22.8494 171.339 22.2386C170.923 21.6231 170.717 20.9223 170.722 20.1364C170.717 19.5208 170.838 18.9527 171.084 18.4318C171.33 17.9062 171.666 17.4683 172.092 17.1179C172.523 16.7628 173.004 16.5379 173.534 16.4432V16.358C172.838 16.178 172.284 15.7874 171.872 15.1861C171.46 14.58 171.257 13.8911 171.261 13.1193C171.257 12.3807 171.444 11.7202 171.822 11.1378C172.201 10.5554 172.722 10.0961 173.385 9.75994C174.053 9.42377 174.813 9.25568 175.665 9.25568C176.508 9.25568 177.26 9.42377 177.923 9.75994C178.586 10.0961 179.107 10.5554 179.486 11.1378C179.869 11.7202 180.063 12.3807 180.068 13.1193C180.063 13.8911 179.853 14.58 179.436 15.1861C179.024 15.7874 178.477 16.178 177.795 16.358V16.4432C178.321 16.5379 178.795 16.7628 179.216 17.1179C179.637 17.4683 179.973 17.9062 180.224 18.4318C180.475 18.9527 180.603 19.5208 180.608 20.1364C180.603 20.9223 180.39 21.6231 179.969 22.2386C179.552 22.8494 178.972 23.33 178.229 23.6804C177.49 24.026 176.635 24.1989 175.665 24.1989ZM175.665 22.6364C176.323 22.6364 176.891 22.5298 177.369 22.3168C177.848 22.1037 178.217 21.803 178.477 21.4148C178.738 21.0265 178.87 20.572 178.875 20.0511C178.87 19.5019 178.728 19.0166 178.449 18.5952C178.17 18.1738 177.788 17.8423 177.305 17.6009C176.827 17.3594 176.28 17.2386 175.665 17.2386C175.045 17.2386 174.491 17.3594 174.003 17.6009C173.52 17.8423 173.139 18.1738 172.859 18.5952C172.585 19.0166 172.45 19.5019 172.455 20.0511C172.45 20.572 172.575 21.0265 172.831 21.4148C173.091 21.803 173.463 22.1037 173.946 22.3168C174.429 22.5298 175.002 22.6364 175.665 22.6364ZM175.665 15.733C176.186 15.733 176.647 15.6288 177.05 15.4205C177.457 15.2121 177.777 14.9209 178.009 14.5469C178.241 14.1728 178.359 13.7348 178.364 13.233C178.359 12.7405 178.243 12.312 178.016 11.9474C177.788 11.5781 177.473 11.294 177.071 11.0952C176.669 10.8916 176.2 10.7898 175.665 10.7898C175.12 10.7898 174.644 10.8916 174.237 11.0952C173.83 11.294 173.515 11.5781 173.293 11.9474C173.07 12.312 172.961 12.7405 172.966 13.233C172.961 13.7348 173.072 14.1728 173.3 14.5469C173.532 14.9209 173.851 15.2121 174.259 15.4205C174.666 15.6288 175.134 15.733 175.665 15.733Z" fill="#AAAAAA"/>
<rect x="192" y="1" width="32" height="32" fill="white"/>
<rect x="192" y="1" width="32" height="32" stroke="#AAAAAA" stroke-width="2"/>
<path d="M203.96 24L210.466 11.1307V11.017H202.966V9.45455H212.284V11.1023L205.807 24H203.96Z" fill="#AAAAAA"/>
<rect x="224" y="1" width="32" height="32" fill="white"/>
<rect x="224" y="1" width="32" height="32" stroke="#AAAAAA" stroke-width="2"/>
<path d="M235.006 24V22.7216L239.807 17.4659C240.37 16.8504 240.834 16.3153 241.199 15.8608C241.563 15.4015 241.833 14.9706 242.009 14.5682C242.188 14.161 242.278 13.7348 242.278 13.2898C242.278 12.7784 242.155 12.3357 241.909 11.9616C241.668 11.5876 241.336 11.2988 240.915 11.0952C240.493 10.8916 240.02 10.7898 239.494 10.7898C238.936 10.7898 238.448 10.9058 238.031 11.1378C237.619 11.3651 237.3 11.6847 237.072 12.0966C236.85 12.5085 236.739 12.9915 236.739 13.5455H235.062C235.062 12.6932 235.259 11.9451 235.652 11.3011C236.045 10.6572 236.58 10.1553 237.257 9.79545C237.939 9.43561 238.704 9.25568 239.551 9.25568C240.403 9.25568 241.159 9.43561 241.817 9.79545C242.475 10.1553 242.991 10.6406 243.365 11.2514C243.739 11.8622 243.926 12.5417 243.926 13.2898C243.926 13.8248 243.829 14.348 243.635 14.8594C243.446 15.366 243.114 15.9318 242.641 16.5568C242.172 17.1771 241.521 17.9347 240.688 18.8295L237.42 22.3239V22.4375H244.182V24H235.006Z" fill="#AAAAAA"/>
<path d="M256 1H284C286.209 1 288 2.79086 288 5V29C288 31.2091 286.209 33 284 33H256V1Z" fill="white"/>
<path d="M256 1H284C286.209 1 288 2.79086 288 5V29C288 31.2091 286.209 33 284 33H256V1Z" stroke="#AAAAAA" stroke-width="2"/>
<path d="M266.665 21.017V19.5682L273.057 9.45455H274.108V11.6989H273.398L268.568 19.3409V19.4545H277.176V21.017H266.665ZM273.511 24V20.5767V19.902V9.45455H275.188V24H273.511Z" fill="#AAAAAA"/>
<path d="M32 5C32 2.79086 33.7909 1 36 1H64V33H36C33.7909 33 32 31.2091 32 29V5Z" fill="white"/>
<path d="M32 5C32 2.79086 33.7909 1 36 1H64V33H36C33.7909 33 32 31.2091 32 29V5Z" stroke="black" stroke-width="2"/>
<path d="M49.6193 9.45455V24H47.858V11.3011H47.7727L44.2216 13.6591V11.8693L47.858 9.45455H49.6193Z" fill="black"/>
<rect x="64" y="1" width="32" height="32" fill="white"/>
<rect x="64" y="1" width="32" height="32" stroke="black" stroke-width="2"/>
<path d="M75.0057 24V22.7216L79.8068 17.4659C80.3703 16.8504 80.8343 16.3153 81.1989 15.8608C81.5634 15.4015 81.8333 14.9706 82.0085 14.5682C82.1884 14.161 82.2784 13.7348 82.2784 13.2898C82.2784 12.7784 82.1553 12.3357 81.9091 11.9616C81.6676 11.5876 81.3362 11.2988 80.9148 11.0952C80.4934 10.8916 80.0199 10.7898 79.4943 10.7898C78.9356 10.7898 78.4479 10.9058 78.0312 11.1378C77.6193 11.3651 77.2997 11.6847 77.0724 12.0966C76.8499 12.5085 76.7386 12.9915 76.7386 13.5455H75.0625C75.0625 12.6932 75.259 11.9451 75.652 11.3011C76.045 10.6572 76.58 10.1553 77.2571 9.79545C77.9389 9.43561 78.7036 9.25568 79.5511 9.25568C80.4034 9.25568 81.1586 9.43561 81.8168 9.79545C82.4749 10.1553 82.991 10.6406 83.3651 11.2514C83.7391 11.8622 83.9261 12.5417 83.9261 13.2898C83.9261 13.8248 83.8291 14.348 83.6349 14.8594C83.4455 15.366 83.1141 15.9318 82.6406 16.5568C82.1719 17.1771 81.5208 17.9347 80.6875 18.8295L77.4205 22.3239V22.4375H84.1818V24H75.0057Z" fill="black"/>
<rect x="96" y="1" width="32" height="32" fill="white"/>
<rect x="96" y="1" width="32" height="32" stroke="black" stroke-width="2"/>
<path d="M111.92 24.1989C110.983 24.1989 110.147 24.0379 109.413 23.7159C108.684 23.3939 108.104 22.9465 107.673 22.3736C107.247 21.7959 107.015 21.1259 106.977 20.3636H108.767C108.805 20.8324 108.966 21.2372 109.25 21.5781C109.534 21.9143 109.906 22.1747 110.365 22.3594C110.824 22.544 111.333 22.6364 111.892 22.6364C112.517 22.6364 113.071 22.5275 113.554 22.3097C114.037 22.0919 114.416 21.7888 114.69 21.4006C114.965 21.0123 115.102 20.5625 115.102 20.0511C115.102 19.5161 114.97 19.045 114.705 18.6378C114.439 18.2259 114.051 17.9039 113.54 17.6719C113.028 17.4399 112.403 17.3239 111.665 17.3239H110.5V15.7614H111.665C112.242 15.7614 112.749 15.6572 113.185 15.4489C113.625 15.2405 113.968 14.947 114.214 14.5682C114.465 14.1894 114.591 13.7443 114.591 13.233C114.591 12.7405 114.482 12.312 114.264 11.9474C114.046 11.5829 113.739 11.2988 113.341 11.0952C112.948 10.8916 112.484 10.7898 111.949 10.7898C111.447 10.7898 110.973 10.8821 110.528 11.0668C110.088 11.2467 109.728 11.5095 109.449 11.8551C109.17 12.196 109.018 12.608 108.994 13.0909H107.29C107.318 12.3286 107.548 11.661 107.979 11.0881C108.41 10.5104 108.973 10.0606 109.669 9.73864C110.37 9.41667 111.139 9.25568 111.977 9.25568C112.877 9.25568 113.649 9.43797 114.293 9.80256C114.937 10.1624 115.431 10.6383 115.777 11.2301C116.123 11.822 116.295 12.4612 116.295 13.1477C116.295 13.9669 116.08 14.6652 115.649 15.2429C115.223 15.8205 114.643 16.2206 113.909 16.4432V16.5568C114.828 16.7083 115.545 17.099 116.061 17.7287C116.577 18.3537 116.835 19.1278 116.835 20.0511C116.835 20.8419 116.62 21.5521 116.189 22.1818C115.763 22.8068 115.18 23.2992 114.442 23.6591C113.703 24.0189 112.863 24.1989 111.92 24.1989Z" fill="black"/>
<rect x="128" y="1" width="32" height="32" fill="white"/>
<rect x="128" y="1" width="32" height="32" stroke="black" stroke-width="2"/>
<path d="M138.665 21.017V19.5682L145.057 9.45455H146.108V11.6989H145.398L140.568 19.3409V19.4545H149.176V21.017H138.665ZM145.511 24V20.5767V19.902V9.45455H147.188V24H145.511Z" fill="black"/>
<rect x="160" y="1" width="32" height="32" fill="white"/>
<rect x="160" y="1" width="32" height="32" stroke="black" stroke-width="2"/>
<path d="M175.551 24.1989C174.718 24.1989 173.967 24.0331 173.3 23.7017C172.632 23.3703 172.097 22.9157 171.695 22.3381C171.292 21.7604 171.072 21.1023 171.034 20.3636H172.739C172.805 21.0218 173.103 21.5663 173.634 21.9972C174.169 22.4233 174.808 22.6364 175.551 22.6364C176.148 22.6364 176.678 22.4967 177.142 22.2173C177.611 21.938 177.978 21.5545 178.243 21.0668C178.513 20.5743 178.648 20.018 178.648 19.3977C178.648 18.7633 178.508 18.1974 178.229 17.7003C177.954 17.1984 177.575 16.803 177.092 16.5142C176.609 16.2254 176.058 16.0786 175.438 16.0739C174.992 16.0691 174.536 16.1378 174.067 16.2798C173.598 16.4171 173.212 16.5947 172.909 16.8125L171.261 16.6136L172.142 9.45455H179.699V11.017H173.619L173.108 15.3068H173.193C173.491 15.0701 173.866 14.8736 174.315 14.7173C174.765 14.5611 175.234 14.483 175.722 14.483C176.612 14.483 177.405 14.696 178.101 15.1222C178.802 15.5436 179.351 16.1212 179.749 16.8551C180.151 17.589 180.352 18.4271 180.352 19.3693C180.352 20.2973 180.144 21.1259 179.727 21.8551C179.315 22.5795 178.747 23.1525 178.023 23.5739C177.298 23.9905 176.474 24.1989 175.551 24.1989Z" fill="black"/>
<rect x="192" y="1" width="32" height="32" fill="white"/>
<rect x="192" y="1" width="32" height="32" stroke="black" stroke-width="2"/>
<path d="M207.835 24.1989C207.239 24.1894 206.642 24.0758 206.045 23.858C205.449 23.6402 204.904 23.2732 204.412 22.7571C203.92 22.2363 203.524 21.5331 203.226 20.6477C202.928 19.7576 202.778 18.6402 202.778 17.2955C202.778 16.0076 202.899 14.8665 203.141 13.8722C203.382 12.8731 203.732 12.0327 204.192 11.3509C204.651 10.6643 205.205 10.1435 205.854 9.78835C206.507 9.43324 207.243 9.25568 208.062 9.25568C208.877 9.25568 209.601 9.41903 210.236 9.74574C210.875 10.0677 211.396 10.5175 211.798 11.0952C212.201 11.6728 212.461 12.3381 212.58 13.0909H210.847C210.686 12.4375 210.373 11.8954 209.909 11.4645C209.445 11.0336 208.83 10.8182 208.062 10.8182C206.936 10.8182 206.048 11.3082 205.399 12.2884C204.755 13.2685 204.431 14.6439 204.426 16.4148H204.54C204.805 16.0123 205.12 15.669 205.484 15.3849C205.854 15.0961 206.261 14.8736 206.706 14.7173C207.151 14.5611 207.622 14.483 208.119 14.483C208.953 14.483 209.715 14.6913 210.406 15.108C211.098 15.5199 211.652 16.0904 212.068 16.8196C212.485 17.544 212.693 18.375 212.693 19.3125C212.693 20.2121 212.492 21.036 212.089 21.7841C211.687 22.5275 211.121 23.1193 210.392 23.5597C209.668 23.9953 208.815 24.2083 207.835 24.1989ZM207.835 22.6364C208.432 22.6364 208.967 22.4872 209.44 22.1889C209.919 21.8906 210.295 21.4905 210.57 20.9886C210.849 20.4867 210.989 19.928 210.989 19.3125C210.989 18.7112 210.854 18.1643 210.584 17.6719C210.319 17.1747 209.952 16.7794 209.483 16.4858C209.019 16.1922 208.489 16.0455 207.892 16.0455C207.442 16.0455 207.023 16.1354 206.635 16.3153C206.247 16.4905 205.906 16.732 205.612 17.0398C205.323 17.3475 205.096 17.7003 204.93 18.098C204.765 18.491 204.682 18.9053 204.682 19.3409C204.682 19.9186 204.817 20.4583 205.087 20.9602C205.361 21.4621 205.735 21.867 206.209 22.1747C206.687 22.4825 207.229 22.6364 207.835 22.6364Z" fill="black"/>
<rect x="224" y="1" width="32" height="32" fill="white"/>
<rect x="224" y="1" width="32" height="32" stroke="black" stroke-width="2"/>
<path d="M235.96 24L242.466 11.1307V11.017H234.966V9.45455H244.284V11.1023L237.807 24H235.96Z" fill="black"/>
<path d="M256 1H284C286.209 1 288 2.79086 288 5V29C288 31.2091 286.209 33 284 33H256V1Z" fill="white"/>
<path d="M256 1H284C286.209 1 288 2.79086 288 5V29C288 31.2091 286.209 33 284 33H256V1Z" stroke="black" stroke-width="2"/>
<path d="M271.665 24.1989C270.689 24.1989 269.828 24.026 269.08 23.6804C268.336 23.33 267.756 22.8494 267.339 22.2386C266.923 21.6231 266.717 20.9223 266.722 20.1364C266.717 19.5208 266.838 18.9527 267.084 18.4318C267.33 17.9062 267.666 17.4683 268.092 17.1179C268.523 16.7628 269.004 16.5379 269.534 16.4432V16.358C268.838 16.178 268.284 15.7874 267.872 15.1861C267.46 14.58 267.257 13.8911 267.261 13.1193C267.257 12.3807 267.444 11.7202 267.822 11.1378C268.201 10.5554 268.722 10.0961 269.385 9.75994C270.053 9.42377 270.813 9.25568 271.665 9.25568C272.508 9.25568 273.26 9.42377 273.923 9.75994C274.586 10.0961 275.107 10.5554 275.486 11.1378C275.869 11.7202 276.063 12.3807 276.068 13.1193C276.063 13.8911 275.853 14.58 275.436 15.1861C275.024 15.7874 274.477 16.178 273.795 16.358V16.4432C274.321 16.5379 274.795 16.7628 275.216 17.1179C275.637 17.4683 275.973 17.9062 276.224 18.4318C276.475 18.9527 276.603 19.5208 276.608 20.1364C276.603 20.9223 276.39 21.6231 275.969 22.2386C275.552 22.8494 274.972 23.33 274.229 23.6804C273.49 24.026 272.635 24.1989 271.665 24.1989ZM271.665 22.6364C272.323 22.6364 272.891 22.5298 273.369 22.3168C273.848 22.1037 274.217 21.803 274.477 21.4148C274.738 21.0265 274.87 20.572 274.875 20.0511C274.87 19.5019 274.728 19.0166 274.449 18.5952C274.17 18.1738 273.788 17.8423 273.305 17.6009C272.827 17.3594 272.28 17.2386 271.665 17.2386C271.045 17.2386 270.491 17.3594 270.003 17.6009C269.52 17.8423 269.139 18.1738 268.859 18.5952C268.585 19.0166 268.45 19.5019 268.455 20.0511C268.45 20.572 268.575 21.0265 268.831 21.4148C269.091 21.803 269.463 22.1037 269.946 22.3168C270.429 22.5298 271.002 22.6364 271.665 22.6364ZM271.665 15.733C272.186 15.733 272.647 15.6288 273.05 15.4205C273.457 15.2121 273.777 14.9209 274.009 14.5469C274.241 14.1728 274.359 13.7348 274.364 13.233C274.359 12.7405 274.243 12.312 274.016 11.9474C273.788 11.5781 273.473 11.294 273.071 11.0952C272.669 10.8916 272.2 10.7898 271.665 10.7898C271.12 10.7898 270.644 10.8916 270.237 11.0952C269.83 11.294 269.515 11.5781 269.293 11.9474C269.07 12.312 268.961 12.7405 268.966 13.233C268.961 13.7348 269.072 14.1728 269.3 14.5469C269.532 14.9209 269.851 15.2121 270.259 15.4205C270.666 15.6288 271.134 15.733 271.665 15.733Z" fill="black"/>
</svg>
