<svg width="320" height="190" viewBox="0 0 320 190" fill="none" xmlns="http://www.w3.org/2000/svg">
<path d="M32 5C32 2.79086 33.7909 1 36 1H64V33H36C33.7909 33 32 31.2091 32 29V5Z" fill="white"/>
<path d="M32 5C32 2.79086 33.7909 1 36 1H64V33H36C33.7909 33 32 31.2091 32 29V5Z" stroke="#AAAAAA" stroke-width="2"/>
<path d="M47.8352 24.1989C47.2386 24.1894 46.642 24.0758 46.0455 23.858C45.4489 23.6402 44.9044 23.2732 44.4119 22.7571C43.9195 22.2363 43.5241 21.5331 43.2259 20.6477C42.9276 19.7576 42.7784 18.6402 42.7784 17.2955C42.7784 16.0076 42.8991 14.8665 43.1406 13.8722C43.3821 12.8731 43.7325 12.0327 44.1918 11.3509C44.651 10.6643 45.205 10.1435 45.8537 9.78835C46.5071 9.43324 47.2434 9.25568 48.0625 9.25568C48.8769 9.25568 49.6013 9.41903 50.2358 9.74574C50.875 10.0677 51.3958 10.5175 51.7983 11.0952C52.2008 11.6728 52.4612 12.3381 52.5795 13.0909H50.8466C50.6856 12.4375 50.3731 11.8954 49.9091 11.4645C49.4451 11.0336 48.8295 10.8182 48.0625 10.8182C46.9356 10.8182 46.0478 11.3082 45.3991 12.2884C44.7552 13.2685 44.4309 14.6439 44.4261 16.4148H44.5398C44.8049 16.0123 45.1198 15.669 45.4844 15.3849C45.8537 15.0961 46.2609 14.8736 46.706 14.7173C47.151 14.5611 47.6222 14.483 48.1193 14.483C48.9527 14.483 49.715 14.6913 50.4062 15.108C51.0975 15.5199 51.6515 16.0904 52.0682 16.8196C52.4848 17.544 52.6932 18.375 52.6932 19.3125C52.6932 20.2121 52.492 21.036 52.0895 21.7841C51.687 22.5275 51.1212 23.1193 50.392 23.5597C49.6676 23.9953 48.8153 24.2083 47.8352 24.1989ZM47.8352 22.6364C48.4318 22.6364 48.9669 22.4872 49.4403 22.1889C49.9186 21.8906 50.295 21.4905 50.5696 20.9886C50.849 20.4867 50.9886 19.928 50.9886 19.3125C50.9886 18.7112 50.8537 18.1643 50.5838 17.6719C50.3187 17.1747 49.9517 16.7794 49.483 16.4858C49.0189 16.1922 48.4886 16.0455 47.892 16.0455C47.4422 16.0455 47.0232 16.1354 46.6349 16.3153C46.2467 16.4905 45.9058 16.732 45.6122 17.0398C45.3234 17.3475 45.0961 17.7003 44.9304 18.098C44.7647 18.491 44.6818 18.9053 44.6818 19.3409C44.6818 19.9186 44.8168 20.4583 45.0866 20.9602C45.3613 21.4621 45.7353 21.867 46.2088 22.1747C46.687 22.4825 47.2292 22.6364 47.8352 22.6364Z" fill="#AAAAAA"/>
<rect x="64" y="1" width="32" height="32" fill="white"/>
<rect x="64" y="1" width="32" height="32" stroke="#AAAAAA" stroke-width="2"/>
<path d="M79.5511 24.1989C78.7178 24.1989 77.9673 24.0331 77.2997 23.7017C76.6321 23.3703 76.0971 22.9157 75.6946 22.3381C75.2921 21.7604 75.072 21.1023 75.0341 20.3636H76.7386C76.8049 21.0218 77.1032 21.5663 77.6335 21.9972C78.1686 22.4233 78.8078 22.6364 79.5511 22.6364C80.1477 22.6364 80.678 22.4967 81.142 22.2173C81.6108 21.938 81.9777 21.5545 82.2429 21.0668C82.5128 20.5743 82.6477 20.018 82.6477 19.3977C82.6477 18.7633 82.508 18.1974 82.2287 17.7003C81.9541 17.1984 81.5753 16.803 81.0923 16.5142C80.6094 16.2254 80.0578 16.0786 79.4375 16.0739C78.9924 16.0691 78.5355 16.1378 78.0668 16.2798C77.598 16.4171 77.2121 16.5947 76.9091 16.8125L75.2614 16.6136L76.142 9.45455H83.6989V11.017H77.6193L77.108 15.3068H77.1932C77.4915 15.0701 77.8655 14.8736 78.3153 14.7173C78.7652 14.5611 79.2339 14.483 79.7216 14.483C80.6117 14.483 81.4048 14.696 82.1009 15.1222C82.8016 15.5436 83.3509 16.1212 83.7486 16.8551C84.151 17.589 84.3523 18.4271 84.3523 19.3693C84.3523 20.2973 84.1439 21.1259 83.7273 21.8551C83.3153 22.5795 82.7472 23.1525 82.0227 23.5739C81.2983 23.9905 80.4744 24.1989 79.5511 24.1989Z" fill="#AAAAAA"/>
<rect x="96" y="1" width="32" height="32" fill="white"/>
<rect x="96" y="1" width="32" height="32" stroke="#AAAAAA" stroke-width="2"/>
<path d="M111.92 24.1989C110.983 24.1989 110.147 24.0379 109.413 23.7159C108.684 23.3939 108.104 22.9465 107.673 22.3736C107.247 21.7959 107.015 21.1259 106.977 20.3636H108.767C108.805 20.8324 108.966 21.2372 109.25 21.5781C109.534 21.9143 109.906 22.1747 110.365 22.3594C110.824 22.544 111.333 22.6364 111.892 22.6364C112.517 22.6364 113.071 22.5275 113.554 22.3097C114.037 22.0919 114.416 21.7888 114.69 21.4006C114.965 21.0123 115.102 20.5625 115.102 20.0511C115.102 19.5161 114.97 19.045 114.705 18.6378C114.439 18.2259 114.051 17.9039 113.54 17.6719C113.028 17.4399 112.403 17.3239 111.665 17.3239H110.5V15.7614H111.665C112.242 15.7614 112.749 15.6572 113.185 15.4489C113.625 15.2405 113.968 14.947 114.214 14.5682C114.465 14.1894 114.591 13.7443 114.591 13.233C114.591 12.7405 114.482 12.312 114.264 11.9474C114.046 11.5829 113.739 11.2988 113.341 11.0952C112.948 10.8916 112.484 10.7898 111.949 10.7898C111.447 10.7898 110.973 10.8821 110.528 11.0668C110.088 11.2467 109.728 11.5095 109.449 11.8551C109.17 12.196 109.018 12.608 108.994 13.0909H107.29C107.318 12.3286 107.548 11.661 107.979 11.0881C108.41 10.5104 108.973 10.0606 109.669 9.73864C110.37 9.41667 111.139 9.25568 111.977 9.25568C112.877 9.25568 113.649 9.43797 114.293 9.80256C114.937 10.1624 115.431 10.6383 115.777 11.2301C116.123 11.822 116.295 12.4612 116.295 13.1477C116.295 13.9669 116.08 14.6652 115.649 15.2429C115.223 15.8205 114.643 16.2206 113.909 16.4432V16.5568C114.828 16.7083 115.545 17.099 116.061 17.7287C116.577 18.3537 116.835 19.1278 116.835 20.0511C116.835 20.8419 116.62 21.5521 116.189 22.1818C115.763 22.8068 115.18 23.2992 114.442 23.6591C113.703 24.0189 112.863 24.1989 111.92 24.1989Z" fill="#AAAAAA"/>
<rect x="128" y="1" width="32" height="32" fill="white"/>
<rect x="128" y="1" width="32" height="32" stroke="#AAAAAA" stroke-width="2"/>
<path d="M145.619 9.45455V24H143.858V11.3011H143.773L140.222 13.6591V11.8693L143.858 9.45455H145.619Z" fill="#AAAAAA"/>
<rect x="160" y="1" width="32" height="32" fill="white"/>
<rect x="160" y="1" width="32" height="32" stroke="#AAAAAA" stroke-width="2"/>
<path d="M175.665 24.1989C174.689 24.1989 173.828 24.026 173.08 23.6804C172.336 23.33 171.756 22.8494 171.339 22.2386C170.923 21.6231 170.717 20.9223 170.722 20.1364C170.717 19.5208 170.838 18.9527 171.084 18.4318C171.33 17.9062 171.666 17.4683 172.092 17.1179C172.523 16.7628 173.004 16.5379 173.534 16.4432V16.358C172.838 16.178 172.284 15.7874 171.872 15.1861C171.46 14.58 171.257 13.8911 171.261 13.1193C171.257 12.3807 171.444 11.7202 171.822 11.1378C172.201 10.5554 172.722 10.0961 173.385 9.75994C174.053 9.42377 174.813 9.25568 175.665 9.25568C176.508 9.25568 177.26 9.42377 177.923 9.75994C178.586 10.0961 179.107 10.5554 179.486 11.1378C179.869 11.7202 180.063 12.3807 180.068 13.1193C180.063 13.8911 179.853 14.58 179.436 15.1861C179.024 15.7874 178.477 16.178 177.795 16.358V16.4432C178.321 16.5379 178.795 16.7628 179.216 17.1179C179.637 17.4683 179.973 17.9062 180.224 18.4318C180.475 18.9527 180.603 19.5208 180.608 20.1364C180.603 20.9223 180.39 21.6231 179.969 22.2386C179.552 22.8494 178.972 23.33 178.229 23.6804C177.49 24.026 176.635 24.1989 175.665 24.1989ZM175.665 22.6364C176.323 22.6364 176.891 22.5298 177.369 22.3168C177.848 22.1037 178.217 21.803 178.477 21.4148C178.738 21.0265 178.87 20.572 178.875 20.0511C178.87 19.5019 178.728 19.0166 178.449 18.5952C178.17 18.1738 177.788 17.8423 177.305 17.6009C176.827 17.3594 176.28 17.2386 175.665 17.2386C175.045 17.2386 174.491 17.3594 174.003 17.6009C173.52 17.8423 173.139 18.1738 172.859 18.5952C172.585 19.0166 172.45 19.5019 172.455 20.0511C172.45 20.572 172.575 21.0265 172.831 21.4148C173.091 21.803 173.463 22.1037 173.946 22.3168C174.429 22.5298 175.002 22.6364 175.665 22.6364ZM175.665 15.733C176.186 15.733 176.647 15.6288 177.05 15.4205C177.457 15.2121 177.777 14.9209 178.009 14.5469C178.241 14.1728 178.359 13.7348 178.364 13.233C178.359 12.7405 178.243 12.312 178.016 11.9474C177.788 11.5781 177.473 11.294 177.071 11.0952C176.669 10.8916 176.2 10.7898 175.665 10.7898C175.12 10.7898 174.644 10.8916 174.237 11.0952C173.83 11.294 173.515 11.5781 173.293 11.9474C173.07 12.312 172.961 12.7405 172.966 13.233C172.961 13.7348 173.072 14.1728 173.3 14.5469C173.532 14.9209 173.851 15.2121 174.259 15.4205C174.666 15.6288 175.134 15.733 175.665 15.733Z" fill="#AAAAAA"/>
<rect x="192" y="1" width="32" height="32" fill="white"/>
<rect x="192" y="1" width="32" height="32" stroke="#AAAAAA" stroke-width="2"/>
<path d="M203.96 24L210.466 11.1307V11.017H202.966V9.45455H212.284V11.1023L205.807 24H203.96Z" fill="#AAAAAA"/>
<rect x="224" y="1" width="32" height="32" fill="white"/>
<rect x="224" y="1" width="32" height="32" stroke="#AAAAAA" stroke-width="2"/>
<path d="M235.006 24V22.7216L239.807 17.4659C240.37 16.8504 240.834 16.3153 241.199 15.8608C241.563 15.4015 241.833 14.9706 242.009 14.5682C242.188 14.161 242.278 13.7348 242.278 13.2898C242.278 12.7784 242.155 12.3357 241.909 11.9616C241.668 11.5876 241.336 11.2988 240.915 11.0952C240.493 10.8916 240.02 10.7898 239.494 10.7898C238.936 10.7898 238.448 10.9058 238.031 11.1378C237.619 11.3651 237.3 11.6847 237.072 12.0966C236.85 12.5085 236.739 12.9915 236.739 13.5455H235.062C235.062 12.6932 235.259 11.9451 235.652 11.3011C236.045 10.6572 236.58 10.1553 237.257 9.79545C237.939 9.43561 238.704 9.25568 239.551 9.25568C240.403 9.25568 241.159 9.43561 241.817 9.79545C242.475 10.1553 242.991 10.6406 243.365 11.2514C243.739 11.8622 243.926 12.5417 243.926 13.2898C243.926 13.8248 243.829 14.348 243.635 14.8594C243.446 15.366 243.114 15.9318 242.641 16.5568C242.172 17.1771 241.521 17.9347 240.688 18.8295L237.42 22.3239V22.4375H244.182V24H235.006Z" fill="#AAAAAA"/>
<path d="M256 1H284C286.209 1 288 2.79086 288 5V29C288 31.2091 286.209 33 284 33H256V1Z" fill="white"/>
<path d="M256 1H284C286.209 1 288 2.79086 288 5V29C288 31.2091 286.209 33 284 33H256V1Z" stroke="#AAAAAA" stroke-width="2"/>
<path d="M266.665 21.017V19.5682L273.057 9.45455H274.108V11.6989H273.398L268.568 19.3409V19.4545H277.176V21.017H266.665ZM273.511 24V20.5767V19.902V9.45455H275.188V24H273.511Z" fill="#AAAAAA"/>
<path d="M32 5C32 2.79086 33.7909 1 36 1H64V33H36C33.7909 33 32 31.2091 32 29V5Z" fill="white"/>
<path d="M32 5C32 2.79086 33.7909 1 36 1H64V33H36C33.7909 33 32 31.2091 32 29V5Z" stroke="#AAAAAA" stroke-width="2"/>
<path d="M47.8352 24.1989C47.2386 24.1894 46.642 24.0758 46.0455 23.858C45.4489 23.6402 44.9044 23.2732 44.4119 22.7571C43.9195 22.2363 43.5241 21.5331 43.2259 20.6477C42.9276 19.7576 42.7784 18.6402 42.7784 17.2955C42.7784 16.0076 42.8991 14.8665 43.1406 13.8722C43.3821 12.8731 43.7325 12.0327 44.1918 11.3509C44.651 10.6643 45.205 10.1435 45.8537 9.78835C46.5071 9.43324 47.2434 9.25568 48.0625 9.25568C48.8769 9.25568 49.6013 9.41903 50.2358 9.74574C50.875 10.0677 51.3958 10.5175 51.7983 11.0952C52.2008 11.6728 52.4612 12.3381 52.5795 13.0909H50.8466C50.6856 12.4375 50.3731 11.8954 49.9091 11.4645C49.4451 11.0336 48.8295 10.8182 48.0625 10.8182C46.9356 10.8182 46.0478 11.3082 45.3991 12.2884C44.7552 13.2685 44.4309 14.6439 44.4261 16.4148H44.5398C44.8049 16.0123 45.1198 15.669 45.4844 15.3849C45.8537 15.0961 46.2609 14.8736 46.706 14.7173C47.151 14.5611 47.6222 14.483 48.1193 14.483C48.9527 14.483 49.715 14.6913 50.4062 15.108C51.0975 15.5199 51.6515 16.0904 52.0682 16.8196C52.4848 17.544 52.6932 18.375 52.6932 19.3125C52.6932 20.2121 52.492 21.036 52.0895 21.7841C51.687 22.5275 51.1212 23.1193 50.392 23.5597C49.6676 23.9953 48.8153 24.2083 47.8352 24.1989ZM47.8352 22.6364C48.4318 22.6364 48.9669 22.4872 49.4403 22.1889C49.9186 21.8906 50.295 21.4905 50.5696 20.9886C50.849 20.4867 50.9886 19.928 50.9886 19.3125C50.9886 18.7112 50.8537 18.1643 50.5838 17.6719C50.3187 17.1747 49.9517 16.7794 49.483 16.4858C49.0189 16.1922 48.4886 16.0455 47.892 16.0455C47.4422 16.0455 47.0232 16.1354 46.6349 16.3153C46.2467 16.4905 45.9058 16.732 45.6122 17.0398C45.3234 17.3475 45.0961 17.7003 44.9304 18.098C44.7647 18.491 44.6818 18.9053 44.6818 19.3409C44.6818 19.9186 44.8168 20.4583 45.0866 20.9602C45.3613 21.4621 45.7353 21.867 46.2088 22.1747C46.687 22.4825 47.2292 22.6364 47.8352 22.6364Z" fill="#AAAAAA"/>
<rect x="64" y="1" width="32" height="32" fill="white"/>
<rect x="64" y="1" width="32" height="32" stroke="#AAAAAA" stroke-width="2"/>
<path d="M79.5511 24.1989C78.7178 24.1989 77.9673 24.0331 77.2997 23.7017C76.6321 23.3703 76.0971 22.9157 75.6946 22.3381C75.2921 21.7604 75.072 21.1023 75.0341 20.3636H76.7386C76.8049 21.0218 77.1032 21.5663 77.6335 21.9972C78.1686 22.4233 78.8078 22.6364 79.5511 22.6364C80.1477 22.6364 80.678 22.4967 81.142 22.2173C81.6108 21.938 81.9777 21.5545 82.2429 21.0668C82.5128 20.5743 82.6477 20.018 82.6477 19.3977C82.6477 18.7633 82.508 18.1974 82.2287 17.7003C81.9541 17.1984 81.5753 16.803 81.0923 16.5142C80.6094 16.2254 80.0578 16.0786 79.4375 16.0739C78.9924 16.0691 78.5355 16.1378 78.0668 16.2798C77.598 16.4171 77.2121 16.5947 76.9091 16.8125L75.2614 16.6136L76.142 9.45455H83.6989V11.017H77.6193L77.108 15.3068H77.1932C77.4915 15.0701 77.8655 14.8736 78.3153 14.7173C78.7652 14.5611 79.2339 14.483 79.7216 14.483C80.6117 14.483 81.4048 14.696 82.1009 15.1222C82.8016 15.5436 83.3509 16.1212 83.7486 16.8551C84.151 17.589 84.3523 18.4271 84.3523 19.3693C84.3523 20.2973 84.1439 21.1259 83.7273 21.8551C83.3153 22.5795 82.7472 23.1525 82.0227 23.5739C81.2983 23.9905 80.4744 24.1989 79.5511 24.1989Z" fill="#AAAAAA"/>
<rect x="96" y="1" width="32" height="32" fill="white"/>
<rect x="96" y="1" width="32" height="32" stroke="#AAAAAA" stroke-width="2"/>
<path d="M111.92 24.1989C110.983 24.1989 110.147 24.0379 109.413 23.7159C108.684 23.3939 108.104 22.9465 107.673 22.3736C107.247 21.7959 107.015 21.1259 106.977 20.3636H108.767C108.805 20.8324 108.966 21.2372 109.25 21.5781C109.534 21.9143 109.906 22.1747 110.365 22.3594C110.824 22.544 111.333 22.6364 111.892 22.6364C112.517 22.6364 113.071 22.5275 113.554 22.3097C114.037 22.0919 114.416 21.7888 114.69 21.4006C114.965 21.0123 115.102 20.5625 115.102 20.0511C115.102 19.5161 114.97 19.045 114.705 18.6378C114.439 18.2259 114.051 17.9039 113.54 17.6719C113.028 17.4399 112.403 17.3239 111.665 17.3239H110.5V15.7614H111.665C112.242 15.7614 112.749 15.6572 113.185 15.4489C113.625 15.2405 113.968 14.947 114.214 14.5682C114.465 14.1894 114.591 13.7443 114.591 13.233C114.591 12.7405 114.482 12.312 114.264 11.9474C114.046 11.5829 113.739 11.2988 113.341 11.0952C112.948 10.8916 112.484 10.7898 111.949 10.7898C111.447 10.7898 110.973 10.8821 110.528 11.0668C110.088 11.2467 109.728 11.5095 109.449 11.8551C109.17 12.196 109.018 12.608 108.994 13.0909H107.29C107.318 12.3286 107.548 11.661 107.979 11.0881C108.41 10.5104 108.973 10.0606 109.669 9.73864C110.37 9.41667 111.139 9.25568 111.977 9.25568C112.877 9.25568 113.649 9.43797 114.293 9.80256C114.937 10.1624 115.431 10.6383 115.777 11.2301C116.123 11.822 116.295 12.4612 116.295 13.1477C116.295 13.9669 116.08 14.6652 115.649 15.2429C115.223 15.8205 114.643 16.2206 113.909 16.4432V16.5568C114.828 16.7083 115.545 17.099 116.061 17.7287C116.577 18.3537 116.835 19.1278 116.835 20.0511C116.835 20.8419 116.62 21.5521 116.189 22.1818C115.763 22.8068 115.18 23.2992 114.442 23.6591C113.703 24.0189 112.863 24.1989 111.92 24.1989Z" fill="#AAAAAA"/>
<rect x="128" y="1" width="32" height="32" fill="white"/>
<rect x="128" y="1" width="32" height="32" stroke="#AAAAAA" stroke-width="2"/>
<path d="M145.619 9.45455V24H143.858V11.3011H143.773L140.222 13.6591V11.8693L143.858 9.45455H145.619Z" fill="#AAAAAA"/>
<rect x="160" y="1" width="32" height="32" fill="white"/>
<rect x="160" y="1" width="32" height="32" stroke="#AAAAAA" stroke-width="2"/>
<path d="M175.665 24.1989C174.689 24.1989 173.828 24.026 173.08 23.6804C172.336 23.33 171.756 22.8494 171.339 22.2386C170.923 21.6231 170.717 20.9223 170.722 20.1364C170.717 19.5208 170.838 18.9527 171.084 18.4318C171.33 17.9062 171.666 17.4683 172.092 17.1179C172.523 16.7628 173.004 16.5379 173.534 16.4432V16.358C172.838 16.178 172.284 15.7874 171.872 15.1861C171.46 14.58 171.257 13.8911 171.261 13.1193C171.257 12.3807 171.444 11.7202 171.822 11.1378C172.201 10.5554 172.722 10.0961 173.385 9.75994C174.053 9.42377 174.813 9.25568 175.665 9.25568C176.508 9.25568 177.26 9.42377 177.923 9.75994C178.586 10.0961 179.107 10.5554 179.486 11.1378C179.869 11.7202 180.063 12.3807 180.068 13.1193C180.063 13.8911 179.853 14.58 179.436 15.1861C179.024 15.7874 178.477 16.178 177.795 16.358V16.4432C178.321 16.5379 178.795 16.7628 179.216 17.1179C179.637 17.4683 179.973 17.9062 180.224 18.4318C180.475 18.9527 180.603 19.5208 180.608 20.1364C180.603 20.9223 180.39 21.6231 179.969 22.2386C179.552 22.8494 178.972 23.33 178.229 23.6804C177.49 24.026 176.635 24.1989 175.665 24.1989ZM175.665 22.6364C176.323 22.6364 176.891 22.5298 177.369 22.3168C177.848 22.1037 178.217 21.803 178.477 21.4148C178.738 21.0265 178.87 20.572 178.875 20.0511C178.87 19.5019 178.728 19.0166 178.449 18.5952C178.17 18.1738 177.788 17.8423 177.305 17.6009C176.827 17.3594 176.28 17.2386 175.665 17.2386C175.045 17.2386 174.491 17.3594 174.003 17.6009C173.52 17.8423 173.139 18.1738 172.859 18.5952C172.585 19.0166 172.45 19.5019 172.455 20.0511C172.45 20.572 172.575 21.0265 172.831 21.4148C173.091 21.803 173.463 22.1037 173.946 22.3168C174.429 22.5298 175.002 22.6364 175.665 22.6364ZM175.665 15.733C176.186 15.733 176.647 15.6288 177.05 15.4205C177.457 15.2121 177.777 14.9209 178.009 14.5469C178.241 14.1728 178.359 13.7348 178.364 13.233C178.359 12.7405 178.243 12.312 178.016 11.9474C177.788 11.5781 177.473 11.294 177.071 11.0952C176.669 10.8916 176.2 10.7898 175.665 10.7898C175.12 10.7898 174.644 10.8916 174.237 11.0952C173.83 11.294 173.515 11.5781 173.293 11.9474C173.07 12.312 172.961 12.7405 172.966 13.233C172.961 13.7348 173.072 14.1728 173.3 14.5469C173.532 14.9209 173.851 15.2121 174.259 15.4205C174.666 15.6288 175.134 15.733 175.665 15.733Z" fill="#AAAAAA"/>
<rect x="192" y="1" width="32" height="32" fill="white"/>
<rect x="192" y="1" width="32" height="32" stroke="#AAAAAA" stroke-width="2"/>
<path d="M203.96 24L210.466 11.1307V11.017H202.966V9.45455H212.284V11.1023L205.807 24H203.96Z" fill="#AAAAAA"/>
<rect x="224" y="1" width="32" height="32" fill="white"/>
<rect x="224" y="1" width="32" height="32" stroke="#AAAAAA" stroke-width="2"/>
<path d="M235.006 24V22.7216L239.807 17.4659C240.37 16.8504 240.834 16.3153 241.199 15.8608C241.563 15.4015 241.833 14.9706 242.009 14.5682C242.188 14.161 242.278 13.7348 242.278 13.2898C242.278 12.7784 242.155 12.3357 241.909 11.9616C241.668 11.5876 241.336 11.2988 240.915 11.0952C240.493 10.8916 240.02 10.7898 239.494 10.7898C238.936 10.7898 238.448 10.9058 238.031 11.1378C237.619 11.3651 237.3 11.6847 237.072 12.0966C236.85 12.5085 236.739 12.9915 236.739 13.5455H235.062C235.062 12.6932 235.259 11.9451 235.652 11.3011C236.045 10.6572 236.58 10.1553 237.257 9.79545C237.939 9.43561 238.704 9.25568 239.551 9.25568C240.403 9.25568 241.159 9.43561 241.817 9.79545C242.475 10.1553 242.991 10.6406 243.365 11.2514C243.739 11.8622 243.926 12.5417 243.926 13.2898C243.926 13.8248 243.829 14.348 243.635 14.8594C243.446 15.366 243.114 15.9318 242.641 16.5568C242.172 17.1771 241.521 17.9347 240.688 18.8295L237.42 22.3239V22.4375H244.182V24H235.006Z" fill="#AAAAAA"/>
<path d="M256 1H284C286.209 1 288 2.79086 288 5V29C288 31.2091 286.209 33 284 33H256V1Z" fill="white"/>
<path d="M256 1H284C286.209 1 288 2.79086 288 5V29C288 31.2091 286.209 33 284 33H256V1Z" stroke="#AAAAAA" stroke-width="2"/>
<path d="M266.665 21.017V19.5682L273.057 9.45455H274.108V11.6989H273.398L268.568 19.3409V19.4545H277.176V21.017H266.665ZM273.511 24V20.5767V19.902V9.45455H275.188V24H273.511Z" fill="#AAAAAA"/>
<path d="M12 57C12 54.7909 13.7909 53 16 53H44V85H16C13.7909 85 12 83.2091 12 81V57Z" fill="white"/>
<path d="M12 57C12 54.7909 13.7909 53 16 53H44V85H16C13.7909 85 12 83.2091 12 81V57Z" stroke="black" stroke-width="2"/>
<path d="M27.8352 76.1989C27.2386 76.1894 26.642 76.0758 26.0455 75.858C25.4489 75.6402 24.9044 75.2732 24.4119 74.7571C23.9195 74.2363 23.5241 73.5331 23.2259 72.6477C22.9276 71.7576 22.7784 70.6402 22.7784 69.2955C22.7784 68.0076 22.8991 66.8665 23.1406 65.8722C23.3821 64.8731 23.7325 64.0327 24.1918 63.3509C24.651 62.6643 25.205 62.1435 25.8537 61.7884C26.5071 61.4332 27.2434 61.2557 28.0625 61.2557C28.8769 61.2557 29.6013 61.419 30.2358 61.7457C30.875 62.0677 31.3958 62.5175 31.7983 63.0952C32.2008 63.6728 32.4612 64.3381 32.5795 65.0909H30.8466C30.6856 64.4375 30.3731 63.8954 29.9091 63.4645C29.4451 63.0336 28.8295 62.8182 28.0625 62.8182C26.9356 62.8182 26.0478 63.3082 25.3991 64.2884C24.7552 65.2685 24.4309 66.6439 24.4261 68.4148H24.5398C24.8049 68.0123 25.1198 67.669 25.4844 67.3849C25.8537 67.0961 26.2609 66.8736 26.706 66.7173C27.151 66.5611 27.6222 66.483 28.1193 66.483C28.9527 66.483 29.715 66.6913 30.4062 67.108C31.0975 67.5199 31.6515 68.0904 32.0682 68.8196C32.4848 69.544 32.6932 70.375 32.6932 71.3125C32.6932 72.2121 32.492 73.036 32.0895 73.7841C31.687 74.5275 31.1212 75.1193 30.392 75.5597C29.6676 75.9953 28.8153 76.2083 27.8352 76.1989ZM27.8352 74.6364C28.4318 74.6364 28.9669 74.4872 29.4403 74.1889C29.9186 73.8906 30.295 73.4905 30.5696 72.9886C30.849 72.4867 30.9886 71.928 30.9886 71.3125C30.9886 70.7112 30.8537 70.1643 30.5838 69.6719C30.3187 69.1747 29.9517 68.7794 29.483 68.4858C29.0189 68.1922 28.4886 68.0455 27.892 68.0455C27.4422 68.0455 27.0232 68.1354 26.6349 68.3153C26.2467 68.4905 25.9058 68.732 25.6122 69.0398C25.3234 69.3475 25.0961 69.7003 24.9304 70.098C24.7647 70.491 24.6818 70.9053 24.6818 71.3409C24.6818 71.9186 24.8168 72.4583 25.0866 72.9602C25.3613 73.4621 25.7353 73.867 26.2088 74.1747C26.687 74.4825 27.2292 74.6364 27.8352 74.6364Z" fill="black"/>
<rect x="44" y="53" width="32" height="32" fill="white"/>
<rect x="44" y="53" width="32" height="32" stroke="black" stroke-width="2"/>
<path d="M59.5511 76.1989C58.7178 76.1989 57.9673 76.0331 57.2997 75.7017C56.6321 75.3703 56.0971 74.9157 55.6946 74.3381C55.2921 73.7604 55.072 73.1023 55.0341 72.3636H56.7386C56.8049 73.0218 57.1032 73.5663 57.6335 73.9972C58.1686 74.4233 58.8078 74.6364 59.5511 74.6364C60.1477 74.6364 60.678 74.4967 61.142 74.2173C61.6108 73.938 61.9777 73.5545 62.2429 73.0668C62.5128 72.5743 62.6477 72.018 62.6477 71.3977C62.6477 70.7633 62.508 70.1974 62.2287 69.7003C61.9541 69.1984 61.5753 68.803 61.0923 68.5142C60.6094 68.2254 60.0578 68.0786 59.4375 68.0739C58.9924 68.0691 58.5355 68.1378 58.0668 68.2798C57.598 68.4171 57.2121 68.5947 56.9091 68.8125L55.2614 68.6136L56.142 61.4545H63.6989V63.017H57.6193L57.108 67.3068H57.1932C57.4915 67.0701 57.8655 66.8736 58.3153 66.7173C58.7652 66.5611 59.2339 66.483 59.7216 66.483C60.6117 66.483 61.4048 66.696 62.1009 67.1222C62.8016 67.5436 63.3509 68.1212 63.7486 68.8551C64.151 69.589 64.3523 70.4271 64.3523 71.3693C64.3523 72.2973 64.1439 73.1259 63.7273 73.8551C63.3153 74.5795 62.7472 75.1525 62.0227 75.5739C61.2983 75.9905 60.4744 76.1989 59.5511 76.1989Z" fill="black"/>
<rect x="76" y="53" width="32" height="32" fill="white"/>
<rect x="76" y="53" width="32" height="32" stroke="black" stroke-width="2"/>
<path d="M91.9205 76.1989C90.983 76.1989 90.1473 76.0379 89.4134 75.7159C88.6842 75.3939 88.1042 74.9465 87.6733 74.3736C87.2472 73.7959 87.0152 73.1259 86.9773 72.3636H88.767C88.8049 72.8324 88.9659 73.2372 89.25 73.5781C89.5341 73.9143 89.9058 74.1747 90.3651 74.3594C90.8243 74.544 91.3333 74.6364 91.892 74.6364C92.517 74.6364 93.071 74.5275 93.554 74.3097C94.0369 74.0919 94.4157 73.7888 94.6903 73.4006C94.965 73.0123 95.1023 72.5625 95.1023 72.0511C95.1023 71.5161 94.9697 71.045 94.7045 70.6378C94.4394 70.2259 94.0511 69.9039 93.5398 69.6719C93.0284 69.4399 92.4034 69.3239 91.6648 69.3239H90.5V67.7614H91.6648C92.2424 67.7614 92.7491 67.6572 93.1847 67.4489C93.625 67.2405 93.9683 66.947 94.2145 66.5682C94.4654 66.1894 94.5909 65.7443 94.5909 65.233C94.5909 64.7405 94.482 64.312 94.2642 63.9474C94.0464 63.5829 93.7386 63.2988 93.3409 63.0952C92.9479 62.8916 92.4839 62.7898 91.9489 62.7898C91.447 62.7898 90.9735 62.8821 90.5284 63.0668C90.0881 63.2467 89.7282 63.5095 89.4489 63.8551C89.1695 64.196 89.018 64.608 88.9943 65.0909H87.2898C87.3182 64.3286 87.5478 63.661 87.9787 63.0881C88.4096 62.5104 88.973 62.0606 89.669 61.7386C90.3698 61.4167 91.1392 61.2557 91.9773 61.2557C92.8769 61.2557 93.6487 61.438 94.2926 61.8026C94.9366 62.1624 95.4313 62.6383 95.777 63.2301C96.1226 63.822 96.2955 64.4612 96.2955 65.1477C96.2955 65.9669 96.08 66.6652 95.6491 67.2429C95.223 67.8205 94.643 68.2206 93.9091 68.4432V68.5568C94.8277 68.7083 95.545 69.099 96.0611 69.7287C96.5772 70.3537 96.8352 71.1278 96.8352 72.0511C96.8352 72.8419 96.6198 73.5521 96.1889 74.1818C95.7628 74.8068 95.1804 75.2992 94.4418 75.6591C93.7031 76.0189 92.8627 76.1989 91.9205 76.1989Z" fill="black"/>
<path d="M108 53H136C138.209 53 140 54.7909 140 57V81C140 83.2091 138.209 85 136 85H108V53Z" fill="white"/>
<path d="M108 53H136C138.209 53 140 54.7909 140 57V81C140 83.2091 138.209 85 136 85H108V53Z" stroke="black" stroke-width="2"/>
<path d="M125.619 61.4545V76H123.858V63.3011H123.773L120.222 65.6591V63.8693L123.858 61.4545H125.619Z" fill="black"/>
<path d="M180 57C180 54.7909 181.791 53 184 53H212V85H184C181.791 85 180 83.2091 180 81V57Z" fill="white"/>
<path d="M180 57C180 54.7909 181.791 53 184 53H212V85H184C181.791 85 180 83.2091 180 81V57Z" stroke="black" stroke-width="2"/>
<path d="M195.665 76.1989C194.689 76.1989 193.828 76.026 193.08 75.6804C192.336 75.33 191.756 74.8494 191.339 74.2386C190.923 73.6231 190.717 72.9223 190.722 72.1364C190.717 71.5208 190.838 70.9527 191.084 70.4318C191.33 69.9062 191.666 69.4683 192.092 69.1179C192.523 68.7628 193.004 68.5379 193.534 68.4432V68.358C192.838 68.178 192.284 67.7874 191.872 67.1861C191.46 66.58 191.257 65.8911 191.261 65.1193C191.257 64.3807 191.444 63.7202 191.822 63.1378C192.201 62.5554 192.722 62.0961 193.385 61.7599C194.053 61.4238 194.813 61.2557 195.665 61.2557C196.508 61.2557 197.26 61.4238 197.923 61.7599C198.586 62.0961 199.107 62.5554 199.486 63.1378C199.869 63.7202 200.063 64.3807 200.068 65.1193C200.063 65.8911 199.853 66.58 199.436 67.1861C199.024 67.7874 198.477 68.178 197.795 68.358V68.4432C198.321 68.5379 198.795 68.7628 199.216 69.1179C199.637 69.4683 199.973 69.9062 200.224 70.4318C200.475 70.9527 200.603 71.5208 200.608 72.1364C200.603 72.9223 200.39 73.6231 199.969 74.2386C199.552 74.8494 198.972 75.33 198.229 75.6804C197.49 76.026 196.635 76.1989 195.665 76.1989ZM195.665 74.6364C196.323 74.6364 196.891 74.5298 197.369 74.3168C197.848 74.1037 198.217 73.803 198.477 73.4148C198.738 73.0265 198.87 72.572 198.875 72.0511C198.87 71.5019 198.728 71.0166 198.449 70.5952C198.17 70.1738 197.788 69.8423 197.305 69.6009C196.827 69.3594 196.28 69.2386 195.665 69.2386C195.045 69.2386 194.491 69.3594 194.003 69.6009C193.52 69.8423 193.139 70.1738 192.859 70.5952C192.585 71.0166 192.45 71.5019 192.455 72.0511C192.45 72.572 192.575 73.0265 192.831 73.4148C193.091 73.803 193.463 74.1037 193.946 74.3168C194.429 74.5298 195.002 74.6364 195.665 74.6364ZM195.665 67.733C196.186 67.733 196.647 67.6288 197.05 67.4205C197.457 67.2121 197.777 66.9209 198.009 66.5469C198.241 66.1728 198.359 65.7348 198.364 65.233C198.359 64.7405 198.243 64.312 198.016 63.9474C197.788 63.5781 197.473 63.294 197.071 63.0952C196.669 62.8916 196.2 62.7898 195.665 62.7898C195.12 62.7898 194.644 62.8916 194.237 63.0952C193.83 63.294 193.515 63.5781 193.293 63.9474C193.07 64.312 192.961 64.7405 192.966 65.233C192.961 65.7348 193.072 66.1728 193.3 66.5469C193.532 66.9209 193.851 67.2121 194.259 67.4205C194.666 67.6288 195.134 67.733 195.665 67.733Z" fill="black"/>
<rect x="212" y="53" width="32" height="32" fill="white"/>
<rect x="212" y="53" width="32" height="32" stroke="black" stroke-width="2"/>
<path d="M223.96 76L230.466 63.1307V63.017H222.966V61.4545H232.284V63.1023L225.807 76H223.96Z" fill="black"/>
<rect x="244" y="53" width="32" height="32" fill="white"/>
<rect x="244" y="53" width="32" height="32" stroke="black" stroke-width="2"/>
<path d="M255.006 76V74.7216L259.807 69.4659C260.37 68.8504 260.834 68.3153 261.199 67.8608C261.563 67.4015 261.833 66.9706 262.009 66.5682C262.188 66.161 262.278 65.7348 262.278 65.2898C262.278 64.7784 262.155 64.3357 261.909 63.9616C261.668 63.5876 261.336 63.2988 260.915 63.0952C260.493 62.8916 260.02 62.7898 259.494 62.7898C258.936 62.7898 258.448 62.9058 258.031 63.1378C257.619 63.3651 257.3 63.6847 257.072 64.0966C256.85 64.5085 256.739 64.9915 256.739 65.5455H255.062C255.062 64.6932 255.259 63.9451 255.652 63.3011C256.045 62.6572 256.58 62.1553 257.257 61.7955C257.939 61.4356 258.704 61.2557 259.551 61.2557C260.403 61.2557 261.159 61.4356 261.817 61.7955C262.475 62.1553 262.991 62.6406 263.365 63.2514C263.739 63.8622 263.926 64.5417 263.926 65.2898C263.926 65.8248 263.829 66.348 263.635 66.8594C263.446 67.366 263.114 67.9318 262.641 68.5568C262.172 69.1771 261.521 69.9347 260.688 70.8295L257.42 74.3239V74.4375H264.182V76H255.006Z" fill="black"/>
<path d="M276 53H304C306.209 53 308 54.7909 308 57V81C308 83.2091 306.209 85 304 85H276V53Z" fill="white"/>
<path d="M276 53H304C306.209 53 308 54.7909 308 57V81C308 83.2091 306.209 85 304 85H276V53Z" stroke="black" stroke-width="2"/>
<path d="M286.665 73.017V71.5682L293.057 61.4545H294.108V63.6989H293.398L288.568 71.3409V71.4545H297.176V73.017H286.665ZM293.511 76V72.5767V71.902V61.4545H295.188V76H293.511Z" fill="black"/>
</svg>
