<svg width="320" height="190" viewBox="0 0 320 190" fill="none" xmlns="http://www.w3.org/2000/svg">
<path d="M32 5C32 2.79086 33.7909 1 36 1H64V33H36C33.7909 33 32 31.2091 32 29V5Z" fill="white"/>
<path d="M32 5C32 2.79086 33.7909 1 36 1H64V33H36C33.7909 33 32 31.2091 32 29V5Z" stroke="#AAAAAA" stroke-width="2"/>
<path d="M47.8352 24.1989C47.2386 24.1894 46.642 24.0758 46.0455 23.858C45.4489 23.6402 44.9044 23.2732 44.4119 22.7571C43.9195 22.2363 43.5241 21.5331 43.2259 20.6477C42.9276 19.7576 42.7784 18.6402 42.7784 17.2955C42.7784 16.0076 42.8991 14.8665 43.1406 13.8722C43.3821 12.8731 43.7325 12.0327 44.1918 11.3509C44.651 10.6643 45.205 10.1435 45.8537 9.78835C46.5071 9.43324 47.2434 9.25568 48.0625 9.25568C48.8769 9.25568 49.6013 9.41903 50.2358 9.74574C50.875 10.0677 51.3958 10.5175 51.7983 11.0952C52.2008 11.6728 52.4612 12.3381 52.5795 13.0909H50.8466C50.6856 12.4375 50.3731 11.8954 49.9091 11.4645C49.4451 11.0336 48.8295 10.8182 48.0625 10.8182C46.9356 10.8182 46.0478 11.3082 45.3991 12.2884C44.7552 13.2685 44.4309 14.6439 44.4261 16.4148H44.5398C44.8049 16.0123 45.1198 15.669 45.4844 15.3849C45.8537 15.0961 46.2609 14.8736 46.706 14.7173C47.151 14.5611 47.6222 14.483 48.1193 14.483C48.9527 14.483 49.715 14.6913 50.4062 15.108C51.0975 15.5199 51.6515 16.0904 52.0682 16.8196C52.4848 17.544 52.6932 18.375 52.6932 19.3125C52.6932 20.2121 52.492 21.036 52.0895 21.7841C51.687 22.5275 51.1212 23.1193 50.392 23.5597C49.6676 23.9953 48.8153 24.2083 47.8352 24.1989ZM47.8352 22.6364C48.4318 22.6364 48.9669 22.4872 49.4403 22.1889C49.9186 21.8906 50.295 21.4905 50.5696 20.9886C50.849 20.4867 50.9886 19.928 50.9886 19.3125C50.9886 18.7112 50.8537 18.1643 50.5838 17.6719C50.3187 17.1747 49.9517 16.7794 49.483 16.4858C49.0189 16.1922 48.4886 16.0455 47.892 16.0455C47.4422 16.0455 47.0232 16.1354 46.6349 16.3153C46.2467 16.4905 45.9058 16.732 45.6122 17.0398C45.3234 17.3475 45.0961 17.7003 44.9304 18.098C44.7647 18.491 44.6818 18.9053 44.6818 19.3409C44.6818 19.9186 44.8168 20.4583 45.0866 20.9602C45.3613 21.4621 45.7353 21.867 46.2088 22.1747C46.687 22.4825 47.2292 22.6364 47.8352 22.6364Z" fill="#AAAAAA"/>
<rect x="64" y="1" width="32" height="32" fill="white"/>
<rect x="64" y="1" width="32" height="32" stroke="#AAAAAA" stroke-width="2"/>
<path d="M79.5511 24.1989C78.7178 24.1989 77.9673 24.0331 77.2997 23.7017C76.6321 23.3703 76.0971 22.9157 75.6946 22.3381C75.2921 21.7604 75.072 21.1023 75.0341 20.3636H76.7386C76.8049 21.0218 77.1032 21.5663 77.6335 21.9972C78.1686 22.4233 78.8078 22.6364 79.5511 22.6364C80.1477 22.6364 80.678 22.4967 81.142 22.2173C81.6108 21.938 81.9777 21.5545 82.2429 21.0668C82.5128 20.5743 82.6477 20.018 82.6477 19.3977C82.6477 18.7633 82.508 18.1974 82.2287 17.7003C81.9541 17.1984 81.5753 16.803 81.0923 16.5142C80.6094 16.2254 80.0578 16.0786 79.4375 16.0739C78.9924 16.0691 78.5355 16.1378 78.0668 16.2798C77.598 16.4171 77.2121 16.5947 76.9091 16.8125L75.2614 16.6136L76.142 9.45455H83.6989V11.017H77.6193L77.108 15.3068H77.1932C77.4915 15.0701 77.8655 14.8736 78.3153 14.7173C78.7652 14.5611 79.2339 14.483 79.7216 14.483C80.6117 14.483 81.4048 14.696 82.1009 15.1222C82.8016 15.5436 83.3509 16.1212 83.7486 16.8551C84.151 17.589 84.3523 18.4271 84.3523 19.3693C84.3523 20.2973 84.1439 21.1259 83.7273 21.8551C83.3153 22.5795 82.7472 23.1525 82.0227 23.5739C81.2983 23.9905 80.4744 24.1989 79.5511 24.1989Z" fill="#AAAAAA"/>
<rect x="96" y="1" width="32" height="32" fill="white"/>
<rect x="96" y="1" width="32" height="32" stroke="#AAAAAA" stroke-width="2"/>
<path d="M111.92 24.1989C110.983 24.1989 110.147 24.0379 109.413 23.7159C108.684 23.3939 108.104 22.9465 107.673 22.3736C107.247 21.7959 107.015 21.1259 106.977 20.3636H108.767C108.805 20.8324 108.966 21.2372 109.25 21.5781C109.534 21.9143 109.906 22.1747 110.365 22.3594C110.824 22.544 111.333 22.6364 111.892 22.6364C112.517 22.6364 113.071 22.5275 113.554 22.3097C114.037 22.0919 114.416 21.7888 114.69 21.4006C114.965 21.0123 115.102 20.5625 115.102 20.0511C115.102 19.5161 114.97 19.045 114.705 18.6378C114.439 18.2259 114.051 17.9039 113.54 17.6719C113.028 17.4399 112.403 17.3239 111.665 17.3239H110.5V15.7614H111.665C112.242 15.7614 112.749 15.6572 113.185 15.4489C113.625 15.2405 113.968 14.947 114.214 14.5682C114.465 14.1894 114.591 13.7443 114.591 13.233C114.591 12.7405 114.482 12.312 114.264 11.9474C114.046 11.5829 113.739 11.2988 113.341 11.0952C112.948 10.8916 112.484 10.7898 111.949 10.7898C111.447 10.7898 110.973 10.8821 110.528 11.0668C110.088 11.2467 109.728 11.5095 109.449 11.8551C109.17 12.196 109.018 12.608 108.994 13.0909H107.29C107.318 12.3286 107.548 11.661 107.979 11.0881C108.41 10.5104 108.973 10.0606 109.669 9.73864C110.37 9.41667 111.139 9.25568 111.977 9.25568C112.877 9.25568 113.649 9.43797 114.293 9.80256C114.937 10.1624 115.431 10.6383 115.777 11.2301C116.123 11.822 116.295 12.4612 116.295 13.1477C116.295 13.9669 116.08 14.6652 115.649 15.2429C115.223 15.8205 114.643 16.2206 113.909 16.4432V16.5568C114.828 16.7083 115.545 17.099 116.061 17.7287C116.577 18.3537 116.835 19.1278 116.835 20.0511C116.835 20.8419 116.62 21.5521 116.189 22.1818C115.763 22.8068 115.18 23.2992 114.442 23.6591C113.703 24.0189 112.863 24.1989 111.92 24.1989Z" fill="#AAAAAA"/>
<rect x="128" y="1" width="32" height="32" fill="white"/>
<rect x="128" y="1" width="32" height="32" stroke="#AAAAAA" stroke-width="2"/>
<path d="M145.619 9.45455V24H143.858V11.3011H143.773L140.222 13.6591V11.8693L143.858 9.45455H145.619Z" fill="#AAAAAA"/>
<rect x="160" y="1" width="32" height="32" fill="white"/>
<rect x="160" y="1" width="32" height="32" stroke="#AAAAAA" stroke-width="2"/>
<path d="M175.665 24.1989C174.689 24.1989 173.828 24.026 173.08 23.6804C172.336 23.33 171.756 22.8494 171.339 22.2386C170.923 21.6231 170.717 20.9223 170.722 20.1364C170.717 19.5208 170.838 18.9527 171.084 18.4318C171.33 17.9062 171.666 17.4683 172.092 17.1179C172.523 16.7628 173.004 16.5379 173.534 16.4432V16.358C172.838 16.178 172.284 15.7874 171.872 15.1861C171.46 14.58 171.257 13.8911 171.261 13.1193C171.257 12.3807 171.444 11.7202 171.822 11.1378C172.201 10.5554 172.722 10.0961 173.385 9.75994C174.053 9.42377 174.813 9.25568 175.665 9.25568C176.508 9.25568 177.26 9.42377 177.923 9.75994C178.586 10.0961 179.107 10.5554 179.486 11.1378C179.869 11.7202 180.063 12.3807 180.068 13.1193C180.063 13.8911 179.853 14.58 179.436 15.1861C179.024 15.7874 178.477 16.178 177.795 16.358V16.4432C178.321 16.5379 178.795 16.7628 179.216 17.1179C179.637 17.4683 179.973 17.9062 180.224 18.4318C180.475 18.9527 180.603 19.5208 180.608 20.1364C180.603 20.9223 180.39 21.6231 179.969 22.2386C179.552 22.8494 178.972 23.33 178.229 23.6804C177.49 24.026 176.635 24.1989 175.665 24.1989ZM175.665 22.6364C176.323 22.6364 176.891 22.5298 177.369 22.3168C177.848 22.1037 178.217 21.803 178.477 21.4148C178.738 21.0265 178.87 20.572 178.875 20.0511C178.87 19.5019 178.728 19.0166 178.449 18.5952C178.17 18.1738 177.788 17.8423 177.305 17.6009C176.827 17.3594 176.28 17.2386 175.665 17.2386C175.045 17.2386 174.491 17.3594 174.003 17.6009C173.52 17.8423 173.139 18.1738 172.859 18.5952C172.585 19.0166 172.45 19.5019 172.455 20.0511C172.45 20.572 172.575 21.0265 172.831 21.4148C173.091 21.803 173.463 22.1037 173.946 22.3168C174.429 22.5298 175.002 22.6364 175.665 22.6364ZM175.665 15.733C176.186 15.733 176.647 15.6288 177.05 15.4205C177.457 15.2121 177.777 14.9209 178.009 14.5469C178.241 14.1728 178.359 13.7348 178.364 13.233C178.359 12.7405 178.243 12.312 178.016 11.9474C177.788 11.5781 177.473 11.294 177.071 11.0952C176.669 10.8916 176.2 10.7898 175.665 10.7898C175.12 10.7898 174.644 10.8916 174.237 11.0952C173.83 11.294 173.515 11.5781 173.293 11.9474C173.07 12.312 172.961 12.7405 172.966 13.233C172.961 13.7348 173.072 14.1728 173.3 14.5469C173.532 14.9209 173.851 15.2121 174.259 15.4205C174.666 15.6288 175.134 15.733 175.665 15.733Z" fill="#AAAAAA"/>
<rect x="192" y="1" width="32" height="32" fill="white"/>
<rect x="192" y="1" width="32" height="32" stroke="#AAAAAA" stroke-width="2"/>
<path d="M203.96 24L210.466 11.1307V11.017H202.966V9.45455H212.284V11.1023L205.807 24H203.96Z" fill="#AAAAAA"/>
<rect x="224" y="1" width="32" height="32" fill="white"/>
<rect x="224" y="1" width="32" height="32" stroke="#AAAAAA" stroke-width="2"/>
<path d="M235.006 24V22.7216L239.807 17.4659C240.37 16.8504 240.834 16.3153 241.199 15.8608C241.563 15.4015 241.833 14.9706 242.009 14.5682C242.188 14.161 242.278 13.7348 242.278 13.2898C242.278 12.7784 242.155 12.3357 241.909 11.9616C241.668 11.5876 241.336 11.2988 240.915 11.0952C240.493 10.8916 240.02 10.7898 239.494 10.7898C238.936 10.7898 238.448 10.9058 238.031 11.1378C237.619 11.3651 237.3 11.6847 237.072 12.0966C236.85 12.5085 236.739 12.9915 236.739 13.5455H235.062C235.062 12.6932 235.259 11.9451 235.652 11.3011C236.045 10.6572 236.58 10.1553 237.257 9.79545C237.939 9.43561 238.704 9.25568 239.551 9.25568C240.403 9.25568 241.159 9.43561 241.817 9.79545C242.475 10.1553 242.991 10.6406 243.365 11.2514C243.739 11.8622 243.926 12.5417 243.926 13.2898C243.926 13.8248 243.829 14.348 243.635 14.8594C243.446 15.366 243.114 15.9318 242.641 16.5568C242.172 17.1771 241.521 17.9347 240.688 18.8295L237.42 22.3239V22.4375H244.182V24H235.006Z" fill="#AAAAAA"/>
<path d="M256 1H284C286.209 1 288 2.79086 288 5V29C288 31.2091 286.209 33 284 33H256V1Z" fill="white"/>
<path d="M256 1H284C286.209 1 288 2.79086 288 5V29C288 31.2091 286.209 33 284 33H256V1Z" stroke="#AAAAAA" stroke-width="2"/>
<path d="M266.665 21.017V19.5682L273.057 9.45455H274.108V11.6989H273.398L268.568 19.3409V19.4545H277.176V21.017H266.665ZM273.511 24V20.5767V19.902V9.45455H275.188V24H273.511Z" fill="#AAAAAA"/>
<path d="M32 5C32 2.79086 33.7909 1 36 1H64V33H36C33.7909 33 32 31.2091 32 29V5Z" fill="white"/>
<path d="M32 5C32 2.79086 33.7909 1 36 1H64V33H36C33.7909 33 32 31.2091 32 29V5Z" stroke="#AAAAAA" stroke-width="2"/>
<path d="M47.8352 24.1989C47.2386 24.1894 46.642 24.0758 46.0455 23.858C45.4489 23.6402 44.9044 23.2732 44.4119 22.7571C43.9195 22.2363 43.5241 21.5331 43.2259 20.6477C42.9276 19.7576 42.7784 18.6402 42.7784 17.2955C42.7784 16.0076 42.8991 14.8665 43.1406 13.8722C43.3821 12.8731 43.7325 12.0327 44.1918 11.3509C44.651 10.6643 45.205 10.1435 45.8537 9.78835C46.5071 9.43324 47.2434 9.25568 48.0625 9.25568C48.8769 9.25568 49.6013 9.41903 50.2358 9.74574C50.875 10.0677 51.3958 10.5175 51.7983 11.0952C52.2008 11.6728 52.4612 12.3381 52.5795 13.0909H50.8466C50.6856 12.4375 50.3731 11.8954 49.9091 11.4645C49.4451 11.0336 48.8295 10.8182 48.0625 10.8182C46.9356 10.8182 46.0478 11.3082 45.3991 12.2884C44.7552 13.2685 44.4309 14.6439 44.4261 16.4148H44.5398C44.8049 16.0123 45.1198 15.669 45.4844 15.3849C45.8537 15.0961 46.2609 14.8736 46.706 14.7173C47.151 14.5611 47.6222 14.483 48.1193 14.483C48.9527 14.483 49.715 14.6913 50.4062 15.108C51.0975 15.5199 51.6515 16.0904 52.0682 16.8196C52.4848 17.544 52.6932 18.375 52.6932 19.3125C52.6932 20.2121 52.492 21.036 52.0895 21.7841C51.687 22.5275 51.1212 23.1193 50.392 23.5597C49.6676 23.9953 48.8153 24.2083 47.8352 24.1989ZM47.8352 22.6364C48.4318 22.6364 48.9669 22.4872 49.4403 22.1889C49.9186 21.8906 50.295 21.4905 50.5696 20.9886C50.849 20.4867 50.9886 19.928 50.9886 19.3125C50.9886 18.7112 50.8537 18.1643 50.5838 17.6719C50.3187 17.1747 49.9517 16.7794 49.483 16.4858C49.0189 16.1922 48.4886 16.0455 47.892 16.0455C47.4422 16.0455 47.0232 16.1354 46.6349 16.3153C46.2467 16.4905 45.9058 16.732 45.6122 17.0398C45.3234 17.3475 45.0961 17.7003 44.9304 18.098C44.7647 18.491 44.6818 18.9053 44.6818 19.3409C44.6818 19.9186 44.8168 20.4583 45.0866 20.9602C45.3613 21.4621 45.7353 21.867 46.2088 22.1747C46.687 22.4825 47.2292 22.6364 47.8352 22.6364Z" fill="#AAAAAA"/>
<rect x="64" y="1" width="32" height="32" fill="white"/>
<rect x="64" y="1" width="32" height="32" stroke="#AAAAAA" stroke-width="2"/>
<path d="M79.5511 24.1989C78.7178 24.1989 77.9673 24.0331 77.2997 23.7017C76.6321 23.3703 76.0971 22.9157 75.6946 22.3381C75.2921 21.7604 75.072 21.1023 75.0341 20.3636H76.7386C76.8049 21.0218 77.1032 21.5663 77.6335 21.9972C78.1686 22.4233 78.8078 22.6364 79.5511 22.6364C80.1477 22.6364 80.678 22.4967 81.142 22.2173C81.6108 21.938 81.9777 21.5545 82.2429 21.0668C82.5128 20.5743 82.6477 20.018 82.6477 19.3977C82.6477 18.7633 82.508 18.1974 82.2287 17.7003C81.9541 17.1984 81.5753 16.803 81.0923 16.5142C80.6094 16.2254 80.0578 16.0786 79.4375 16.0739C78.9924 16.0691 78.5355 16.1378 78.0668 16.2798C77.598 16.4171 77.2121 16.5947 76.9091 16.8125L75.2614 16.6136L76.142 9.45455H83.6989V11.017H77.6193L77.108 15.3068H77.1932C77.4915 15.0701 77.8655 14.8736 78.3153 14.7173C78.7652 14.5611 79.2339 14.483 79.7216 14.483C80.6117 14.483 81.4048 14.696 82.1009 15.1222C82.8016 15.5436 83.3509 16.1212 83.7486 16.8551C84.151 17.589 84.3523 18.4271 84.3523 19.3693C84.3523 20.2973 84.1439 21.1259 83.7273 21.8551C83.3153 22.5795 82.7472 23.1525 82.0227 23.5739C81.2983 23.9905 80.4744 24.1989 79.5511 24.1989Z" fill="#AAAAAA"/>
<rect x="96" y="1" width="32" height="32" fill="white"/>
<rect x="96" y="1" width="32" height="32" stroke="#AAAAAA" stroke-width="2"/>
<path d="M111.92 24.1989C110.983 24.1989 110.147 24.0379 109.413 23.7159C108.684 23.3939 108.104 22.9465 107.673 22.3736C107.247 21.7959 107.015 21.1259 106.977 20.3636H108.767C108.805 20.8324 108.966 21.2372 109.25 21.5781C109.534 21.9143 109.906 22.1747 110.365 22.3594C110.824 22.544 111.333 22.6364 111.892 22.6364C112.517 22.6364 113.071 22.5275 113.554 22.3097C114.037 22.0919 114.416 21.7888 114.69 21.4006C114.965 21.0123 115.102 20.5625 115.102 20.0511C115.102 19.5161 114.97 19.045 114.705 18.6378C114.439 18.2259 114.051 17.9039 113.54 17.6719C113.028 17.4399 112.403 17.3239 111.665 17.3239H110.5V15.7614H111.665C112.242 15.7614 112.749 15.6572 113.185 15.4489C113.625 15.2405 113.968 14.947 114.214 14.5682C114.465 14.1894 114.591 13.7443 114.591 13.233C114.591 12.7405 114.482 12.312 114.264 11.9474C114.046 11.5829 113.739 11.2988 113.341 11.0952C112.948 10.8916 112.484 10.7898 111.949 10.7898C111.447 10.7898 110.973 10.8821 110.528 11.0668C110.088 11.2467 109.728 11.5095 109.449 11.8551C109.17 12.196 109.018 12.608 108.994 13.0909H107.29C107.318 12.3286 107.548 11.661 107.979 11.0881C108.41 10.5104 108.973 10.0606 109.669 9.73864C110.37 9.41667 111.139 9.25568 111.977 9.25568C112.877 9.25568 113.649 9.43797 114.293 9.80256C114.937 10.1624 115.431 10.6383 115.777 11.2301C116.123 11.822 116.295 12.4612 116.295 13.1477C116.295 13.9669 116.08 14.6652 115.649 15.2429C115.223 15.8205 114.643 16.2206 113.909 16.4432V16.5568C114.828 16.7083 115.545 17.099 116.061 17.7287C116.577 18.3537 116.835 19.1278 116.835 20.0511C116.835 20.8419 116.62 21.5521 116.189 22.1818C115.763 22.8068 115.18 23.2992 114.442 23.6591C113.703 24.0189 112.863 24.1989 111.92 24.1989Z" fill="#AAAAAA"/>
<rect x="128" y="1" width="32" height="32" fill="white"/>
<rect x="128" y="1" width="32" height="32" stroke="#AAAAAA" stroke-width="2"/>
<path d="M145.619 9.45455V24H143.858V11.3011H143.773L140.222 13.6591V11.8693L143.858 9.45455H145.619Z" fill="#AAAAAA"/>
<rect x="160" y="1" width="32" height="32" fill="white"/>
<rect x="160" y="1" width="32" height="32" stroke="#AAAAAA" stroke-width="2"/>
<path d="M175.665 24.1989C174.689 24.1989 173.828 24.026 173.08 23.6804C172.336 23.33 171.756 22.8494 171.339 22.2386C170.923 21.6231 170.717 20.9223 170.722 20.1364C170.717 19.5208 170.838 18.9527 171.084 18.4318C171.33 17.9062 171.666 17.4683 172.092 17.1179C172.523 16.7628 173.004 16.5379 173.534 16.4432V16.358C172.838 16.178 172.284 15.7874 171.872 15.1861C171.46 14.58 171.257 13.8911 171.261 13.1193C171.257 12.3807 171.444 11.7202 171.822 11.1378C172.201 10.5554 172.722 10.0961 173.385 9.75994C174.053 9.42377 174.813 9.25568 175.665 9.25568C176.508 9.25568 177.26 9.42377 177.923 9.75994C178.586 10.0961 179.107 10.5554 179.486 11.1378C179.869 11.7202 180.063 12.3807 180.068 13.1193C180.063 13.8911 179.853 14.58 179.436 15.1861C179.024 15.7874 178.477 16.178 177.795 16.358V16.4432C178.321 16.5379 178.795 16.7628 179.216 17.1179C179.637 17.4683 179.973 17.9062 180.224 18.4318C180.475 18.9527 180.603 19.5208 180.608 20.1364C180.603 20.9223 180.39 21.6231 179.969 22.2386C179.552 22.8494 178.972 23.33 178.229 23.6804C177.49 24.026 176.635 24.1989 175.665 24.1989ZM175.665 22.6364C176.323 22.6364 176.891 22.5298 177.369 22.3168C177.848 22.1037 178.217 21.803 178.477 21.4148C178.738 21.0265 178.87 20.572 178.875 20.0511C178.87 19.5019 178.728 19.0166 178.449 18.5952C178.17 18.1738 177.788 17.8423 177.305 17.6009C176.827 17.3594 176.28 17.2386 175.665 17.2386C175.045 17.2386 174.491 17.3594 174.003 17.6009C173.52 17.8423 173.139 18.1738 172.859 18.5952C172.585 19.0166 172.45 19.5019 172.455 20.0511C172.45 20.572 172.575 21.0265 172.831 21.4148C173.091 21.803 173.463 22.1037 173.946 22.3168C174.429 22.5298 175.002 22.6364 175.665 22.6364ZM175.665 15.733C176.186 15.733 176.647 15.6288 177.05 15.4205C177.457 15.2121 177.777 14.9209 178.009 14.5469C178.241 14.1728 178.359 13.7348 178.364 13.233C178.359 12.7405 178.243 12.312 178.016 11.9474C177.788 11.5781 177.473 11.294 177.071 11.0952C176.669 10.8916 176.2 10.7898 175.665 10.7898C175.12 10.7898 174.644 10.8916 174.237 11.0952C173.83 11.294 173.515 11.5781 173.293 11.9474C173.07 12.312 172.961 12.7405 172.966 13.233C172.961 13.7348 173.072 14.1728 173.3 14.5469C173.532 14.9209 173.851 15.2121 174.259 15.4205C174.666 15.6288 175.134 15.733 175.665 15.733Z" fill="#AAAAAA"/>
<rect x="192" y="1" width="32" height="32" fill="white"/>
<rect x="192" y="1" width="32" height="32" stroke="#AAAAAA" stroke-width="2"/>
<path d="M203.96 24L210.466 11.1307V11.017H202.966V9.45455H212.284V11.1023L205.807 24H203.96Z" fill="#AAAAAA"/>
<rect x="224" y="1" width="32" height="32" fill="white"/>
<rect x="224" y="1" width="32" height="32" stroke="#AAAAAA" stroke-width="2"/>
<path d="M235.006 24V22.7216L239.807 17.4659C240.37 16.8504 240.834 16.3153 241.199 15.8608C241.563 15.4015 241.833 14.9706 242.009 14.5682C242.188 14.161 242.278 13.7348 242.278 13.2898C242.278 12.7784 242.155 12.3357 241.909 11.9616C241.668 11.5876 241.336 11.2988 240.915 11.0952C240.493 10.8916 240.02 10.7898 239.494 10.7898C238.936 10.7898 238.448 10.9058 238.031 11.1378C237.619 11.3651 237.3 11.6847 237.072 12.0966C236.85 12.5085 236.739 12.9915 236.739 13.5455H235.062C235.062 12.6932 235.259 11.9451 235.652 11.3011C236.045 10.6572 236.58 10.1553 237.257 9.79545C237.939 9.43561 238.704 9.25568 239.551 9.25568C240.403 9.25568 241.159 9.43561 241.817 9.79545C242.475 10.1553 242.991 10.6406 243.365 11.2514C243.739 11.8622 243.926 12.5417 243.926 13.2898C243.926 13.8248 243.829 14.348 243.635 14.8594C243.446 15.366 243.114 15.9318 242.641 16.5568C242.172 17.1771 241.521 17.9347 240.688 18.8295L237.42 22.3239V22.4375H244.182V24H235.006Z" fill="#AAAAAA"/>
<path d="M256 1H284C286.209 1 288 2.79086 288 5V29C288 31.2091 286.209 33 284 33H256V1Z" fill="white"/>
<path d="M256 1H284C286.209 1 288 2.79086 288 5V29C288 31.2091 286.209 33 284 33H256V1Z" stroke="#AAAAAA" stroke-width="2"/>
<path d="M266.665 21.017V19.5682L273.057 9.45455H274.108V11.6989H273.398L268.568 19.3409V19.4545H277.176V21.017H266.665ZM273.511 24V20.5767V19.902V9.45455H275.188V24H273.511Z" fill="#AAAAAA"/>
<rect x="44" y="53" width="32" height="32" fill="white"/>
<rect x="44" y="53" width="32" height="32" stroke="#AAAAAA" stroke-width="2"/>
<path d="M59.5511 76.1989C58.7178 76.1989 57.9673 76.0331 57.2997 75.7017C56.6321 75.3703 56.0971 74.9157 55.6946 74.3381C55.2921 73.7604 55.072 73.1023 55.0341 72.3636H56.7386C56.8049 73.0218 57.1032 73.5663 57.6335 73.9972C58.1686 74.4233 58.8078 74.6364 59.5511 74.6364C60.1477 74.6364 60.678 74.4967 61.142 74.2173C61.6108 73.938 61.9777 73.5545 62.2429 73.0668C62.5128 72.5743 62.6477 72.018 62.6477 71.3977C62.6477 70.7633 62.508 70.1974 62.2287 69.7003C61.9541 69.1984 61.5753 68.803 61.0923 68.5142C60.6094 68.2254 60.0578 68.0786 59.4375 68.0739C58.9924 68.0691 58.5355 68.1378 58.0668 68.2798C57.598 68.4171 57.2121 68.5947 56.9091 68.8125L55.2614 68.6136L56.142 61.4545H63.6989V63.017H57.6193L57.108 67.3068H57.1932C57.4915 67.0701 57.8655 66.8736 58.3153 66.7173C58.7652 66.5611 59.2339 66.483 59.7216 66.483C60.6117 66.483 61.4048 66.696 62.1009 67.1222C62.8016 67.5436 63.3509 68.1212 63.7486 68.8551C64.151 69.589 64.3523 70.4271 64.3523 71.3693C64.3523 72.2973 64.1439 73.1259 63.7273 73.8551C63.3153 74.5795 62.7472 75.1525 62.0227 75.5739C61.2983 75.9905 60.4744 76.1989 59.5511 76.1989Z" fill="#AAAAAA"/>
<rect x="76" y="53" width="32" height="32" fill="white"/>
<rect x="76" y="53" width="32" height="32" stroke="#AAAAAA" stroke-width="2"/>
<path d="M91.9205 76.1989C90.983 76.1989 90.1473 76.0379 89.4134 75.7159C88.6842 75.3939 88.1042 74.9465 87.6733 74.3736C87.2472 73.7959 87.0152 73.1259 86.9773 72.3636H88.767C88.8049 72.8324 88.9659 73.2372 89.25 73.5781C89.5341 73.9143 89.9058 74.1747 90.3651 74.3594C90.8243 74.544 91.3333 74.6364 91.892 74.6364C92.517 74.6364 93.071 74.5275 93.554 74.3097C94.0369 74.0919 94.4157 73.7888 94.6903 73.4006C94.965 73.0123 95.1023 72.5625 95.1023 72.0511C95.1023 71.5161 94.9697 71.045 94.7045 70.6378C94.4394 70.2259 94.0511 69.9039 93.5398 69.6719C93.0284 69.4399 92.4034 69.3239 91.6648 69.3239H90.5V67.7614H91.6648C92.2424 67.7614 92.7491 67.6572 93.1847 67.4489C93.625 67.2405 93.9683 66.947 94.2145 66.5682C94.4654 66.1894 94.5909 65.7443 94.5909 65.233C94.5909 64.7405 94.482 64.312 94.2642 63.9474C94.0464 63.5829 93.7386 63.2988 93.3409 63.0952C92.9479 62.8916 92.4839 62.7898 91.9489 62.7898C91.447 62.7898 90.9735 62.8821 90.5284 63.0668C90.0881 63.2467 89.7282 63.5095 89.4489 63.8551C89.1695 64.196 89.018 64.608 88.9943 65.0909H87.2898C87.3182 64.3286 87.5478 63.661 87.9787 63.0881C88.4096 62.5104 88.973 62.0606 89.669 61.7386C90.3698 61.4167 91.1392 61.2557 91.9773 61.2557C92.8769 61.2557 93.6487 61.438 94.2926 61.8026C94.9366 62.1624 95.4313 62.6383 95.777 63.2301C96.1226 63.822 96.2955 64.4612 96.2955 65.1477C96.2955 65.9669 96.08 66.6652 95.6491 67.2429C95.223 67.8205 94.643 68.2206 93.9091 68.4432V68.5568C94.8277 68.7083 95.545 69.099 96.0611 69.7287C96.5772 70.3537 96.8352 71.1278 96.8352 72.0511C96.8352 72.8419 96.6198 73.5521 96.1889 74.1818C95.7628 74.8068 95.1804 75.2992 94.4418 75.6591C93.7031 76.0189 92.8627 76.1989 91.9205 76.1989Z" fill="#AAAAAA"/>
<path d="M108 53H136C138.209 53 140 54.7909 140 57V81C140 83.2091 138.209 85 136 85H108V53Z" fill="white"/>
<path d="M108 53H136C138.209 53 140 54.7909 140 57V81C140 83.2091 138.209 85 136 85H108V53Z" stroke="#AAAAAA" stroke-width="2"/>
<path d="M125.619 61.4545V76H123.858V63.3011H123.773L120.222 65.6591V63.8693L123.858 61.4545H125.619Z" fill="#AAAAAA"/>
<path d="M4 109C4 106.791 5.79086 105 8 105H36V137H8C5.79086 137 4 135.209 4 133V109Z" fill="white"/>
<path d="M4 109C4 106.791 5.79086 105 8 105H36V137H8C5.79086 137 4 135.209 4 133V109Z" stroke="black" stroke-width="2"/>
<path d="M19.5511 128.199C18.7178 128.199 17.9673 128.033 17.2997 127.702C16.6321 127.37 16.0971 126.916 15.6946 126.338C15.2921 125.76 15.072 125.102 15.0341 124.364H16.7386C16.8049 125.022 17.1032 125.566 17.6335 125.997C18.1686 126.423 18.8078 126.636 19.5511 126.636C20.1477 126.636 20.678 126.497 21.142 126.217C21.6108 125.938 21.9777 125.554 22.2429 125.067C22.5128 124.574 22.6477 124.018 22.6477 123.398C22.6477 122.763 22.508 122.197 22.2287 121.7C21.9541 121.198 21.5753 120.803 21.0923 120.514C20.6094 120.225 20.0578 120.079 19.4375 120.074C18.9924 120.069 18.5355 120.138 18.0668 120.28C17.598 120.417 17.2121 120.595 16.9091 120.812L15.2614 120.614L16.142 113.455H23.6989V115.017H17.6193L17.108 119.307H17.1932C17.4915 119.07 17.8655 118.874 18.3153 118.717C18.7652 118.561 19.2339 118.483 19.7216 118.483C20.6117 118.483 21.4048 118.696 22.1009 119.122C22.8016 119.544 23.3509 120.121 23.7486 120.855C24.151 121.589 24.3523 122.427 24.3523 123.369C24.3523 124.297 24.1439 125.126 23.7273 125.855C23.3153 126.58 22.7472 127.152 22.0227 127.574C21.2983 127.991 20.4744 128.199 19.5511 128.199Z" fill="black"/>
<path d="M36 105H64C66.2091 105 68 106.791 68 109V133C68 135.209 66.2091 137 64 137H36V105Z" fill="white"/>
<path d="M36 105H64C66.2091 105 68 106.791 68 109V133C68 135.209 66.2091 137 64 137H36V105Z" stroke="black" stroke-width="2"/>
<path d="M51.8352 128.199C51.2386 128.189 50.642 128.076 50.0455 127.858C49.4489 127.64 48.9044 127.273 48.4119 126.757C47.9195 126.236 47.5241 125.533 47.2259 124.648C46.9276 123.758 46.7784 122.64 46.7784 121.295C46.7784 120.008 46.8991 118.866 47.1406 117.872C47.3821 116.873 47.7325 116.033 48.1918 115.351C48.651 114.664 49.205 114.143 49.8537 113.788C50.5071 113.433 51.2434 113.256 52.0625 113.256C52.8769 113.256 53.6013 113.419 54.2358 113.746C54.875 114.068 55.3958 114.518 55.7983 115.095C56.2008 115.673 56.4612 116.338 56.5795 117.091H54.8466C54.6856 116.437 54.3731 115.895 53.9091 115.464C53.4451 115.034 52.8295 114.818 52.0625 114.818C50.9356 114.818 50.0478 115.308 49.3991 116.288C48.7552 117.268 48.4309 118.644 48.4261 120.415H48.5398C48.8049 120.012 49.1198 119.669 49.4844 119.385C49.8537 119.096 50.2609 118.874 50.706 118.717C51.151 118.561 51.6222 118.483 52.1193 118.483C52.9527 118.483 53.715 118.691 54.4062 119.108C55.0975 119.52 55.6515 120.09 56.0682 120.82C56.4848 121.544 56.6932 122.375 56.6932 123.312C56.6932 124.212 56.492 125.036 56.0895 125.784C55.687 126.527 55.1212 127.119 54.392 127.56C53.6676 127.995 52.8153 128.208 51.8352 128.199ZM51.8352 126.636C52.4318 126.636 52.9669 126.487 53.4403 126.189C53.9186 125.891 54.295 125.491 54.5696 124.989C54.849 124.487 54.9886 123.928 54.9886 123.312C54.9886 122.711 54.8537 122.164 54.5838 121.672C54.3187 121.175 53.9517 120.779 53.483 120.486C53.0189 120.192 52.4886 120.045 51.892 120.045C51.4422 120.045 51.0232 120.135 50.6349 120.315C50.2467 120.491 49.9058 120.732 49.6122 121.04C49.3234 121.348 49.0961 121.7 48.9304 122.098C48.7647 122.491 48.6818 122.905 48.6818 123.341C48.6818 123.919 48.8168 124.458 49.0866 124.96C49.3613 125.462 49.7353 125.867 50.2088 126.175C50.687 126.482 51.2292 126.636 51.8352 126.636Z" fill="black"/>
<path d="M180 57C180 54.7909 181.791 53 184 53H212V85H184C181.791 85 180 83.2091 180 81V57Z" fill="white"/>
<path d="M180 57C180 54.7909 181.791 53 184 53H212V85H184C181.791 85 180 83.2091 180 81V57Z" stroke="#AAAAAA" stroke-width="2"/>
<path d="M195.665 76.1989C194.689 76.1989 193.828 76.026 193.08 75.6804C192.336 75.33 191.756 74.8494 191.339 74.2386C190.923 73.6231 190.717 72.9223 190.722 72.1364C190.717 71.5208 190.838 70.9527 191.084 70.4318C191.33 69.9062 191.666 69.4683 192.092 69.1179C192.523 68.7628 193.004 68.5379 193.534 68.4432V68.358C192.838 68.178 192.284 67.7874 191.872 67.1861C191.46 66.58 191.257 65.8911 191.261 65.1193C191.257 64.3807 191.444 63.7202 191.822 63.1378C192.201 62.5554 192.722 62.0961 193.385 61.7599C194.053 61.4238 194.813 61.2557 195.665 61.2557C196.508 61.2557 197.26 61.4238 197.923 61.7599C198.586 62.0961 199.107 62.5554 199.486 63.1378C199.869 63.7202 200.063 64.3807 200.068 65.1193C200.063 65.8911 199.853 66.58 199.436 67.1861C199.024 67.7874 198.477 68.178 197.795 68.358V68.4432C198.321 68.5379 198.795 68.7628 199.216 69.1179C199.637 69.4683 199.973 69.9062 200.224 70.4318C200.475 70.9527 200.603 71.5208 200.608 72.1364C200.603 72.9223 200.39 73.6231 199.969 74.2386C199.552 74.8494 198.972 75.33 198.229 75.6804C197.49 76.026 196.635 76.1989 195.665 76.1989ZM195.665 74.6364C196.323 74.6364 196.891 74.5298 197.369 74.3168C197.848 74.1037 198.217 73.803 198.477 73.4148C198.738 73.0265 198.87 72.572 198.875 72.0511C198.87 71.5019 198.728 71.0166 198.449 70.5952C198.17 70.1738 197.788 69.8423 197.305 69.6009C196.827 69.3594 196.28 69.2386 195.665 69.2386C195.045 69.2386 194.491 69.3594 194.003 69.6009C193.52 69.8423 193.139 70.1738 192.859 70.5952C192.585 71.0166 192.45 71.5019 192.455 72.0511C192.45 72.572 192.575 73.0265 192.831 73.4148C193.091 73.803 193.463 74.1037 193.946 74.3168C194.429 74.5298 195.002 74.6364 195.665 74.6364ZM195.665 67.733C196.186 67.733 196.647 67.6288 197.05 67.4205C197.457 67.2121 197.777 66.9209 198.009 66.5469C198.241 66.1728 198.359 65.7348 198.364 65.233C198.359 64.7405 198.243 64.312 198.016 63.9474C197.788 63.5781 197.473 63.294 197.071 63.0952C196.669 62.8916 196.2 62.7898 195.665 62.7898C195.12 62.7898 194.644 62.8916 194.237 63.0952C193.83 63.294 193.515 63.5781 193.293 63.9474C193.07 64.312 192.961 64.7405 192.966 65.233C192.961 65.7348 193.072 66.1728 193.3 66.5469C193.532 66.9209 193.851 67.2121 194.259 67.4205C194.666 67.6288 195.134 67.733 195.665 67.733Z" fill="#AAAAAA"/>
<rect x="212" y="53" width="32" height="32" fill="white"/>
<rect x="212" y="53" width="32" height="32" stroke="#AAAAAA" stroke-width="2"/>
<path d="M223.96 76L230.466 63.1307V63.017H222.966V61.4545H232.284V63.1023L225.807 76H223.96Z" fill="#AAAAAA"/>
<rect x="244" y="53" width="32" height="32" fill="white"/>
<rect x="244" y="53" width="32" height="32" stroke="#AAAAAA" stroke-width="2"/>
<path d="M255.006 76V74.7216L259.807 69.4659C260.37 68.8504 260.834 68.3153 261.199 67.8608C261.563 67.4015 261.833 66.9706 262.009 66.5682C262.188 66.161 262.278 65.7348 262.278 65.2898C262.278 64.7784 262.155 64.3357 261.909 63.9616C261.668 63.5876 261.336 63.2988 260.915 63.0952C260.493 62.8916 260.02 62.7898 259.494 62.7898C258.936 62.7898 258.448 62.9058 258.031 63.1378C257.619 63.3651 257.3 63.6847 257.072 64.0966C256.85 64.5085 256.739 64.9915 256.739 65.5455H255.062C255.062 64.6932 255.259 63.9451 255.652 63.3011C256.045 62.6572 256.58 62.1553 257.257 61.7955C257.939 61.4356 258.704 61.2557 259.551 61.2557C260.403 61.2557 261.159 61.4356 261.817 61.7955C262.475 62.1553 262.991 62.6406 263.365 63.2514C263.739 63.8622 263.926 64.5417 263.926 65.2898C263.926 65.8248 263.829 66.348 263.635 66.8594C263.446 67.366 263.114 67.9318 262.641 68.5568C262.172 69.1771 261.521 69.9347 260.688 70.8295L257.42 74.3239V74.4375H264.182V76H255.006Z" fill="#AAAAAA"/>
<path d="M276 53H304C306.209 53 308 54.7909 308 57V81C308 83.2091 306.209 85 304 85H276V53Z" fill="white"/>
<path d="M276 53H304C306.209 53 308 54.7909 308 57V81C308 83.2091 306.209 85 304 85H276V53Z" stroke="#AAAAAA" stroke-width="2"/>
<path d="M286.665 73.017V71.5682L293.057 61.4545H294.108V63.6989H293.398L288.568 71.3409V71.4545H297.176V73.017H286.665ZM293.511 76V72.5767V71.902V61.4545H295.188V76H293.511Z" fill="#AAAAAA"/>
<path d="M116 105H144C146.209 105 148 106.791 148 109V133C148 135.209 146.209 137 144 137H116V105Z" fill="white"/>
<path d="M116 105H144C146.209 105 148 106.791 148 109V133C148 135.209 146.209 137 144 137H116V105Z" stroke="black" stroke-width="2"/>
<path d="M131.92 128.199C130.983 128.199 130.147 128.038 129.413 127.716C128.684 127.394 128.104 126.946 127.673 126.374C127.247 125.796 127.015 125.126 126.977 124.364H128.767C128.805 124.832 128.966 125.237 129.25 125.578C129.534 125.914 129.906 126.175 130.365 126.359C130.824 126.544 131.333 126.636 131.892 126.636C132.517 126.636 133.071 126.527 133.554 126.31C134.037 126.092 134.416 125.789 134.69 125.401C134.965 125.012 135.102 124.562 135.102 124.051C135.102 123.516 134.97 123.045 134.705 122.638C134.439 122.226 134.051 121.904 133.54 121.672C133.028 121.44 132.403 121.324 131.665 121.324H130.5V119.761H131.665C132.242 119.761 132.749 119.657 133.185 119.449C133.625 119.241 133.968 118.947 134.214 118.568C134.465 118.189 134.591 117.744 134.591 117.233C134.591 116.741 134.482 116.312 134.264 115.947C134.046 115.583 133.739 115.299 133.341 115.095C132.948 114.892 132.484 114.79 131.949 114.79C131.447 114.79 130.973 114.882 130.528 115.067C130.088 115.247 129.728 115.509 129.449 115.855C129.17 116.196 129.018 116.608 128.994 117.091H127.29C127.318 116.329 127.548 115.661 127.979 115.088C128.41 114.51 128.973 114.061 129.669 113.739C130.37 113.417 131.139 113.256 131.977 113.256C132.877 113.256 133.649 113.438 134.293 113.803C134.937 114.162 135.431 114.638 135.777 115.23C136.123 115.822 136.295 116.461 136.295 117.148C136.295 117.967 136.08 118.665 135.649 119.243C135.223 119.821 134.643 120.221 133.909 120.443V120.557C134.828 120.708 135.545 121.099 136.061 121.729C136.577 122.354 136.835 123.128 136.835 124.051C136.835 124.842 136.62 125.552 136.189 126.182C135.763 126.807 135.18 127.299 134.442 127.659C133.703 128.019 132.863 128.199 131.92 128.199Z" fill="black"/>
<path d="M172 109C172 106.791 173.791 105 176 105H204V137H176C173.791 137 172 135.209 172 133V109Z" fill="white"/>
<path d="M172 109C172 106.791 173.791 105 176 105H204V137H176C173.791 137 172 135.209 172 133V109Z" stroke="black" stroke-width="2"/>
<path d="M183.96 128L190.466 115.131V115.017H182.966V113.455H192.284V115.102L185.807 128H183.96Z" fill="black"/>
<path d="M204 105H232C234.209 105 236 106.791 236 109V133C236 135.209 234.209 137 232 137H204V105Z" fill="white"/>
<path d="M204 105H232C234.209 105 236 106.791 236 109V133C236 135.209 234.209 137 232 137H204V105Z" stroke="black" stroke-width="2"/>
<path d="M219.665 128.199C218.689 128.199 217.828 128.026 217.08 127.68C216.336 127.33 215.756 126.849 215.339 126.239C214.923 125.623 214.717 124.922 214.722 124.136C214.717 123.521 214.838 122.953 215.084 122.432C215.33 121.906 215.666 121.468 216.092 121.118C216.523 120.763 217.004 120.538 217.534 120.443V120.358C216.838 120.178 216.284 119.787 215.872 119.186C215.46 118.58 215.257 117.891 215.261 117.119C215.257 116.381 215.444 115.72 215.822 115.138C216.201 114.555 216.722 114.096 217.385 113.76C218.053 113.424 218.813 113.256 219.665 113.256C220.508 113.256 221.26 113.424 221.923 113.76C222.586 114.096 223.107 114.555 223.486 115.138C223.869 115.72 224.063 116.381 224.068 117.119C224.063 117.891 223.853 118.58 223.436 119.186C223.024 119.787 222.477 120.178 221.795 120.358V120.443C222.321 120.538 222.795 120.763 223.216 121.118C223.637 121.468 223.973 121.906 224.224 122.432C224.475 122.953 224.603 123.521 224.608 124.136C224.603 124.922 224.39 125.623 223.969 126.239C223.552 126.849 222.972 127.33 222.229 127.68C221.49 128.026 220.635 128.199 219.665 128.199ZM219.665 126.636C220.323 126.636 220.891 126.53 221.369 126.317C221.848 126.104 222.217 125.803 222.477 125.415C222.738 125.027 222.87 124.572 222.875 124.051C222.87 123.502 222.728 123.017 222.449 122.595C222.17 122.174 221.788 121.842 221.305 121.601C220.827 121.359 220.28 121.239 219.665 121.239C219.045 121.239 218.491 121.359 218.003 121.601C217.52 121.842 217.139 122.174 216.859 122.595C216.585 123.017 216.45 123.502 216.455 124.051C216.45 124.572 216.575 125.027 216.831 125.415C217.091 125.803 217.463 126.104 217.946 126.317C218.429 126.53 219.002 126.636 219.665 126.636ZM219.665 119.733C220.186 119.733 220.647 119.629 221.05 119.42C221.457 119.212 221.777 118.921 222.009 118.547C222.241 118.173 222.359 117.735 222.364 117.233C222.359 116.741 222.243 116.312 222.016 115.947C221.788 115.578 221.473 115.294 221.071 115.095C220.669 114.892 220.2 114.79 219.665 114.79C219.12 114.79 218.644 114.892 218.237 115.095C217.83 115.294 217.515 115.578 217.293 115.947C217.07 116.312 216.961 116.741 216.966 117.233C216.961 117.735 217.072 118.173 217.3 118.547C217.532 118.921 217.851 119.212 218.259 119.42C218.666 119.629 219.134 119.733 219.665 119.733Z" fill="black"/>
<path d="M252 109C252 106.791 253.791 105 256 105H284V137H256C253.791 137 252 135.209 252 133V109Z" fill="white"/>
<path d="M252 109C252 106.791 253.791 105 256 105H284V137H256C253.791 137 252 135.209 252 133V109Z" stroke="black" stroke-width="2"/>
<path d="M263.006 128V126.722L267.807 121.466C268.37 120.85 268.834 120.315 269.199 119.861C269.563 119.402 269.833 118.971 270.009 118.568C270.188 118.161 270.278 117.735 270.278 117.29C270.278 116.778 270.155 116.336 269.909 115.962C269.668 115.588 269.336 115.299 268.915 115.095C268.493 114.892 268.02 114.79 267.494 114.79C266.936 114.79 266.448 114.906 266.031 115.138C265.619 115.365 265.3 115.685 265.072 116.097C264.85 116.509 264.739 116.991 264.739 117.545H263.062C263.062 116.693 263.259 115.945 263.652 115.301C264.045 114.657 264.58 114.155 265.257 113.795C265.939 113.436 266.704 113.256 267.551 113.256C268.403 113.256 269.159 113.436 269.817 113.795C270.475 114.155 270.991 114.641 271.365 115.251C271.739 115.862 271.926 116.542 271.926 117.29C271.926 117.825 271.829 118.348 271.635 118.859C271.446 119.366 271.114 119.932 270.641 120.557C270.172 121.177 269.521 121.935 268.688 122.83L265.42 126.324V126.438H272.182V128H263.006Z" fill="black"/>
<path d="M284 105H312C314.209 105 316 106.791 316 109V133C316 135.209 314.209 137 312 137H284V105Z" fill="white"/>
<path d="M284 105H312C314.209 105 316 106.791 316 109V133C316 135.209 314.209 137 312 137H284V105Z" stroke="black" stroke-width="2"/>
<path d="M294.665 125.017V123.568L301.057 113.455H302.108V115.699H301.398L296.568 123.341V123.455H305.176V125.017H294.665ZM301.511 128V124.577V123.902V113.455H303.188V128H301.511Z" fill="black"/>
<path d="M84 109C84 106.791 85.7909 105 88 105H116V137H88C85.7909 137 84 135.209 84 133V109Z" fill="white"/>
<path d="M84 109C84 106.791 85.7909 105 88 105H116V137H88C85.7909 137 84 135.209 84 133V109Z" stroke="#EF4444" stroke-width="2"/>
<path d="M101.619 113.455V128H99.858V115.301H99.7727L96.2216 117.659V115.869L99.858 113.455H101.619Z" fill="#EF4444"/>
<path d="M12 57C12 54.7909 13.7909 53 16 53H44V85H16C13.7909 85 12 83.2091 12 81V57Z" fill="white"/>
<path d="M12 57C12 54.7909 13.7909 53 16 53H44V85H16C13.7909 85 12 83.2091 12 81V57Z" stroke="#EF4444" stroke-width="2"/>
<path d="M29.6193 61.4545V76H27.858V63.3011H27.7727L24.2216 65.6591V63.8693L27.858 61.4545H29.6193Z" fill="#EF4444"/>
</svg>
